<svg xmlns="http://www.w3.org/2000/svg" viewBox="0 0 269.88 269.83"><defs><style>.cls-1{fill:#49c998;}</style></defs><title>1K</title><g id="Layer_2" data-name="Layer 2"><g id="ICON"><path class="cls-1" d="M249.88,0H20A20,20,0,0,0,0,20V249.82a20,20,0,0,0,24.34,19.52l110.6-24.6,110.6,24.6a20,20,0,0,0,24.34-19.52V20A20,20,0,0,0,249.88,0ZM101,174.24q0,7-1.45,9.86-2.64,5.27-9.6,5.27t-9.6-5.27q-1.45-2.89-1.44-9.86V100.88l-9.95,9.94a41.38,41.38,0,0,1-4.17,3.78,11.56,11.56,0,0,1-3.23,1.66q-5.1,1.7-9.86-2.89-4.51-4.5-2.89-9.78.93-3,5.44-7.48L77.7,72.66Q83.39,67,89.6,67a11,11,0,0,1,8.16,3.14Q101,73.43,101,81.33Zm117.39,9a11.62,11.62,0,0,1-4.46,4.29,12.54,12.54,0,0,1-6.29,1.87,9.68,9.68,0,0,1-5.31-1.49,12.26,12.26,0,0,1-3.48-3.1q-1.15-1.61-3.1-5.1l-26.35-46.07-15.47,18.7v21.08a46.75,46.75,0,0,1-.3,6.29,14.53,14.53,0,0,1-1.32,4.08,10.05,10.05,0,0,1-4.12,4.08,13.18,13.18,0,0,1-12.32,0,10,10,0,0,1-4.12-4.08,14.5,14.5,0,0,1-1.32-4.08,46.61,46.61,0,0,1-.3-6.29V82.95a46.63,46.63,0,0,1,.3-6.29,14.52,14.52,0,0,1,1.32-4.08,10,10,0,0,1,4.12-4.08,13.18,13.18,0,0,1,12.32,0,10.05,10.05,0,0,1,4.12,4.08,14.55,14.55,0,0,1,1.32,4.08,46.77,46.77,0,0,1,.3,6.29v36.63l37.74-45.47a33,33,0,0,1,5.57-5.61A8.83,8.83,0,0,1,202.44,67a10.94,10.94,0,0,1,7.23,2.72,10.55,10.55,0,0,1,4.25,8.42,9.39,9.39,0,0,1-1.1,4.46,37.12,37.12,0,0,1-4.17,5.74L186,115.67,216,168.12q3.65,6.38,3.83,9.52A9.69,9.69,0,0,1,218.38,183.2Z"/></g></g></svg>