<svg xmlns="http://www.w3.org/2000/svg" viewBox="0 0 270.08 270.13"><defs><style>.cls-1{fill:#ffc24c;}</style></defs><title>Admin</title><g id="Layer_2" data-name="Layer 2"><g id="ICON"><path class="cls-1" d="M135,184.93q-64.23,0-128.46,0a8.76,8.76,0,0,1-3.14-.48A5.21,5.21,0,0,1,0,179.09c.06-11,.08-72,.14-83Q.34,63.9.56,31.66.62,22.85.7,14C.73,11,2.2,9.1,5,8.39a5,5,0,0,1,5.58,2.41c1.94,3,3.82,6.1,5.71,9.16L53.7,80.39q5.37,8.68,10.75,17.36a5.38,5.38,0,0,0,7.33,2.1,6.54,6.54,0,0,0,2.32-2.26q9.37-15.52,18.63-31.1Q111.66,34.78,130.57,3a5.63,5.63,0,0,1,8.23-2,7.06,7.06,0,0,1,1.7,2q20,32.42,40,64.87c5.9,9.57,11.84,19.12,17.67,28.73,1.89,3.12,5.17,4,7.69,2.51a7.38,7.38,0,0,0,2.46-2.52Q219.26,78.36,230.1,60q14.18-23.85,28.33-47.73a5.44,5.44,0,0,1,8.85-1.24A5.59,5.59,0,0,1,268.7,15q.14,17.29.32,34.57c.24,26.85.48,103.73.72,130.57a4.53,4.53,0,0,1-3.65,4.51,14,14,0,0,1-2.8.27Z"/><path class="cls-1" d="M135.14,210.4H263.21a6.53,6.53,0,0,1,6.66,4.9,6.85,6.85,0,0,1,.2,1.92c0,8.34,0,37.7,0,46,0,3.31-1.49,5.53-4.4,6.48a9.77,9.77,0,0,1-3,.37q-61.31,0-122.61,0H7.64a8,8,0,0,1-4.32-.89A6.22,6.22,0,0,1,0,263.75c0-8.63,0-38.28,0-46.92a6.46,6.46,0,0,1,6.75-6.43H135.14Z"/></g></g></svg>