<svg xmlns="http://www.w3.org/2000/svg" viewBox="0 0 91.19 91.19"><defs><style>.cls-1,.cls-2{fill:#ffdd4d;}.cls-1{opacity:0.3;}.cls-3{fill:#fff1b6;}.cls-4{fill:#ff9343;}</style></defs><title>Admin</title><g id="Layer_2" data-name="Layer 2"><g id="Layer_1-2" data-name="Layer 1"><circle class="cls-1" cx="45.59" cy="45.59" r="45.59"/><rect class="cls-2" x="65.59" y="39.59" width="4" height="4"/><rect class="cls-2" x="61.59" y="39.59" width="4" height="4"/><rect x="57.59" y="51.59" width="4" height="4"/><rect class="cls-2" x="57.59" y="47.59" width="4" height="4"/><rect class="cls-2" x="57.59" y="43.59" width="4" height="4"/><rect class="cls-2" x="57.59" y="39.59" width="4" height="4"/><rect class="cls-3" x="57.59" y="35.59" width="4" height="4"/><rect x="57.59" y="31.59" width="4" height="4"/><rect class="cls-2" x="53.59" y="55.59" width="4" height="4"/><rect x="53.59" y="51.59" width="4" height="4"/><rect class="cls-2" x="53.59" y="47.59" width="4" height="4"/><rect class="cls-2" x="53.59" y="43.59" width="4" height="4"/><rect x="65.59" y="51.59" width="4" height="4"/><rect class="cls-2" x="65.59" y="47.59" width="4" height="4"/><rect class="cls-2" x="65.59" y="43.59" width="4" height="4"/><rect x="61.59" y="51.59" width="4" height="4"/><rect class="cls-2" x="57.59" y="55.59" width="4" height="4"/><rect class="cls-2" x="65.59" y="55.59" width="4" height="4"/><rect class="cls-2" x="61.59" y="55.59" width="4" height="4"/><rect class="cls-4" x="53.59" y="59.59" width="4" height="4"/><rect class="cls-4" x="57.59" y="59.59" width="4" height="4"/><rect class="cls-4" x="65.59" y="59.59" width="4" height="4"/><rect class="cls-4" x="61.59" y="59.59" width="4" height="4"/><rect class="cls-2" x="61.59" y="47.59" width="4" height="4"/><rect class="cls-2" x="61.59" y="43.59" width="4" height="4"/><rect class="cls-3" x="53.59" y="39.59" width="4" height="4"/><rect x="53.59" y="35.59" width="4" height="4"/><rect x="53.59" y="31.59" width="4" height="4"/><rect class="cls-4" x="49.59" y="59.59" width="4" height="4"/><rect class="cls-2" x="49.59" y="55.59" width="4" height="4"/><rect x="49.59" y="51.59" width="4" height="4"/><rect class="cls-2" x="49.59" y="47.59" width="4" height="4"/><rect class="cls-2" x="49.59" y="43.59" width="4" height="4"/><rect class="cls-4" x="49.59" y="39.59" width="4" height="4"/><rect class="cls-3" x="49.59" y="35.59" width="4" height="4"/><rect class="cls-3" x="49.59" y="31.59" width="4" height="4"/><rect x="49.59" y="27.59" width="4" height="4"/><rect x="49.59" y="23.59" width="4" height="4"/><rect class="cls-2" x="65.59" y="35.59" width="4" height="4"/><rect class="cls-2" x="65.59" y="31.59" width="4" height="4"/><rect class="cls-3" x="65.59" y="27.59" width="4" height="4"/><rect class="cls-2" x="61.59" y="35.59" width="4" height="4"/><rect class="cls-3" x="61.59" y="31.59" width="4" height="4"/><rect x="61.59" y="27.59" width="4" height="4"/><rect x="65.59" y="23.59" width="4" height="4"/><rect class="cls-4" x="45.59" y="59.59" width="4" height="4"/><rect class="cls-2" x="45.59" y="55.59" width="4" height="4"/><rect x="45.59" y="51.59" width="4" height="4"/><rect class="cls-2" x="45.59" y="47.59" width="4" height="4"/><rect class="cls-2" x="45.59" y="43.59" width="4" height="4"/><rect class="cls-2" x="45.59" y="39.59" width="4" height="4"/><rect class="cls-2" x="45.59" y="35.59" width="4" height="4"/><rect class="cls-2" x="45.59" y="31.59" width="4" height="4"/><rect class="cls-2" x="45.59" y="27.59" width="4" height="4"/><rect class="cls-3" x="45.59" y="23.59" width="4" height="4"/><rect x="45.59" y="19.59" width="4" height="4"/><rect class="cls-4" x="41.59" y="59.59" width="4" height="4"/><rect class="cls-2" x="41.59" y="55.59" width="4" height="4"/><rect x="41.59" y="51.59" width="4" height="4"/><rect class="cls-2" x="41.59" y="47.59" width="4" height="4"/><rect class="cls-2" x="41.59" y="43.59" width="4" height="4"/><rect class="cls-2" x="41.59" y="39.59" width="4" height="4"/><rect class="cls-2" x="41.59" y="35.59" width="4" height="4"/><rect class="cls-2" x="41.59" y="31.59" width="4" height="4"/><rect class="cls-3" x="41.59" y="27.59" width="4" height="4"/><rect class="cls-3" x="41.59" y="23.59" width="4" height="4"/><rect x="41.59" y="19.59" width="4" height="4"/><rect class="cls-4" x="37.59" y="59.59" width="4" height="4"/><rect class="cls-2" x="37.59" y="55.59" width="4" height="4"/><rect x="37.59" y="51.59" width="4" height="4"/><rect class="cls-2" x="37.59" y="47.59" width="4" height="4"/><rect class="cls-2" x="37.59" y="43.59" width="4" height="4"/><rect class="cls-4" x="37.59" y="39.59" width="4" height="4"/><rect class="cls-3" x="37.59" y="35.59" width="4" height="4"/><rect class="cls-3" x="37.59" y="31.59" width="4" height="4"/><rect x="37.59" y="27.59" width="4" height="4"/><rect x="37.59" y="23.59" width="4" height="4"/><rect class="cls-4" x="33.59" y="59.59" width="4" height="4"/><rect class="cls-2" x="33.59" y="55.59" width="4" height="4"/><rect x="33.59" y="51.59" width="4" height="4"/><rect class="cls-2" x="33.59" y="47.59" width="4" height="4"/><rect class="cls-2" x="33.59" y="43.59" width="4" height="4"/><rect class="cls-3" x="33.59" y="39.59" width="4" height="4"/><rect x="33.59" y="35.59" width="4" height="4"/><rect x="33.59" y="31.59" width="4" height="4"/><rect class="cls-4" x="29.59" y="59.59" width="4" height="4"/><rect class="cls-2" x="29.59" y="55.59" width="4" height="4"/><rect x="29.59" y="51.59" width="4" height="4"/><rect class="cls-2" x="29.59" y="47.59" width="4" height="4"/><rect class="cls-2" x="29.59" y="43.59" width="4" height="4"/><rect class="cls-2" x="29.59" y="39.59" width="4" height="4"/><rect class="cls-3" x="29.59" y="35.59" width="4" height="4"/><rect x="29.59" y="31.59" width="4" height="4"/><rect class="cls-2" x="25.59" y="39.59" width="4" height="4"/><rect class="cls-2" x="25.59" y="35.59" width="4" height="4"/><rect class="cls-3" x="25.59" y="31.59" width="4" height="4"/><rect x="25.59" y="27.59" width="4" height="4"/><rect class="cls-2" x="21.59" y="39.59" width="4" height="4"/><rect class="cls-2" x="21.59" y="35.59" width="4" height="4"/><rect class="cls-2" x="21.59" y="31.59" width="4" height="4"/><rect class="cls-3" x="21.59" y="27.59" width="4" height="4"/><rect x="17.59" y="39.59" width="4" height="4"/><rect x="17.59" y="35.59" width="4" height="4"/><rect x="17.59" y="31.59" width="4" height="4"/><rect x="17.59" y="27.59" width="4" height="4"/><rect x="21.59" y="23.59" width="4" height="4"/><rect x="17.59" y="23.59" width="4" height="4"/><rect class="cls-2" x="25.59" y="55.59" width="4" height="4"/><rect x="25.59" y="51.59" width="4" height="4"/><rect class="cls-2" x="25.59" y="47.59" width="4" height="4"/><rect class="cls-2" x="21.59" y="47.59" width="4" height="4"/><rect class="cls-2" x="25.59" y="43.59" width="4" height="4"/><rect x="21.59" y="51.59" width="4" height="4"/><rect x="17.59" y="51.59" width="4" height="4"/><rect class="cls-2" x="21.59" y="55.59" width="4" height="4"/><rect x="17.59" y="55.59" width="4" height="4"/><rect class="cls-4" x="25.59" y="59.59" width="4" height="4"/><rect class="cls-4" x="21.59" y="59.59" width="4" height="4"/><rect x="17.59" y="59.59" width="4" height="4"/><rect x="53.59" y="63.59" width="4" height="4"/><rect x="57.59" y="63.59" width="4" height="4"/><rect x="65.59" y="63.59" width="4" height="4"/><rect x="69.59" y="39.59" width="4" height="4"/><rect x="69.59" y="51.59" width="4" height="4"/><rect x="69.59" y="47.59" width="4" height="4"/><rect x="69.59" y="43.59" width="4" height="4"/><rect x="69.59" y="55.59" width="4" height="4"/><rect x="69.59" y="59.59" width="4" height="4"/><rect x="69.59" y="35.59" width="4" height="4"/><rect x="69.59" y="31.59" width="4" height="4"/><rect x="69.59" y="27.59" width="4" height="4"/><rect x="69.59" y="23.59" width="4" height="4"/><rect x="69.59" y="63.59" width="4" height="4"/><rect x="61.59" y="63.59" width="4" height="4"/><rect x="49.59" y="63.59" width="4" height="4"/><rect x="45.59" y="63.59" width="4" height="4"/><rect x="41.59" y="63.59" width="4" height="4"/><rect x="37.59" y="63.59" width="4" height="4"/><rect x="33.59" y="63.59" width="4" height="4"/><rect x="29.59" y="63.59" width="4" height="4"/><rect x="25.59" y="63.59" width="4" height="4"/><rect x="21.59" y="63.59" width="4" height="4"/><rect x="17.59" y="63.59" width="4" height="4"/><rect x="17.59" y="47.59" width="4" height="4"/><rect class="cls-2" x="21.59" y="43.59" width="4" height="4"/><rect x="17.59" y="43.59" width="4" height="4"/></g></g></svg>