<?xml version="1.0" encoding="utf-8"?>
<!-- Generator: Adobe Illustrator 27.0.1, SVG Export Plug-In . SVG Version: 6.00 Build 0)  -->
<svg version="1.1" id="Layer_2" xmlns="http://www.w3.org/2000/svg" xmlns:xlink="http://www.w3.org/1999/xlink" x="0px" y="0px"
	 viewBox="0 0 1100 162" style="enable-background:new 0 0 1100 162;" xml:space="preserve">
<style type="text/css">
	.st0{clip-path:url(#SVGID_00000181045497456918145910000016788426408973494434_);}
	.st1{fill:#FFFFFF;}
	.st2{opacity:0.1;fill:url(#SVGID_00000103263588149909284420000014304887277908916650_);enable-background:new    ;}
	.st3{opacity:0.2;fill:none;stroke:#49C998;enable-background:new    ;}
</style>
<g>
	<g>
		<defs>
			<rect id="SVGID_1_" width="1100" height="162"/>
		</defs>
		<clipPath id="SVGID_00000145776566505177350190000007660734021122406325_">
			<use xlink:href="#SVGID_1_"  style="overflow:visible;"/>
		</clipPath>
		<g style="clip-path:url(#SVGID_00000145776566505177350190000007660734021122406325_);">
			<path class="st1" d="M1090,1H10C4.5,1,0,5.5,0,11v140c0,5.5,4.5,10,10,10h1080c5.5,0,10-4.5,10-10V11C1100,5.5,1095.5,1,1090,1z"
				/>
		</g>
	</g>
	
		<linearGradient id="SVGID_00000020379462284917589330000002486281384600558238_" gradientUnits="userSpaceOnUse" x1="544.61" y1="83" x2="464.7402" y2="83" gradientTransform="matrix(1 0 0 -1 0 164)">
		<stop  offset="0" style="stop-color:#49C998"/>
		<stop  offset="1" style="stop-color:#49C998;stop-opacity:0"/>
	</linearGradient>
	<path style="opacity:0.1;fill:url(#SVGID_00000020379462284917589330000002486281384600558238_);enable-background:new    ;" d="
		M464.7,11c0-5.5,4.5-10,10-10h45.4l32,76.1c1,2.5,1,5.3,0,7.7l-32,76.1h-45.4c-5.5,0-10-4.5-10-10V11z"/>
	<path class="st3" d="M520.7,1l32,76.1c1,2.5,1,5.3,0,7.7l-32,76.1"/>
</g>
</svg>
