<svg width="13" height="20" viewBox="0 0 13 20" fill="none" xmlns="http://www.w3.org/2000/svg">
<path fill-rule="evenodd" clip-rule="evenodd" d="M1.625 6.5C1.625 3.80761 3.80761 1.625 6.5 1.625C9.19239 1.625 11.375 3.80761 11.375 6.5C11.375 8.19121 10.5138 9.68128 9.20605 10.5556C9.15971 10.5796 9.11615 10.6078 9.07581 10.6397C8.32842 11.1057 7.44565 11.375 6.5 11.375C3.80761 11.375 1.625 9.19239 1.625 6.5ZM8.92623 12.5321C8.17656 12.8339 7.35768 13 6.5 13C5.64266 13 4.8241 12.834 4.07468 12.5324L3.46488 17.1236L6.08199 15.5533C6.3393 15.3989 6.66074 15.3989 6.91805 15.5533L9.53542 17.1237L8.92623 12.5321ZM2.55086 11.6632C1.00006 10.4753 0 8.60442 0 6.5C0 2.91015 2.91015 0 6.5 0C10.0899 0 13 2.91015 13 6.5C13 8.60399 12.0003 10.4745 10.4501 11.6625L11.368 18.5806C11.409 18.8899 11.2693 19.1953 11.0086 19.3666C10.7478 19.5379 10.412 19.5447 10.1445 19.3842L6.50002 17.1975L2.85555 19.3842C2.58801 19.5447 2.25219 19.5379 1.99143 19.3666C1.73066 19.1953 1.59101 18.8898 1.63209 18.5805L2.55086 11.6632Z" fill="#B0B7BC"/>
</svg>
