<svg width="16" height="16" viewBox="0 0 16 16" fill="none" xmlns="http://www.w3.org/2000/svg">
<path d="M0 2C0 0.895431 0.895431 0 2 0H14C15.1046 0 16 0.895431 16 2V14C16 15.1046 15.1046 16 14 16H2C0.895431 16 0 15.1046 0 14V2Z" fill="#618AFF"/>
<path d="M13.6649 5.81615L7.76839 11.381C7.56014 11.5743 7.29239 11.6739 7.02463 11.6739C6.75688 11.6739 6.48913 11.5743 6.28088 11.381L3.32968 8.59858C2.90127 8.19439 2.88937 7.52661 3.29993 7.10485C3.71048 6.6831 4.38878 6.67138 4.81718 7.07556L7.02463 9.16092L12.1773 4.29314C12.6057 3.88895 13.2841 3.90653 13.6946 4.32243C14.1052 4.74418 14.0933 5.41197 13.6649 5.81615Z" fill="white"/>
</svg>
