<?xml version="1.0" encoding="utf-8"?>
<!-- Generator: Adobe Illustrator 21.1.0, SVG Export Plug-In . SVG Version: 6.00 Build 0)  -->
<svg version="1.1" id="Layer_1" xmlns="http://www.w3.org/2000/svg" xmlns:xlink="http://www.w3.org/1999/xlink" x="0px" y="0px"
	 viewBox="0 0 200 200" style="enable-background:new 0 0 200 200;" xml:space="preserve">
<style type="text/css">
	.st0{fill:#191919;}
	.st1{fill:#618AFF;}
</style>
<path class="st0" d="M65.1,121.1c0.3-1.7-0.8-2.2-2.3-15.9c-0.1-0.9-1.4-1-1.4,0c0,4,0.3,8.1,1,12.1c0.6,2.8,0.7,3.4,1.1,4
	C64,121.7,65,121.8,65.1,121.1z"/>
<path class="st0" d="M91.4,35.3c0.4,0.5,0.9,1,1.4,1.4c-1.1,2.9-2,5.9-2.7,8.9c-1.8,6.2-3.7,13.7-0.1,18.9c2.1,3.1,5.8,4.9,9.4,5.7
	c0.6,0.2,1.1,0.3,1.7,0.3c-0.2,0.7-0.4,1.5-0.6,2.3c-0.4-0.1-6.5-0.4-8-0.4c-0.7,0-1,1.3-0.1,1.4c1,0.2,2.1,0.3,3.1,0.3
	c-0.3,2.6,0.3,5.2,1.7,7.4c1.7,2.8,4.6,4.4,7.7,5.3c10.6,3,20.9-2.8,23.4-11.8c0.8,0.2,1.6,0.3,2.4,0.3c0.5,0,1-0.4,1-0.9
	c0,0,0,0,0-0.1c0-1.4-2-1-6.4-1.7c0.4-2.7,0.9-5.3,1.6-8c1.3-5,2.3-7.4,2.3-7.8c1-0.3,5.1-1.8,5.3-5.1c1.1,0.1,2.1-0.4,2.8-1.1
	c0.9-0.9,1.5-2,1.8-3.3c0.1-0.9,0.6-3.3,0.1-4.4c1-1.7,1.9-3.4,2.8-5c2.9-4.7,4.1-9.2,3-14.5c-0.4-2.9-2.7-7.3-4.7-9.5
	c-3.7-4.1-8.6-6.9-13.9-8.1c-6.2-1.3-12.6-1-18.6,1c-1.4,0.4-3,0.6-4.3,1.4c-1.2,0.9-2.2,1.9-3.1,3.1c-1.5,2.2-2.9,4.6-4.1,7
	c-0.8-0.1-1.6-0.2-2.4-0.1c-2.2-0.1-4.4,0.5-6.2,1.8c-0.9,0.7-1.6,1.6-2,2.7C84.7,26.6,88.9,32.2,91.4,35.3z M128.1,55.1
	c-0.6,0.8-1.1,1.7-1.3,2.7c-1.5,4.9-4.1,14.3-3.6,15.9c0.4,1,1.8,0.4,2.8,0.9c-1.3,3.8-4,7-7.5,8.9c-6.1,3.3-14.7,2.7-19-1.7
	c-2.1-2-3.1-4.8-2.7-7.7c1.6,0.2,3.1,0.4,4.7,0.4c0.3-0.1,0.9-3,1-4c3,0.4,6.1,0.1,8.9-0.9c0.4-0.1,0.9-0.3,1-0.7
	c0.1-0.5-0.2-1.1-0.7-1.3c-1.3-0.4-6.6,1.6-13.8-0.9c-6.5-2.2-7.9-5.6-7.2-12.1c0.6-6.6,2.9-13.7,5.1-20.5c0.6-2.3,1.3-4.5,2.1-6.7
	c2.8,1.8,10.8,4.1,21,3.6c0,0,1,5.3,4.5,7.5c0,0-0.7,7.2-1,10.2c-0.2,0.8-0.1,1.6,0.4,2.3c0.9,0.9,2.6,0.1,3.1-1
	C130.2,43,136.7,53.8,128.1,55.1z M143.1,27.7c-0.2,3-1.1,5.9-2.7,8.5c-1.1,2-2.1,4-3.3,5.8c-0.5,1,0.9,1.1,0,4.7
	c-0.9-1.5-1.9-2.9-3-4.3c-3.9-5-8.7-9.4-14.1-12.8c-2.4-1.6-4.8-3.1-7.4-4.5c0.5-1.4,3.3-7.9,4.4-8.9c0.9-0.3,1.9-0.5,2.8-0.7
	c7.1-1.5,15.3-0.3,19.2,1.7l1.3,0.9C142.3,20.9,143.3,24.2,143.1,27.7z M105,9.9c0.5-0.2,1-0.3,1.6-0.4c1.4-0.3,2.8-0.9,4.3-1.1
	l4.3-0.9c2.9-0.4,5.8-0.3,8.7,0.1c9.5,1.8,13.8,6.7,13.9,6.8c-2.9-0.8-5.9-1.3-8.9-1.7c-2.9-0.2-5.8,0-8.7,0.4
	c-1.2,0.2-2.4,0.5-3.6,0.9c-3-1.5-5.8-2.8-8.9-3.1c-0.9-0.1-1.3,1.1-0.4,1.4c2.1,0.7,4.2,1.6,6.3,2.6c0.4,0.3,0.9,0.6,1.4,0.7
	c0,0.1-1,1.6-1.3,2.3c-0.7,1.4-2.6,5.5-2.8,6.3c-3.9-2.3-8.2-4.1-12.6-5.1C100.4,15.5,102,11.9,105,9.9z M88.4,22.6
	c1-1.4,3.1-1.8,4.7-2c0.8-0.1,1.7-0.1,2.6,0c-1,2-0.6,4.5,1,6.1c0,0-2.1,5.5-3.1,8.2c-0.6-0.7-1.1-1.6-1.7-2.3
	c-1.8-2.2-3.1-4.8-3.8-7.5C87.9,24.2,88,23.3,88.4,22.6z"/>
<path class="st1" d="M94.4,70.9l-6.7,29.5l37.2,6.3l6.4-35.8l7.4,1.3c0,0-10.1,41.8,3.3,57.4c-4.6,2-9.4,3.5-14.3,4.4
	c-12.8,2.6-45.8,7-62.6,19.3c-2.4,1.7-4.3-1.1-7.1,0l4.5-37.1c11.1-4.3,20.2-31.8,25.1-46.6L94.4,70.9z"/>
<path class="st1" d="M17.1,157.5v35.2h32.4l-25-35.2H17.1z"/>
<path class="st1" d="M49.2,157.5l25.1,35.2h30.8l-25-35.2H49.2z"/>
<path class="st1" d="M104.5,157.5l25,35.2h31l-25.1-35.2H104.5z"/>
<path class="st1" d="M184,192.7h3.3v-35.2h-28.4L184,192.7z"/>
<path class="st0" d="M188.4,152.2h-17.3c0.3-0.3,0.6-0.6,1-0.9c2-1.9,3.7-4.2,4.8-6.7c1.3-3.2,2-6.6,2.1-10.1
	c0.4-7.2-0.1-14.5-1.6-21.6c-1.3-6.7-3.1-13.4-6.8-19.2c-6.3-9.8-17.2-16-28.4-19.3c-1.4-0.4-2.7-0.7-4.1-1.1
	c-0.9-0.1-1.3,1-0.4,1.3c5.5,1.6,10.9,3.7,16.1,6.4c12.4,6.8,17.8,15.4,20.7,27.7c1.7,6.8,2.5,13.8,2.6,20.9
	c0,9.8-1.2,17.1-9.3,22.6H33c0.2-9.9,2.4-26.8,5.2-36.6c0.7-2.4,1.5-4.7,2.4-7.1c1.6-4.6,3.6-8.9,6.1-13.1
	c7.9-12.7,21-18.9,35.7-20.9c1.1-0.2,2.4-0.4,3.7-0.6c0.9-0.1,0.6-1.4-0.1-1.4c-8.9,0.3-17.7,2.6-25.6,6.8
	c-10.8,6.1-17,15.2-21.3,26.8c-2.3,5.8-3.9,11.8-5,17.9c-1.8,8.8-2.8,17.7-3.1,26.7c0,0.5,0,0.9,0,1.4H11.6c-0.6,0-1.1,0.5-1.1,1.1
	c0,0,0,0,0,0v40.5c0,0.6,0.5,1.1,1.1,1.1c0,0,0,0,0,0h176.8c0.6,0,1.1-0.5,1.1-1.1c0,0,0,0,0,0v-40.5
	C189.4,152.7,189,152.2,188.4,152.2z M187.3,192.7H12.9v-38.4h174.4L187.3,192.7z"/>
<path class="st0" d="M114.8,41.2c-0.9-0.1-1.8,0.7-2,2s0.4,2.4,1.3,2.6s1.8-0.7,2-2S115.7,41.3,114.8,41.2z"/>
<path class="st0" d="M97.7,39.6c-0.9-0.1-1.8,0.7-2,2s0.4,2.4,1.3,2.6s1.8-0.7,2-2S98.5,39.7,97.7,39.6z"/>
<path class="st0" d="M117.8,37.5c-0.5-1.1-1.6-1.8-2.8-1.8c-1.5-0.1-3,0.8-3.7,2.1c-0.2,0.4-0.1,0.8,0.1,1.1c0.8,0.8,2-0.7,3.8-0.1
	c0.7,0.3,1.3,0.9,2,0.9C118.3,39.6,118,38,117.8,37.5z"/>
<path class="st0" d="M100.6,37.2c0.8,0.4,1.7-0.8,0.9-2.4c-0.2-0.4-0.5-0.6-0.9-0.9c-1.3-0.8-3-0.6-4.1,0.4C96,34.9,95.1,36,96,36.6
	c0.4,0.3,0.7,0.1,1.1,0C98.3,36.5,99.5,36.7,100.6,37.2z"/>
<path class="st0" d="M108.6,54.2c-0.4,0.1-0.7,0.5-0.7,1c0.6,4-4.7,4.4-5.1,1.6c-0.1-0.9-1.4-0.7-1.6,0c-0.4,1.9,2,4.5,5.3,3.7
	c2.4-0.7,3.7-3.2,3.1-5.5c0-0.4-0.3-0.8-0.8-0.7C108.7,54.2,108.7,54.2,108.6,54.2z"/>
<path class="st0" d="M104.6,51.3c0.5,0,0.9-0.4,0.8-0.9c0-0.3-0.2-0.6-0.5-0.8c-0.6-0.1-3-0.6-3.1-0.6c0-0.1,1.9-7.5,1.7-8.2
	c-0.1-0.6-0.9-0.9-1.1-0.3s-1.7,6-2,7.2c-0.1,1-0.7,2.5,0.6,2.8C102.1,50.8,103.4,51.1,104.6,51.3z"/>
<path class="st0" d="M128.9,134.2c4.5-1,9-2.3,13.4-3.8c1.4-0.6,2.7-1.1,4.1-1.8c0.7-0.3,0.3-1.6-0.6-1.3s-1.7,0.6-2.7,0.9
	c0-2-0.4-6.5-0.6-7.5c-0.4-2.9-1.1-5.8-2.1-8.5c-0.3-0.7-1.4-0.4-1.1,0.3c0.6,2.8,1.1,5.5,1.4,8.4c0.1,1.4,0.4,7.4,0.6,8
	c-3,0.9-7,2.4-27.4,6.5c-17.7,3.5-34.6,6.7-49.9,17c-0.4,0.3-0.6,0.8-0.3,1.3c0.3,0.4,0.9,0.7,1.3,0.3
	C83.8,140.9,106.5,139.4,128.9,134.2z"/>
<path class="st0" d="M134.2,32.4c-0.7-0.7-1.3-1.4-2-2.1c-1.4-1.3-2.7-2.5-4.3-3.7c-3-2.4-6.2-4.5-9.7-6.1c-0.9-0.3-1.4,0.7-0.7,1.1
	c5.3,3.3,8.8,5.2,13.4,9.8c2.5,2.5,2.6,3.1,3.8,4.1c0.7,0.6,1.8-0.1,1.4-1C135.6,33.8,134.7,33.1,134.2,32.4z"/>
</svg>
