<svg width="20" height="10" viewBox="0 0 20 10" fill="none" xmlns="http://www.w3.org/2000/svg">
<path d="M14.5977 0.402344C15.8581 0.402344 16.9323 0.860677 17.8203 1.77734C18.7083 2.66536 19.1523 3.73958 19.1523 5C19.1523 6.26042 18.7083 7.34896 17.8203 8.26562C16.9323 9.15365 15.8581 9.59766 14.5977 9.59766H10.9023V7.83594H14.5977C15.3711 7.83594 16.0299 7.5638 16.5742 7.01953C17.1471 6.44661 17.4336 5.77344 17.4336 5C17.4336 4.22656 17.1471 3.56771 16.5742 3.02344C16.0299 2.45052 15.3711 2.16406 14.5977 2.16406H10.9023V0.402344H14.5977ZM6.34766 5.90234V4.09766H13.6523V5.90234H6.34766ZM3.38281 3.02344C2.83854 3.56771 2.56641 4.22656 2.56641 5C2.56641 5.77344 2.83854 6.44661 3.38281 7.01953C3.95573 7.5638 4.62891 7.83594 5.40234 7.83594H9.09766V9.59766H5.40234C4.14193 9.59766 3.06771 9.15365 2.17969 8.26562C1.29167 7.34896 0.847656 6.26042 0.847656 5C0.847656 3.73958 1.29167 2.66536 2.17969 1.77734C3.06771 0.860677 4.14193 0.402344 5.40234 0.402344H9.09766V2.16406H5.40234C4.62891 2.16406 3.95573 2.45052 3.38281 3.02344Z" fill="#B0B7BC"/>
</svg>
