<svg width="18" height="22" viewBox="0 0 18 22" fill="none" xmlns="http://www.w3.org/2000/svg">
<path d="M17.2032 0H5.09588C4.65604 0 4.29907 0.367761 4.29907 0.820896V4.42901H0.796813C0.356972 4.42901 0 4.79677 0 5.2499V21.1791C0 21.6322 0.356972 22 0.796813 22H12.9041C13.344 22 13.7009 21.6322 13.7009 21.1791V17.571H17.2032C17.643 17.571 18 17.2032 18 16.7501V0.820896C18 0.367761 17.643 0 17.2032 0ZM12.1073 20.3582H1.59363V6.0708H12.1073V20.3582ZM16.4064 15.9292H13.7009V5.2499C13.7009 4.79677 13.344 4.42901 12.9041 4.42901H5.8927V1.64179H16.4064V15.9292Z" fill="#909BAA"/>
</svg>
