<svg width="15" height="18" viewBox="0 0 15 18" fill="none" xmlns="http://www.w3.org/2000/svg">
<path d="M13.2383 15.75V5.23828H5.01172V15.75H13.2383ZM13.2383 3.76172C13.6367 3.76172 13.9883 3.91406 14.293 4.21875C14.5977 4.5 14.75 4.83984 14.75 5.23828V15.75C14.75 16.1484 14.5977 16.5 14.293 16.8047C13.9883 17.1094 13.6367 17.2617 13.2383 17.2617H5.01172C4.61328 17.2617 4.26172 17.1094 3.95703 16.8047C3.65234 16.5 3.5 16.1484 3.5 15.75V5.23828C3.5 4.83984 3.65234 4.5 3.95703 4.21875C4.26172 3.91406 4.61328 3.76172 5.01172 3.76172H13.2383ZM10.9883 0.738281V2.25H1.98828V12.7617H0.511719V2.25C0.511719 1.85156 0.652344 1.5 0.933594 1.19531C1.23828 0.890625 1.58984 0.738281 1.98828 0.738281H10.9883Z" fill="#B0B7BC"/>
</svg>
