<svg width="80" height="80" viewBox="0 0 80 80" fill="none" xmlns="http://www.w3.org/2000/svg">
<circle cx="40" cy="40" r="40" fill="#F5F8FF"/>
<path fill-rule="evenodd" clip-rule="evenodd" d="M70.7106 65.6309C76.5099 58.6896 80 49.7524 80 40C80 17.9086 62.0914 0 40 0C17.9086 0 0 17.9086 0 40C0 50.7442 4.23611 60.4991 11.1293 67.6855L11.5 66.4991L12.5 59.9991L18 55.9991L28 52.4991L33.5 48.4991V43.4991L28 34.9991L27.5 27.9991L29.5 18.4991L37.5 13.4991L46 14.4991L52.5 15.4991L53 20.9991L54 28.9991L53.5 34.4991L47.5 44.9991L48.5 50.4991L60 54.4991L67.5 58.4991L70.5 63.9991L70.7106 65.6309Z" fill="#D8E8FF"/>
<mask id="mask0_5594_10151" style="mask-type:alpha" maskUnits="userSpaceOnUse" x="0" y="0" width="80" height="80">
<circle cx="40" cy="40" r="40" fill="#618AFF"/>
</mask>
<g mask="url(#mask0_5594_10151)">
<path d="M71.5885 88.3708C74.4288 88.3708 77.2027 88.3708 79.9765 88.374C80.176 88.374 80.3818 88.393 80.5749 88.45C81.1892 88.6304 81.6167 89.2194 81.5629 89.7672C81.4964 90.4163 80.9517 90.942 80.2836 90.9958C80.1601 91.0053 80.0335 90.9958 79.9068 90.9958C53.7961 90.9958 27.6823 90.9958 1.57164 90.9958C1.38482 90.9958 1.19167 91.0021 1.01118 90.9578C0.358885 90.7995 -0.119251 90.1788 -0.062255 89.5994C0.00740722 88.8964 0.599536 88.3708 1.35949 88.3676C3.49052 88.3613 5.62155 88.3676 7.75575 88.3676C8.4587 88.3676 9.15849 88.3676 9.83611 88.3676C9.66513 87.7628 9.41181 87.1897 9.36114 86.6007C9.28515 85.7173 9.31681 84.8244 9.36114 83.9346C9.46564 81.8225 9.59546 79.7137 9.72529 77.6016C9.91211 74.603 10.1053 71.6012 10.2984 68.6026C10.3871 67.2125 10.4219 65.8161 10.5771 64.4355C10.9475 61.1487 12.4516 58.4825 15.0893 56.4687C17.2203 54.8443 19.687 54.002 22.2487 53.3687C24.842 52.7259 27.3973 51.9596 29.7405 50.6424C30.5226 50.2022 31.2477 49.6386 31.938 49.056C32.584 48.5113 32.9165 47.7799 32.8595 46.8933C32.8215 46.317 32.8151 45.7312 32.8626 45.1549C32.9038 44.6577 32.7265 44.3031 32.3972 43.9548C30.8741 42.3431 29.8735 40.44 29.351 38.2868C29.2814 37.9987 29.1737 37.8118 28.8856 37.6599C27.3308 36.8366 26.6215 35.4465 26.3619 33.7683C26.1782 32.584 26.2891 31.4346 26.7007 30.3105C26.745 30.187 26.7482 30.0318 26.7292 29.8957C26.5962 28.9711 26.3746 28.0496 26.3334 27.1219C26.2447 25.203 26.0991 23.2746 26.6215 21.3811C27.2295 19.174 28.5088 17.4705 30.4118 16.2007C30.8963 15.8777 31.3332 15.4661 31.7259 15.0355C33.2268 13.3952 35.1362 12.5878 37.2767 12.2838C38.3881 12.1255 39.5154 12.0178 40.6363 12.002C42.5837 11.9735 44.4994 12.249 46.3391 12.9298C48.1092 13.5852 49.9331 13.848 51.8139 13.791C52.1116 13.7815 52.4124 13.8037 52.7069 13.7752C53.8215 13.6707 54.3059 14.2502 54.3819 15.3141C54.4548 16.3432 54.2806 17.3343 53.8595 18.2874C53.7803 18.4679 53.7771 18.7529 53.8626 18.9239C54.7588 20.7161 55.1736 22.6192 55.2369 24.6109C55.2907 26.3207 55.1767 28.0148 54.7841 29.6899C54.7271 29.9274 54.7904 30.2155 54.8664 30.4593C55.4902 32.4574 55.354 34.3762 54.2585 36.1843C53.8436 36.8714 53.2199 37.3432 52.5264 37.7327C52.3966 37.8055 52.2541 37.9512 52.2224 38.0873C51.6683 40.4052 50.5885 42.4349 48.9388 44.1511C48.714 44.3854 48.638 44.6292 48.6475 44.9459C48.6696 45.6045 48.6823 46.2631 48.6475 46.9218C48.6031 47.7704 48.942 48.4353 49.5119 49.018C50.5252 50.0566 51.7791 50.7215 53.0805 51.3137C55.4174 52.3744 57.8872 53.0235 60.3634 53.6632C62.7636 54.2838 65.0023 55.2527 66.9116 56.8708C69.1123 58.7327 70.5024 61.0822 70.8317 63.9574C71.0787 66.1137 71.1579 68.2922 71.3067 70.4613C71.4682 72.8203 71.6297 75.1761 71.7785 77.5351C71.8862 79.2704 71.9717 81.0056 72.073 82.7408C72.1236 83.5989 72.1838 84.4602 72.2408 85.3183C72.3136 86.3696 72.0761 87.3607 71.5948 88.3676L71.5885 88.3708ZM61.9118 88.3486C61.9118 88.222 61.9086 88.1175 61.9118 88.0098C61.991 86.3348 62.0733 84.6629 62.1493 82.9878C62.2601 80.5148 62.3646 78.0418 62.4754 75.5688C62.5483 73.957 62.6274 72.3453 62.7002 70.7336C62.8174 68.1054 62.9346 65.4741 63.0391 62.8428C63.0644 62.238 62.8364 62.0258 62.2316 62.0258C47.8907 62.0258 33.5498 62.0258 19.2057 62.0258C18.6104 62.0258 18.3571 62.3171 18.3951 62.8997C18.4552 63.837 18.4996 64.7743 18.5407 65.7147C18.7085 69.5177 18.8669 73.3206 19.0347 77.1235C19.1519 79.8308 19.2753 82.5382 19.3988 85.2455C19.4463 86.2746 19.5033 87.3037 19.5572 88.3423H61.9118V88.3486ZM16.9575 88.279C16.929 87.6267 16.8942 86.9554 16.8657 86.2809C16.7643 83.8712 16.6662 81.4584 16.5585 79.0487C16.4477 76.5757 16.3242 74.1059 16.207 71.636C16.0867 69.1155 15.9569 66.5982 15.8524 64.0777C15.8239 63.3937 15.7606 62.6813 15.8999 62.0226C16.2545 60.3666 17.5496 59.404 19.2563 59.404C33.5656 59.404 47.878 59.404 62.1904 59.404C62.2696 59.404 62.3488 59.404 62.4248 59.404C64.0048 59.4515 65.3411 60.5629 65.5627 62.1113C65.6577 62.7668 65.5944 63.4507 65.5691 64.1188C65.4994 66.0124 65.4139 67.9091 65.3284 69.8026C65.1954 72.7126 65.0498 75.6226 64.9168 78.5326C64.8281 80.4736 64.7458 82.4147 64.6666 84.3557C64.6128 85.6793 64.5653 87.006 64.5115 88.3771C65.4297 88.3771 66.2879 88.3771 67.146 88.3771C68.5075 88.3708 69.6316 87.2594 69.6158 85.8946C69.6063 84.9542 69.5525 84.0169 69.4923 83.0796C69.296 79.9543 69.0838 76.8322 68.8812 73.7069C68.6849 70.6608 68.5265 67.6114 68.2954 64.5685C68.1466 62.6116 67.3043 60.9397 65.949 59.5306C64.4196 57.9442 62.5103 57.0101 60.4331 56.3895C58.6282 55.8512 56.7885 55.4174 54.9962 54.8411C52.9602 54.1888 50.9875 53.3592 49.1858 52.1433C47.1434 55.1197 44.3189 56.7315 40.7535 56.741C37.1722 56.7505 34.3256 55.1482 32.2769 52.1939C31.7449 52.5011 31.2541 52.8082 30.7443 53.0774C28.1129 54.4548 25.2948 55.3002 22.4291 56.0159C20.2158 56.5668 18.1069 57.3394 16.3179 58.8182C14.2533 60.5249 13.2401 62.7414 13.0944 65.3886C13.0247 66.6552 12.9582 67.9186 12.8791 69.1852C12.7366 71.484 12.5846 73.7797 12.4389 76.0754C12.363 77.2628 12.287 78.4503 12.2205 79.6377C12.1001 81.718 11.9671 83.7984 11.8817 85.8788C11.8342 87.0314 12.5909 88.089 13.7372 88.2568C14.7726 88.4088 15.8461 88.2885 16.9575 88.2885V88.279ZM35.0918 24.2309C34.9145 24.5665 34.6992 24.9782 34.4807 25.3898C33.2616 27.676 31.7575 29.7025 29.4144 30.9723C29.2465 31.0641 29.1009 31.2858 29.0502 31.4789C28.7779 32.4542 28.8191 33.4326 29.1927 34.3731C29.4334 34.981 29.8767 35.4022 30.5638 35.5288C31.2287 35.6492 31.5992 36.0925 31.6911 36.7447C32.052 39.2684 33.2173 41.352 35.1298 43.0144C36.1019 43.8598 37.1532 44.6482 38.4768 44.7876C39.7022 44.9142 40.9466 44.9332 42.1784 44.8826C42.8813 44.8541 43.6413 44.7242 44.2556 44.4076C47.3619 42.8117 49.2364 40.2722 49.7937 36.7986C49.8982 36.1526 50.2212 35.6713 50.883 35.5447C51.7284 35.38 52.2256 34.8544 52.3997 34.0723C52.5454 33.4263 52.5834 32.7455 52.5739 32.0805C52.5707 31.7797 52.4124 31.2984 52.1971 31.2129C51.0382 30.7506 50.3574 29.8545 49.7779 28.8286C49.3188 28.0116 48.8755 27.182 48.3562 26.4062C47.6405 25.3328 46.5798 24.8325 45.3005 24.9212C44.3696 24.9877 43.4513 25.1967 42.5204 25.3011C40.9751 25.4753 39.4236 25.5671 37.9005 25.1745C36.9601 24.9307 36.0513 24.5634 35.0855 24.2404L35.0918 24.2309ZM51.8519 16.4097C51.5353 16.4097 51.396 16.4129 51.2598 16.4097C49.3979 16.3369 47.555 16.1469 45.7945 15.4756C44.4741 14.969 43.0967 14.6618 41.6876 14.6428C40.3925 14.6238 39.0879 14.6777 37.8055 14.8265C35.874 15.0513 34.2021 15.8144 33.0653 17.5021C32.9006 17.746 32.6157 17.9359 32.3528 18.0816C30.1395 19.3007 28.9616 21.1562 28.9077 23.6926C28.8887 24.6172 28.9046 25.5418 28.9046 26.4664C28.9046 27.0079 28.9046 27.5462 28.9046 28.0876L29.0882 28.1383C29.4175 27.8375 29.769 27.5588 30.0762 27.2327C31.5612 25.659 32.4922 23.7527 33.3281 21.7895C33.7809 20.7256 34.7625 20.4755 35.6206 21.2481C36.7542 22.2677 38.1095 22.7015 39.5914 22.8123C41.2443 22.939 42.8592 22.6255 44.4836 22.4038C46.8331 22.084 48.8375 22.7426 50.2845 24.671C50.9843 25.602 51.5131 26.6596 52.1179 27.6602C52.2002 27.7932 52.2794 27.9293 52.3617 28.0623C52.4061 28.0496 52.4472 28.0401 52.4916 28.0275C52.5327 27.4258 52.5897 26.8242 52.6182 26.2226C52.7354 23.7591 52.4409 21.3906 51.0762 19.25C50.7532 18.7434 50.8577 18.2146 51.1806 17.7048C51.4181 17.3312 51.5923 16.9195 51.8551 16.4097H51.8519ZM35.4845 46.5386C35.5383 47.8052 35.2723 49.0243 34.468 50.0756C34.2686 50.3384 34.2844 50.5252 34.4617 50.7722C36.2634 53.2959 38.6826 54.4421 41.7826 54.0463C44.0308 53.7613 45.7248 52.5834 46.9977 50.7437C47.1719 50.4935 47.1719 50.3067 47.0009 50.0281C46.7033 49.5404 46.4088 49.0243 46.2536 48.4797C46.07 47.8464 46.0383 47.1688 45.9496 46.5735C42.5045 47.9192 39.0278 47.935 35.4845 46.5386V46.5386Z" fill="#8AA3EE"/>
</g>
</svg>
