<svg width="15" height="16" viewBox="0 0 15 16" fill="none" xmlns="http://www.w3.org/2000/svg">
<path fill-rule="evenodd" clip-rule="evenodd" d="M10.148 1.56826H4.70853C4.27473 1.56826 3.92296 1.21713 3.92296 0.78413C3.92296 0.351133 4.27473 0 4.70853 0H10.1481C10.5819 0 10.9335 0.351133 10.9335 0.78413C10.9335 1.21713 10.5818 1.56826 10.148 1.56826ZM0.78557 2.55578H14.0713C14.5051 2.55578 14.8569 2.90691 14.8569 3.33991C14.8569 3.77291 14.5051 4.12404 14.0713 4.12404H13.2683V13.9426C13.2683 15.0771 12.3437 16 11.2071 16H3.62556C2.489 16 1.56438 15.0771 1.56438 13.9426V4.12404H0.78557C0.351778 4.12404 0 3.77291 0 3.33991C0 2.90691 0.351778 2.55578 0.78557 2.55578ZM11.2073 14.4317C11.4775 14.4317 11.6973 14.2123 11.6973 13.9426V4.12404H3.13568V13.9426C3.13568 14.2123 3.35548 14.4317 3.62572 14.4317H11.2073ZM5.75762 12.8922C6.19141 12.8922 6.54319 12.5411 6.54319 12.1081V6.65461C6.54319 6.22162 6.19141 5.87048 5.75762 5.87048C5.32383 5.87048 4.97205 6.22162 4.97205 6.65461V12.1081C4.97205 12.5411 5.32383 12.8922 5.75762 12.8922ZM9.81381 12.1081C9.81381 12.5411 9.46203 12.8922 9.02824 12.8922C8.59445 12.8922 8.24267 12.5411 8.24267 12.1081V6.65461C8.24267 6.22162 8.59445 5.87048 9.02824 5.87048C9.46203 5.87048 9.81381 6.22162 9.81381 6.65461V12.1081Z" fill="#B0B7BC"/>
</svg>
