<svg xmlns="http://www.w3.org/2000/svg" viewBox="0 0 302.49 270"><defs><style>.cls-1{fill:#618aff;}</style></defs><title>Developer</title><g id="Layer_2" data-name="Layer 2"><g id="ICON"><path class="cls-1" d="M298.47,120,237.85,15a30,30,0,0,0-26-15H90.62a30,30,0,0,0-26,15L4,120a30,30,0,0,0,0,30L64.64,255a30,30,0,0,0,26,15H211.87a30,30,0,0,0,26-15l60.62-105A30,30,0,0,0,298.47,120ZM118.71,190.43a12.49,12.49,0,0,1-20.82,2.76L59.31,149.07c-1.59-1.82-3.18-3.64-4.78-5.46a12.53,12.53,0,0,1,0-17.12Q75.34,102.78,96.09,79a38.56,38.56,0,0,1,2.69-3c3.63-3.36,7.87-4.43,12.58-2.84a11.93,11.93,0,0,1,8.37,9.7,12.26,12.26,0,0,1-3.18,10.7L80.6,134.7c-.07.08-.13.18-.28.41l6.34,7.24c10,11.48,20.13,22.93,30.12,34.46C120.28,180.86,121,185.58,118.71,190.43ZM176.09,49.26c-1,7.09-2,14.2-3,21.29-1.15,8-2.36,16.09-3.51,24.14-1.31,9.19-2.56,18.39-3.87,27.58-1.15,8-2.35,16.09-3.5,24.14-1,7-2,14-3,21.07-1.08,7.57-2.21,15.13-3.3,22.7-1,7-1.94,14-3,21-.7,4.85-1.27,9.73-2.26,14.52a12.05,12.05,0,0,1-12.65,9.45c-7.53-.62-12.73-6.43-11.71-14.18,1.29-9.79,2.7-19.57,4.1-29.35,1.29-9,2.65-18.07,3.95-27.11,1.38-9.67,2.7-19.35,4.08-29,1.22-8.56,2.51-17.11,3.74-25.68,1.31-9.19,2.57-18.39,3.87-27.58,1-7,2-14,3-20.94.77-5.29,1.41-10.6,2.33-15.86A12.25,12.25,0,0,1,163.74,35,12.47,12.47,0,0,1,176.09,49.26Zm72.07,94.1q-15.8,18.14-31.68,36.21l-11.61,13.28c-3.61,4.14-8.09,5.8-13.4,4.18s-8.23-5.34-8.88-10.76a11.8,11.8,0,0,1,3-9.38q11.74-13.46,23.52-26.89,6.25-7.14,12.51-14.27c.42-.48.48-.78,0-1.29q-9.58-10.9-19.13-21.83c-5.61-6.41-11.27-12.78-16.82-19.25-3.45-4-4.26-8.66-2-13.51s6.17-7,11.1-7.36a12.91,12.91,0,0,1,9.76,4.43L246,124.32c.83,1,1.71,1.87,2.49,2.87A12.37,12.37,0,0,1,248.15,143.35Z"/></g></g></svg>