<svg width="14" height="14" viewBox="0 0 14 14" fill="none" xmlns="http://www.w3.org/2000/svg">
<path d="M13.5547 1.34613L12.657 0.448711C12.3567 0.149598 11.9656 0 11.5718 0C11.1799 0 10.7879 0.149543 10.4887 0.448711L4.58112 6.35742C4.35138 6.5625 4.23378 6.82227 4.16814 7.10391L3.509 10.0406C3.45977 10.284 3.64849 10.5 3.85908 10.5C3.88414 10.5 3.90974 10.4975 3.93558 10.4923C3.93558 10.4923 5.9603 10.0627 6.87297 9.84809C7.1492 9.78309 7.39617 9.64413 7.59665 9.44368L13.5316 3.51008C14.1536 2.91211 14.1509 1.94414 13.5547 1.34613ZM12.6275 2.58125L6.69254 8.51484C6.66246 8.54492 6.63237 8.56133 6.59682 8.56953C6.22212 8.65777 5.64914 8.78437 5.11171 8.90148L5.45113 7.39211C5.45906 7.35273 5.4782 7.31445 5.50829 7.28711L11.4186 1.37813C11.4706 1.32371 11.5308 1.3125 11.5718 1.3125C11.6128 1.3125 11.6734 1.32361 11.7263 1.37654L12.6239 2.27423C12.7123 2.36086 12.7123 2.49566 12.6275 2.58125ZM11.5964 7.875C11.234 7.875 10.94 8.16895 10.94 8.53125V12.0312C10.94 12.393 10.6452 12.6875 10.2836 12.6875H1.9692C1.60763 12.6875 1.3128 12.393 1.3128 12.0312V3.71875C1.3128 3.35699 1.60763 3.0625 1.9692 3.0625H5.9076C6.26998 3.0625 6.564 2.76855 6.564 2.40625C6.564 2.04395 6.27135 1.75 5.9076 1.75L1.94458 1.74973C0.883678 1.74973 0 2.63293 0 3.69414V12.0066C0 13.1168 0.883678 14 1.94458 14H10.2344C11.3199 14 12.1789 13.1168 12.1789 12.0312L12.2528 8.53125C12.2528 8.17031 11.9601 7.875 11.5964 7.875Z" fill="#B0B7BC"/>
</svg>
