<svg xmlns="http://www.w3.org/2000/svg" width="116" height="116" viewBox="0 0 116 116" fill="none">
  <g clip-path="url(#clip0_7676_14411)">
    <path d="M12.5177 50.6291H29.8254V54.7027H19.2737C17.4326 54.7027 15.9415 56.1938 15.9415 58.0348C15.9415 59.8758 17.4326 61.367 19.2737 61.367H33.1576C34.9986 61.367 36.4897 59.8758 36.4897 58.0348V50.6291H47.0415C48.8825 50.6291 50.3736 49.138 50.3736 47.297V12.7733C50.3736 10.9323 48.8825 9.44116 47.0415 9.44116H12.5177C10.6767 9.44116 9.18561 10.9323 9.18561 12.7733V47.297C9.18561 49.138 10.6767 50.6291 12.5177 50.6291ZM15.8499 16.1054H43.7093V43.9649H15.8499V16.1054Z" fill="#B9BEC3"/>
    <path d="M36.4897 23.325H23.0695V36.7451H36.4897V23.325Z" fill="#B9BEC3"/>
    <path d="M99.4782 86.3162H86.058V99.7363H99.4782V86.3162Z" fill="#B9BEC3"/>
    <path d="M57.9653 36.6536C59.8063 36.6536 61.2975 35.1624 61.2975 33.3214V19.7152C61.2975 17.8742 59.8063 16.3831 57.9653 16.3831C56.1243 16.3831 54.6332 17.8742 54.6332 19.7152V33.3214C54.6332 35.1624 56.1243 36.6536 57.9653 36.6536Z" fill="#B9BEC3"/>
    <path d="M103.318 54.8413H89.2485C87.4075 54.8413 85.9164 56.3324 85.9164 58.1734C85.9164 60.0145 87.4075 61.5056 89.2485 61.5056H99.9863V64.3296C99.9863 66.1706 101.477 67.6617 103.318 67.6617C105.159 67.6617 106.651 66.1706 106.651 64.3296V58.1734C106.651 56.3324 105.159 54.8413 103.318 54.8413Z" fill="#B9BEC3"/>
    <path d="M82.4926 65.4905H68.7947C66.9537 65.4905 65.4626 66.9816 65.4626 68.8226C65.4626 70.6636 66.9537 72.1548 68.7947 72.1548H79.1604V79.3744C79.1604 81.2154 80.6516 82.7065 82.4926 82.7065C84.3336 82.7065 85.8247 81.2154 85.8247 79.3744V68.8226C85.8247 66.9816 84.3336 65.4905 82.4926 65.4905Z" fill="#B9BEC3"/>
    <path d="M103.318 71.8269C101.477 71.8269 99.9863 73.3181 99.9863 75.1591V76.0421H96.0988V69.5111C96.0988 67.6701 94.6077 66.179 92.7667 66.179C90.9257 66.179 89.4346 67.6701 89.4346 69.5111V79.3742C89.4346 81.2152 90.9257 82.7064 92.7667 82.7064H103.318C105.159 82.7064 106.651 81.2152 106.651 79.3742V75.1591C106.651 73.3181 105.159 71.8269 103.318 71.8269Z" fill="#B9BEC3"/>
    <path d="M78.6995 86.3579H71.9436C70.1026 86.3579 68.6115 87.849 68.6115 89.69C68.6115 91.5311 70.1026 93.0222 71.9436 93.0222H78.6995C80.5405 93.0222 82.0316 91.5311 82.0316 89.69C82.0316 87.849 80.5405 86.3579 78.6995 86.3579Z" fill="#B9BEC3"/>
    <path d="M78.6995 96.4043H57.9653C56.1243 96.4043 54.6332 97.8954 54.6332 99.7364C54.6332 101.577 56.1243 103.069 57.9653 103.069H75.3674V103.346C75.3674 105.187 76.8585 106.678 78.6995 106.678C80.5405 106.678 82.0317 105.187 82.0317 103.346V99.7364C82.0317 97.8954 80.5405 96.4043 78.6995 96.4043Z" fill="#B9BEC3"/>
    <path d="M72.1269 16.1054H87.2714L93.8996 9.44116H68.7947C66.9537 9.44116 65.4626 10.9323 65.4626 12.7733V38.0337L72.1269 31.3333V16.1054Z" fill="#B9BEC3"/>
    <path d="M99.9863 28.5202V43.9646H84.6252L76.0116 52.6254V54.7025H73.9457L68.6365 60.0422C69.2446 60.8447 70.2054 61.3667 71.2911 61.3667H79.3437C81.1847 61.3667 82.6759 59.8756 82.6759 58.0346V50.6289H103.316C105.157 50.6289 106.648 49.1378 106.648 47.2968V21.8198L99.9835 28.5202H99.9863Z" fill="#B9BEC3"/>
    <path d="M64.1659 89.6901C64.1659 87.8491 62.6747 86.358 60.8337 86.358H50.3736V78.4053L43.7093 85.1056V100.017H28.8785L22.2504 106.681H47.0415C48.8825 106.681 50.3736 105.19 50.3736 103.349V93.025H60.8337C62.6747 93.025 64.1659 91.5339 64.1659 89.6929V89.6901Z" fill="#B9BEC3"/>
    <path d="M38.1558 65.4905H12.5177C10.6767 65.4905 9.18561 66.9816 9.18561 68.8226V94.6161L15.8499 87.9158V72.1548H31.5248L38.153 65.4905H38.1558Z" fill="#B9BEC3"/>
    <path d="M57.9653 41.8376C56.1243 41.8376 54.6332 43.3288 54.6332 45.1698V48.924L60.5061 43.0178C59.8952 42.2958 58.9844 41.8376 57.9653 41.8376Z" fill="#B9BEC3"/>
    <path d="M57.9653 82.7065H71.9408C73.7819 82.7065 75.273 81.2154 75.273 79.3744C75.273 77.5334 73.7819 76.0422 71.9408 76.0422H61.2975V67.4231L54.6332 74.1235V79.3744C54.6332 81.2154 56.1243 82.7065 57.9653 82.7065Z" fill="#B9BEC3"/>
    <path d="M40.1939 58.0348C40.1939 59.4954 41.1325 60.731 42.4403 61.1809L48.7631 54.8248C48.4798 54.7471 48.1855 54.7026 47.8773 54.7026H43.526C41.685 54.7026 40.1939 56.1938 40.1939 58.0348Z" fill="#B9BEC3"/>
    <path d="M3.3319 116C2.47943 116 1.62696 115.675 0.974413 115.025C-0.327897 113.723 -0.327897 111.615 0.974413 110.313L110.31 0.974291C111.612 -0.328019 113.723 -0.328019 115.022 0.974291C116.325 2.2766 116.325 4.38418 115.022 5.68649L5.68939 115.025C5.03962 115.675 4.18715 116 3.3319 116Z" fill="#F05455"/>
  </g>
  <defs>
    <clipPath id="clip0_7676_14411">
      <rect width="116" height="116" fill="white"/>
    </clipPath>
  </defs>
</svg>