<?xml version="1.0" encoding="utf-8"?>
<!-- Generator: Adobe Illustrator 21.1.0, SVG Export Plug-In . SVG Version: 6.00 Build 0)  -->
<svg version="1.1" id="Layer_1" xmlns="http://www.w3.org/2000/svg" xmlns:xlink="http://www.w3.org/1999/xlink" x="0px" y="0px"
	 viewBox="0 0 200 200" style="enable-background:new 0 0 200 200;" xml:space="preserve">
<style type="text/css">
	.st0{fill:#191919;}
	.st1{fill:#618AFF;}
</style>
<path class="st0" d="M100.4,48.1c0.2-0.5-0.2-0.9-0.5-1.2c-1-1.3-2.8-1.7-4.3-1.1c-0.9,0.5-0.8,1.6,0.4,1.5c1.9-0.2,2.1,0.2,3.4,1
	C99.8,48.6,100.2,48.7,100.4,48.1z"/>
<path class="st0" d="M88.9,52.3c0.8,0.1,0.8-2.4,0-2.3C88,50.1,88.1,52.2,88.9,52.3z"/>
<path class="st0" d="M91.9,73.2c0,0.3,0.3,0.4,0.5,0.4c0.2,0,0.4-0.2,0.4-0.4c0.1-1.3,0.2-2.6,0.3-3.9c3.2,0.2,6.6-0.6,7.9-2.7
	c2.8-4.5-0.4-9.7-2.3-10.5c-1.3-0.3-2.6-0.5-4-0.4c0.2-0.2,0.4-0.5,0.3-0.9c0-0.5-0.7-0.5-0.9-0.1c-0.3,0.6-2.9,0.5-3-0.3
	c0-0.9,0.3-1.9,0.8-2.7c0.2-0.4-0.7-1.8-1.6,1.3c-0.4,1.4-0.1,2.2,0.6,2.6c-1.4,0-2.8,0.3-4.1,0.9c-2.4,1.5-2.6,7.7-0.4,10.3
	c1,1.2,3.1,2,5.4,2.3C91.8,70.5,91.8,71.9,91.9,73.2z M98.3,58.2c1.6,3.5-4.1,5-6.2,1.8C94.7,60.1,97.3,59.3,98.3,58.2L98.3,58.2z"
	/>
<path class="st0" d="M96.8,50c-0.7,0.3-0.8,2.3,0.1,2.3C97.9,52.4,97.7,49.6,96.8,50z"/>
<path class="st0" d="M90,47.5c0.4,0,1.2-0.3,0.6-1.2c-0.6-1.1-3.5-0.1-3.9,1.4c-0.1,0.4,0.1,0.8,0.5,0.9c0.2,0.1,0.5,0,0.7-0.2
	C88.3,47.8,89.1,47.4,90,47.5z"/>
<path class="st0" d="M84.6,46.9c-0.1,3,0.2,5.9,0.8,8.8c0.1,0.5,1,0.4,0.9-0.2c-0.6-4.4-0.6-8.8-0.2-13.2c3.5,0.5,12.6,0.3,16.7-0.1
	c0,2.8,0.5,5.6,1.5,8.2c0.9,2,1.4-0.5,4-1c1.9-0.4,2.5,1,2.2,2.8c-0.4,1.9-1.5,3.5-3,4.6c-1.1,0.8,0.5,12.7,0.8,14.5
	c0.1,0.3,0.5,0.4,0.8,0.3c0.2-0.1,0.3-0.2,0.3-0.4c-0.5-4.3-1-8.1-1.3-13.3c1.9-1.3,3.2-3.4,3.6-5.7c4.9-0.5,4.9-6.4,1.6-7.6
	c1.9-0.5,3-2.4,2.4-4.3c-0.5-1.7-2.2-2.8-4-2.5c3.6-3.2-1.5-9.3-4.7-6.5c0.8-6.2-10-8.3-11.2-2c-1.8-3.5-9.1-2.9-8,2.4
	c-5.5-1.9-8.3,5.1-4.7,7.9C78.6,40.5,79.9,46.4,84.6,46.9z"/>
<path class="st0" d="M72.1,131.9c0.6-0.4,0-1.3-0.8-1.1c-8.5,3.2-14.3-3.2-17.4-9.5c-5.2-10.4-8.1-24.2-11.1-35.7
	c-1.8-7-3.6-11.4-6.2-18.5c-1.7-4.8-2.8-7.8-3-13.2c0-0.7-1-0.4-1.1,0.1c-1,8.9,5.6,18.2,8.9,31.8c2.6,10.8,6.3,26.2,11,35.8
	C56.6,130.5,63.9,136.4,72.1,131.9z"/>
<path class="st0" d="M37.4,64.2c-0.5,0.4,0,1.2,0.6,0.9c2.9-1.4,6-2.4,9.2-3c0.4,1.3,0.9,2.6,1.7,3.7c1.2,1.4,2.4-0.2,1.3-0.6
	c-0.6-1.1-1.1-2.3-1.5-3.5c-1.6-4.5-1.7-7.4-1.8-12.1c0-0.6-0.9-0.5-1,0c-0.5,3.7-0.2,7.5,0.9,11.1l-2.3,0.5
	c-1.1-4.1-1.6-8.3-1.4-12.5c0-0.5-0.8-0.6-1-0.1c-0.9,2.8,0,10.1,1.1,13l-2.7,1c-1.4-4-2.1-8.3-2.2-12.5c0-0.3-0.3-0.5-0.6-0.4
	c-0.2,0-0.4,0.2-0.4,0.4c-0.5,2.4,0.6,11,1.9,13.2C38.4,63.5,37.9,63.8,37.4,64.2z"/>
<path class="st0" d="M53.7,69.6c-0.7,4.2-1.1,5.3,0.8,9.7c4.3,10.3,8.2,15.2,16.1,33.6c0.2,0.5,1.2,0.2,1-0.4
	C67,100.3,61.9,91.2,56,78.7c-1.9-4.1-1.5-4.7-0.7-8.8c0.8-4.5,1.8-10.4-2-12.8c-0.2-0.2-0.6-0.2-0.8,0.1c-0.2,0.2-0.2,0.6,0.1,0.8
	C55.5,61.3,54.4,65.3,53.7,69.6z"/>
<path class="st0" d="M101.6,149.9c-12.7-0.2-26.2-0.4-38.9,0.2c-2.4,0.1-2,2.1,0.1,2.2c12.8,0.3,25.9-0.6,38.7,0
	C103.9,152.4,104.1,150,101.6,149.9z"/>
<path class="st0" d="M134.9,150.1c-7.6-0.3-15.5,0-23.1,0c-1.6,0-2.1,2-0.1,2.2c7.5,0.5,15.7,0.2,23.3,0.2
	C137.1,152.4,137.8,150.2,134.9,150.1z"/>
<path class="st0" d="M176.1,179c-0.1,0-12.5,0.3-14,0.6c-0.8,0.1-0.6,1.3,0.1,1.3c1.5,0.2,11.2-0.2,13.6-0.3
	C178.9,180.5,177.2,178.9,176.1,179z"/>
<path class="st0" d="M122.3,171.6c-3.9,0.1-14.3,0.2-17.7,1c-0.3,0.1-0.5,0.4-0.4,0.7c0.1,0.2,0.3,0.4,0.5,0.5
	c5.1,0.3,12.1-0.5,17.5-0.6C123.3,173.2,123.4,171.5,122.3,171.6z"/>
<path class="st0" d="M178,171.2c-4.8,0.2-10.3,0.2-15,0.6c-1.9,0.2-1.7,1.6,0,1.6c5.6-0.1,11.2-0.6,16.3-0.7
	C181,172.7,181.3,171,178,171.2z"/>
<path class="st0" d="M64.9,178.6c-0.9-0.1-15.1,0.4-15.6,0.6c-0.3,0.1-0.4,0.5-0.3,0.8c0,0,0,0,0,0c0.8,1.7,12.2-0.2,15.7,0.2
	c0.4,0,0.8-0.3,0.8-0.8C65.6,179,65.3,178.7,64.9,178.6L64.9,178.6z"/>
<path class="st0" d="M118.8,178.3c-2.4-0.4-11.2-0.5-13.8,0.1c-0.7,0.1-0.9,1.4,0,1.4c4.6,0,9.3,0.1,13.8,0
	C119.7,179.9,119.6,178.5,118.8,178.3z"/>
<path class="st0" d="M70.1,172.5c-5.4-0.3-15.5-0.5-20.7,0.1c-0.4,0-0.7,0.4-0.6,0.8c0,0.3,0.3,0.6,0.6,0.6c7,0.1,13.6-0.3,20.7,0.2
	C71.1,174.1,71.1,172.5,70.1,172.5z"/>
<path class="st0" d="M193.4,118.2c0-0.3-0.3-0.6-0.6-0.6c-0.3,0-0.6,0.3-0.6,0.6c-0.1,25.9,0.4,50.9,0.6,75.8c0,0.4,0.4,0.8,0.9,0.7
	c0.4,0,0.7-0.3,0.7-0.7C194.2,169,193.6,143.4,193.4,118.2z"/>
<path class="st0" d="M6.8,118.1c0,25.2-0.5,51.2-0.2,76.5c0,0.3,0.3,0.6,0.7,0.5c0.3,0,0.5-0.3,0.5-0.5c0.1-24.4,0.5-51.2,0.5-76.5
	c0-0.4-0.3-0.8-0.8-0.8C7.1,117.3,6.8,117.6,6.8,118.1C6.8,118.1,6.8,118.1,6.8,118.1z"/>
<path class="st1" d="M122.4,103.9c2.2,3.4,7,18.6,8.7,24.8c10.7-7.9,17-18,18.1-21.5c-10.2-23-20.5-30.7-38.3-34.8
	c-5.6,7.2-16.8,8.4-20.7,1.3C75.7,76.4,69.1,81.8,64,92c3.1,5.6,7,14.6,9.2,19.3c0.2-2.9,1.1-12.9,2-15.8c0.2-0.5,1-0.3,1,0.2
	c-1.7,13.7-1.8,24.7-1.3,38.7c13.7,9.1,41.8,4.5,54.9-4.7c-2.8-8.6-5.5-18.1-8.4-25.4C121.2,103.6,122.1,103.4,122.4,103.9z"/>
<path class="st1" d="M41.4,171.2c-0.7-0.1-3.3,0.2-3.8-0.2s-0.7-2.6-1.2-2.8c-1.8-0.2-3.7-0.2-5.5,0c-0.7,0.1-1.2,2-1.5,2.5
	s-2.4,0.3-4.1,0.3s-2.1,1.4-2.3,2.7c-0.2,2.1-0.2,4.1,0,6.2c0.1,1.9,1,3.3,2.8,3.4c1.6,0.1,12.5,0.1,14,0s3.1-1,3.3-2.2
	c0.2-2.5,0.3-5,0.3-7.4C43.4,172.6,42.6,171.5,41.4,171.2z M33.1,180.3c-4.9,0.3-3.6-6,0-6S37.7,180.1,33.1,180.3z"/>
<path class="st1" d="M82.7,184.3c1.5,0,8.1,0.1,16.9-0.2C98.9,174.2,83.5,173.4,82.7,184.3z"/>
<path class="st1" d="M91.3,174.9c4.9-0.4,4.6-7.1-0.4-6.9C85.5,168.1,86.4,175.3,91.3,174.9z"/>
<path class="st1" d="M147.4,168.3c-14.1,0-14.3,14-0.6,14.1c1.5,0,2.9-0.2,4.3-0.5c2.5,2.3,4.6,3.6,5,3.3s-0.5-3.2-1-5.2
	C160.2,176,157.5,168.3,147.4,168.3z"/>
<path class="st1" d="M78.9,36.8C69.5,39,58.4,46.3,54,55.3c-0.4,0.8,0.7,1.5,1.1,0.8c5.4-8.9,14.1-15.3,24.1-17.8
	C80.2,38,79.9,36.5,78.9,36.8z"/>
<path class="st1" d="M193.5,113.2c-0.1-25.6-0.4-52.2-1.9-77.7c-1.7-27.2-14.4-29.6-35-30c-38.5-0.7-76.6-0.1-115,0
	C13.5,5.5,6.1,11.2,6.2,44c0.1,23.4,0.1,47.1,0.4,70.4c-0.1,0.5,0.3,1,0.8,1.1c0.1,0,0.2,0,0.2,0c7.9,0.2,27.9-0.2,38.9-0.1
	c0.8,0,1-1.5,0.1-1.5c-12.9,0-25.8,0.1-38.8,0.1C8.3,88.1,7.2,62,7.7,36.1C8.2,9,20.8,7,41.6,6.8C80,6.6,118.4,6.1,156.8,6.9
	c29.3,0.6,32.6,8.4,33.7,40c0.7,22.4,1.2,44.7,1.5,67.1h-42.4c6.7-10.9,7.8-28.8,5.2-41.1c-4.1-19-16.9-36.4-40.3-39.5
	c-0.8-0.1-1,1.2-0.2,1.3c20.7,3.9,34.6,17.8,38.9,38.7c2.5,12.1,1.6,30.2-5.5,40.8c-0.3,0.5-0.5,1.3,0.3,1.3c13.7,0.5,28.2,0,42,0
	C193.5,115.6,193.5,115.4,193.5,113.2z"/>
</svg>
