<svg width="14" height="14" viewBox="0 0 14 14" fill="none" xmlns="http://www.w3.org/2000/svg">
<path fill-rule="evenodd" clip-rule="evenodd" d="M13.5661 0.0559999C13.7371 0.127032 13.873 0.262955 13.9441 0.434C13.9799 0.518156 13.999 0.608526 14.0001 0.7V4.9C14.0001 5.08565 13.9263 5.2637 13.795 5.39497C13.6638 5.52625 13.4857 5.6 13.3001 5.6C13.1144 5.6 12.9364 5.52625 12.8051 5.39497C12.6738 5.2637 12.6001 5.08565 12.6001 4.9V2.387L6.09705 8.897C6.03198 8.96261 5.95456 9.01468 5.86926 9.05022C5.78396 9.08576 5.69246 9.10406 5.60006 9.10406C5.50765 9.10406 5.41615 9.08576 5.33085 9.05022C5.24555 9.01468 5.16813 8.96261 5.10306 8.897C5.03745 8.83193 4.98537 8.7545 4.94983 8.6692C4.91429 8.5839 4.896 8.49241 4.896 8.4C4.896 8.30759 4.91429 8.2161 4.94983 8.1308C4.98537 8.04549 5.03745 7.96807 5.10306 7.903L11.6131 1.4H9.10006C8.9144 1.4 8.73636 1.32625 8.60508 1.19497C8.47381 1.0637 8.40005 0.885651 8.40005 0.7C8.40005 0.514348 8.47381 0.336301 8.60508 0.205025C8.73636 0.0737498 8.9144 0 9.10006 0H13.3001C13.3915 0.00110599 13.4819 0.0201313 13.5661 0.0559999ZM10.705 7.20463C10.8363 7.07336 11.0143 6.99961 11.2 6.99961C11.3857 6.99961 11.5637 7.07336 11.695 7.20463C11.8263 7.33591 11.9 7.51396 11.9 7.69961V11.8996C11.9 12.4566 11.6788 12.9907 11.2849 13.3845C10.8911 13.7784 10.357 13.9996 9.8 13.9996H2.1C1.54305 13.9996 1.0089 13.7784 0.615076 13.3845C0.221249 12.9907 0 12.4566 0 11.8996V4.19961C0 3.64265 0.221249 3.10851 0.615076 2.71469C1.0089 2.32086 1.54305 2.09961 2.1 2.09961H6.3C6.48565 2.09961 6.6637 2.17336 6.79498 2.30463C6.92625 2.43591 7 2.61396 7 2.79961C7 2.98526 6.92625 3.16331 6.79498 3.29458C6.6637 3.42586 6.48565 3.49961 6.3 3.49961H2.1C1.91435 3.49961 1.7363 3.57336 1.60503 3.70463C1.47375 3.83591 1.4 4.01396 1.4 4.19961V11.8996C1.4 12.0853 1.47375 12.2633 1.60503 12.3946C1.7363 12.5259 1.91435 12.5996 2.1 12.5996H9.8C9.98565 12.5996 10.1637 12.5259 10.295 12.3946C10.4263 12.2633 10.5 12.0853 10.5 11.8996V7.69961C10.5 7.51396 10.5737 7.33591 10.705 7.20463Z" fill="#B0B7BC"/>
</svg>
