<svg width="21" height="20" viewBox="0 0 21 20" fill="none" xmlns="http://www.w3.org/2000/svg">
<path fill-rule="evenodd" clip-rule="evenodd" d="M10.3846 0C4.64726 0 0 4.58772 0 10.2516C0 14.7826 2.97705 18.6215 7.10157 19.9808C7.61793 20.0752 7.80918 19.7605 7.80918 19.4836C7.80918 19.2382 7.8028 18.5963 7.79643 17.7404C4.90863 18.3572 4.29664 16.3685 4.29664 16.3685C3.8249 15.1854 3.1428 14.8707 3.1428 14.8707C2.19932 14.2351 3.21292 14.2477 3.21292 14.2477C4.25202 14.3232 4.80663 15.305 4.80663 15.305C5.73098 16.872 7.23544 16.4189 7.8283 16.1546C7.92393 15.4938 8.19167 15.0407 8.48491 14.7826C6.17722 14.5246 3.75478 13.6436 3.75478 9.71664C3.75478 8.59646 4.1564 7.68395 4.82575 6.96653C4.71738 6.70851 4.36039 5.66385 4.92775 4.25418C4.92775 4.25418 5.8011 3.97728 7.78368 5.30514C8.61241 5.07858 9.49851 4.96531 10.3846 4.95901C11.2643 4.95901 12.1568 5.07858 12.9855 5.30514C14.9681 3.97728 15.8415 4.25418 15.8415 4.25418C16.4088 5.66385 16.0518 6.70851 15.9435 6.96653C16.6065 7.68395 17.0081 8.59646 17.0081 9.71664C17.0081 13.6562 14.5793 14.5183 12.2652 14.7763C12.6349 15.091 12.9728 15.7203 12.9728 16.6769C12.9728 18.0488 12.96 19.1501 12.96 19.4899C12.96 19.7668 13.1449 20.0815 13.674 19.9808C17.7986 18.6215 20.7692 14.7826 20.7692 10.2579C20.7692 4.58772 16.122 0 10.3846 0Z" fill="#B0B7BC"/>
</svg>
