<svg width="16" height="16" viewBox="0 0 16 16" fill="none" xmlns="http://www.w3.org/2000/svg">
<path d="M7.66838 0C3.43431 0 0 3.38104 0 7.54945C0 11.7179 3.43003 15.0947 7.66838 15.0947C11.9067 15.0947 15.3368 11.7137 15.3368 7.54524C15.3368 3.37683 11.9025 0 7.66838 0ZM11.7613 6.09262L7.52297 10.0926C7.37328 10.2316 7.18082 10.3031 6.98836 10.3031C6.79591 10.3031 6.60345 10.2316 6.45376 10.0926L4.33244 8.09261C4.02451 7.80209 4.01596 7.32209 4.31106 7.01893C4.60616 6.71577 5.09372 6.70735 5.40166 6.99788L6.98836 8.49682L10.6921 4.99788C11 4.70736 11.4876 4.71999 11.7827 5.01893C12.0778 5.32209 12.0693 5.80209 11.7613 6.09262Z" fill="#62C784"/>
</svg>
