<svg width="181" height="149" viewBox="0 0 181 149" fill="none" xmlns="http://www.w3.org/2000/svg">
<g filter="url(#filter0_d_6475_10888)">
<rect x="26" y="19" width="130.097" height="109" rx="10" fill="#1A242E"/>
</g>
<g opacity="0.5">
<path d="M58 45L89 45" stroke="#909BAA" stroke-width="4" stroke-linecap="round" stroke-linejoin="round"/>
<path d="M41.252 45L50.3939 45" stroke="#AB4E76" stroke-width="4" stroke-linecap="round" stroke-linejoin="round"/>
<path d="M96 45L109 45" stroke="#FEF574" stroke-width="4" stroke-linecap="round" stroke-linejoin="round"/>
<path d="M117 45L126.142 45" stroke="#B983E9" stroke-width="4" stroke-linecap="round" stroke-linejoin="round"/>
<path d="M70 52.75L87 52.75" stroke="#909BAA" stroke-width="4" stroke-linecap="round" stroke-linejoin="round"/>
<path d="M41.252 52.75L50.3939 52.75" stroke="#AB4E76" stroke-width="4" stroke-linecap="round" stroke-linejoin="round"/>
<path d="M93 52.75L96 52.75" stroke="#AB4E76" stroke-width="4" stroke-linecap="round" stroke-linejoin="round"/>
<path d="M102 52.75L105 52.75" stroke="#B983E9" stroke-width="4" stroke-linecap="round" stroke-linejoin="round"/>
<path d="M58 52.75L63 52.75" stroke="#50C6C6" stroke-width="4" stroke-linecap="round" stroke-linejoin="round"/>
<path d="M41.252 99.25L50.3939 99.25" stroke="#AB4E76" stroke-width="4" stroke-linecap="round" stroke-linejoin="round"/>
<path d="M73.748 107L103.748 107" stroke="#909BAA" stroke-width="4" stroke-linecap="round" stroke-linejoin="round"/>
<path d="M58 107L67.1419 107" stroke="#AB4E76" stroke-width="4" stroke-linecap="round" stroke-linejoin="round"/>
<path d="M109.748 107L112.748 107" stroke="#FEF574" stroke-width="4" stroke-linecap="round" stroke-linejoin="round"/>
<path d="M88 76H96" stroke="#909BAA" stroke-width="4" stroke-linecap="round" stroke-linejoin="round"/>
<path d="M58 76L68 76" stroke="#909BAA" stroke-width="4" stroke-linecap="round" stroke-linejoin="round"/>
<path d="M75.748 76L80.748 76" stroke="#50C6C6" stroke-width="4" stroke-linecap="round" stroke-linejoin="round"/>
<path d="M74 60.5L108 60.5" stroke="#909BAA" stroke-width="4" stroke-linecap="round" stroke-linejoin="round"/>
<path d="M58 60.5L67.1419 60.5" stroke="#AB4E76" stroke-width="4" stroke-linecap="round" stroke-linejoin="round"/>
<path d="M58 60.5L67.1419 60.5" stroke="#AB4E76" stroke-width="4" stroke-linecap="round" stroke-linejoin="round"/>
<path d="M115 60.5L117 60.5" stroke="#B983E9" stroke-width="4" stroke-linecap="round" stroke-linejoin="round"/>
<path d="M83 83.75L126 83.75" stroke="#909BAA" stroke-width="4" stroke-linecap="round" stroke-linejoin="round"/>
<path d="M71 83.75L76 83.75" stroke="#AB4E76" stroke-width="4" stroke-linecap="round" stroke-linejoin="round"/>
<path d="M106 91.5L117 91.5" stroke="#FEF574" stroke-width="4" stroke-linecap="round" stroke-linejoin="round"/>
<path d="M71 91.5L99 91.5" stroke="#909BAA" stroke-width="4" stroke-linecap="round" stroke-linejoin="round"/>
<path d="M86 68.25L103 68.25" stroke="#909BAA" stroke-width="4" stroke-linecap="round" stroke-linejoin="round"/>
<path d="M120 68H125" stroke="#909BAA" stroke-width="4" stroke-linecap="round" stroke-linejoin="round"/>
<path d="M58 68.25L72 68.25" stroke="#909BAA" stroke-width="4" stroke-linecap="round" stroke-linejoin="round"/>
<path d="M78 68.25L80 68.25" stroke="#AB4E76" stroke-width="4" stroke-linecap="round" stroke-linejoin="round"/>
<path d="M109.748 68.25L112.748 68.25" stroke="#FEF574" stroke-width="4" stroke-linecap="round" stroke-linejoin="round"/>
</g>
<path d="M143.967 44.4309C143.867 44.6858 143.616 44.8542 143.334 44.8542H140.377L141.649 47.4399C141.916 47.9837 141.678 48.6343 141.116 48.8937C140.555 49.1529 139.882 48.9219 139.615 48.378L138.303 45.7072L136.191 48.1138C136.061 48.2629 135.871 48.3443 135.676 48.3443C135.598 48.3443 135.519 48.3311 135.443 48.3042C135.177 48.2106 135 47.9651 135 47.6652V37.6549C135 37.3975 135.156 37.1632 135.398 37.0574C135.641 36.9524 135.925 36.9936 136.123 37.1632L143.757 43.708C143.995 43.8883 144.043 44.1746 143.967 44.4309Z" fill="white"/>
<rect x="135" y="51" width="46" height="10" rx="2" fill="url(#paint0_linear_6475_10888)"/>
<path d="M37.0333 70.4309C37.1327 70.6858 37.3845 70.8542 37.6655 70.8542H40.6225L39.351 73.4399C39.0836 73.9837 39.322 74.6343 39.8835 74.8937C40.4454 75.1529 41.1176 74.9219 41.3851 74.378L42.6966 71.7072L44.8088 74.1138C44.9395 74.2629 45.129 74.3443 45.3236 74.3443C45.4019 74.3443 45.4806 74.3311 45.5568 74.3042C45.8231 74.2106 46 73.9651 46 73.6652V63.6549C46 63.3975 45.8442 63.1632 45.6024 63.0574C45.3593 62.9524 45.0754 62.9936 44.8772 63.1632L37.2425 69.708C37.0051 69.8883 36.9573 70.1746 37.0333 70.4309Z" fill="white"/>
<rect y="77" width="46" height="10" rx="2" fill="#49C998"/>
<defs>
<filter id="filter0_d_6475_10888" x="6" y="0" width="170.097" height="149" filterUnits="userSpaceOnUse" color-interpolation-filters="sRGB">
<feFlood flood-opacity="0" result="BackgroundImageFix"/>
<feColorMatrix in="SourceAlpha" type="matrix" values="0 0 0 0 0 0 0 0 0 0 0 0 0 0 0 0 0 0 127 0" result="hardAlpha"/>
<feOffset dy="1"/>
<feGaussianBlur stdDeviation="10"/>
<feComposite in2="hardAlpha" operator="out"/>
<feColorMatrix type="matrix" values="0 0 0 0 0 0 0 0 0 0 0 0 0 0 0 0 0 0 0.1 0"/>
<feBlend mode="normal" in2="BackgroundImageFix" result="effect1_dropShadow_6475_10888"/>
<feBlend mode="normal" in="SourceGraphic" in2="effect1_dropShadow_6475_10888" result="shape"/>
</filter>
<linearGradient id="paint0_linear_6475_10888" x1="140.75" y1="59.125" x2="144.475" y2="44.8467" gradientUnits="userSpaceOnUse">
<stop stop-color="#F43376"/>
<stop offset="1" stop-color="#F5792C"/>
</linearGradient>
</defs>
</svg>
