<svg width="23" height="18" viewBox="0 0 23 18" fill="none" xmlns="http://www.w3.org/2000/svg">
<path fill-rule="evenodd" clip-rule="evenodd" d="M8.22561 0.0255547C8.1531 0.00883561 8.07758 0 8 0C3.51786 0 0 3.87168 0 8.5C0 13.1283 3.51786 17 8 17C8.03482 17 8.06922 16.9982 8.10312 16.9947C7.18477 16.3036 6.38287 15.466 5.73208 14.5167C3.56652 13.556 2 11.2592 2 8.5C2 5.69375 3.62034 3.36587 5.84327 2.43538C6.50292 1.50998 7.30818 0.695558 8.22561 0.0255547Z" fill="white"/>
<path fill-rule="evenodd" clip-rule="evenodd" d="M21 8.56248C20.9963 12.1798 18.0627 15.1111 14.4445 15.1111C10.8239 15.1111 7.88892 12.1761 7.88892 8.55556C7.88892 4.93502 10.8239 2 14.4445 2C15.6941 2 16.8622 2.34967 17.856 2.95651L19.3013 1.51123C17.9216 0.558181 16.2482 0 14.4445 0C9.71937 0 5.88892 3.83045 5.88892 8.55556C5.88892 13.2807 9.71937 17.1111 14.4445 17.1111C19.1696 17.1111 23 13.2807 23 8.55556C23 7.9371 22.9344 7.33397 22.8097 6.75275L21 8.56248Z" fill="white"/>
<path d="M22.1235 4.7862L15.2045 11.6565C14.9772 11.8832 14.6849 12 14.3927 12C14.1005 12 13.8082 11.8832 13.5809 11.6565L10.3598 8.39326C9.89225 7.91923 9.87926 7.13605 10.3274 6.64141C10.7755 6.14677 11.5158 6.13303 11.9834 6.60706L14.3927 9.05278L20.5 3C20.9676 2.52597 21.7079 2.54658 22.156 3.03435C22.6041 3.52899 22.5911 4.31217 22.1235 4.7862Z" fill="white"/>
</svg>
