<svg width="23" height="18" viewBox="0 0 23 18" fill="none" xmlns="http://www.w3.org/2000/svg">
<path fill-rule="evenodd" clip-rule="evenodd" d="M8.22561 0.0255547C8.1531 0.00883561 8.07758 0 8 0C3.51786 0 0 3.87168 0 8.5C0 13.1283 3.51786 17 8 17C8.03482 17 8.06922 16.9982 8.10312 16.9947C7.18477 16.3036 6.38287 15.466 5.73208 14.5167C3.56652 13.556 2 11.2592 2 8.5C2 5.69375 3.62034 3.36587 5.84327 2.43538C6.50292 1.50998 7.30818 0.695558 8.22561 0.0255547Z" fill="#86D9B9"/>
<path fill-rule="evenodd" clip-rule="evenodd" d="M14.4445 15.1111C18.065 15.1111 21 12.1761 21 8.55556C21 4.93502 18.065 2 14.4445 2C10.8239 2 7.88892 4.93502 7.88892 8.55556C7.88892 12.1761 10.8239 15.1111 14.4445 15.1111ZM14.4445 17.1111C19.1696 17.1111 23 13.2807 23 8.55556C23 3.83045 19.1696 0 14.4445 0C9.71937 0 5.88892 3.83045 5.88892 8.55556C5.88892 13.2807 9.71937 17.1111 14.4445 17.1111Z" fill="#86D9B9"/>
</svg>
