<svg xmlns="http://www.w3.org/2000/svg" viewBox="0 0 268.82 303.75"><defs><style>.cls-1{fill:#e0e0e0;}.cls-2{fill:#ffc24c;}</style></defs><title>New Member</title><g id="Layer_2" data-name="Layer 2"><g id="ICON"><path class="cls-1" d="M268.81,157.71a220.85,220.85,0,0,1-2.13,28.22c-3.15,21.61-9.94,41.89-21.88,60.29a122.12,122.12,0,0,1-38.82,38,127.82,127.82,0,0,1-32.15,14.11,140.69,140.69,0,0,1-24.42,4.64,135.16,135.16,0,0,1-27.67.21c-6.27-.65-12.52-1.71-18.72-2.93a120.46,120.46,0,0,1-31.43-11.13,122.1,122.1,0,0,1-39.83-32.17,132.82,132.82,0,0,1-21.23-37.55,153.33,153.33,0,0,1-6.14-20.81A148.16,148.16,0,0,1,.72,172.91c-.41-10-.5-20-.72-30,0-1.73,0-1.73,1.76-1.73H267.15c1.65,0,1.66,0,1.66,1.66C268.82,147.55,268.81,152.24,268.81,157.71Z"/><path class="cls-2" d="M60.8,126.91c.75-2.09,1.42-3.89,2-5.71a70.36,70.36,0,0,0,3.94-26c-.18-4.5-.79-9-1.21-13.46a84.33,84.33,0,0,1-.19-15.67C67,49,73.34,33.92,85.25,21.39a67.51,67.51,0,0,1,31-18.61,68.6,68.6,0,0,1,29.18-2c19.34,2.88,35,12.14,47,27.65,1.13,1.47,2.07,3.08,3.21,4.53a3.57,3.57,0,0,0,1.85,1.29c8.78,1.82,17.58,3.57,26.37,5.32l25.27,5c2.92.58,5.83,1.2,9.09,1.87-.92.65-1.57,1.14-2.24,1.58q-23.43,15.65-46.88,31.27a2.22,2.22,0,0,0-1.1,2c-.26,7.75-.4,15.52-.94,23.26a135.47,135.47,0,0,1-3.22,21.1c-.25,1.07-.71,1.27-1.71,1.27q-38.74,0-77.47,0H60.8Zm97.32-75.08a14.79,14.79,0,1,0-14.83,14.75A14.77,14.77,0,0,0,158.11,51.83Z"/></g></g></svg>