<svg xmlns="http://www.w3.org/2000/svg" viewBox="0 0 91.19 91.19"><defs><style>.cls-1,.cls-3{fill:#ffdd4d;}.cls-1{opacity:0.3;}.cls-2{fill:#ff9343;}.cls-4{fill:#bcbec0;}.cls-5{fill:#e6e7e8;}.cls-6{fill:#fff1b6;}.cls-7{fill:#fff;}</style></defs><title>New Member</title><g id="Layer_2" data-name="Layer 2"><g id="Layer_1-2" data-name="Layer 1"><circle class="cls-1" cx="45.59" cy="45.59" r="45.59"/><rect class="cls-2" x="66.59" y="39.59" width="4" height="4"/><rect class="cls-2" x="62.59" y="39.59" width="4" height="4"/><rect x="58.59" y="47.59" width="4" height="4"/><rect x="58.59" y="43.59" width="4" height="4"/><rect class="cls-2" x="58.59" y="39.59" width="4" height="4"/><rect x="58.59" y="35.59" width="4" height="4"/><rect x="58.59" y="31.59" width="4" height="4"/><rect x="58.59" y="27.59" width="4" height="4"/><rect class="cls-3" x="54.59" y="47.59" width="4" height="4"/><rect class="cls-3" x="54.59" y="43.59" width="4" height="4"/><rect class="cls-2" x="54.59" y="39.59" width="4" height="4"/><rect class="cls-3" x="54.59" y="35.59" width="4" height="4"/><rect class="cls-3" x="54.59" y="31.59" width="4" height="4"/><rect class="cls-3" x="54.59" y="27.59" width="4" height="4"/><rect x="54.59" y="23.59" width="4" height="4"/><rect x="50.59" y="67.59" width="4" height="4"/><rect class="cls-4" x="50.59" y="63.59" width="4" height="4"/><rect class="cls-5" x="50.59" y="59.59" width="4" height="4"/><rect class="cls-5" x="50.59" y="55.59" width="4" height="4"/><rect class="cls-4" x="54.59" y="59.59" width="4" height="4"/><rect class="cls-5" x="54.59" y="55.59" width="4" height="4"/><rect class="cls-4" x="58.59" y="55.59" width="4" height="4"/><rect class="cls-3" x="50.59" y="47.59" width="4" height="4"/><rect class="cls-3" x="50.59" y="43.59" width="4" height="4"/><rect class="cls-3" x="50.59" y="39.59" width="4" height="4"/><rect x="50.59" y="35.59" width="4" height="4"/><rect x="50.59" y="31.59" width="4" height="4"/><rect class="cls-3" x="50.59" y="27.59" width="4" height="4"/><rect class="cls-3" x="50.59" y="23.59" width="4" height="4"/><rect x="50.59" y="19.59" width="4" height="4"/><rect class="cls-5" x="46.59" y="59.59" width="4" height="4"/><rect class="cls-5" x="46.59" y="55.59" width="4" height="4"/><rect class="cls-3" x="46.59" y="47.59" width="4" height="4"/><rect class="cls-3" x="46.59" y="43.59" width="4" height="4"/><rect class="cls-3" x="46.59" y="39.59" width="4" height="4"/><rect class="cls-3" x="46.59" y="35.59" width="4" height="4"/><rect class="cls-3" x="46.59" y="31.59" width="4" height="4"/><rect class="cls-3" x="46.59" y="27.59" width="4" height="4"/><rect class="cls-3" x="46.59" y="23.59" width="4" height="4"/><rect x="46.59" y="19.59" width="4" height="4"/><rect class="cls-5" x="42.59" y="59.59" width="4" height="4"/><rect class="cls-4" x="46.59" y="63.59" width="4" height="4"/><rect class="cls-4" x="42.59" y="63.59" width="4" height="4"/><rect class="cls-5" x="42.59" y="55.59" width="4" height="4"/><rect class="cls-3" x="42.59" y="43.59" width="4" height="4"/><rect class="cls-3" x="42.59" y="39.59" width="4" height="4"/><rect class="cls-3" x="42.59" y="35.59" width="4" height="4"/><rect class="cls-3" x="42.59" y="35.59" width="4" height="4"/><rect class="cls-3" x="42.59" y="35.59" width="4" height="4"/><rect class="cls-3" x="42.59" y="31.59" width="4" height="4"/><rect class="cls-3" x="42.59" y="27.59" width="4" height="4"/><rect class="cls-3" x="42.59" y="23.59" width="4" height="4"/><rect x="42.59" y="19.59" width="4" height="4"/><rect x="38.59" y="67.59" width="4" height="4"/><rect class="cls-4" x="38.59" y="63.59" width="4" height="4"/><rect class="cls-5" x="38.59" y="59.59" width="4" height="4"/><rect x="38.59" y="55.59" width="4" height="4"/><rect class="cls-3" x="38.59" y="43.59" width="4" height="4"/><rect class="cls-3" x="38.59" y="39.59" width="4" height="4"/><rect class="cls-3" x="38.59" y="35.59" width="4" height="4"/><rect class="cls-3" x="38.59" y="35.59" width="4" height="4"/><rect class="cls-3" x="38.59" y="35.59" width="4" height="4"/><rect class="cls-3" x="38.59" y="31.59" width="4" height="4"/><rect class="cls-3" x="38.59" y="27.59" width="4" height="4"/><rect class="cls-6" x="38.59" y="23.59" width="4" height="4"/><rect x="38.59" y="19.59" width="4" height="4"/><rect class="cls-5" x="34.59" y="59.59" width="4" height="4"/><rect class="cls-7" x="34.59" y="63.59" width="4" height="4"/><rect class="cls-5" x="34.59" y="55.59" width="4" height="4"/><rect class="cls-3" x="34.59" y="43.59" width="4" height="4"/><rect class="cls-3" x="30.59" y="43.59" width="4" height="4"/><rect class="cls-3" x="34.59" y="39.59" width="4" height="4"/><rect class="cls-6" x="30.59" y="39.59" width="4" height="4"/><rect x="34.59" y="35.59" width="4" height="4"/><rect class="cls-6" x="34.59" y="35.59" width="4" height="4"/><rect class="cls-6" x="34.59" y="35.59" width="4" height="4"/><rect class="cls-6" x="34.59" y="31.59" width="4" height="4"/><rect class="cls-6" x="34.59" y="27.59" width="4" height="4"/><rect x="34.59" y="23.59" width="4" height="4"/><rect class="cls-7" x="30.59" y="59.59" width="4" height="4"/><rect class="cls-5" x="30.59" y="55.59" width="4" height="4"/><rect x="26.59" y="43.59" width="4" height="4"/><rect class="cls-6" x="26.59" y="43.59" width="4" height="4"/><rect x="22.59" y="43.59" width="4" height="4"/><rect class="cls-6" x="26.59" y="39.59" width="4" height="4"/><rect x="30.59" y="35.59" width="4" height="4"/><rect x="30.59" y="35.59" width="4" height="4"/><rect x="30.59" y="35.59" width="4" height="4"/><rect x="30.59" y="31.59" width="4" height="4"/><rect x="30.59" y="27.59" width="4" height="4"/><rect class="cls-7" x="26.59" y="55.59" width="4" height="4"/><rect class="cls-5" x="50.59" y="51.59" width="4" height="4"/><rect class="cls-5" x="54.59" y="51.59" width="4" height="4"/><rect class="cls-4" x="58.59" y="51.59" width="4" height="4"/><rect class="cls-5" x="46.59" y="51.59" width="4" height="4"/><rect x="42.59" y="51.59" width="4" height="4"/><rect class="cls-3" x="38.59" y="51.59" width="4" height="4"/><rect x="34.59" y="51.59" width="4" height="4"/><rect class="cls-5" x="30.59" y="51.59" width="4" height="4"/><rect class="cls-7" x="26.59" y="51.59" width="4" height="4"/><rect x="26.59" y="39.59" width="4" height="4"/><rect x="26.59" y="35.59" width="4" height="4"/><rect class="cls-3" x="34.59" y="47.59" width="4" height="4"/><rect x="30.59" y="47.59" width="4" height="4"/><rect x="26.59" y="47.59" width="4" height="4"/><rect x="22.59" y="47.59" width="4" height="4"/><rect x="54.59" y="47.59" width="4" height="4"/><rect x="58.59" y="47.59" width="4" height="4"/><rect x="62.59" y="47.59" width="4" height="4"/><rect x="22.59" y="51.59" width="4" height="4"/><rect x="62.59" y="51.59" width="4" height="4"/><rect x="22.59" y="55.59" width="4" height="4"/><rect x="62.59" y="55.59" width="4" height="4"/><rect x="26.59" y="59.59" width="4" height="4"/><rect x="58.59" y="59.59" width="4" height="4"/><rect x="30.59" y="63.59" width="4" height="4"/><rect x="34.59" y="67.59" width="4" height="4"/><rect x="38.59" y="67.59" width="4" height="4"/><rect x="42.59" y="67.59" width="4" height="4"/><rect x="46.59" y="67.59" width="4" height="4"/><rect x="54.59" y="63.59" width="4" height="4"/><rect x="50.59" y="67.59" width="4" height="4"/><rect x="50.59" y="47.59" width="4" height="4"/><rect x="46.59" y="47.59" width="4" height="4"/><rect x="42.59" y="47.59" width="4" height="4"/><rect class="cls-3" x="38.59" y="47.59" width="4" height="4"/></g></g></svg>