<?xml version="1.0" encoding="utf-8"?>
<!-- Generator: Adobe Illustrator 21.1.0, SVG Export Plug-In . SVG Version: 6.00 Build 0)  -->
<svg version="1.1" id="Layer_1" xmlns="http://www.w3.org/2000/svg" xmlns:xlink="http://www.w3.org/1999/xlink" x="0px" y="0px"
	 viewBox="0 0 200 200" style="enable-background:new 0 0 200 200;" xml:space="preserve">
<style type="text/css">
	.st0{fill:#618AFF;}
	.st1{fill:#191919;}
</style>
<path class="st0" d="M31,80.2c-0.2,0-0.3,0.2-0.3,0.3c0,0.1,0.1,0.2,0.3,0.3c11.4-0.5,25.9-1.9,41.4-1.3c0.2,0,0.3-0.2,0.2-0.3
	c0-0.1-0.1-0.2-0.2-0.2C58.4,78.4,46.4,79.3,31,80.2z"/>
<path class="st0" d="M82.5,79.5h2.6c0.2,0,0.3-0.2,0.3-0.3c0-0.1-0.1-0.2-0.3-0.3h-2.6c-0.2,0-0.3,0.2-0.3,0.3
	C82.3,79.4,82.4,79.5,82.5,79.5z"/>
<path class="st1" d="M194.3,54.2c-0.5-1.7-2.1-6.3-2.7-8.1c-0.6-1.5-1-3.1-2.2-4.3c-1-0.9-2.3-1.2-3.6-1c-1.5,0.3-2.7,1.2-3.3,2.6
	c-0.7,1.3-1.1,2.9-2.1,4.1c-0.1,0.2,0.1,0.4,0.2,0.3c2.2-1.4,1.8-4.8,4.2-5.9c1.1-0.5,2.4-0.4,3.5,0.2c1.3,0.8,1.7,2.4,2.2,3.7
	c1.2,3.3,2.4,6.7,3.4,10.1c0.3,1.1,0.7,2.6-0.2,3.5c-0.8,0.8-1.2,0.2-1.8-0.5c-2.5-3.1-2.5-5-4-6.2c-1-0.8-2.8-1.2-3.6,0
	c-0.2,0.3,0.2,0.6,0.5,0.4c0.5-0.4,1.1-0.5,1.7-0.3c0.7,0.3,1.2,0.7,1.6,1.3c0.2,0.3,2.3,4.8,4,6c0.6,0.4,1.4,0.4,2-0.1
	C195.7,58.9,194.9,56.2,194.3,54.2z"/>
<path class="st1" d="M167.4,153.8c-0.5,1.7-1.1,3.4-1.9,4.9c-0.4,0.8-0.8,1.6-1.2,2.4c-0.7,1.4-1.7,3-1.1,4.4
	c0.3,0.7,0.9,1.1,1.6,1.3c1.5,0.2,3.1-0.2,4.2-1.3c2-1.6,2.9-4.1,4.4-6.2c1.5-2,3.5-3.7,4.5-5.9c1.1-2.5,1-5.1-1.2-6.8
	c-0.7-0.5-1.5-0.8-2.4-0.9c-0.3-0.1-0.3,0.3-0.1,0.4c0.4,0.1,0.7,0.3,1,0.5c0.3,0.2,0.7,0.3,1,0.5c2,1.4,2.2,3.4,1.3,5.6
	c-1.1,2.6-3.5,4.2-5.5,7.4c-0.8,1.4-1.6,2.8-2.6,4c-0.9,1.1-2.2,1.9-3.6,2c-0.7,0.1-1.4-0.3-1.7-0.9c-0.4-1.2,0.7-2.9,1.2-4.1
	c1.3-2.4,2.3-4.9,3-7.4c0.5-1.7,0.5-3.5,0.2-5.3c0-0.1-0.1-0.1-0.2-0.1c-0.1,0-0.1,0.1-0.1,0.1C168.1,150.3,167.9,152.1,167.4,153.8
	z"/>
<path class="st1" d="M139.3,57.9c0.2,0.1,0.4-0.3,0.2-0.4c-18.3-9.4-43.1-5.6-52.7,12.7l-0.7,1.3c-0.2,0.4,0.4,0.8,0.6,0.4
	c7.3-14.6,22.7-20.4,38.7-18.2C130.2,54.6,134.9,56,139.3,57.9z"/>
<path class="st0" d="M42.5,124.8c7.7-0.1,6.3-0.4,22.3-0.4c7.8,0.1,31.8,0.7,35.8,0.7c0.3,0,2.5-6.7,3-8.1c1.1-3,7.6-21.7,10-27.9
	c1.2-3,2.4-5.9,3.6-8.8c0-0.1,0-0.1-0.1-0.1c0-0.1-0.1-0.2-0.3-0.2c-4.4-0.5-8.7-0.8-13.1-0.9c-0.2,0-0.3,0.2-0.2,0.3
	c0,0.1,0.1,0.2,0.2,0.2c4.4,0.1,8.7,0.3,13,0.8c-1.3,2.4-2.5,4.8-3.5,7.3c-3.4,8.1-13.1,36.3-13.1,36.6c-13.3-0.4-45.9-1.5-57.7,0.2
	C42.2,124.5,42.2,124.8,42.5,124.8z"/>
<path class="st0" d="M60,159.6c-0.3-0.2-0.6-0.3-0.9-0.4c-5-1.9-10.4,2.4-11.6,7.2c-0.8,3.3,0.8,5.9,4.4,5.6
	c2.6-0.3,4.9-1.6,6.7-3.5C60.7,166.4,63.5,161.8,60,159.6z M55.7,169.6c-0.9,0.6-1.9,0.9-2.9,0.9c-0.2,0-0.3-0.3-0.1-0.3
	c1.1-0.5,2.1-1,3.1-1.7c1.3-0.8,2.4-1.9,3.2-3.1c1.1-1.7,1-4.2-1.4-4.7c-0.1,0-0.1-0.2,0-0.2c1-0.2,2.1,0.3,2.5,1.2
	C61.7,164.5,58.4,167.8,55.7,169.6L55.7,169.6z"/>
<path class="st0" d="M85.7,158.8c-4.4-0.7-8.9,3.4-10,7.5c-0.8,3.3,0.9,5.9,4.4,5.6c2.4-0.3,4.6-1.4,6.3-3.1c1.6-1.6,3.5-4,3.4-6.4
	C89.8,160.3,88,159.1,85.7,158.8z M85,169c-0.4,0.4-0.9,0.6-1.5,0.7c-0.2,0-0.3-0.2-0.3-0.3c0,0,0-0.1,0-0.1c0.4-0.5,1-1,1.6-1.3
	c1.3-1,2.3-2.4,2.7-4c0.2-1.2-0.1-3.2-1.6-3.5c-0.1,0-0.2-0.1-0.2-0.2c0-0.1,0.1-0.1,0.2-0.2c1.2-0.3,1.8,0.8,2.2,1.7
	c0.9,2.4-0.1,4.2-2,6.1C85.8,168.4,85.4,168.7,85,169z"/>
<path class="st0" d="M101.6,159.2c3.4-0.3,6.4-3.1,7.7-6.1c0.6-1.4,0.7-3-0.6-4.1c-1.1-0.8-2.5-1.2-3.9-1c-4.9,0.5-8.7,7-6.3,9.9
	C99.2,158.9,100.4,159.4,101.6,159.2z M103.7,157.3c-0.2,0-0.3-0.2-0.2-0.3c0.8-0.8,1.8-1.2,2.6-2.1c0.8-1,2.5-3.6,1.1-4.8
	c-0.2-0.2,0.1-0.5,0.3-0.4C110.6,151.4,106.2,157.3,103.7,157.3z"/>
<path class="st1" d="M80.9,47.3c1-1.4,1.5-3.1,1.5-4.8c-0.1-1.5-0.5-3.5-1.8-4.4c-0.2-0.2-0.5,0.2-0.4,0.4c1.5,2.8,1.9,5.6,0.1,8.4
	c-1.9,2.8-5.3,4.2-8.4,5.2c-3.3,1-6.9,1.3-9.9,3c-2.9,1.5-4.5,4.6-4.2,7.8c0.5,3.5,3,6.3,6.4,7.3c0.2,0.1,0.2-0.2,0.1-0.2
	c-2.9-1.2-5.4-3.7-5.8-6.9c-0.3-2.1,0.4-4.2,1.8-5.6C64.3,52.8,76,54.6,80.9,47.3z"/>
<path class="st1" d="M84.3,30.8c0.3-0.9,0-2-0.7-2.6c-0.7-0.4-1.6-0.4-2.3,0c-0.7,0.5-1.2,1.1-1.5,1.9c-0.2-1.2-1.7-1.1-1.6,0.3
	c-0.2-0.1-0.3-0.2-0.4-0.3c-0.7-0.4-1.6-0.5-2.3-0.3c-2.7,1.2-1.3,6.1,1.1,4.9c0.9-0.6,1.6-1.5,2-2.6c0.6,1.9,2.3,1,1.8-0.7
	c0.5,0.6,1.3,0.9,2.1,0.8C83.3,32.4,84.1,31.8,84.3,30.8z M82.7,28.7c1.5,0.1,1.4,2.7-0.3,2.9c-0.8,0.1-1.4-0.6-2.1-1
	C80.9,29.7,81.5,28.7,82.7,28.7z M76.8,33.5c-0.3,0.4-1,1.1-1.5,0.5c-0.8-1-0.7-2.4,0.3-3.2c0,0,0,0,0,0c0.4-0.2,0.9-0.2,1.3-0.1
	c0.4,0.2,0.8,0.4,1.2,0.6C77.8,32.1,77.4,32.8,76.8,33.5z"/>
<path class="st1" d="M177.9,51.2c-7.4,5.6-13.8,11.8-16,20.9c1.1,0.9,2,2.1,2.6,3.4c0.1,0.1-0.1,0.2-0.2,0.1
	c-1.7-1.4-3.7-4.3-11.4-9.2c-3.3-2.2-6.8-4-10.5-5.5c-0.1,0-0.1-0.1-0.2-0.1c-0.6,1.7-1.5,3.3-2.6,4.8c-0.4,0.5-0.5,0.1-0.4,0
	c0-0.1,2.2-4.9,2.3-5c-0.1-0.3-2.6-0.8-2.9-0.9c-0.5-0.1-0.8,0.3-1.1,0.6c-6.6,6.3-7.3,12.6-14.3,19.1c-1.2,1.1-2.5,2-3.9,2.7
	c-0.2,0.1-0.2,0.3-0.2,0.4c6.4,22.1,21.1,45,41.8,60.9c1.1,0.8,6.3,4.4,6.5,4.4c1.8-0.6,4.2-2.5,4.2-4.4c-0.2-0.7-9.1-17-12.3-21.4
	c-2.7-3.7-5.6-7.2-8.7-10.5c-0.8-0.9-2.3-1.8-2.9-2.9c-0.1-0.4-0.2-0.8-0.2-1.2c-2.1-13.7-5.1-25.3-5.4-29.8c0-0.2,0.2-0.2,0.2-0.1
	c0.8,2.4,1,3.8,1.3,5.3c3.7,1.1,7.6,1.9,11.5,2.5c3.9,0.5,8.3,1.2,12.1-0.4c3.2-1.3,5.3-4.2,6.8-7.2c3.4-6.6,6.1-17,7.9-22.8
	C182.1,52,178,51.1,177.9,51.2z M133.9,74.2c-0.1,0.9-1.3,2-1.9,2.6c-1,1.2-2.1,2.3-3.1,3.5c0,0.1-0.1,0.1-0.2,0c0,0,0,0,0-0.1
	c0.6-1.3,1.4-2.5,2.3-3.6c0.6-0.7,1.6-2.4,2.6-2.7C133.7,73.9,133.9,74,133.9,74.2z"/>
<path class="st1" d="M122.7,67c-3.5,3.5-6,11.4-4.9,16c0.1,0.3,0.6,0.2,0.6-0.1c-0.2-2.1-0.1-4.1,0.4-6.2c1-4.4,2.7-6.8,4.3-9.5
	C123.1,67,122.9,66.8,122.7,67z"/>
<path class="st1" d="M116,70c-0.7,3-0.8,6.2-0.3,9.2c0.1,0.3,0.6,0.2,0.6-0.1c-0.1-1.5-0.2-3-0.2-4.6c0.1-1.5,0.2-3,0.3-4.5
	C116.5,69.8,116.2,69.7,116,70z"/>
<path class="st1" d="M84.8,88.9c-0.1-0.3-0.4-0.5-0.7-0.5c-0.3,0-0.6,0.3-0.6,0.6c0,0.3,0.2,0.6,0.5,0.7c0.3,0.1,0.6-0.1,0.7-0.4
	C84.8,89.2,84.8,89.1,84.8,88.9z"/>
<path class="st1" d="M96.5,90.8c-0.1-0.3-0.4-0.5-0.7-0.5c-0.3,0-0.6,0.3-0.6,0.6c0,0.3,0.2,0.6,0.5,0.7c0.3,0.1,0.7-0.1,0.7-0.4
	C96.6,91.1,96.6,91,96.5,90.8z"/>
<path class="st1" d="M97.7,73c-0.1-0.3-0.4-0.5-0.7-0.5c-0.3,0-0.6,0.3-0.6,0.6c0,0.3,0.2,0.6,0.5,0.7c0.3,0.1,0.7-0.1,0.7-0.4
	C97.8,73.2,97.7,73.1,97.7,73z"/>
<path class="st1" d="M134.3,59.3c-0.1-0.3-0.4-0.5-0.7-0.5c-0.3,0-0.6,0.3-0.6,0.6c0,0.3,0.2,0.6,0.5,0.7c0.3,0.1,0.6,0,0.7-0.3
	C134.4,59.6,134.4,59.4,134.3,59.3z"/>
<path class="st1" d="M117,56.1c-0.1-0.3-0.4-0.5-0.7-0.5c-0.3,0-0.6,0.3-0.6,0.6c0,0.3,0.2,0.6,0.5,0.7c0.3,0.1,0.7-0.1,0.7-0.4
	C117,56.3,117,56.2,117,56.1z"/>
<path class="st1" d="M89.3,98.7c-0.2-0.1-0.5,0.1-0.6,0.3c-0.1,0.2,0,0.4,0.2,0.5C89.3,99.9,90,99.1,89.3,98.7z"/>
<path class="st1" d="M90.2,82.5c-0.2-0.1-0.5,0.1-0.6,0.3c-0.1,0.2,0,0.4,0.2,0.5c0.3,0.3,0.9-0.2,0.7-0.6
	C90.4,82.6,90.3,82.5,90.2,82.5z"/>
<path class="st1" d="M105.7,75.6c-0.2-0.1-0.5,0.1-0.6,0.3c-0.1,0.2,0,0.4,0.2,0.5c0.3,0.3,0.9-0.2,0.7-0.6
	C105.9,75.7,105.8,75.6,105.7,75.6z"/>
<path class="st1" d="M129.5,66.7c-0.2-0.1-0.5,0.1-0.6,0.3c-0.1,0.2,0,0.4,0.2,0.5c0.2,0.1,0.5,0.1,0.6-0.1c0.1-0.1,0.1-0.3,0-0.4
	C129.7,66.8,129.6,66.7,129.5,66.7z"/>
<path class="st1" d="M82.3,98.2c0.4-0.3,0.3-0.8-0.3-0.9c-0.4-0.1-0.6,0.6-0.3,0.8C81.9,98.2,82.1,98.3,82.3,98.2z"/>
<path class="st1" d="M111.2,69.7c0.4-0.3,0.3-0.8-0.3-0.9c-0.4-0.1-0.6,0.6-0.3,0.8C110.7,69.8,111,69.8,111.2,69.7z"/>
<path class="st1" d="M101.4,62.9c0.4-0.3,0.3-0.8-0.3-0.9c-0.4-0.1-0.6,0.6-0.3,0.8C101,63,101.2,63,101.4,62.9z"/>
<path class="st1" d="M123.3,61.6c0.4-0.3,0.3-0.8-0.3-0.9c-0.4-0.1-0.6,0.6-0.3,0.8C122.8,61.7,123.1,61.7,123.3,61.6z"/>
<path class="st1" d="M123.3,76c0.4-0.3,0.3-0.8-0.3-0.9c-0.4-0.1-0.6,0.6-0.3,0.8C122.8,76,123,76.1,123.3,76z"/>
<path class="st1" d="M78.1,87.3c0.2-0.1,0.3-0.2,0.2-0.4c-0.1-0.8-1.3-0.4-0.9,0.3C77.5,87.3,77.8,87.4,78.1,87.3
	C78.1,87.3,78.1,87.3,78.1,87.3z M77.7,87.2L77.7,87.2z"/>
<path class="st1" d="M84.1,83.1c-0.5-0.7-1.1-1.4-1.6-2.1c-0.1-0.1-0.3,0-0.2,0.1c0.4,0.7,0.8,1.5,1.3,2.2c0.4,0.8,0.8,1.6,1.2,2.3
	c1.8,3.7,1.4,3.4,2,4.3c0.2,1.7,0.4,3.4,0.7,5.1c0,0.1,0.1,0.1,0.2,0.1c0.1,0,0.1-0.1,0.1-0.1c0.1-7.4-2.4-15.1,0.6-21.5
	c0.8-1.5,1.8-2.9,3-4.1c0.1-0.1-0.1-0.3-0.2-0.2c-0.7,0.4-1.3,0.9-1.8,1.4c-4.1,4.5-3.5,10.7-3,16.7C85.8,85.8,85,84.4,84.1,83.1z"
	/>
<path class="st1" d="M71.3,78.3c0.3-0.2,0.6-0.2,0.9-0.2c2,0.2,2.4,3.1,2.9,3.9c-0.1,0.1-0.1,0.1-0.2,0.1c-0.1-0.2-0.5-0.1-0.5,0.2
	c0,2.4,0.3,4.8,1,7.1c1.6,6.3,4.2,13.5,10.6,15c1.9,0.5,4,0.2,5.8-0.7c4.9-2.7,7.8-10.5,9.4-15.8c1.2-4.3,2.1-8.7,2.6-13.2
	c0.1-0.6,0.1-1.1,0.1-1.7c0-0.1-0.2-0.1-0.2,0c-0.1,0.5-0.3,1-0.4,1.6c-1.6,7-2.7,15.5-7.1,23c-1.8,3.1-4.5,6.4-8.5,6.2
	c-4.1-0.2-7.2-3.5-8.8-7c-2.9-6-3.4-12.8-3.8-14c1.2-0.4,2.2-1,3.4-1.4c2.8-1,3.3-0.9,3.8-1.2c0.2-0.1,0.2-0.3,0.1-0.5
	c-0.1-0.1-0.2-0.2-0.3-0.2h-0.3c0-1.2-0.2-2.4-0.6-3.6c-0.2-0.5-0.4-1-0.7-1.5c-0.3-0.4-0.8-0.7-1.3-0.8c-0.1,0-0.2,0-0.3,0.1
	c0,0.1,0,0.2,0.1,0.3c0.4,0.3,0.7,0.6,0.9,0.9c0.7,1,1,3.7,1.1,4.7c-1.9,0.5-3.7,1.2-5.4,2.1c0-0.7-0.2-1.3-0.4-1.9
	c-0.2-0.7-0.6-1.4-1.2-1.9c-0.7-0.8-1.9-1-2.8-0.4C70.4,77.8,70.9,78.7,71.3,78.3z"/>
<path class="st1" d="M75.3,76.6c0.2,0,0.4-0.1,0.4-0.3c0-0.1,0-0.2,0-0.2c-0.5-0.6-1.2-0.9-2-0.9c-0.7-0.1-1.4,0.4-1.6,1.1
	c-0.1,0.2,0.2,0.4,0.4,0.2c0.2-0.3,0.6-0.4,0.9-0.5C74.1,75.8,74.8,76.4,75.3,76.6z"/>
<path class="st1" d="M77.5,74.8c-0.3-0.6-1.1-0.9-1.7-0.6c-0.1,0.1-0.2,0.3-0.1,0.4c0.1,0.1,0.1,0.1,0.2,0.2c0.2,0,0.4,0.1,0.6,0.2
	c0.1,0.1,0.2,0.2,0.3,0.3c0.1,0.2,0.4,0.2,0.6,0.1S77.7,75,77.5,74.8L77.5,74.8z"/>
<path class="st0" d="M41.8,107.4c-0.2,0.1-0.1,0.4,0.1,0.3c1.8-0.7,8.3-4.2,9.7-4.9c0.5,0.7,1.1,1.5,1.7,2.1c0.1,0.1,0.2,0.1,0.3,0
	c0.1-0.1,0.1-0.2,0-0.2c-0.4-0.8-0.8-1.5-1.3-2.2c0.1-0.1,4.1-2.1,6.1-3.1c1.3,2,2.7,4,4.1,5.9c-2,1.1-4,2.2-5.9,3.5
	c-0.2,0.2-0.1,0.4,0.2,0.3c2.1-1,4-2.2,6-3.3c0.1,0.1,3.1,4.4,3.7,5c0.1,0.1,0.3,0.1,0.4,0c0.1-0.1,0.1-0.2,0-0.3
	c-0.4-0.8-3.2-4.8-3.5-5.1c0.2-0.1,7.3-3.8,7.8-4.3c0.2-0.1,0-0.3-0.2-0.3c-0.7,0.2-7.8,3.9-8,4c-0.7-1-3.4-4.9-4.1-5.9
	c1.4-0.7,6-3,6.9-3.5c0.2,0.3,1.6,2.6,1.8,2.8c0.2,0.2,0.6,0,0.4-0.3c-0.1-0.3-1.5-2.5-1.7-2.9c0.3-0.2,2.1-1,2.6-1.3
	c0.1-0.1,0.1-0.3,0.1-0.4c-0.1-0.1-0.2-0.1-0.3-0.1c-0.9,0.3-1.8,0.7-2.7,1.2c-0.1,0-2-2.9-2.9-4.1c-0.1-0.1-0.2-0.1-0.3-0.1
	c-0.1,0.1-0.1,0.2-0.1,0.3c0.7,1.3,2.4,4.1,2.5,4.2c-0.7,0.3-5.3,2.6-7,3.5c-1.1-1.6-3.9-5.6-4.2-6c2.1-1.1,10.6-5.3,11.5-5.7
	c0.2-0.1,0.1-0.4-0.2-0.4c-0.8,0.3-11,5.1-11.7,5.5l-2-2.9c-0.1-0.2-0.4,0-0.3,0.2c0.6,1,1.2,2,1.8,3c-2.1,1.1-4.1,2.2-6.2,3.3
	c-1.6-2.4-4-6.2-5.8-8.6c-0.1-0.2-0.3,0-0.3,0.2c1.3,2.5,5,8.3,5.4,8.8c-0.7,0.4-3.6,2.1-4.4,2.7c-0.1,0.1,0,0.3,0.1,0.2
	c0.8-0.2,4.6-2.3,4.6-2.3c1.1,1.7,3.9,5.6,4.1,6C51,102.3,43.8,106.1,41.8,107.4z M47.8,95.9c1.3-0.7,5.4-2.9,6.2-3.2
	c0.2,0.3,3.8,5.8,4,6.2c-2,1-4,2.1-6,3.1C51.7,101.6,48.2,96.4,47.8,95.9z"/>
<path class="st0" d="M100.3,103.9c0.6,1.1,1.2,2.1,2,3c0.1,0.1,0.3,0,0.3-0.2c-0.2-0.7-3.5-6.5-4.2-7.8c-0.1-0.1-0.2-0.2-0.3-0.1
	c-0.1,0.1-0.2,0.2-0.1,0.3c0,0,0,0,0,0c0.7,1.3,2.2,4.3,2.3,4.4c-1.6,0.6-14.9,6.8-17.6,8.1c-0.6-0.8-4.1-5.1-4.5-5.6
	c-0.2-0.2-0.4,0.1-0.3,0.3c0.4,0.6,3.5,4.9,4.1,5.8c-0.3,0.2-5.5,2.6-6.4,3.2c-0.1,0-0.1,0.1,0,0.2c0,0,0.1,0.1,0.1,0
	c0.9-0.2,6.1-2.6,6.7-2.9c0.1,0.1,2.8,3.6,2.9,3.7c-0.2,0.1-0.3,0.2-0.5,0.3c-0.2,0.1-0.1,0.5,0.2,0.4c0.2-0.1,0.4-0.2,0.7-0.2
	c0.6,0.8,1.3,1.6,2,2.3c0.2,0.2,0.4-0.1,0.3-0.2c-0.5-0.8-1-1.6-1.6-2.4c0.7-0.3,5.9-2.7,6.2-2.9c0.1,0.1,2.1,3.3,2.5,3.9
	c0.2,0.2,0.4-0.1,0.3-0.3c-0.6-1.3-2.2-3.9-2.2-3.9c1.7-0.8,3.4-1.6,5-2.6c0.2-0.1,0.1-0.4-0.1-0.3c-1.2,0.4-4.7,2-5.3,2.3
	c-0.5-1-1.2-1.9-1.8-2.7c-0.2-0.2-0.4,0.1-0.3,0.2c0.4,1,1,1.9,1.5,2.8c-0.2,0.1-5.5,2.6-6.2,3c-0.1-0.1-1.9-2.6-2.7-3.6l-0.1-0.1
	C83.8,111.8,98.7,104.9,100.3,103.9z"/>
<path class="st0" d="M5.8,68.6c-0.9,0.6-1.1,1.8-0.6,2.7c0.6,1.4,5.1,1.5,6.4,1.7c3.1,0.4,7.1,1.1,9.9-0.7c0.4,0.1,3.4,0.3,3.7,0.7
	c0.4,0.4,3.8,13,5.3,18.8c1.5,5.8,14.8,55.7,15,56.5c0.1,0.4,0.5,0.7,0.9,0.7c5.6-0.1,40.3-0.7,43.6-0.9c0.4,0,0.7-0.4,0.7-0.8
	c0-0.4-0.3-0.7-0.7-0.7c-5.6-0.1-39.9,0.5-42.8,0.5c-4-13.5-19.2-74.3-20.6-75.3c-0.6-0.4-4.1-0.8-4.1-1c0-1.4-2.7-1.3-4-1.5
	c-2.6-0.3-5.1-0.4-7.7-0.7c-0.1,0-0.1,0-0.1-0.1c0-0.1,0-0.1,0.1-0.1c0,0,0,0,0,0c1.2-0.1,2.3-0.1,3.5-0.1c1.1,0.1,3.6,0.2,3.6,0.2
	c2.5-0.5,4.9-0.9,7.4-1.3c4.6-0.8,13.5-2.7,17.3-1c2,0.9,2.6,1,3.9,0.6c0.7,0.2,3,0.6,3.2,1.2c0.9,2.6,1.4,5.3,1.7,8
	c0,0.1-2.2,0.6-2.8,0.7c-2.5,0.4-5,0.8-7.5,1.2c-2.3,0.3-5.1,0.3-7.3,1.2c-0.1,0.1-0.2,0.3,0,0.3c2.5,0.2,19.1-2.7,18.5-2.6
	c1.9,0.2,11.4,0,16.8,0c0.4,0,1.1,0.1,1.3-0.3c-0.4-0.4-1.1-0.3-1.6-0.3c-0.6-0.1-1.1-0.1-1.7-0.1c-2.5,0-14.4-0.1-14.7,0.2
	c0.1-0.1-1.5-6.7-1.9-8.7c-0.2-0.8-1.2-0.9-3-1.5c1.1-1.5-4.6-3.2-5.9-3.4c-5.1-0.6-10.6,0.5-23.1,2.7C15.2,66,8.6,66.8,5.8,68.6z"
	/>
<path class="st0" d="M124,101.1c-1.8,3-3.6,7.9-5,11.1c-0.5,1.3-1,2.5-1.4,3.9c0,0.2,0.1,0.3,0.2,0.4c0,0,0,0,0,0
	c-1,0.3-1.9,0.7-2.8,1.1c-3.2,1.4-6.4,3-9.4,4.7c-1.2,0.6-2.3,1.3-3.3,2.1c-0.1,0.1-0.1,0.2,0,0.3c0.1,0.1,0.1,0.1,0.2,0.1
	c0.5-0.2,1-0.4,1.5-0.7c8.4-4.7,13-6.4,14.3-7.2c0.1-0.1,0.1-0.2,0-0.3c0-0.1-0.1-0.1-0.2-0.1h-0.1c0.2-0.2,3.3-8,4.6-11.3
	c0.5-1.3,1-2.5,1.3-3.9C124.2,101.1,124.1,101,124,101.1z"/>
<path class="st0" d="M59.9,141.7c0.1,0.4,0.4,0.6,0.8,0.6c1.5-0.1,11.1-0.2,14.4-0.2c29.8-0.4,31.7-0.3,35.5-1
	c0.4-0.1,0.1-0.5-0.2-0.7c-1.8-1-47.8,0.2-48.9,0.2c-0.4-2.4-2.3-13.6-2.6-14.9c-0.1-0.3-0.4-0.4-0.6-0.3c-0.2,0.1-0.3,0.2-0.3,0.4
	C57.9,127.1,59.5,139.1,59.9,141.7z"/>
</svg>
