<?xml version="1.0" encoding="utf-8"?>
<!-- Generator: Adobe Illustrator 21.1.0, SVG Export Plug-In . SVG Version: 6.00 Build 0)  -->
<svg version="1.1" id="Layer_1" xmlns="http://www.w3.org/2000/svg" xmlns:xlink="http://www.w3.org/1999/xlink" x="0px" y="0px"
	 viewBox="0 0 200 200" style="enable-background:new 0 0 200 200;" xml:space="preserve">
<style type="text/css">
	.st0{fill:#191919;}
	.st1{fill:#618AFF;}
</style>
<path class="st0" d="M161.4,80.6c0-0.5-1-1.3-1.1,0c-0.4,23.1-1.1,45.5-2.3,68.2c0,0.6,1.1,0.9,1.1,0.3
	C160.8,116.8,161.2,105.4,161.4,80.6z M128.5,127.8c-0.8,0.1-1.2,0.4-1.2,1.4c0,5.5,0,11.8,0.4,16.7c0.1,1.3,1.1,1.2,1-0.1
	c-0.3-4.9-0.3-11.8-0.2-17c1.5-0.1,4-0.1,5.4-0.1c1,0,1.2-0.3,1.2-1.2c-0.2-4.7,0-10.9-0.2-16.1c0-0.8-0.3-1-1-1
	c-1.9,0-4.8,0-6.2,0.1c-0.4,0.1-0.5,0.8,0,0.8c2,0.1,4.2,0,6.2,0.1c0,5.2-0.1,11.1,0,16.2C132.2,127.7,130,127.7,128.5,127.8
	L128.5,127.8z M124.1,88.6c0,22.4,1,40.4,1.2,60.7c0,0.6-0.9,0.7-0.9,0.1c-0.8-23.5-1.6-42.2-1.6-60.8c0-0.9,0.4-1.2,1.3-1.2
	c4.3-0.1,23.2-0.5,27.7-0.5c1,0,1.3,0.4,1.3,1.6c0.5,19.8,0.4,39.5-0.4,60c0,0.6-1,0.4-1-0.1c0.3-20,0.7-39.6,0.4-60.1
	C144.7,88.2,130.6,88.5,124.1,88.6z M148.2,146.4c0.9-17.5,0.3-32,0.5-52.8c0-0.4,0.8-0.7,0.8-0.1c0.1,17.4,0.4,40.1-0.2,52.7
	c-0.1,1.1-0.5,1.3-1.1,1.3c-5.7,0-12.9,0.4-18.4,0.1c-0.5,0-0.6-0.8,0-0.8C135.3,146.6,142.5,146.4,148.2,146.4L148.2,146.4z
	 M41.5,84.7c0-0.5-0.9-0.5-0.8,0c1.4,20.8,3.2,44.1,5.8,64.9c0.1,0.8,1.3,0.8,1.1-0.7C44.9,125.6,43.4,106.8,41.5,84.7z M48.3,89.2
	c1.2,15.2,1.9,31.6,3.7,48.3c19.8-0.3,43.5-1.2,63.1-1.6c1.4,0,1.2,1.1,0.5,1.1c-21,0.7-42.1,1-63.1,1.6c-1.3,0-1.6,0.3-1.7-1.1
	c-1.2-13.8-2.8-33.9-3.4-48.2c0-0.2,0.2-0.5,0.4-0.5S48.3,89,48.3,89.2z M52.1,93.3c20-0.8,39.7-0.3,59.5-1c0.6,0,0.6-0.9,0-0.9
	c-19.1-0.1-41.2,0.4-59.6,0.9c-0.7,0-0.9,0.3-0.9,1.2c0.8,12.9,2.1,25.8,3.5,40.2c0.1,0.6,1,0.5,0.9-0.1
	C54.1,120.5,53.3,106.3,52.1,93.3L52.1,93.3z M115.9,87.7c-21.7,0-44.4,0.2-65.5,1c-0.6,0-0.7,1,0,1c21.9-0.7,43.9-0.9,66-0.8
	c0.3,15.3,0.2,31,0.4,45.7c0,1.5,1.1,1.3,1.1,0.6c0-13.6-0.2-31-0.5-45.9C117.5,87.6,117.1,87.7,115.9,87.7L115.9,87.7z M113.5,94.2
	c0-0.5-0.8-0.6-0.8-0.1c-0.1,12.1,0.5,24.7,0.2,37c-18.2,0.6-37.7,1.6-55.8,2.4c-0.5,0-0.4,0.8,0.1,0.8c18.6-0.6,36.9-1.5,55.5-2
	c1.1,0,1.4-0.4,1.4-1.6C114,119.5,113.5,94.2,113.5,94.2L113.5,94.2z M147.6,91.9c-4.3-0.3-16.7-0.3-19.8-0.1
	c-0.8,0.1-0.9,0-0.9,0.8c-0.1,3.1-0.1,9.7,0.3,16.2c0,0.8,1,0.7,0.9-0.1c-0.3-6.8-0.1-13.3-0.3-16.1c3.2,0.1,12.6-0.2,19.9,0
	C148.1,92.8,148.1,91.9,147.6,91.9L147.6,91.9z"/>
<path class="st1" d="M54.2,50.5c-4.1,4.8-18.3,22.2-18.5,23.7c-1.1,11.1,13.9,8.6,15.2,0.2c3.3-6,11.8-20.2,13.8-24.3
	c2.8-0.1,5.5-0.2,8.4-0.3c-1.3,3.9-6.4,20.7-6.9,23.8c0.8,10,12.3,7.8,12.4-0.5c0.1-1.1,3-19.3,3.5-23.6c3.2-0.1,6.5-0.2,9.8-0.2
	c-0.3,4.2-0.8,21-1,23.5c0.6,10.6,12.6,8.3,13.2-0.3c-0.1-1-2.7-18.9-3.5-23.4c3.6-0.1,7.1-0.1,10.7-0.2c1.5,4.3,8.7,22.2,8.9,23.3
	c0.2,9.4,13.1,9.5,13.6-0.4c-0.6-3.1-10.1-19.2-12.4-23.1c4-0.1,7.9-0.2,11.8-0.3c2.3,3.6,12.4,16.9,15.7,23
	c2.5,11.9,16.9,8,15.2-0.6c-0.3-1.7-17.4-19.5-20.7-22.7c-1-1-1.9-1.2-3.7-1.2c-11.7,0.2-69.9,1.5-82,2.1
	C56.2,48.9,55,49.5,54.2,50.5z M147.2,72.8c0.1-0.3,0.3-0.4,0.6-0.4c0.3,0.1,0.4,0.3,0.4,0.6c-0.5,3.3-3.3,5.8-6.6,5.9
	c-3.1,0-6.4-2.4-6.7-5.6c0-0.2,0.2-0.4,0.4-0.4c0.2,0,0.4,0.1,0.4,0.3c0.8,2.5,3.1,4.7,5.9,4.6C144.3,77.5,146.6,75.5,147.2,72.8z
	 M64.7,76.2c0.2-0.4,0.9,0,0.8,0.3c-0.7,3.3-3.6,5.6-7,5.7c-3.4,0.1-6.5-2.1-7.5-5.3c-0.1-0.2,0.1-0.5,0.3-0.5
	c0.2-0.1,0.4,0,0.5,0.2c1.1,2.7,3.8,4.5,6.7,4.4C62.2,80.8,63.4,79,64.7,76.2z M89.1,74.8c0.2-0.4,0.9-0.3,0.9,0.1
	c0,2.7-2.7,4.9-5.2,5.2c-2.6,0.3-5.6-1.3-6.3-3.9c-0.1-0.4,0.5-0.8,0.7-0.4c1.1,2,3,3.5,5.3,3.2C87.1,78.8,88.4,77,89.1,74.8z
	 M118.1,73.1c0.2-0.5,0.9-0.3,0.9,0.3c-0.6,3.6-3.5,6.4-7.2,6.8c-3.6,0.4-6.9-2-7.5-5.6c-0.1-0.5,0.7-0.7,0.8-0.2
	c0.8,3,3.7,4.9,6.7,4.6C115.3,78.5,117,76.1,118.1,73.1z M196.9,150.2c-24.3,0.1-151.3,1-186.6,1.8c-0.6,0-0.5,1,0.1,1
	c24.2,0.5,48.8-0.2,73-0.5c37.9-0.3,75.8-0.5,113.6-1C197.7,151.5,197.6,150.2,196.9,150.2z M72.3,94.5c0.3-0.7,1.4-0.3,1.1,0.4
	c-2.6,5.2-5.1,10.5-7.8,15.6c-0.2,0.4-1,0-0.8-0.4C67.2,104.8,69.8,99.7,72.3,94.5z M96.7,112.5c-0.1-0.5-0.9-0.5-0.9,0.1
	c0,1.8,0.1,3.5,0.2,5.3c-1.5-1.2-3-2.5-4.3-4c-1-1-1.5-0.6-1.4,0.7c0,1,0.4,5.9,0.9,6.3c0.2,0.2,0.6,0.1,0.8-0.1
	c0.4-0.6-0.4-3.9-0.5-5.6c1.4,1.7,3,3.2,4.7,4.5c0.3,0.3,0.8,0.3,1.1,0c0.2-0.2,0.2-0.4,0.2-0.6C97.1,116.9,97,114.7,96.7,112.5z
	 M88.8,120.3c-1.4,0.2-2.8,0.5-4.2,0.9c-0.4-1.9-0.8-4-1.3-5.9c1.1-0.2,2.2-0.4,3.2-0.6c0.9-0.2,0.6-1.3-0.8-1
	c-0.9,0.2-2.1,0.4-3,0.7c-0.7,0.2-0.6,0.4-0.5,1c0.4,2,0.7,4.3,1.1,6.1c0.2,0.7,0.3,1,1.4,0.9c0.7-0.1,3.8-0.6,4.3-1
	c0.2-0.2,0.2-0.6,0-0.8C89,120.4,88.9,120.4,88.8,120.3z M86.9,116.9c0.7-0.1,1,0.7,0.4,1c-0.4,0.2-1.8,0.5-2.4,0.7
	c-0.5,0.2-0.9-0.6-0.4-0.9C85.3,117.4,86.1,117.1,86.9,116.9L86.9,116.9z M79.9,115.6c-1.2-1.8-4.8-1.1-6.4-0.2
	c-0.5,0.2-0.3,1,0.3,0.9c0.3-0.1,0.6-0.1,0.9-0.2c1.1,4.3,1.2,6.2,1.4,6.5c0.2,0.3,0.5,0.4,0.8,0.2c0.1-0.1,0.2-0.2,0.2-0.3
	c0.2-0.8-1.1-5.6-1.4-6.5c0.9-0.1,2.5-0.4,3.1,0.3c1.1,1,0.2,2.4-1.1,2.5c-0.6,0.1-0.7,1.2,0.6,1c1.4-0.2,2.4-1.5,2.1-2.9
	C80.3,116.3,80.2,115.9,79.9,115.6L79.9,115.6z M72.4,117c1.7,2.6,0.5,6.6-2.8,6.7c-3.1,0.1-4.6-4.1-2.5-6.2c0.2-0.2,0.4-0.2,0.6,0
	c0.1,0.1,0.2,0.3,0.1,0.5c-1,2-0.5,4.9,2,4.6c2.3-0.3,2.7-3.1,1.5-4.8c-0.5-0.8-1.5-1.1-2.4-0.7c-0.5,0.2-1-0.3-0.7-0.7
	C69.4,115,71.5,115.7,72.4,117L72.4,117z M102.8,121.9c-0.2-4.3-1.3-10.9-1.5-13.2c-11.9,1.5-24.9,2.6-36.9,4.4
	c-0.6,0.1-0.6-0.8-0.1-0.9c11.6-1.8,24.4-3.2,36.2-4.6c1.1-0.1,1.6-0.2,1.8,1c0.8,4.1,1,8.4,1.7,12.6c0.2,1.3-0.3,2-1.8,2.2
	c-11.4,1.6-23,3.1-35.8,4.7c-2.3,0.3-2.3,0.2-2.8-2.3c-0.8-3.9-1.2-7.9-1.4-11.9c0-0.2,0.2-0.5,0.4-0.5c0.2,0,0.4,0.2,0.5,0.4
	c0.4,4.4,1,8.8,1.9,13.1C76.1,125.6,91.3,123.8,102.8,121.9L102.8,121.9z M98.5,106.1c-1.6-3-7.6-11.2-9.1-12.5
	c-0.4-0.3-0.9,0.2-0.6,0.6c0.7,1.1,6.2,8.1,8.9,12.4C97.9,106.9,98.8,106.5,98.5,106.1L98.5,106.1z M187.9,79.7
	c0.8-0.1,0.9,1.2,0,1.3c-2.5,0.2-5.1,0.3-7.6,0.1c-1.3-0.2-1.1-1.3-0.1-1.3C182.3,79.8,185.3,79.9,187.9,79.7L187.9,79.7z
	 M184.1,64.3c-0.1-0.6-0.8-0.3-0.8,0.1c-0.2,4.5-0.1,9,0.2,13.5c0,0.2,0.3,0.4,0.5,0.3c0.2,0,0.3-0.2,0.3-0.4
	C184.5,73.3,184.5,68.8,184.1,64.3L184.1,64.3z M184.9,83.3c0-0.3-0.3-0.6-0.6-0.6s-0.6,0.3-0.6,0.6c0.1,8.8,0,17.1,0,25.5
	c0,12.8-0.4,26.4,0.1,39.1c0.1,1.5,1.3,1.5,1.3,0.1C184.8,130.9,185.2,99,184.9,83.3L184.9,83.3z M184,51.5c-0.1-0.7-1.1-0.7-1.1,0
	c-0.1,0.9-0.1,2.2-0.1,3.1c0,1.2,1.1,1.2,1.3,0.4C184.1,53.8,184.1,52.6,184,51.5L184,51.5z M190.1,64.2c0-0.6-1-0.7-1.1-0.1
	c-0.1,0.5-0.7,8-1.7,14.2c-0.1,0.8,0.8,1.1,0.9,0.3C189.3,73.8,189.9,69,190.1,64.2L190.1,64.2z M178.1,65.1
	c-0.1-1.1-1.1-1.3-1.1,0.1c0,2.1,1.8,11.9,2.6,13.6c0.3,0.5,1,0.4,0.9-0.2C180,76.1,178.5,68.7,178.1,65.1L178.1,65.1z M191.4,61
	c-2.3-1.6-4.5-2.5-6.7-3.8c-0.6-0.5-1.5-0.5-2.2-0.1c-2.4,1.4-4.8,3-7.1,4.7c-1,0.8-0.6,1.5,0.7,1.5c4.3-0.1,10.1-0.3,13.9-0.7
	C191.6,62.4,192.4,61.7,191.4,61L191.4,61z M183.6,57.8c2,1.2,4,2.2,6,3.5c-3.8,0.3-8.6,0.5-12.6,0.8
	C178.6,61.1,182.1,58.6,183.6,57.8L183.6,57.8z M26.9,107.9c5.8,7.5,9.8,16.6,11.2,30.6c0.1,1.2-0.6,1-0.8,0
	c-1.7-10.1-3.3-19.1-10.5-28.9c-1,7.3,0,14.7,3.1,21.3c0.5,1-0.5,0.8-0.8,0.4c-3.5-7.2-4.6-15.3-3.2-23.1c0-0.3,0.3-0.5,0.6-0.5
	C26.7,107.8,26.8,107.8,26.9,107.9z M19.6,148.7c-3.3,0.1-6.6-0.2-9.9-0.9c4.2-1.8,8.6-2.8,13.2-2.9c1.6-0.1,1-1.1,0.1-1.1
	c-5,0.2-9.8,1.4-14.3,3.5c-0.7,0.3-1.1,0.9-0.1,1.2c3.6,0.9,7.3,1.3,11.1,1.1C20.6,149.5,20.9,148.7,19.6,148.7z M13.4,141.7
	c2.6,0.9,2.1,1.9-0.4,1c-3.5-1.2-6.8-2.9-9.9-4.9c-1.1-0.8-0.9-1.1,0.2-1.5c7-3,17.8-1.6,24.9,1.5c1.3,0.6,1,1.5-0.8,0.8
	c-7.8-3.2-16.4-3.8-23.6-1.5C7,139,10.2,140.5,13.4,141.7L13.4,141.7z M24,122.7c0.6,0.6,0.3,1.5-0.6,0.8c-4.7-4-9.1-6.5-15.9-9.6
	c1.5,6.8,4.7,13.2,9.3,18.4c0.3,0.4-0.2,1-0.6,0.6c-5.2-5.5-8.6-12.4-10-19.8c-0.1-0.3,0.1-0.6,0.4-0.7c0.1,0,0.3,0,0.4,0.1
	C11.7,114.5,20.2,119,24,122.7L24,122.7z M38.1,109.3c0.8,1.6,1.5,3.3,1.8,5c0.1,0.9-0.6,0.7-0.7,0.2c-0.4-1.2-0.8-2.4-1.4-3.6
	c-1,2.9-1.7,5.9-2.1,9c-0.1,1.1-0.8,0.4-0.8,0c0.1-3.6,0.9-7.2,2.3-10.5c0.1-0.3,0.4-0.4,0.7-0.3C38,109.1,38.1,109.2,38.1,109.3
	L38.1,109.3z"/>
</svg>
