<?xml version="1.0" encoding="utf-8"?>
<!-- Generator: Adobe Illustrator 21.1.0, SVG Export Plug-In . SVG Version: 6.00 Build 0)  -->
<svg version="1.1" id="Layer_1" xmlns="http://www.w3.org/2000/svg" xmlns:xlink="http://www.w3.org/1999/xlink" x="0px" y="0px"
	 viewBox="0 0 200 200" style="enable-background:new 0 0 200 200;" xml:space="preserve">
<style type="text/css">
	.st0{fill:#618AFF;}
	.st1{fill:#191919;}
</style>
<path class="st0" d="M55.2,129.2c1.2-1.5,2.1-3.2,2.6-5.1c0.3-1.2,0.5-2.4,0.6-3.6c0.4-5.2,0.5-6.6-0.9-12.6
	c-1.5-5.5-4.4-10.6-8.3-14.8c-0.1-0.1-0.1-0.2-0.2-0.3c0.5-0.3,0.9-0.5,1.4-0.7c3.6-1.6,9-3.2,13-2.7c0.7,0.1,1.4,0.5,1.8,1.2
	c2,2.7,4.3,4.9,7.7,5.5c3.1,0.7,6.1-1.2,6.8-4.3c0.1-0.4,0.1-0.8,0.1-1.3c0-1.2-0.4-2,0.5-2.2c3-0.5,6-0.1,8.7,1.1
	c0.7,0.4,1.3,0.9,1.8,1.6c6.8,7.6,10.4,11.2,13.6,19.7c0.9,2.1,1.6,4.2,2.1,6.4c2.1,10.9-0.3,13.3-2.1,20.5
	c-0.4,1.6-0.4,2.2-1.1,7.4c-4.5-2.2-9.3-3.7-14.3-4.5c-9.1-1.5-18.3-1.7-27.5-0.9c-2.2,0.2-4.4,0.5-6.7,0.7c0-0.2,0-0.4,0-0.6
	C55.7,128.2,55.7,130.8,55.2,129.2z"/>
<path class="st1" d="M77.4,83v4.9c0.4,0,0.8,0.1,1.2,0.3c0.3,0.1,0.5,0.4,0.6,0.7c0,0.4-0.3,0.6-0.7,0.5c-0.6-0.1-1.2-0.2-1.8-0.3
	c-0.5-0.1-0.6-0.5-0.6-1c0-1.6,0-3.3,0-4.9c-0.5-0.1-1.1-0.3-1.5-0.6c-0.7-0.5-0.7-1,0.4-0.8c1.8,0,3.6-0.5,5.2-1.4
	c3.2-1.8,5.4-4.9,6.1-8.6c1.5-6.9,0.3-10.9-1-18.2c-0.1-0.5-0.4-0.9-0.9-1c-0.8-0.2-1.4-0.9-2.2-1.1c-1.6-0.4-2.7,1-5.2-2
	c-1.1,2.5-3.2,3.1-5.6,3.1c-0.4,2.8-2.6,4.9-5.4,5.1c0.6,1.3,0.4,2.8-0.4,4c-0.9,1.1-2.1,1.9-3.5,2.1c0,0.2,0,0.3,0,0.5
	c-0.9,1.8-1.7-2.3-4.3-0.9c-0.9,0.4-1.3,1.4-1.2,2.3c-0.1,1.3,0.7,2.6,1.9,3.1c1.3,0.7,3,0.5,4.1-0.6c0,0.2,0.1,0.4,0.1,0.5
	c-0.3,0.7,0,1.3,0.3,1.9c0.4,0.9,0.7,1.9,1.2,2.8c1.4,3.1,3.5,4.2,5.3,6c0.9,1.1-0.2,0.9-0.5,0.9c-0.4-0.1-0.8-0.2-1.2-0.3
	c0.3,4.2,0.3,3.1,0.3,8.6c0,1-1.6,1.8-2.5,1.4c-0.2-0.2-0.4-0.5-0.3-0.8c0.2-0.5,0.9-0.4,1.3-0.8c-0.1-1.6-0.3-3.1-0.3-4.7
	c-0.2-3.5,0-4.7-0.3-4.9c-1.5-1.2-2.7-2.8-3.5-4.6c-0.2-0.4-0.4-0.4-0.7-0.3c-4.5,0.5-4.8-1.5-6-3.7c-0.1-0.2-0.2-0.3-0.4-0.5
	c-1.8-0.9-2.9-2.8-2.8-4.8c0.1-1,0-1.1-0.8-1.7c-1.9-1.3-2.6-3.6-1.9-5.7c0.4-1.2,0.7-1.6,0.5-2.3c-0.6-1.9,0-4,1.6-5.2
	c0.5-0.3,0.5-0.7,0.5-1.2c0.1-2.1-0.3-4.6,3.3-6.5c0.3-0.1,0.5-0.3,0.8-0.4c0-0.1,0-0.1,0-0.2c-0.3-0.1-0.6-0.1-0.9-0.1
	c-1.6,0.2-3.2-0.3-4.3-1.5c-0.7-0.8-1.2-1.8-1.2-2.9c-0.2-2,0.6-4.1,2.2-5.4c0.9-0.8,1.6-1.8,2.1-2.9c2.2-4.1,8-4,9.9-1.5
	c0.2,0.2,0.5,0.3,0.8,0.2c3.5-0.7,5.8,2.4,6.7,5.9c0.2,0.9,0.1,1.8-0.4,2.5c1.5,0.3,1.9,0.1,3.3,0.3c0.3,0,0.5,0.4,0.8,0.6
	c0.2,0.1,0.4,0.2,0.7,0.2c1.8-0.3,3.7,0.3,5.1,1.5c0.6,0.4,1.3,0.7,2,0.9c1.6,0.5,2.7,1.7,3.1,3.3c0.1,0.7,0.6,1.3,1.2,1.7
	c1.5,1.1,1.8,2.6,2,4.3c-0.1,1,0.1,2.1,0.6,3c1,1.5,0.9,3.4-0.2,4.8c-0.3,0.5,1.4,2.4-0.9,4.6c-0.1,0.2-0.2,0.4-0.2,0.7
	c0,5.4,0.6,8.8-2.1,14c-1,1.9-2.4,3.6-4.1,4.8C81.1,82,79.3,82.7,77.4,83z M70,39.3c-1.4,1.6-3.7,2.3-5.8,1.7
	c-0.2,0-0.4,0.1-0.5,0.2c-0.8,0.8-1.8,1.4-2.9,1.7c0.2,0.1,0.4,0.2,0.7,0.2c0.7-0.1,1.4-0.4,2-0.6c0.6-0.4,1.3-0.5,1.9-0.3
	c0.7,0.2,1.5,0.1,2.1-0.3C68.7,41.4,69.6,40.4,70,39.3z"/>
<path class="st1" d="M161.2,97.6c-1.2,3-1.8,5.2-3.9,8c-0.8,1.2-2.5,1.5-3.7,0.7c-0.1-0.1-0.3-0.2-0.4-0.3c-1.6-1.4-2.8-3.3-3.5-5.3
	c-1-2.5-0.7-2.9-1.5-2.9c-6.6,0-13.2-0.1-19.8-0.1c-15.4,0.1-12.4,0.5-19.3-0.1c-1.6-0.2-1.7-0.8-1.6-21.9
	c0.2-46.7,0.3-24.4-0.1-44.6c0-0.9,0-1.7,0.1-2.6c0.2-1.1,1-1.9,2-2.1c1.1-0.4,2.3-0.6,3.4-0.7c15.9-0.8,31.6-0.3,80.5,0.7
	c1.4-0.1,2.7,0.9,2.8,2.3c0,0.1,0,0.1,0,0.2c0.3,2.7,0.5,5.5,0.6,8.3c0,0.6,0.5,50.9,0.6,57.6c0,1.9-0.7,2.4-2.3,2.6
	c-2.9,0.3-5.8,0.2-20.2,0.3C163.2,97.7,169.3,97.9,161.2,97.6z M113.3,27.2c-0.8,0.1-1.6,0.2-2.4,0.5c-0.8,0.2-1.3,0.8-1.4,1.6
	c-0.6,4,0.4,2.7,0.1,38.4c-0.3,28.1-1,28,0.7,28.1c15.2,1,17.8-0.7,38,0.2c0.7,0,1.4,0.4,1.7,1.1c1.1,2.5,1.9,5.5,4.2,7.5
	c0.7,0.6,1.3,0.6,1.8-0.2c0.6-0.8,1.1-1.7,1.6-2.6c2.4-4.6,2.1-5.8,4.2-5.8c3.1,0,16.7-0.2,28.3-0.3c4.7-0.1,5.7,0.6,5.6-1.2
	c-0.6-13.6-0.1-11.6-0.1-19.5c-0.1-7.8-0.6-36.5-0.8-44.8c0-0.4-0.1-0.8-0.3-1.2c-0.1-0.5-0.6-0.9-1.2-0.8
	C146.4,27.4,159.8,26.9,113.3,27.2z"/>
<path class="st1" d="M106,165.2c0.2-0.3,0.7-0.4,1-0.3c0.5,0.1,1.1,0.3,1.6,0.5l-1.8,0.6c0,0.1,0,0.1,0,0.2c1.8,0,3.6-0.9,5.3-0.1
	c0-0.1,0-0.1,0.1-0.2c-0.1-0.1-0.2-0.3-0.3-0.4l3.2-1l-0.1-0.3c-0.7,0.1-1.4,0.2-2.1,0.4c-2.6,0.6-0.7,0.9-5.9-0.3
	c-0.1,0-0.2-0.1-0.4-0.4c2-0.5,3.9-0.9,5.9-1.2c0.7,0,1.5,0.1,2.2,0.4c0.2,0,0.5,0,0.7,0c0-0.1,0-0.1,0-0.2
	c-0.2-0.2-0.5-0.4-0.7-0.6c0.6-0.2,1.2-0.4,1.8-0.6c0-0.1,0-0.1,0-0.2c-0.2,0-0.5,0-0.7,0c-2.1,0.3-2.7,0.7-4.7-0.2
	c6.9-1.6,4-1.1,6.9-0.4c0.1-0.3,0.2,0-0.6-0.8c0.4-0.1,0.8-0.3,1.2-0.4l0-0.2c-0.5,0-1.1,0-1.6,0.1c-0.8,0.3-1.3-0.1-1.9-0.4
	c-0.3-0.1-0.6-0.2-0.9-0.4c0,0.1-0.1,0.1-0.1,0.2c0.3,0.2,0.6,0.4,0.9,0.7c-1.6,0.3-3.1,0.7-4.6,1c0.1-1.1,1.1-2,2.2-2
	c1.9-0.2,3.8-0.4,5.6-0.8c0.2,0,0.4-0.1,0.5-0.2c0.6-1,1.2-2,1.7-3c0-0.1-0.1-0.2-0.1-0.2c-2.3,0.5-4.6,0.9-6.9,1.1
	c-1.2,0.2-2.4,0.6-2.3-0.2c0.1-0.3,0.4-0.5,0.7-0.6c1-0.2,2-0.3,3-0.4c1.8-0.3,3.5-0.6,5.3-0.9c0.9-0.2,1.7-0.8,2-1.7
	c3-5.6,8-14.5,11-20c10.4-18.9,11.4-22.6,17.1-22.4c5.8,0.2,0.5,0.2,38.8,3.6c1,0.1,2.1,0.2,3.1,0.4c2.1,0.5,2.7,2.2,1.6,4
	c-0.8,1.2,1.2-1.8-17.5,26.6c-7.1,10.8-8.3,13-11.8,16.5c-1.8,1.9-2.5,1.5-25.8,6.2c-20.3,4.1-21.4,4.5-24.1,4.7
	c-1.3,0.1-1.8-0.6-1.6-1.9c0.2-0.7,0.4-1.4,0.6-2.1c-0.8,0.1-1.5,0.2-2.3,0.4c-1.9,0.3-3.9,0.2-5.8-0.4c-19.1-4-15.8-3.1-18.1-3.6
	c-1.4-0.2-1.9-1-0.1-1.1c10.7-2,8.6-1.5,8.9-1.6c1.9-0.7,2.8,0.2,4.5,1.3c0,0.1,0,0.1,0,0.2l-3.4-0.9c0,0.1-0.1,0.2-0.1,0.2
	c0.5,0.3,0.9,0.5,1.4,0.8c-1.3,0.1-2.6,0.3-3.8,0.4l0,0.2c1.2,0,2.3,0.1,3.4,0c1.3-0.2,2.5,0,3.7,0.3c0.2,0.1,0.5,0.2,0.7,0.4
	c-0.8,0.2-1.5,0.4-2.2,0.7c0,0,0,0.1,0,0.1c0.3,0,0.6,0,0.8,0c0.8-0.1,1.6-0.4,2.4,0.2C103.6,164.9,105,166.3,106,165.2z
	 M117.6,169.3c7.5-1,36.1-7.1,43.5-8.6c3.9-0.8,5.3-3.9,18.3-23.9c9.6-14.8,10.8-16.5,12.7-20c0.5-0.9-0.1-1.8-1.1-1.9
	c-12.2-1.3-24.3-2.4-36.5-3.5c-5.9-0.5-6-0.7-6.6-0.4c-1.2,0.6-2.1,1.5-2.7,2.7c-2.5,5.3,6.3-12.4-25.8,47.7c-1.3,2-2.2,4.2-2.9,6.5
	C116.2,169.1,116.4,169.4,117.6,169.3L117.6,169.3z"/>
<path class="st1" d="M39.1,174.4c-14.3-1.5-20.8-11.8-21.7-25.8c-2-31.9,27.4-57,29.5-54.8c0.7,0.8-9,7.1-14.6,14.7
	c-24.2,33.1-18,79.6,34.2,60.4c15.8-5.8,24.5-13.4,31.9-10.5c2.7,1.1,5.5,3.4,6.4,6.3c0.6,2-3.7-3.1-6.2-4.2
	C87.6,155.7,68.6,177.5,39.1,174.4z"/>
<path class="st1" d="M55.2,129.2c0.3,1,0.7-0.6-0.3,11.1c10.7-1.1,21.5-2.1,34.2,0.2c13.3,2.3,17.8,6.7,20.7,8.9
	c1.2,0.9,0.6,2.3-0.3,1.8c-1.7-1-1.4-3.1-14.8-7.2c-26.8-8.2-51.7,1.1-54.8,0.8c1.8-1.9,5-2.2,12.4-4.1c0.3-0.1,0.6-0.4,0.7-0.7
	c0.3-1.3,0.5-2.7,0.7-4.1C54.7,128.2,54,129.5,55.2,129.2z"/>
<path class="st1" d="M127.3,133.4c-0.1,0.1-0.2,0.5-0.4,0.6c-0.4,0.2-0.5-0.3-0.6-0.6c-2.2-5.8-2.9-8.1-6.3-14.6
	c-2.2-4-4.7-7.7-7.5-11.3c-1.8-2.5-3.9-4.8-6.3-6.7c-3.2-2.8-6.6-5.3-10.3-7.4c-1.2-0.7-2.6-1-2.9-1.4c-0.1-0.2-0.4-0.6-0.3-0.7
	c0.2-0.3,0.5-0.4,0.8-0.4c1.6,0.3,4.1,0.9,8.4,4.2c1.3,1.1,2.8,2,4.1,3.1c3.2,2.7,6,5.7,8.5,9C120.2,114.7,126.2,123.7,127.3,133.4z
	"/>
<path class="st1" d="M112,169.9c0.4,0.1,0.8,0.3,0.8,0.8c-0.1,0.6-0.6,0.4-0.9,0.3c-2-0.4-26.4-5.6-28.5-5.9c-0.7-0.2-1-1.4,1.9-0.7
	C87.5,165,103.7,168.3,112,169.9z"/>
<path class="st1" d="M110.5,148.2c1.3-0.2,12.2-1.6,13.4-1.6c0.2,0,0.3,0.1,0.4,0.3c0,0.2,0,0.4-0.1,0.5c-0.4,0.7-1.1,1.2-1.9,1.1
	c-3.4,0.3-9,1.3-10,1.4C110.2,150.3,109.4,148.3,110.5,148.2z"/>
<path class="st1" d="M2.7,165.4c-0.4-0.4-0.2-1.1,0.7-1.3c3.3-0.9,2.8-0.7,15.5-2.2c0.6-0.1,1,0.2,1,0.7c0.1,0.6-0.3,0.7-0.8,0.8
	c-1.2,0.1-2.4,0.4-3.5,0.5C11.3,164.2,7,164.7,2.7,165.4z"/>
<path class="st1" d="M82.4,67.7c-0.1,1.7-0.4,3.4-1.7,4.6c-0.3,0.4-0.9,0.4-1.3,0.1c-0.4-0.4-0.2-0.8,0.1-1.2c0.8-0.8,1.2-1.9,1.2-3
	c-0.1-4.8-0.5-5-1.5-7.9c0-0.1-0.1-0.2-0.1-0.2c0-0.2-0.4-1.5,0.8-0.4C81.4,62.1,82.3,64.9,82.4,67.7z"/>
<path class="st1" d="M106.5,151.9c1.1,0.6,2.1,1.4,3,2.3c0.6,0.7,1.2,1.5,1.5,2.3c0.4,1.5-0.2,2.4-0.9,1.6c-0.5-0.6-3-3.7-5.2-4.8
	c-0.5-0.3-1-0.7-1.5-1.1C103.3,152,101.6,149.8,106.5,151.9z"/>
<path class="st1" d="M106.8,161.1c-0.7,0.3-2-3.1-5.5-5.5c-0.5-0.4-0.9-0.9-1.3-1.5c-0.2-0.3-0.1-0.6,0.1-0.8c0.2-0.1,0.5-0.2,0.7,0
	c1.5,0.9,2.9,1.9,4.2,3.1C107.1,158.3,107,161,106.8,161.1z"/>
<path class="st1" d="M77,77.5c-1,0.5-2.2,0.3-3-0.5c-0.9-0.9-1.2-2.1-0.9-3.3c0-0.2,0.5-1.3,0.8,0c0.1,0.6,0.4,1.3,0.8,1.8
	c0.4,0.7,1.2,1,1.9,0.6c0,0,0.1,0,0.1-0.1c0.4-0.1,0.7-0.3,1-0.5C78.4,75,79.8,76.1,77,77.5z"/>
<path class="st1" d="M187.1,141.4c0.2,0,0.3,0.8,0,0.8c-2.6,0.2-5.2,0.4-7.9,0.5c-0.3,0-0.7-0.3-1-0.4c0.1-0.4,0.5-0.7,1-0.7
	C180.6,141.7,185.8,141.4,187.1,141.4z"/>
<path class="st1" d="M75.4,58.3c0.2,0.1,0.3,0.5,0.3,0.6c0,0.4-0.3,0.5-1,0.4c-1.4-0.2-1.8,0.3-2.5,1.1c-0.8,0.9-1,0.2-0.8-0.5
	C72.2,58.3,73.9,57.7,75.4,58.3z"/>
<path class="st1" d="M75.1,66.1c-0.7-0.1-1.3-0.7-1.3-1.5c0-0.7,0.5-1.2,1.2-1.2C76.4,63.4,76.5,66.1,75.1,66.1z"/>
<path class="st1" d="M84.1,59.6c-0.4-0.6-1.3-0.9-2-0.6c-0.2,0-0.4,0-0.6-0.2c-0.1-0.1,0-0.4,0.1-0.5c0.6-0.7,1.6-0.8,2.3-0.2
	c0,0,0,0,0.1,0.1C85.9,60.6,84.5,60.3,84.1,59.6z"/>
<path class="st1" d="M111.9,162.2c-1.7,0.3-3.2,0.5-4.8,0.8c-0.1-0.6,0.1-0.9,0.7-1.1C109.2,161.3,110.7,161.4,111.9,162.2z"/>
<path class="st1" d="M82.6,64.2c0-0.7,0.4-1.1,0.9-1.1c0.6,0.1,0.8,0.5,0.8,1.1C84.4,66,82.5,66,82.6,64.2z"/>
<path class="st1" d="M112.3,35.1c0.2-0.2,0.3-0.5,0.5-0.5c7.3-0.9,23.4-0.4,30.8-0.3c19.7,0.1,13.3-0.5,44.2,0.3
	c1.3,0,2.5,0.3,3.8,0.4c1.3,0.1,0.8,0.8,0,0.8c-5.4,0.5-3.6,0.1-18.3,0C107.4,35.4,113.2,35.6,112.3,35.1z"/>
<path class="st0" d="M121.9,52.2c-2.9-1.6-4.2-5.2-3-8.3c1.2-3.2,4.7-5,8-4.1c5.6,1.2,7.1,9.4,1.7,12.3c-0.3-2.2-0.9-4.4-1.8-6.4
	c-0.3-0.7,1-1.7-0.1-3.2c-0.8-0.9-2.2-1.2-3.2-0.5c-1,0.8-1.3,2.2-0.6,3.2c0.1,0.2,0.2,0.5,0.2,0.7C122.4,47.9,121.9,50,121.9,52.2z
	"/>
<path class="st1" d="M159.6,51.2c-23.1,0-26.2,0.2-26.2-0.8c0-0.9,2.1-0.6,18.1-0.7c28.4-0.2,29-0.3,31.1,0.2
	c0.9,0.2,0.8,1.1-0.1,1.2C174.3,51.2,159.5,51.2,159.6,51.2z"/>
<path class="st1" d="M121.9,52.2c0.1-2.2,0.5-4.3,1.3-6.3c0-0.2,0-0.5-0.2-0.7c-0.7-1.1-0.4-2.5,0.6-3.2c1.1-0.6,2.4-0.4,3.2,0.5
	c1.1,1.5-0.2,2.6,0.1,3.2c0.9,2,1.5,4.2,1.8,6.4c-1.4,1.3-3,1.2-4.7,0.9C123.2,52.8,122.5,52.5,121.9,52.2z"/>
<path class="st1" d="M160.4,79.8c-3.7,0.2-16.6,0.5-18.3,0.4c-0.2,0-0.4-0.2-0.5-0.3c0-0.2,0.1-0.4,0.2-0.5c0.3-0.2,0.7-0.3,1-0.3
	c3.8-0.3,2.4-0.4,17-0.5C162.8,78.7,161.5,79.8,160.4,79.8z"/>
<path class="st0" d="M133.6,81.5c-1.6-1.3-1.9-3.6-0.7-5.2c1.2-1.6,3.5-1.9,5.1-0.7c0,0,0,0,0,0c1.8,1.3,2.1,4.8-0.3,6.1
	c-0.2-1-0.5-2.1-0.7-3.1c-0.1-0.4,0.6-1.4-0.3-2c-0.5-0.4-1.1-0.4-1.6-0.1c-0.5,0.3-0.7,0.8-0.6,1.4
	C134.6,78.3,134.5,78.6,133.6,81.5z"/>
<path class="st0" d="M133.9,63.7c-1.6-1.2-2-3.5-0.7-5.2c0.5-0.6,1.1-1.1,1.9-1.3c3.5-1,6.2,3.3,3.8,5.9c-0.3,0.3-0.7,0.6-1,0.8
	c-0.4-2.5-0.6-3.1-0.4-3.7c0.3-0.8,0-1.6-0.8-2c-0.5-0.2-1.1-0.2-1.5,0.2c-0.5,0.5-0.6,1.2-0.3,1.9C135.1,61,134.6,61.7,133.9,63.7z
	"/>
<path class="st1" d="M142.3,61.8c-0.4,0-0.9-0.1-0.8-0.5c0-0.2,0.4-0.6,0.7-0.7c0.4-0.2,0.8-0.2,1.3-0.2c3.3,0.1,6.6,0.1,10,0.3
	c0.5,0.1,0.9,0.2,1.3,0.4c0.5,0.2,0.4,0.5,0,0.7c-0.4,0.2-0.8,0.3-1.3,0.3C151.5,62.1,144.1,61.8,142.3,61.8z"/>
<path class="st1" d="M172.5,79.6c-1.4,0-2.5-0.9-0.8-1.1c2.7-0.3,6.8-0.4,10.7-0.4c0.8-0.1,1.6-0.1,2.4,0c1.5-0.2,1.1,1.4,0.1,1.3
	C184.2,79.4,174.2,79.6,172.5,79.6z"/>
<path class="st1" d="M133.6,81.5c0.8-2.8,1-3.1,0.9-3.7c-0.1-0.5,0.1-1.1,0.6-1.4c0.5-0.3,1.1-0.3,1.6,0.1c0.8,0.6,0.2,1.6,0.3,2
	c0.2,1.1,0.5,2.1,0.7,3.1C136.5,82.5,134.8,82.4,133.6,81.5z"/>
<path class="st1" d="M133.9,63.7c0.7-2,1.2-2.7,0.9-3.4c-0.7-1.7,0.9-2.7,2-2c0.6,0.4,0.8,1.2,0.5,1.9c-0.2,0.5,0,1.3,0.4,3.7
	C136.6,64.7,135,64.6,133.9,63.7z"/>
<path class="st1" d="M161.3,60.7c4.4,0,4.7-0.1,5.5,0.2c0.2,0.1,0.3,0.3,0.4,0.5c0,0.1-0.2,0.4-0.4,0.4c-0.7,0.3-0.1,0.3-9.8,0.2
	c-0.4,0-0.8-0.1-1.1-0.2c-0.2-0.1-0.3-0.3-0.4-0.5c0.1-0.2,0.2-0.4,0.4-0.5C156.5,60.7,157,60.7,161.3,60.7
	C161.3,60.7,161.3,60.7,161.3,60.7z"/>
<path class="st1" d="M159.3,70.1c0,0.5-0.4,0.7-0.8,0.4c-0.6-0.6-1.5-0.9-2.4-0.7c-1,0-1.1-0.1-1.1-1.1c0-0.8,0-1.7,0.1-2.5
	c0-0.4,0.2-0.7,0.6-0.7c0,0,0.1,0,0.1,0c0.9,0,1.8,0,2.7,0c0.5,0,0.8,0.2,0.8,0.8C159.3,66.9,159.4,69,159.3,70.1z M158.6,69.7v-3.4
	H156v2.5C156.9,69,157.9,68.6,158.6,69.7z"/>
<path class="st1" d="M159.3,87.9c0,0.5-0.4,0.7-0.7,0.3c-0.6-0.6-1.5-0.9-2.3-0.7c-1.1,0-1.2-0.1-1.2-1.2c0-0.8,0-1.6,0.1-2.4
	c0-0.4,0.2-0.7,0.6-0.7c0,0,0.1,0,0.1,0c0.9,0,1.8,0,2.7,0c0.5,0,0.7,0.2,0.7,0.7C159.3,84.9,159.4,86.9,159.3,87.9z M156,84.1v2.5
	c0.9,0.1,1.9-0.3,2.6,0.6v-3.2L156,84.1z"/>
<path class="st1" d="M146.7,75.8c3,0,3.8-0.1,4.5,0.2c1.3,0.2,0.8,0.9-0.1,1c-0.4,0.1-0.8,0.1-1.2,0.1c-6.8-0.1-7.1-0.1-7.4-0.3
	c-0.2-0.1-0.3-0.3-0.4-0.5c0-0.2,0.2-0.4,0.4-0.5C142.9,75.8,143,75.8,146.7,75.8z"/>
<path class="st1" d="M142.1,86.6c-0.5,0.2-0.8,0.6-1-0.4c-0.1-0.5,0-1.1,0.3-1.5c0.2,0.1,0.4,0.2,0.8,0.4c0.4-0.6,0.8-1.2,1.3-1.9
	c0.1-0.2,0.3-0.3,0.6-0.2c0.1,0,0.2,0.1,0.2,0.3c0.1,0.4,0.2,0.8,0.2,1.2c1.2,0.1,1.4,0,1,1c-0.1,0.3,0,0.7-0.4,1
	C144.2,87.3,142.9,87.3,142.1,86.6z"/>
<path class="st1" d="M142.1,68.8c-0.6,0.2-0.9,0.6-1-0.4c-0.1-0.5,0-1.1,0.4-1.5c0.2,0.1,0.4,0.3,0.7,0.5c0.4-0.6,0.8-1.3,1.3-1.9
	c0.1-0.2,0.4-0.3,0.6-0.2c0.1,0.1,0.2,0.2,0.2,0.3c0.1,0.4,0.1,0.8,0.1,1.2c1.3,0.1,1.3-0.1,1,1c-0.1,0.3,0,0.7-0.3,1
	C144.2,69.5,143,69.5,142.1,68.8z"/>
<path class="st1" d="M150.2,58c-2.6,0.1-5.3,0.2-7.9,0.3c-0.4,0-1.1,0.1-1.1-0.5c0-0.6,0.6-0.5,1-0.5c2.5-0.1,5-0.1,7.5-0.1
	C153,57.1,151.4,58.1,150.2,58z"/>
<path class="st1" d="M138.8,45.9c-3.2-0.2-4-0.1-4-0.9c0-0.6,0.6-0.7,1.1-0.7c1.7-0.1,3.4,0,5.1,0.3c1.3,0.4,1.1,1.4-0.1,1.3
	C140.3,46,139.5,46,138.8,45.9z"/>
<path class="st1" d="M149.5,87c-0.3,0-0.6,0-0.9-0.1c-1-0.3-0.7-0.6-0.6-1.2c0-0.1,0.1-0.1,0.1-0.2c0.5-1.1,1.7-1.6,2.8-1.1
	c0.2,0.1,0.3,0.3,0.4,0.5c0.1,1.1,0,2.2-0.5,3.1c-0.2,0.4-0.6,0.4-0.8,0.1C149.8,87.9,149.6,87.5,149.5,87z"/>
<path class="st1" d="M144,42.6c0-1.1,0.8-2.1,1-0.9c0.2,1.8,0.3,3.6,0.3,5.5c0,0.4-0.1,0.8-0.2,1.1c-0.1,0.2-0.4,0.5-0.6,0.5
	c-0.5-0.1-0.6-0.8-0.6-1.3C143.8,46.7,143.9,43.4,144,42.6z"/>
<path class="st1" d="M149.5,69.2c-0.3,0-0.7,0-1,0c-0.4,0-0.7-0.3-0.7-0.7c0-0.1,0-0.2,0.1-0.3c0.1-0.3,0.3-0.5,0.4-0.8
	c0.6-0.8,2.8-1.1,3-0.3c0.1,1.1,0,2.3-0.5,3.3c-0.2,0.4-0.6,0.3-0.8,0C149.8,70,149.6,69.6,149.5,69.2z"/>
<path class="st1" d="M168.6,78.5c1.8,0.4,0.4,1.1,0.1,1.2c-1.6,0.1-3.1,0.1-4.7,0.1c-0.9-0.2-1.3-1.1,0-1.2
	C165.6,78.5,167.1,78.5,168.6,78.5z"/>
<path class="st1" d="M170.8,62.1c-0.6,0-1.1,0-1.7,0c-1.1,0-1.3-1.1,0-1.2c1.3-0.1,2.5-0.1,3.8-0.2c0.1,0,0.2,0,0.3,0.1
	c1.9,0.4,0.3,1.1,0,1.1C172.4,62,171.6,62.1,170.8,62.1z"/>
<path class="st1" d="M117.6,31.1c0,0.6-0.5,1.1-1.1,1.1c-0.5,0-1-0.4-1-1c0-0.6,0.5-1.2,1.1-1.2C117.2,30,117.7,30.5,117.6,31.1z"/>
<path class="st1" d="M125.3,32.3c-0.5,0-1-0.4-1.1-0.9c0-0.6,0.5-1.1,1.2-1.2c0.5,0,1,0.4,1,0.9c0,0,0,0,0,0.1
	C126.4,31.8,125.9,32.3,125.3,32.3z"/>
<path class="st1" d="M120.9,32.5c-0.9,0-1-1.8,0.3-1.8C122.4,30.7,122.3,32.5,120.9,32.5z"/>
<path class="st1" d="M152.5,68c0,0.3,0,0.6-0.1,0.9c-0.1,0.2-0.2,0.3-0.4,0.3c-0.2,0-0.3-0.2-0.3-0.3c-0.1-0.5-0.1-1-0.1-1.5
	c0-0.2,0.3-0.4,0.4-0.6c0.2,0.2,0.3,0.4,0.4,0.6C152.5,67.6,152.5,67.8,152.5,68z"/>
<path class="st1" d="M151.6,85c0.1-0.2,0.2-0.3,0.4-0.4c0.1,0,0.4,0.2,0.4,0.3c0,0.6,0,1.2-0.1,1.8c0,0.1-0.2,0.3-0.3,0.3
	c-0.2,0-0.3-0.2-0.4-0.3C151.6,86.1,151.6,85.5,151.6,85z"/>
<path class="st1" d="M156.4,67.8c0.5,0,1,0,1.4,0c0.1,0,0.2,0.2,0.2,0.3c0,0.1-0.1,0.2-0.2,0.2c-0.5,0-0.9-0.1-1.4-0.1V67.8z"/>
<path class="st1" d="M156.5,66.9c0.4,0,0.9,0,1.4,0.1C157.5,67.4,157,67.4,156.5,66.9z"/>
<path class="st1" d="M156.4,85.6c0.5,0,1,0,1.4,0c0.1,0,0.2,0.2,0.2,0.2s-0.1,0.2-0.2,0.2C157.3,86.1,156.8,86.3,156.4,85.6z"/>
<path class="st1" d="M157.8,85.1l-1.3-0.1c0-0.1,0-0.2,0-0.3c0.4,0,0.9,0.1,1.3,0.1C157.8,84.9,157.8,85,157.8,85.1z"/>
</svg>
