<?xml version="1.0" encoding="utf-8"?>
<!-- Generator: Adobe Illustrator 21.1.0, SVG Export Plug-In . SVG Version: 6.00 Build 0)  -->
<svg version="1.1" id="Layer_1" xmlns="http://www.w3.org/2000/svg" xmlns:xlink="http://www.w3.org/1999/xlink" x="0px" y="0px"
	 viewBox="0 0 200 200" style="enable-background:new 0 0 200 200;" xml:space="preserve">
<style type="text/css">
	.st0{fill:#618AFF;}
	.st1{fill:#191919;}
</style>
<path class="st0" d="M93.6,27.4c-3.1-7.2-2.9-6.5-2.8-6.6c1.8-8.2,1.8-7.6,1.5-7.9c-0.1-0.1-0.3-0.2-0.5-0.1l-2.8,1
	c-0.4,0.1-0.7,0.4-0.9,0.8L86.3,22c-0.1,0.3-0.2-0.1,3.8,7.5c0,0,0,0,0.1,0c0.2,0,2.4-1.2,3.2-1.5C93.6,27.9,93.7,27.6,93.6,27.4z"
	/>
<path class="st0" d="M132.6,97.3c-0.8,0.7-1,1.9-0.4,2.8c0.4,0.6,1.5,0.8,1.9,0.2C135.7,99.6,134.5,95.9,132.6,97.3z M134,99.6
	c-0.1-0.1-0.2,0-0.4,0c-1,0.8-1.5-1.3-0.6-1.8C134,97.2,134.6,99,134,99.6z"/>
<path class="st0" d="M141.6,91.9c-0.9-1.2-2.6-1.8-3.5-0.3c-0.9,1.4,0,3.3,1.2,4.2c1.1,0.8,2.9,0.8,3.3-0.7
	C143,94.2,142.1,92.6,141.6,91.9z M139,91.9c0.9-0.9,1.9,0.2,2.4,1c0.4,0.6,0.7,1.3,0.6,2C141,97.2,137.1,93.7,139,91.9L139,91.9z"
	/>
<path class="st0" d="M81.3,64.5c-0.1,0-0.2,0.1-0.3,0.4c-0.1,0.1-0.2,0.2-0.1,0.4c-0.7,2,1.9,2.3,2.9,0.8
	C84.9,64.4,83.1,62.5,81.3,64.5z M83.2,65.7c-0.7,0.8-2.2,0.9-1.9-0.3c0.1,0,0.7-0.9,1.5-1C83.6,64.3,83.7,65.2,83.2,65.7z"/>
<path class="st0" d="M78.4,58.9c-1-0.6-2.4-0.3-3.1,0.7c-0.1,0.1-0.1,0.2-0.2,0.4c0,0,0,0.1,0,0.1c-0.1,0-0.2,0-0.2,0.1
	c-0.8,1.1-1.1,3,0.3,3.7c1.3,0.7,2.7-0.3,3.3-1.4C79,61.4,79.5,59.7,78.4,58.9z M78.1,62.1c-0.3,0.9-1.3,1.5-2.3,1.4
	c-1.4-0.4-1.1-2.1-0.5-3.1c0.1,0.1,0.2,0.1,0.3,0c0,0,0,0,0,0c0.5-0.6,1.3-1.4,2.2-1.1C79,59.6,78.5,61.2,78.1,62.1z"/>
<path class="st0" d="M65.8,50.1c-0.2,0.2,0.1,0.6,0.3,0.4c1.9-1.3,3.7-0.1,3.1,2.5c-0.2,1.1-0.7,2.1-1.5,2.9
	c-3.1,2.4-4.8-3.1-2.2-4.8c0.2-0.2,0-0.6-0.2-0.4c-1.5,1.1-2.1,3.1-1.4,4.8c0.5,1.3,2,2,3.3,1.6c0.3-0.1,0.6-0.3,0.9-0.6
	c1.5-1.4,2.2-3.5,1.8-5.5c-0.4-1.3-1.8-2-3.1-1.6C66.4,49.6,66.1,49.8,65.8,50.1z"/>
<path class="st0" d="M65.8,62.9c-0.9,4.4-3.8,8.1-7.8,10.1c-0.3-0.5-0.6-0.9-0.9-1.3c-0.2-0.2-0.5,0.1-0.4,0.3
	c4,5.6,2.7,12.4-3.1,16.4C53,87.2,52.1,86,51.1,85c-0.3-0.2-0.7,0.2-0.4,0.4c5.1,4.7,4.9,12.7,0.7,17.9c-4.6,5.7-12.3,7.4-19.3,6.1
	c-0.3-0.1-0.4,0.4-0.1,0.4c7.3,1.5,15.4-0.2,20.1-6.4c3.2-4.2,3.9-9.7,1.8-14.6c5.3-3.1,7.2-9.9,4.4-15.3c4.3-1.9,7.3-5.9,7.9-10.6
	C66.2,62.8,65.9,62.7,65.8,62.9z"/>
<path class="st0" d="M161.5,102.5c-4.5-0.1-9.3,3.5-10,8.1c-4.6,3.4-6.1,9.6-3.5,14.7c0.1,0.3,0.5,0,0.4-0.2
	c-2.7-5.8-0.2-12.7,5.6-15.4c0.1-0.1,0.3-0.1,0.4-0.2c0.2-0.1,0.1-0.4-0.1-0.4c-0.7,0.2-1.4,0.6-2,0.9c1.4-4,5-6.8,9.2-7.2
	c0.1,0,0.2-0.1,0.2-0.2C161.7,102.6,161.6,102.5,161.5,102.5z"/>
<path class="st0" d="M127.9,37.3c-6.1,3.1-13.5,2.7-19.2-1.1c-0.2-0.2-0.4,0.2-0.2,0.4c1.2,0.9,2.5,1.6,3.8,2.1
	c-1.5,2.4-3.8,4.3-6.5,5.1c-2.1,0.7-4.4,0.5-6.5-0.4c0.6-0.6,1.2-1.2,1.7-1.8c0.2-0.3-0.1-0.7-0.4-0.4c-3.2,3.3-7.5,5.3-12,5.6
	c-4.6,0.2-9.1-1.4-12.6-4.4c-0.2-0.2-0.5,0.1-0.3,0.3c6.4,5.7,16.5,6.4,23.2,1c4.7,2.9,11.8-0.1,13.9-4.9c5,2,10.7,1.5,15.3-1.2
	c0.1-0.1,0.2-0.2,0.1-0.3C128.2,37.3,128,37.3,127.9,37.3z"/>
<path class="st0" d="M152.8,80.6c0.2-0.1,0.2-0.5-0.1-0.4c-2.9,0.3-5.5-1.9-5.7-4.8c-0.1-0.9,0.1-1.7,0.4-2.5
	c1.4,0.3,2.8,0.4,4.2,0.2c0.3,0,0.2-0.5-0.1-0.5c-9.8,0.3-14.7-7.5-12.9-15.2c0-0.1-0.1-0.2-0.2-0.2c-0.1,0-0.2,0-0.2,0.1
	c-1.9,6.6,1.8,13.4,8.4,15.4c0.1,0,0.2,0,0.2,0.1C144.7,76.5,148.7,81.5,152.8,80.6z"/>
<path class="st0" d="M120.3,107.8c0-0.3-0.5-0.4-0.5-0.1c-1.1,4-0.8,6.6-2.2,14.6c-4.8,0.5-9.2,2.8-12.4,6.3
	c-1.5-2.4-3.5-4.4-5.9-5.9c-0.1-0.1-0.2-0.2-0.3-0.2c-0.4-0.2-0.8,0.2-0.9,0.6c-0.3,8.1-1,16.3-3.7,24c-0.1,0.4,0.1,0.7,0.5,0.8
	c0.1,0,0.2,0,0.4,0c6.6-2.7,13.1-5.6,19.7-8.3c1-0.4,2.9-0.8,3.5-1.8c0.6-1,0.3-2.9,0.3-4c0.1-4.2,0-8.7,0.5-13
	C119.6,117.4,120.8,112.3,120.3,107.8z M106.5,140.8c-1.2-0.4-2.3-1.2-2.9-2.3c-0.2-0.4,0.2-0.6,0.5-0.4c0.4,0.4,0.8,0.8,1.2,1.1
	c0.5,0.4,0.9,0.7,1.4,1.1C107,140.5,106.8,140.9,106.5,140.8L106.5,140.8z"/>
<path class="st0" d="M184.5,38.2c-0.1-1.3-0.3-2.5-0.5-3.8c-0.1-0.7-0.2-1.5-0.5-2.2c-0.6-1.1-2.3-0.8-3.3-0.8
	c-2.7-0.1-10.4-0.4-11.5-0.4c2.7-0.9,5.2-2.1,7.5-3.6c1.2-0.8,2.9-1.7,3.3-3.2c0.3-1.3-0.1-2.7-1.2-3.5c-4.4-3.7-11.7,3.1-13.5,9.4
	c-0.5-1.3-0.2-2.7-1.2-5.6c-0.6-1.7-1.2-3.6-2.4-5c-2-2.1-5.3-2.1-7.3-0.1c-0.2,0.2-0.3,0.3-0.5,0.5c-1.9,2.8-1.4,6.5,1.1,8.8
	c1.5,1,3.1,1.7,4.8,2.1c-1.8,0.1-3.6,0.3-5.3,0.8c-0.2,0.1-0.4,0.3-0.3,0.6c0.1,0.2,0.2,0.3,0.4,0.3c3.4,0,4.1-0.3,8.6-0.3
	c-1.4,0.6-2.5,1.7-3,3.2c-0.1,0.3,0.4,0.5,0.5,0.2c0.8-1.5,2.2-2.1,3.7-2.7c-0.2,1.4-0.5,2.5,0.1,3.6c1.1,1.9,3.5,2.1,5.5,1.4
	c0.1,0,0.2-0.2,0.2-0.3c0-0.1-0.2-0.2-0.3-0.2c-1.4,0.5-2.9,0.1-4-0.8c-1.2-1.3-0.2-2.9-0.2-4.1l0.6-0.2c1.1,0,13.2,0.5,14.4,0.5
	c0.7-0.1,1.4,0,2.1,0.1c0.3,0.4,0.4,1.5,0.5,2c1.4,8.5,0.9,6.4,2.4,22.4c0.1,0.5,0.9,0.6,0.9,0C185.9,50.9,185,44.6,184.5,38.2z
	 M174.4,21.8c2-1.5,5.2,2.1,1,4.5c-0.2,0.1-0.4-0.2-0.2-0.4c0.8-0.6,1.8-1.4,1.6-2.5c-0.2-0.9-1-1.5-1.9-1.3c-0.1,0-0.2,0.1-0.3,0.1
	C174.3,22.3,174.1,21.9,174.4,21.8z M166.5,29.2c0.1-0.5,0.3-1,0.6-1.4c1.8-3.1,4.5-3.3,5-2.3c0.3,0.9-1.2,1.9-1.8,2.3
	c-1.1,0.8-2.2,1.4-3.4,2C166.6,30,166.2,29.7,166.5,29.2L166.5,29.2z M157.2,24.6c-0.3-0.8-0.1-1.6,0.8-1.4c1.8,0.3,2.5,2.3,3.2,3.7
	c0.5,1,1,1.9,1.6,2.8c0.1,0.2,0,0.4-0.1,0.5c-0.1,0.1-0.2,0.1-0.3,0c-0.2-0.1-0.4-0.2-0.5-0.2c-1-0.6-1.9-1.4-2.6-2.3
	C158.4,26.8,157.7,25.8,157.2,24.6L157.2,24.6z"/>
<path class="st0" d="M190.7,108c-0.1-0.2-0.3-0.3-0.5-0.3c-0.1,0-0.1,0.1-0.2,0.1c-4.3,5.4-5,5.5-10.2,7.8s-18.3,7.8-19.6,8.4
	c-0.2,0.1-0.4,0.3-0.3,0.5c0,0,0,0.1,0,0.1c0.5,1.1,1.1,2.1,1.6,3.1c0.1,0.2,0.4,0.3,0.6,0.2c0.1-0.1,0.2-0.2,0.2-0.3
	c20.7-8.8,18-8,22.5-9.7c2.9-1.1,4.7-3.3,6.4-5.8C192,111.1,191.8,111.4,190.7,108z"/>
<path class="st0" d="M37.6,50L37,50.8l8,1.7c0.1-0.3,0.1-0.6,0.1-0.9C42.6,51,40.1,50.4,37.6,50z"/>
<path class="st0" d="M52.7,58.6c-0.7-1-2-2.7-2.6-3.7c-0.5-0.8-1.5-2.6-1.7-2.6c0,0,0,0,0,0c0,0,0,0,0,0c-0.7-0.2-1.4-0.4-2.1-0.5
	c-0.1,0.7-0.1,0.8-0.1,0.8c0.1,0,1.9,0.4,2,0.4c0.8,2,2,3.8,3.4,5.3L45,57c-0.5,2.2-0.4,1.8-0.7,3.6c0.2,0.1,0.3,0.2,0.4,0.4
	c0.1,0.4,0.1,0.8,0,1.2c-0.1,0.4-0.2,0.8-0.5,1.1c-0.3,0.3-0.8,0.3-1.2,0.1c-0.9-0.5-0.6-2.3,0.2-2.7c0.3-1.4,0.2-2,0.7-3.9
	l-9.2-1.9c-0.7,1.2-2,3.7-2,3.7c0.5,0.3,0.4,1,0.2,1.5c-0.4,1.2-1.8,1.4-2.2,0.5c-0.3-0.7,0-1.5,0.7-1.9c1-0.6,0,1.2,2.5-3.9l-4.7-1
	c-1,2.7-2.3,5.4-3.7,8c-0.1,0.3-0.6,0.1-0.5-0.2c1.1-2.6,1.8-5.5,3.1-8l-5.4-1.1c-1.6-3.5-2.4-3.5-3-5c1.7,0.1,15,2.8,16.5,3.1
	c0.2-0.3,0.4-0.5,0.5-0.8c-3.9-0.8-14.2-2.9-17.8-2.9c-0.1,0-0.2,0.1-0.3,0.2C14.5,57,9.5,71.5,7.4,82c0,0.2,0.1,0.3,0.3,0.3
	c0.1,0,0.2-0.1,0.3-0.2c2.7-8.9,4.5-17.1,11-34.4c0.3,1.4,1.3,1.9,2.7,5.2c-1.3,4.4-9.6,33.7-11.9,41.7c-1.1-3.1-2.5-6-4.2-8.8
	c-0.1-0.2-0.3-0.2-0.5-0.1C5,85.8,5,86,5,86.1c4.8,10.9,3.6,9,4.3,10.4c0,0.1-0.1,0.3-0.1,0.4c30.1,4.7,28.6,4.5,28.8,4.5L52.7,58.6
	z M24.7,63.8c-0.1,0.5-0.4,0.9-0.7,1.2c-0.2,0.2-0.5,0.1-0.5-0.2c0.1-0.5,0.3-1,0.5-1.4C24.3,63,24.8,63.4,24.7,63.8z"/>
<path class="st1" d="M92.4,77.8c-0.6,3.1-0.9,6.3-0.9,9.6c-0.2,2.8,0.4,5.7,1.7,8.2c3,5.1,9.8,5.2,15,4.3c0.4-0.1,0.2-0.6-0.1-0.6
	c-5.1,0-11.5,0.5-14.2-4.9c-1.3-2.5-1.4-5.3-1.4-8c-0.1-2.8,0-5.6,0.3-8.4C92.9,77.7,92.5,77.6,92.4,77.8z"/>
<path class="st1" d="M98.9,84.2c0-0.1-0.1-0.3-0.3-0.3c-0.1,0-0.2,0.1-0.2,0.2c-0.3,0.9-0.4,1.8-0.5,2.7c-0.1,0.7-0.5,2.1-0.2,2.7
	c0.5,1,2.6,1.1,3.4,0.9c0.2-0.1,0.3-0.3,0.3-0.5c0-0.1-0.1-0.2-0.3-0.3c-0.5-0.1-1-0.1-1.5-0.2C97.9,89.1,98.9,87.6,98.9,84.2z"/>
<path class="st1" d="M103.4,83.6c0.4,0.1,0.8,0.2,1.2,0.1c0.4,0,0.8-0.1,1.1-0.3c0.3-0.2,0.4-0.6,0.3-1c-0.1-0.3-0.5-0.4-0.8-0.3
	c-0.3,0-0.6,0-0.9,0.1C103,82.4,102.8,83.3,103.4,83.6z"/>
<path class="st1" d="M94.6,81.9c0.4,0.4,1.4,1,2,0.8c0.3-0.1,0.5-0.5,0.3-0.8c0-0.1-0.1-0.1-0.1-0.2c-0.2-0.3-0.5-0.6-0.9-0.8
	c-0.3-0.3-0.6-0.4-1-0.4c-0.4,0-0.7,0.3-0.7,0.7C94.2,81.5,94.4,81.8,94.6,81.9z"/>
<path class="st1" d="M103.5,79.2c0.5-0.2,1.1-0.2,1.7,0c0.5,0.1,0.8,0.5,1.3,0.7c0.2,0.1,0.5-0.1,0.4-0.3c-0.2-1.4-3.1-1.8-3.8-0.7
	C103,79.1,103.3,79.3,103.5,79.2z"/>
<path class="st1" d="M94.8,77.6c-0.2,0.1-0.2,0.5,0.1,0.5c0.5,0.1,1.1,0,1.6,0.1s1,0.3,1.6,0.4c0.3,0,0.4-0.3,0.2-0.5
	C97.3,77.2,95.9,77,94.8,77.6z"/>
<path class="st1" d="M103.5,95.8c0.9-0.2,1.6-1,1.5-1.9c0.1-1.1-0.3-1.7-1.3-1.6c0,0-0.1-0.1-0.1-0.1
	C102.1,91.6,101,96.1,103.5,95.8z M103.4,92.7c0.3,0.3,1.3-0.4,1.1,1.2c0,0.5-0.4,1-0.9,1.2C102,95.6,102.7,92.8,103.4,92.7z"/>
<path class="st1" d="M105,101.3c-0.3,1.7-0.4,3.4-0.5,5.1c-1.7,0-3.3,0.3-5,0.8c-0.2,0.1-0.3,0.3-0.2,0.5c0,0.1,0.2,0.2,0.3,0.2
	c1.8-0.1,3.5-0.4,5.3-0.6c0.3,0,0.5-0.2,0.5-0.5c0,0,0,0,0,0c0.3-1.8,0.3-3.7,0.2-5.5c-0.1-0.1-0.3-0.2-0.4-0.1
	C105.1,101.2,105.1,101.2,105,101.3z"/>
<path class="st1" d="M140.7,148.7c1-2.9,1.1-6.2,1.4-9.3c0.5-6.5,0.8-13.4-1.1-19.7c-0.9-3.2-2.7-6-5.2-8.1c-3.9-3-8.8-3-13.4-3.4
	c-0.4,0-0.4,0.5,0,0.6c4.2,0.4,9,0.8,12.6,3.4c7,5.2,6.9,18,6.3,26.4c-0.1,3.1-0.4,6.1-1.1,9.1c-1.1,3.9-3.9,6.4-7.5,8.1
	c-8.9,4-18.3,6.7-28,7.8c-7.5,1-15.4,0.1-21.7,8.9c-0.3,0.4,0.4,0.9,0.7,0.5c6.8-8.6,13.9-7.5,22.2-8.6c9.8-1.4,19.6-3.9,28.4-8.3
	C137.1,154.5,139.5,151.9,140.7,148.7z"/>
<path class="st1" d="M123.2,139.2c0.3-0.1,0.2-0.6-0.1-0.5c-0.6,0.2-1.1,0.4-1.7,0.6c0.1-3.9,0-7.9-0.3-11.8c0-0.4-0.6-0.4-0.6,0
	c0,12.5,0,12,0,12.1c-7.4,2.6-14.6,5.6-21.8,8.7c-6.8,2.9-13.2,6.3-18.8,11.2c-3.2,2.8-6,6-8.2,9.6c-0.2,0.4,0.3,0.6,0.5,0.3
	c5.3-7.5,12.4-13.5,20.8-17.5C102.8,147,113.1,143.2,123.2,139.2z"/>
<path class="st1" d="M78.5,173.7c1.6-4.2,4.5-7.4,8.1-10.1c0.2-0.2,0-0.6-0.2-0.4c-3.5,2.4-7.9,6-8.5,10.4c-0.1,0.2,0,0.4,0.2,0.4
	C78.2,174,78.4,173.9,78.5,173.7z"/>
<path class="st1" d="M81.6,162.8c-3.1,2.8-6.4,6.5-7.5,10.6c-0.1,0.3,0.4,0.5,0.5,0.2c1.8-3.9,4.3-7.5,7.4-10.5
	C82.2,162.9,81.8,162.6,81.6,162.8z"/>
<path class="st1" d="M79.9,129.2c-0.1,0.3,0.2,0.7,0.5,0.4c1.3-1.6,2.4-3.4,3.3-5.4c2.9-5.4,4.7-11.3,5.5-17.4
	c0-0.3-0.4-0.3-0.5-0.1C85.3,122.2,81.6,125.4,79.9,129.2z"/>
<path class="st1" d="M96.3,117.3c-0.6,4.9-1.4,9.8-2.2,14.7c-1.4,8.4-3.9,17.5-11.6,22.2c-0.4,0.2,0,0.9,0.4,0.6
	c7.9-4.8,10.7-14.1,12.1-22.6c0.9-5.1,1.6-10.3,2.2-15.5c0.6-4.3,1.9-9.7-0.7-13.6c-0.1-0.1-0.2-0.2-0.4-0.1
	c-0.1,0.1-0.2,0.2-0.1,0.4C97.8,106.6,97.1,110.9,96.3,117.3z"/>
<path class="st1" d="M70.3,148.5c0.7,2,2,3.7,3.8,4.8c0.2,0.1,0.5,0,0.6-0.2c0.1-0.2,0-0.4-0.1-0.6c-2.1-1.2-3.1-3.7-3.9-5.8
	c-2.5-6.6-2.1-13.1-0.8-20.1c1.5-8.1,6.1-16,15-17.1c0.2,0,0.3-0.2,0.3-0.3c0-0.2-0.1-0.3-0.3-0.3c-4.1-0.2-7.8,2.1-10.5,5.1
	c-3.1,3.5-4.6,8-5.5,12.4C67.4,134.4,67.2,141.3,70.3,148.5z"/>
<path class="st1" d="M194.9,116.9c-0.3-0.9-5.2-15.9-5.4-16.7c0-0.2-0.2-0.3-0.4-0.2c0,0-0.1,0-0.1,0.1c0,0-0.1,0-0.1,0
	c-27.6,10.6-25.9,9.7-27,10.8c-2.2,2.2-4.1,4.6-5.8,7.3c-0.2,0.3,0.2,0.5,0.4,0.2c1.6-2.4,3.5-4.7,5.5-6.7c0.4-0.5,0.9-1,1.6-1.2
	c1.2-0.4,2.3-0.9,3.5-1.3c-1.5,2.2-2.8,4.5-4,6.8c-2.2,1-4.4,2.1-6.6,3.2c-0.2,0-0.3,0.2-0.3,0.4c0,0,0,0,0,0.1
	c1.4,5.1,3.9,9.9,6.1,14.6c0.1,0.1,0.3,0.3,0.5,0.2c8.9-3.7,17.9-6.9,26.7-10.7c0.2-0.1,0.2-0.3,0.1-0.5c-0.7-1.6-1.3-3.2-2-4.8
	c-0.1-0.3-0.6,0-0.4,0.3c0.6,1.5,1.1,3,1.7,4.5c-8.6,3.5-17.4,6.7-26,10.3c-2.1-4.6-4-9.3-5.9-13.9c8.3-3.7,16.7-7.5,25.2-10.6
	c0.5,1,0.9,2,1.4,2.9c0.2,0.3,0.8,0.1,0.6-0.3c-0.5-1.2-0.9-2.3-1.5-3.4c-0.1-0.2-0.3-0.2-0.5-0.2c-1.7,0.6-3.4,1.2-5,1.9
	c0.5-1,0.8-2,1.3-2.9c0.5-0.9,1-1.8,1.4-2.7c1.7-0.7,7.4-2.8,8.4-3.2c-0.8,0.8-1.4,1.8-2.2,2.7c-1,1.2-2.1,2.3-3.2,3.5
	c-0.1,0.1-0.1,0.3,0,0.4c0.1,0.1,0.2,0.1,0.3,0c1.2-1.1,2.4-2.3,3.4-3.5c0.9-0.9,1.7-1.9,2.4-2.9c1.1,3.3,4.5,13.7,5.1,15.7
	c0.2,0.7,0.3,0.6-0.1,1c-1.3,1.7-2.7,3.2-4.2,4.7c-0.2,0.2,0.1,0.6,0.4,0.4c1.6-1.5,3.1-3.1,4.5-4.9
	C195.1,117.5,195,117.4,194.9,116.9z M176.4,110.1c0,0.3,0.1-0.3-12.4,5.5c1.3-2.2,2.6-4.4,3.8-6.7c0.4-0.2,8-3,11.3-4.3
	C177.8,106.2,176.9,108.1,176.4,110.1z"/>
<path class="st1" d="M79.3,25.5c1.2,2.5,2.5,4.8,3.9,7.1c1.2,2.3,2.6,4.6,4.1,6.7c0.2,0.2,0.4,0.3,0.7,0.3
	c6.4-2.1,12.2-5.6,18.4-8.4c0.1,0.1,0.3,0.1,0.4,0c0,0,0-0.1,0.1-0.1c0.8-2.7,1.2-5.4,1.4-8.1c0.2-0.1,0.3-0.3,0.2-0.5c0,0,0,0,0,0
	C102.1,13,100.9,10,99.8,10c-2,0.3-3.8,1-5.6,1.9c-0.3,0.2-0.1,0.7,0.3,0.5c1.6-0.6,3.6-0.7,5.1-1.6c-0.8,2.2-1.5,4.4-2,6.7
	c-2.1,0.8-4.3,1.9-6.3,3c-0.1,0.1-0.2,0.2-0.1,0.4c0.1,0.1,0.2,0.1,0.3,0.1c2.1-0.6,4.2-1.5,6.1-2.6c1.2,2.2,2.5,4.3,4,6.3
	c1.3,2,2.7,4,4.1,6c-6,2.8-11.7,6.1-17.9,8.5c-0.6-1.1-3.9-6.9-3.9-7c-1.1-2.2-2.4-4.4-3.8-6.5c0.9-0.3,1.9-0.8,2.8-1.1
	c0.9-0.3,1.8-0.7,2.7-1.2c0.1-0.1,0.2-0.3,0.1-0.4c-0.1-0.1-0.2-0.1-0.3-0.1c-1.1,0.3-2.1,0.7-3.2,1.2c-0.8,0.3-1.5,0.6-2.2,1.1
	c0.5-2.4,1.2-4.8,1.7-7.1c1.8-0.8,3.6-1.8,5.3-2.8c0.3-0.2,0-0.6-0.2-0.4c-1,0.5-1.9,1-2.9,1.5c-0.9,0.4-1.7,0.9-2.5,1.4
	c0,0-0.1,0.1-0.1,0.1c0,0,0,0.1,0,0.1c-1,2.4-1.7,4.9-2,7.5v0.1C79.3,25.4,79.3,25.5,79.3,25.5z M98.2,17.9L98.2,17.9
	c0.4-0.8,1.6-5.6,2.1-6.5c0.4,0.7,5.5,9.1,7.5,11.5c-0.7,2.5-1.2,5-1.4,7.5c-1.3-2.2-2.7-4.2-4.1-6.3
	C101.1,21.9,99.7,19.9,98.2,17.9z"/>
<path class="st1" d="M143.4,44.5c1-0.1,2-0.2,3-0.2c0.1,3.6,0.4,7.1,0.9,10.6c0.3,2.3,1.1,9.4,1.9,11.7c0.1,0.2,0.3,0.4,0.5,0.4
	c19.3-0.3,24.8-0.1,31-0.9c0.2,0,0.3-0.1,0.4-0.3c3.4-1.3,6.6-3.2,9.4-5.5c0.5-0.8,0.1-2.6,0-3.5c-0.2-6.1-0.7-12.2-1.6-18.2
	c-0.1-0.3-0.6-0.2-0.5,0.1c0.1,4.1,1.4,20.2,1.3,20.8c-0.3,1.1-1.8,1.8-2.7,2.3c-1.9,1.2-4,1.9-5.9,3.1c0.3-3.9-0.4-9.7-1.3-18.8
	c0-0.3-0.5-0.4-0.5,0c0,6.4,0.8,12.7,0.8,19.1c-6.5,0.8-21.6,0.6-29.9,0.8c-1.2-3.7-2.2-16.6-3-21.7c18.1-1.2,32.3-0.1,33.3-0.4
	c0.5-0.1,0.8-0.6,1.1-0.9c0.5-0.5,1.1-0.9,1.5-1.4c0.4-0.4-0.1-1.2-0.6-0.8s-1.1,0.9-1.6,1.4c-0.2-1.6-0.7-3.2-1.4-4.7
	c-0.1-0.2-0.3-0.3-0.5-0.3c-0.2,0.1-0.3,0.3-0.3,0.5c0.5,1.6,0.9,3.3,1,5c-11.6,0-24-0.1-35.8,0.9c-0.1-1.5-0.1-3-0.4-4.5
	c3.8,0,7.5,0,11.3-0.3c0.2,0,0.3-0.1,0.3-0.3s-0.1-0.3-0.3-0.3c-3.7-0.1-7.4,0-11,0.2c6.9-5.4,7.2-5.2,8.5-6.6
	c0.1-0.1,0.1-0.3,0-0.4c-0.1-0.1-0.2-0.1-0.4,0c-1.5,0.8-3,1.9-4.3,3.1c-0.3,0.2-4.7,3.8-4.7,3.9c-0.1,0.1-0.1,0.1-0.1,0.2
	c0,1.8,0,3.6,0.2,5.4C142.9,44.3,143.1,44.5,143.4,44.5z"/>
<path class="st1" d="M181.5,27.7c2.6,0,5.1,0.1,7.7,0.4c-1.6,1.1-3.1,2.4-4.4,3.7c-0.3,0.3,0.2,0.7,0.4,0.4c1.4-1.3,2.9-2.5,4.4-3.7
	c0.1,0.7,0.2,1.5,0.2,2.2c0.1,0.8,0.6,2.3,0.4,3.1c-0.4,1.7-3.2,2.6-4.9,4.5c-0.1,0.1-0.1,0.2,0,0.3c0.1,0.1,0.2,0.1,0.3,0
	c1.2-0.7,2.3-1.5,3.4-2.4c0.6-0.4,1.6-0.9,1.9-1.7c0.4-0.9-0.1-2.4-0.2-3.4c-0.1-1.2-0.2-2.5-0.5-3.7c-0.1-0.2-0.3-0.3-0.5-0.3
	c0,0,0,0,0,0c-2.8-0.5-5.6-0.5-8.3-0.1C181.2,27.2,181.2,27.7,181.5,27.7z"/>
<path class="st1" d="M162.4,68.7c0.3-0.2-0.1-0.6-0.4-0.5c-2.7,1.7-4.8,5.4-2.9,8.4c0.2,0.3,0.8,0.1,0.7-0.3
	C158.6,73.2,160,70.7,162.4,68.7z"/>
<path class="st1" d="M155.8,84.3c0.5,2.5,1.7,4.9,1.8,7.5c0,0.2,0.2,0.4,0.4,0.4c3.1-0.3,6.2-0.8,9.3-1.3c0.2-0.1,0.3-0.3,0.3-0.5
	c-2.1-7-1.6-7-2.3-8.7c-0.2-0.5-0.2-0.5-5.4-4.2c-0.1-0.1-0.3-0.1-0.4,0.1c-1.4,1.8-2.7,3.5-4,5.3c-0.2,0.2,0.2,0.5,0.4,0.3
	c0.9-1.2,3.2-4,3.4-4.3c0.3-0.4,0.2-0.6,0.6-0.5c0.3,0.1,0.7,0.5,0.9,0.7c0.8,0.6,1.5,1.2,2.3,1.7c0.5,0.3,1,0.6,1.4,1
	c0.3,1.6,1.4,6.2,2.1,8.4c-2.8,0.4-5.5,0.7-8.3,1.1c-0.5-2.5-1.1-4.9-1.9-7.2c0-0.2-0.2-0.3-0.4-0.3
	C155.9,83.9,155.7,84.1,155.8,84.3C155.8,84.3,155.8,84.3,155.8,84.3z"/>
<path class="st1" d="M90,172.4c-1.1-0.4-2.3-0.8-3.4-1.1c-0.3-0.1-0.5,0.1-0.6,0.4c-0.1,0.3,0.1,0.5,0.3,0.6
	c0.8,0.2,1.7,0.4,2.5,0.7c-6.6,5.4-13.6,10.4-20.8,14.9c-2.2,1.4-1.7,1.3-7.4,0.2c-40.2-7.9-35.5-7.4-40.5-8.1
	c-0.2,0-0.4,0.1-0.4,0.3c0,0.2,0.1,0.4,0.2,0.4c3.6,1,7.3,1.8,11,2.5c5.1,1.1,32,6.4,33.5,6.6c0.7,0.2,1.4,0.3,2.2,0.1
	c1.4-0.4,13.5-8.5,23.6-16.8c0.2-0.2,0.2-0.5,0-0.7C90.1,172.4,90.1,172.4,90,172.4z"/>
<path class="st1" d="M164.2,161.8c-3.9-1.5-8.2-2.2-12.2-3.2c-10.4-2.6-12.3-3-14.3-3.2c-0.3,0-0.3,0.4-0.1,0.5
	c2.7,0.9,2.9,0.6,14.3,3.5c4,1,8,2.4,12.1,3c0.2,0,0.3-0.1,0.3-0.3C164.4,161.9,164.4,161.8,164.2,161.8z"/>
<path class="st1" d="M25.2,129.3c6.3,1.2,31.5,5.5,37.8,6.5c0.3,0.1,0.5-0.4,0.1-0.5c-12.5-3-25.1-5.2-37.9-6.6
	C25,128.7,24.9,129.2,25.2,129.3z"/>
<path class="st1" d="M21.9,177.6c0.4,0.1,0.8,0.2,1.3,0.2c-1.5-4-2-8.3-1.6-12.5c0-0.3,0.5-0.4,0.5,0c-0.1,6.4,1.1,9.2,2.1,12.7
	c13.4,2.4,39.1,6.9,41.8,6.9c0.2,0,0.3,0,0.5-0.3c0.1,0,0.1,0,0.2-0.1c2.8-1.4,4.7-4.1,7.1-6c0.2-0.2-0.1-0.5-0.3-0.4
	c-2.4,1.4-4.3,3.7-6.7,5.2c0,0-0.1-0.1-0.1-0.1c0.7-6.8-1.4-35-3.2-37.3c-2-2.6-47.4-8.7-49-7.9c-0.8,0.4,0,8.5,0.8,15.3
	c1,8.4,2.3,17,3.2,21C18.9,176,20.2,177.3,21.9,177.6z M48.2,145.8c4.7,0.9,9.7,0.3,12.2,1.5c1.1,0.5,1.4,1.6,1.5,2.8
	c0.2,2.1,0.2,4.2,0.1,6.3c0,0.3-0.5,0.4-0.6,0.1c-0.2-1.6-0.4-3.3-0.4-5c0.1-0.8,0-1.6-0.2-2.4c-0.4-1.1-1.6-1.2-2.6-1.4
	c-3.4-0.6-6.7-0.7-10.1-1.5C47.8,146.1,47.9,145.7,48.2,145.8z"/>
<path class="st1" d="M116,60.5c-5.8-5.4-15.3-1.4-18,2.9c-5.1,2.1-9.6,5.5-12.8,10.1l-0.1,0.1l0.2,0.1c10.9,4.5,22.8-1.9,24.6-2.9
	c-0.6,5.4,0.9,10.2,6,12c-0.5,0.2-1,0.5-1.4,1c-0.2,0.2,0.1,0.6,0.4,0.4c1.4-1.6,4.9-1.1,5.1,1.3c0.1,1.2-0.6,2.2-1.8,2.6
	c-0.9,0.2-1.9,0.2-2.8,0.1c-0.2,0-0.3,0.2-0.3,0.4c0,0.1,0.1,0.3,0.2,0.3c0.5,0.1,1,0.2,1.6,0.2c-0.1,2.9,0.1,5.7,0.2,8.6
	c0.1,3,0.1,6,0.3,8.9c0,0.1,0.1,0.3,0.3,0.3c0.1,0,0.3-0.1,0.3-0.3c0.2-5.2,0.1-10.3-0.2-15.5c2.3-0.7,4.3-2.3,5.6-4.4
	c2.4-3.8,3.1-10.3,2-14.5c-0.6-2.5-2-4.7-4-6.3c-0.4-0.3-0.9-0.9-0.5-1.3c1.2,0.8,2.3,1.6,3.3,2.6c0.7-0.6,1.9-0.6,2.5,0.2
	c1.9,1.9,0,6.5,1.2,9.7c1,2.2,3.2,3.7,5.6,3.8c2.1,0.1,5-0.8,6.3-2.5c-0.2,0.1-0.4,0.1-0.6,0.2c-6.6,1.8-4.8-5.6-4.7-11.7
	c0.2-2.6-0.3-5.2-1.4-7.6c-2.6-4.9-8.6-6.8-13.5-4.2c-1.7,0.9-3,2.2-4,3.8c0.6,0.4,1.1,0.9,1.4,1.6C117.1,60.9,116.4,61,116,60.5z
	 M90.1,71.6c8.8,1.6,12.7-1,17.2-2.5c0.2-0.1,0.4,0.3,0.2,0.4c-5.3,3.1-11.5,4-17.5,2.6c-0.1,0-0.2-0.2-0.2-0.3
	C89.9,71.6,90,71.5,90.1,71.6z"/>
<path class="st1" d="M88.1,88.8c-0.7,2.5,0.3,5.1,1.4,7.4c0.9,1.8,2.5,4.4,4.7,4.8c0.3,0.1,0.6-0.3,0.3-0.6c-1.2-1-2.4-1.3-4-4.3
	c-1.2-2.1-2.4-4.7-1.9-7.2c0-0.1,0-0.2-0.2-0.3C88.2,88.6,88.1,88.7,88.1,88.8z"/>
<path class="st1" d="M85.5,88.7c-1.2,4.1,0.7,9.8,4.8,11.8c0.3,0.2,0.8-0.3,0.4-0.6c-3.4-2.6-5.7-6.7-4.8-11.2
	C85.9,88.5,85.5,88.4,85.5,88.7z"/>
<path class="st1" d="M82.4,92.1c0-0.2-0.4-0.2-0.4,0.1c0.1,2.4,0.8,4.6,2.2,6.6c1.3,1.8,3.2,3,5.4,3.5c0.4,0.1,0.7-0.5,0.3-0.7
	C85.6,100.2,82.7,96.5,82.4,92.1z"/>
<path class="st1" d="M162.2,84.2c-0.6-0.1-1.2-0.1-1.8,0.1c-0.7,0.1-1.4,0.2-2.1,0.4c-0.3,0.1-0.4,0.6,0,0.7c0.7,0.1,1.4,0,2.1-0.1
	c0.7,0,1.3-0.2,1.9-0.5c0.2-0.1,0.2-0.3,0.1-0.5C162.3,84.3,162.2,84.3,162.2,84.2z"/>
<path class="st1" d="M159.1,87.8c-0.2,0.1-0.4,0.3-0.3,0.6c0.1,0.2,0.3,0.3,0.5,0.3c0.8-0.2,1.6-0.4,2.3-0.6
	c0.7-0.1,1.3-0.4,1.8-0.8c0.2-0.2,0-0.5-0.2-0.6c-0.7,0-1.4,0.2-2,0.4C160.5,87.3,159.8,87.5,159.1,87.8z"/>
<path class="st1" d="M30.2,47.6c-0.1,0.5,0.5,0.6,0.7,0.2c1.3-2.4,3.1-4.5,5.3-6c3.7-2.3,7.3-0.8,5.9,3.4c-0.1,0.3,0.4,0.6,0.6,0.4
	c2-2.5,0-6.5-4.4-5.5C34.9,40.7,30.9,45.3,30.2,47.6z"/>
<path class="st1" d="M25.1,35.1c3.8-1.8,8.3,0.4,8.3,4.8c0,0.5,0.7,0.4,0.7,0c0.3-4.9-5.2-8.5-9.4-5.4c-0.2,0.1-0.2,0.3-0.1,0.5
	C24.7,35.2,24.9,35.2,25.1,35.1L25.1,35.1z"/>
<path class="st1" d="M22.8,35.5c0.1-0.3-0.1-0.6-0.4-0.7c-2.3-0.7-4.7-1.2-7.1-1.3c-0.2,0-0.3,0.2-0.3,0.4c0,0.1,0.1,0.3,0.2,0.3
	c2.1,0.5,4.3,0.9,6.4,1.5c-1.7,6-1.2,4.9-4,7c-2.1,1.6-4.3,3.1-6.4,4.7c-1-1.8-2.1-3.5-3.3-5.2c-0.4-0.6-1.2-1.2-1.1-1.9
	c0.1-0.8,1.2-1.2,1.9-1.6c4.3-2.6,4.9-2.8,5.9-3.8c0.3-0.3,0-0.9-0.4-0.8c-1.8,0.8-3.5,1.8-5.1,3c-1,0.6-3.1,1.4-3.5,2.7
	c-0.6,1.7,1.2,1.8,5.1,8.7c0.2,0.3,0.5,0.4,0.8,0.2c2.7-1.9,5.4-3.9,8.1-5.9C21.6,41.1,21.4,40.2,22.8,35.5z"/>
<path class="st1" d="M17,41c0.3,0.2,0.8,0,0.7-0.4c-0.3-0.6-0.7-1.2-1.2-1.7c-0.5-0.6-1-1.2-1.5-1.8c-0.4-0.5-1.1,0.2-0.7,0.7
	C16.1,39.7,16.2,40.3,17,41z"/>
<path class="st1" d="M12.2,38.7c-0.3-0.5-0.9-0.1-0.7,0.4c0.6,1.2,1.5,2.7,2.8,3.2c0.2,0.1,0.4-0.1,0.4-0.2c0-0.1,0-0.2,0-0.3
	C14.1,40.9,13.2,40.5,12.2,38.7z"/>
<path class="st1" d="M36.6,49.6c-1.8,2.8-3.3,5.8-4.7,8.8c-0.5,0-0.9,0.3-1.2,0.7c-0.7,1.1,0,2.2,1.1,2c0.5-0.1,0.9-0.5,1-1
	c0.1-0.5,0.2-1.2-0.2-1.5c0,0,2.4-4.2,3.5-6.3c1.3-2.4,3.1-5,6.1-5.3c2-0.2,2.9,2,3,3.7c0.1,2.5-1.2,4-2.1,10.1
	c-0.5,0.4-0.8,1-0.7,1.7c0,0.6,0.4,1.1,1,1.1c0.3,0,0.5-0.1,0.7-0.2c0.3-0.3,0.4-0.7,0.5-1.1c0.2-0.6,0.2-1.4-0.4-1.6
	c0.2-1,0.3-1.9,0.5-2.9c0.6-3.1,2.3-6.5,0.9-9.3c-0.5-1-1.4-2.3-2.5-2.5C41.7,45.7,38.4,47.1,36.6,49.6z"/>
</svg>
