<?xml version="1.0" encoding="utf-8"?>
<!-- Generator: Adobe Illustrator 21.1.0, SVG Export Plug-In . SVG Version: 6.00 Build 0)  -->
<svg version="1.1" id="Layer_1" xmlns="http://www.w3.org/2000/svg" xmlns:xlink="http://www.w3.org/1999/xlink" x="0px" y="0px"
	 viewBox="0 0 200 200" style="enable-background:new 0 0 200 200;" xml:space="preserve">
<style type="text/css">
	.st0{fill:#618AFF;}
	.st1{fill:#191919;}
</style>
<path class="st0" d="M141.7,55.7c-0.7,0.2-23.3,16.3-25.1,17.7s-5.5,6.4-5.1,6.9c0.7,0.7,7.1-1.6,7.9-2.1s24.4-17.2,25.6-18
	S142.4,55.5,141.7,55.7z"/>
<path class="st0" d="M100,107.4C90,108,80.9,100,66.6,95.5c-6,1-17.4,0.5-19-3.2C26.2,95.4,8.2,109,5.4,118.1
	c-2.7,8.7,9.7,25.9,15.7,31.5c2.6-14.9,6.3-30.9,12.1-44.9c0.3-0.7,1-0.3,0.7,0.4c-6.4,19.6-10.9,39.7-13.5,60.2
	c11.3,6.7,47.3,8.2,59,5.4c0.1-4.9,0.8-21.5,1.4-34.3c-5-0.4-10-1-15-1.8c-0.8-0.1-0.4-1,0.3-0.9c9.3,1.3,28.2,3.4,39.1,0.5
	c6.7-1.8,20.5-8.9,31.4-42.2c-3.2-2.4-8.5-4.4-13.9-5C121.4,91.1,105,107.1,100,107.4z"/>
<path class="st0" d="M94.7,37c5.4,3.8,10.3,8.4,14.5,13.5c0.7,0.8,1.4,0.2,1.9-0.5c6.6-8.6,10.2-13.6,19.1-21
	c0.7-0.6-0.1-1.4-0.8-0.9c-6.1,4.3-15.5,13.2-19.4,19.6c-4.3-4.6-9.1-8.7-14.5-12C94.3,35.1,93.7,36.3,94.7,37z"/>
<path class="st0" d="M100.6,36c1.7,0.2,14.2-0.3,16.2-0.4c1,0,1-1.6,0.1-1.5c-2,0.1-14.6,0.4-16.4,0.7C99.8,34.9,100,35.9,100.6,36z
	"/>
<path class="st0" d="M96.5,74.1c-0.9-0.4-1.6,0.8-0.8,1.3c4.4,2.8,8.7,5.8,12.7,9.2c1.2,1,2.7-0.9,1.5-1.9
	C105.8,79.2,101.3,76.3,96.5,74.1z"/>
<path class="st0" d="M122.3,53.9c0-3.7-0.3-7.7-0.3-11.5c0-1-1.3-0.8-1.3,0.2c0,4,0.1,7.9,0.1,11.9c-3,0-16.4,0.4-19.5,0.9
	c-0.3-3.4-0.5-6.8-1-10.2c-0.1-0.3-0.3-0.5-0.6-0.4c-0.3,0-0.4,0.3-0.5,0.5c0.2,3.3,0.3,6.7,0.6,10.1c0.1,1.8,0.1,1.7,1.9,1.5
	c6.1-0.4,12.2-0.8,18.3-0.9C121.6,56,122.2,56.1,122.3,53.9z"/>
<path class="st0" d="M114.7,67.5c-3.3,0-7,0.1-10.3,0.5c-3.5,0.4-3.2,0.7-3,3.8c0.1,0.8,0.2,1.6,0.3,2.5c0,0.3,0.4,0.6,0.7,0.5
	c0.3,0,0.5-0.3,0.5-0.5c0-0.6-0.3-4.4-0.2-4.5s10.6-0.8,11.7-0.9C115.5,68.8,115.7,67.5,114.7,67.5z"/>
<path class="st0" d="M103.5,82.9c-0.1-0.3-0.4-0.6-0.8-0.5c-0.3,0.1-0.5,0.3-0.5,0.6c0,2.1,0.2,4.1,0.5,6.2c0,0.4,0.3,0.8,0.7,0.8
	c0.1,0,7.8-0.2,13.4-0.7c1.4-0.1,0.6-1.4-0.3-1.4c-4,0.3-8.4,0.5-12.4,0.6C103.9,86.5,103.8,84.7,103.5,82.9z"/>
<path class="st1" d="M69.5,64.7c-1.9-0.1-3.1,2.3-2,2.5c0.5,0.1,0.7-1.2,2-1.2c0.3,0,0.6-0.2,0.7-0.6S69.9,64.7,69.5,64.7z"/>
<path class="st1" d="M72.2,62.5c-0.3-0.6-0.8-0.1-0.7,0.4c0.8,3.4,1.8,5.3,2.5,9c0.4,2-1.5,0.8-1.5,2.4c0,1.2-0.2,2.3-0.4,3.5
	c-0.8-0.1-1.5-0.5-2.1-1.1c-0.4-0.5-1,0-0.7,0.6c0.5,1,1.5,1.7,2.6,1.8c-0.6,5.1-3.3,5.4-7.6,4.5c-0.8-0.2-1.6-0.4-2.5-0.6
	c-0.4-0.1-1.5,0.8,1.3,1.6c0,1.4,0.3,8.4,0.7,9.6c0.2,0.5,1,0.5,1-0.1c-0.3-3.2-0.3-6.1-0.4-9.2c8.6,1.8,8.5-3.5,9.2-10.3
	c1.8-0.3,1.9-1.7,1.6-3.1C74.7,68.4,73.6,65.4,72.2,62.5z"/>
<path class="st1" d="M47.9,48c-2.3-8.3-11.2-16.9-23.2-10.7s-10.4,23.1-4,30.2c4.1,4.5,7.9,9.8,7.3,13.9s5.7,0.5,2.4-12.9
	c-2.6-10.7,6-19.7,12.7-15.5C44.4,51.1,46,49.4,47.9,48z"/>
<path class="st1" d="M59.8,67.8c1.8,1.1,12.9-7.9,12.2-10c-5.5-16.6-26-12.3-29.2-0.4c-3.7,13.3,7.3,23.7,8,23.6
	c1-0.1,4.2-2.2,5.4-6.2c1.1,0.6,2.4,0.6,3.4,0c0.7-0.4,0.2-1.2-0.5-0.9c-1.8,0.6-3.6-0.8-3.5-3.8c0-1.5,1.3-2.8,2.8-2.7
	C58.9,67.4,59.4,67.6,59.8,67.8z"/>
<path class="st1" d="M50.3,82.6c-0.6,3-1,6-1,9.1c0,0.3,0.3,0.5,0.6,0.5c0.2,0,0.4-0.2,0.5-0.4c0.6-2.9,0.7-6.1,1.2-9.1
	C51.6,82,50.4,81.9,50.3,82.6z"/>
<path class="st1" d="M70.7,68.7c-0.5-1.6-2-1.7-1.4,0.6C69.9,71.3,71.2,70.4,70.7,68.7z"/>
<path class="st1" d="M119.6,68.5c0.5-0.5,4-0.8,4.3-0.8c0.6-0.2,0.5-1.1,0-1.3c-1-0.4-3.9,0.2-4.9,0.7s-1.1,2.3-2,4.1
	c-0.4,0.9-1,1.8-1.4,2.8c-0.2,0.5,0.4,0.8,0.8,0.5C118.3,72.9,119.6,68.5,119.6,68.5z"/>
<path class="st1" d="M117.2,76.8c-0.3,0-0.6,0.2-0.6,0.5c0,0.2,0.1,0.5,0.4,0.6c6.9,2.5,6.5,7.1,7.4,8.2c0.2,0.2,1.6,0.7,1.2-1.2
	C125,81,121.2,77.1,117.2,76.8z"/>
<path class="st1" d="M131.3,72.2c2.7,6.5,2.8,8.1,2.6,15.2c0,0.8,1.2,1.1,1.4,0.3c1.2-4.7-0.2-12.2-3-16.2
	C131.9,70.9,131.1,71.6,131.3,72.2z"/>
<path class="st1" d="M126.9,74.2c-0.2,1.8-1.3,1.8-2.4,2.1c-1.4,0.4-0.6,0.8,0,0.9c1.5,0.4,3.1-0.5,3.5-2c0.1-0.4,0.1-0.8,0.1-1.2
	C128,73.3,127,73.5,126.9,74.2z"/>
<path class="st1" d="M176.1,49.6c1.5-0.1,1.1-2.4-0.4-2.3c-10.9,0.6-21.9,0-32.5,0.6c-1.2,0.1-1,1.9,0.1,2
	C149.6,50.6,169.9,49.9,176.1,49.6z"/>
<path class="st1" d="M193.7,35c-12.9-0.4-40.3-0.3-52.3,1c-1,0.1-1.3,1.9-0.1,1.9c13.8-0.1,36.5-1,52.6-0.5
	C195.5,37.5,195.2,35.1,193.7,35z"/>
<path class="st1" d="M192.1,68.2c-15.7,1.3-34.5-0.3-48.8,1.4c-1.1,0.1-0.8,2.1,0.3,2c12.8-0.8,31.7-0.2,48.5-1
	C193.7,70.5,193.7,68,192.1,68.2z"/>
<path class="st1" d="M174.1,79.3c-7.3-0.4-23.6-0.4-29.7-0.1c-1.1,0.1-1.3,2-0.1,2.1c9.2,0.6,19.1,0.5,29.7,0.3
	C175.2,81.5,175.4,79.3,174.1,79.3z"/>
</svg>
