<svg width="80" height="81" viewBox="0 0 80 81" fill="none" xmlns="http://www.w3.org/2000/svg">
<g filter="url(#filter0_d_5004_81440)">
<path fill-rule="evenodd" clip-rule="evenodd" d="M4 1L75.9997 72.3691V24.0647L52.7312 1H4Z" fill="#49C998"/>
</g>
<path d="M46.7178 15.5827L44.1603 13.0476C44.0588 12.9469 43.948 12.9469 43.8464 13.0476L37.6882 19.1519C37.5866 19.2526 37.5866 19.3624 37.6882 19.4631L38.6761 20.4423C38.7777 20.543 38.8885 20.543 38.99 20.4423L41.289 18.1635C41.3259 18.1269 41.3721 18.136 41.3998 18.1635L42.7016 19.4539C43.9572 20.6986 45.5822 20.7535 46.7547 19.5912C47.955 18.4014 47.9458 16.7999 46.7178 15.5827ZM43.6064 18.2825L42.4431 17.1293C42.4061 17.0927 42.4061 17.0561 42.4431 17.0195L44.1234 15.3539C44.1603 15.3173 44.1973 15.3173 44.2342 15.3539L45.3975 16.507C45.9607 17.0653 45.9792 17.7974 45.4345 18.3374C44.9082 18.859 44.1696 18.8407 43.6064 18.2825ZM47.2812 28.972L48.3522 30.0336C48.4629 30.1434 48.5922 30.1251 48.6568 29.9878L52.8485 21.9342C52.9039 21.8244 52.8947 21.7237 52.8023 21.6322L51.4451 20.2869C51.3528 20.1953 51.2512 20.1862 51.1404 20.2411L43.0156 24.3961C42.8771 24.4601 42.8587 24.5882 42.9695 24.6981L44.0405 25.7597C44.1328 25.8512 44.2344 25.8604 44.3451 25.8054L45.4623 25.2106C45.5085 25.1831 45.5362 25.1923 45.5639 25.2197L47.8259 27.4619C47.8536 27.4894 47.8628 27.5168 47.8351 27.5626L47.235 28.67C47.1796 28.7798 47.1888 28.8805 47.2812 28.972ZM46.9026 24.4235L50.5403 22.4467C50.6049 22.4193 50.6419 22.4559 50.6142 22.5199L48.6291 26.1349C48.5922 26.1898 48.5553 26.1898 48.5183 26.1532L46.8841 24.5333C46.8472 24.4967 46.8472 24.4601 46.9026 24.4235ZM50.0316 31.6983L51.0195 32.6776C51.121 32.7782 51.2318 32.7782 51.3334 32.6776L57.4824 26.5824C57.5839 26.4818 57.5839 26.3719 57.4824 26.2713L56.4945 25.292C56.3929 25.1913 56.2821 25.1913 56.1806 25.292L50.0316 31.3872C49.93 31.4878 49.93 31.5976 50.0316 31.6983ZM53.0109 34.6516L55.273 36.8938C56.6671 38.2757 58.3567 38.413 59.5385 37.2416L62.0867 34.7156C63.2685 33.5442 63.13 31.8694 61.7359 30.4875L59.4738 28.2453C59.3723 28.1446 59.2615 28.1446 59.1599 28.2453L53.0109 34.3404C52.9094 34.4411 52.9094 34.5509 53.0109 34.6516ZM55.3283 34.6241L59.4461 30.5424C59.4831 30.5058 59.52 30.5058 59.5569 30.5424L60.6556 31.6315C61.2465 32.2172 61.2096 33.0042 60.5725 33.6357L58.449 35.7407C57.8027 36.363 57.0087 36.3996 56.4363 35.8322L55.3283 34.734C55.2914 34.6973 55.2914 34.6607 55.3283 34.6241Z" fill="white"/>
<defs>
<filter id="filter0_d_5004_81440" x="0" y="1" width="79.9997" height="79.3691" filterUnits="userSpaceOnUse" color-interpolation-filters="sRGB">
<feFlood flood-opacity="0" result="BackgroundImageFix"/>
<feColorMatrix in="SourceAlpha" type="matrix" values="0 0 0 0 0 0 0 0 0 0 0 0 0 0 0 0 0 0 127 0" result="hardAlpha"/>
<feOffset dy="4"/>
<feGaussianBlur stdDeviation="2"/>
<feComposite in2="hardAlpha" operator="out"/>
<feColorMatrix type="matrix" values="0 0 0 0 0 0 0 0 0 0 0 0 0 0 0 0 0 0 0.1 0"/>
<feBlend mode="normal" in2="BackgroundImageFix" result="effect1_dropShadow_5004_81440"/>
<feBlend mode="normal" in="SourceGraphic" in2="effect1_dropShadow_5004_81440" result="shape"/>
</filter>
</defs>
</svg>
