<svg width="80" height="80" viewBox="0 0 80 80" fill="none" xmlns="http://www.w3.org/2000/svg">
<g filter="url(#filter0_d_3832_25650)">
<path fill-rule="evenodd" clip-rule="evenodd" d="M4 0.453125L75.6705 71.4959V23.4126L52.5081 0.453125H4Z" fill="#49C998"/>
</g>
<path d="M42.7375 17.4095L41.1055 15.7918L42.3272 14.5808L43.9592 16.1985C44.1816 16.4189 44.3995 16.5604 44.6129 16.623C44.8263 16.6855 45.0306 16.6826 45.226 16.614C45.4274 16.5455 45.6122 16.4278 45.7805 16.261C45.9608 16.0823 46.0946 15.8842 46.1817 15.6667C46.2719 15.4522 46.2944 15.2302 46.2494 15.0008C46.2073 14.7685 46.075 14.5421 45.8526 14.3216L44.8158 13.2938L39.4736 18.5892L37.8912 17.0207L44.4551 10.5143L47.0743 13.1106C47.6003 13.6319 47.9564 14.1756 48.1428 14.7417C48.3321 15.3107 48.3607 15.8633 48.2284 16.3995C48.0992 16.9328 47.8197 17.4124 47.3899 17.8385C46.9662 18.2585 46.4943 18.5237 45.9744 18.6339C45.4544 18.7441 44.9149 18.6979 44.3559 18.4954C43.8029 18.2928 43.2634 17.9308 42.7375 17.4095ZM51.6225 20.3538L44.8378 23.9064L43.1382 22.2217L52.1139 18.106L53.1914 19.1741L51.6225 20.3538ZM47.7636 26.8066L51.343 20.0767L52.5152 18.5038L53.6061 19.5852L49.4676 28.4957L47.7636 26.8066ZM50.1484 24.3175L48.9267 25.5285L45.5591 22.1904L46.7808 20.9794L50.1484 24.3175ZM58.7494 24.6834L52.1855 31.1898L50.6077 29.6258L57.1716 23.1194L58.7494 24.6834ZM55.9854 34.9564L54.5292 33.513L55.7555 32.3154L57.2026 33.7498C57.5031 34.0478 57.8292 34.228 58.1809 34.2906C58.5355 34.3561 58.9097 34.301 59.3034 34.1252C59.7031 33.9494 60.1134 33.653 60.5341 33.2359L60.8181 32.9544C61.1337 32.6416 61.3786 32.3362 61.553 32.0383C61.7333 31.7404 61.843 31.4529 61.8821 31.1759C61.9241 30.8958 61.8956 30.6262 61.7964 30.367C61.7002 30.1108 61.5364 29.868 61.305 29.6386L59.8444 28.1908L61.0661 26.9798L62.5267 28.4276C62.9715 28.8685 63.3021 29.3482 63.5185 29.8666C63.7409 30.3849 63.8461 30.9182 63.8341 31.4663C63.8281 32.0145 63.7064 32.5522 63.4689 33.0795C63.2375 33.6068 62.8889 34.1014 62.423 34.5631L62.148 34.8357C61.6852 35.2945 61.1863 35.6401 60.6513 35.8725C60.1194 36.1078 59.5784 36.23 59.0284 36.2389C58.4784 36.2478 57.9419 36.1451 57.419 35.9306C56.902 35.7161 56.4242 35.3913 55.9854 34.9564ZM61.9993 27.9048L55.4354 34.4112L53.853 32.8427L60.4169 26.3363L61.9993 27.9048Z" fill="white"/>
<defs>
<filter id="filter0_d_3832_25650" x="0" y="0.453125" width="79.6704" height="79.043" filterUnits="userSpaceOnUse" color-interpolation-filters="sRGB">
<feFlood flood-opacity="0" result="BackgroundImageFix"/>
<feColorMatrix in="SourceAlpha" type="matrix" values="0 0 0 0 0 0 0 0 0 0 0 0 0 0 0 0 0 0 127 0" result="hardAlpha"/>
<feOffset dy="4"/>
<feGaussianBlur stdDeviation="2"/>
<feComposite in2="hardAlpha" operator="out"/>
<feColorMatrix type="matrix" values="0 0 0 0 0 0 0 0 0 0 0 0 0 0 0 0 0 0 0.1 0"/>
<feBlend mode="normal" in2="BackgroundImageFix" result="effect1_dropShadow_3832_25650"/>
<feBlend mode="normal" in="SourceGraphic" in2="effect1_dropShadow_3832_25650" result="shape"/>
</filter>
</defs>
</svg>
