<svg width="153" height="23" viewBox="0 0 153 35" fill="none" xmlns="http://www.w3.org/2000/svg">
<path d="M48.8383 31.3935C48.0961 30.8987 47.5271 30.2803 47.1066 29.4886C46.686 28.697 46.4634 27.8806 46.4634 26.99C46.4634 26.3963 46.5376 25.8521 46.7108 25.3573C46.8592 24.8378 47.0818 24.3925 47.3787 23.9472C47.6756 23.5019 48.0219 23.1308 48.4177 22.7845C48.8135 22.4629 49.2588 22.1907 49.7536 21.9928C50.4216 21.696 51.1142 21.5723 51.8564 21.5723H55.5177C55.8146 21.5723 56.062 21.6712 56.2599 21.8691C56.4578 22.067 56.5567 22.3144 56.5567 22.6113C56.5567 22.9082 56.4578 23.1555 56.2599 23.3534C56.062 23.5514 55.8146 23.6503 55.5177 23.6503H51.8564C51.5101 23.6503 51.1885 23.6998 50.8669 23.7987C50.57 23.8977 50.2731 24.0461 50.001 24.2193C49.5557 24.5162 49.1846 24.912 48.9372 25.4068C48.6899 25.8768 48.5414 26.3963 48.5414 26.9653C48.5414 27.3116 48.5909 27.6332 48.6899 27.9301C48.7888 28.227 48.9372 28.5238 49.1104 28.796C49.2836 29.0681 49.5062 29.2907 49.7536 29.5134C50.001 29.7113 50.2731 29.8845 50.57 30.0081C50.9658 30.1813 51.3864 30.2555 51.8564 30.2555H55.5177C55.8146 30.2555 56.062 30.3545 56.2599 30.5524C56.4578 30.7503 56.5567 30.9977 56.5567 31.2946C56.5567 31.5914 56.4578 31.8388 56.2599 32.0367C56.062 32.2346 55.8146 32.3336 55.5177 32.3336H51.8564C51.2874 32.3336 50.7432 32.2594 50.2731 32.0862C49.7536 31.913 49.2836 31.6656 48.8383 31.3935Z" fill="white"/>
<path d="M60.1685 31.4433C59.2779 30.8496 58.6347 30.0579 58.2141 29.0684C58.0657 28.7468 57.9668 28.4252 57.8925 28.0789C57.8183 27.7325 57.7936 27.3614 57.7936 26.9904C57.7936 26.4214 57.8678 25.9019 58.041 25.3823C58.2141 24.8628 58.4368 24.4175 58.7089 23.9722C59.0058 23.5269 59.3521 23.1559 59.7479 22.8095C60.1438 22.4879 60.5891 22.2158 61.0838 21.9931C61.4054 21.8447 61.7518 21.7458 62.0981 21.6715C62.4445 21.5973 62.8155 21.5479 63.1866 21.5479C63.7556 21.5479 64.2751 21.6221 64.7946 21.7952C65.2894 21.9684 65.7594 22.1911 66.2047 22.4879C66.65 22.7848 67.0211 23.1064 67.3674 23.5269C67.689 23.9228 67.9612 24.3681 68.1591 24.8628C68.4559 25.5308 68.5796 26.2235 68.5796 26.9656C68.5796 27.5346 68.5054 28.0541 68.3322 28.5736C68.1591 29.0931 67.9364 29.5384 67.6643 29.9837C67.3674 30.429 67.0211 30.8001 66.6253 31.1217C66.2295 31.4433 65.7842 31.7154 65.2894 31.9133C64.6215 32.2102 63.9288 32.3339 63.1866 32.3339C62.6424 32.3339 62.1228 32.2597 61.6033 32.0865C61.0838 31.9628 60.6138 31.7402 60.1685 31.4433ZM61.3312 24.2196C60.787 24.5907 60.3664 25.0855 60.119 25.6792C59.9458 26.075 59.8716 26.4956 59.8716 26.9656C59.8716 27.312 59.9211 27.6336 60.0201 27.9552C60.119 28.2768 60.2674 28.5489 60.4406 28.821C60.6138 29.0684 60.8364 29.3158 61.0838 29.5137C61.3312 29.7116 61.6033 29.8848 61.9002 30.0085C62.296 30.1816 62.7166 30.2559 63.1866 30.2559C63.5329 30.2559 63.8546 30.2064 64.1762 30.1074C64.4978 30.0085 64.7699 29.86 65.042 29.6869C65.2894 29.5137 65.5368 29.291 65.7347 29.0437C65.9326 28.7963 66.1058 28.5241 66.2295 28.2273C66.4026 27.8067 66.4768 27.3862 66.4768 26.9409C66.4768 26.5945 66.4274 26.2729 66.3284 25.9513C66.2295 25.6297 66.081 25.3576 65.9079 25.0855C65.5368 24.5412 65.042 24.1207 64.4483 23.8733C64.0277 23.7001 63.6072 23.6259 63.1619 23.6259C62.8155 23.6259 62.4939 23.6754 62.1723 23.7743C61.8755 23.898 61.5786 24.0465 61.3312 24.2196Z" fill="white"/>
<path d="M79.811 31.2949V25.0855L77.1392 27.7573C76.9413 27.9552 76.6939 28.0541 76.4218 28.0541C76.1249 28.0541 75.9023 27.9552 75.7044 27.7573L73.0326 25.0855V31.2949C73.0326 31.5917 72.9336 31.8144 72.7357 32.0123C72.5378 32.2102 72.2904 32.3092 72.0183 32.3092C71.7462 32.3092 71.4988 32.2102 71.3009 32.0123C71.103 31.8144 71.004 31.5917 71.004 31.2949V22.6364C71.004 22.4384 71.0535 22.2653 71.1772 22.0921C71.3009 21.9189 71.4493 21.7952 71.6225 21.721C71.7214 21.6715 71.8699 21.6468 72.0183 21.6468C72.2904 21.6468 72.5378 21.7458 72.711 21.9189L76.397 25.605L80.0831 21.9189C80.281 21.721 80.5284 21.6221 80.8005 21.6221C80.9242 21.6221 81.0479 21.6468 81.1716 21.6963C81.3695 21.7705 81.518 21.8942 81.6416 22.0674C81.7406 22.2405 81.8148 22.4384 81.8148 22.6364V31.2949C81.8148 31.5917 81.7159 31.8144 81.518 32.0123C81.32 32.2102 81.0727 32.3092 80.8005 32.3092C80.5284 32.3092 80.281 32.2102 80.0831 32.0123C79.9099 31.8144 79.811 31.5917 79.811 31.2949Z" fill="white"/>
<path d="M93.6405 31.2949V25.0855L90.9687 27.7573C90.7708 27.9552 90.5234 28.0541 90.2513 28.0541C89.9544 28.0541 89.7317 27.9552 89.5338 27.7573L86.8621 25.0855V31.2949C86.8621 31.5917 86.7631 31.8144 86.5652 32.0123C86.3673 32.2102 86.1199 32.3092 85.8478 32.3092C85.5757 32.3092 85.3283 32.2102 85.1304 32.0123C84.9324 31.8144 84.8335 31.5917 84.8335 31.2949V22.6364C84.8335 22.4384 84.883 22.2653 85.0067 22.0921C85.1304 21.9189 85.2788 21.7952 85.452 21.721C85.5509 21.6715 85.6994 21.6468 85.8478 21.6468C86.1199 21.6468 86.3673 21.7458 86.5405 21.9189L90.2265 25.605L93.9126 21.9189C94.1105 21.721 94.3579 21.6221 94.63 21.6221C94.7537 21.6221 94.8774 21.6468 95.0011 21.6963C95.199 21.7705 95.3474 21.8942 95.4711 22.0674C95.5701 22.2405 95.6443 22.4384 95.6443 22.6364V31.2949C95.6443 31.5917 95.5453 31.8144 95.3474 32.0123C95.1495 32.2102 94.9021 32.3092 94.63 32.3092C94.3579 32.3092 94.1105 32.2102 93.9126 32.0123C93.7394 31.8144 93.6405 31.5917 93.6405 31.2949Z" fill="white"/>
<path d="M98.3649 26.9161V22.5869C98.3649 22.29 98.4638 22.0674 98.6617 21.8447C98.8596 21.6468 99.107 21.5479 99.4039 21.5479C99.7008 21.5479 99.9481 21.6468 100.146 21.8447C100.344 22.0426 100.443 22.29 100.443 22.5869V26.9161C100.443 27.3614 100.517 27.8067 100.69 28.2025C100.863 28.5984 101.111 28.9447 101.408 29.2663C101.705 29.5632 102.051 29.8106 102.471 29.9837C102.867 30.1569 103.288 30.2559 103.758 30.2559C104.228 30.2559 104.648 30.1816 105.044 29.9837C105.44 29.8106 105.811 29.5632 106.108 29.2663C106.405 28.9694 106.652 28.6231 106.825 28.2025C106.999 27.8067 107.098 27.3862 107.098 26.9161V22.5869C107.098 22.29 107.197 22.0674 107.394 21.8447C107.592 21.6468 107.84 21.5479 108.112 21.5479C108.384 21.5479 108.656 21.6468 108.854 21.8447C109.052 22.0426 109.151 22.29 109.151 22.5869V26.9161C109.151 27.6583 109.002 28.351 108.73 29.0189C108.458 29.6621 108.062 30.2311 107.568 30.7259C107.073 31.2207 106.504 31.5917 105.861 31.8886C105.193 32.1607 104.5 32.3092 103.758 32.3092C103.016 32.3092 102.323 32.1607 101.655 31.8886C101.012 31.6165 100.443 31.2207 99.9481 30.7259C99.4534 30.2311 99.0823 29.6621 98.7854 29.0189C98.5133 28.351 98.3649 27.6583 98.3649 26.9161Z" fill="white"/>
<path d="M111.773 31.2952V22.6367C111.773 22.4388 111.823 22.2409 111.947 22.0677C112.07 21.8945 112.219 21.7956 112.392 21.6966C112.516 21.6471 112.664 21.5977 112.812 21.5977C113.085 21.5977 113.307 21.6966 113.505 21.8945L120.358 28.7471V22.6367C120.358 22.3398 120.457 22.1172 120.655 21.9193C120.853 21.7213 121.1 21.6224 121.372 21.6224C121.669 21.6224 121.892 21.7213 122.089 21.9193C122.287 22.1172 122.386 22.3646 122.386 22.6367V31.1963C122.386 31.3942 122.337 31.5921 122.213 31.7652C122.114 31.9384 121.941 32.0621 121.743 32.1363C121.619 32.1858 121.496 32.2105 121.372 32.2105C121.1 32.2105 120.853 32.1116 120.655 31.9137L113.802 25.0611V31.2952C113.802 31.5921 113.703 31.8147 113.505 32.0126C113.307 32.2105 113.06 32.3095 112.788 32.3095C112.516 32.3095 112.268 32.2105 112.07 32.0126C111.872 31.8147 111.773 31.5921 111.773 31.2952Z" fill="white"/>
<path d="M125.306 31.2698V22.6113C125.306 22.3144 125.405 22.0918 125.603 21.8691C125.801 21.6712 126.048 21.5723 126.345 21.5723C126.642 21.5723 126.865 21.6712 127.062 21.8691C127.26 22.067 127.359 22.3144 127.359 22.6113V31.2698C127.359 31.5667 127.26 31.8141 127.062 32.012C126.865 32.2099 126.617 32.3088 126.345 32.3088C126.073 32.3088 125.801 32.2099 125.603 32.012C125.405 31.8141 125.306 31.5667 125.306 31.2698Z" fill="white"/>
<path d="M139.852 21.8939C140.05 22.0918 140.149 22.3392 140.149 22.636C140.149 22.9329 140.05 23.1803 139.852 23.3782C139.654 23.5761 139.407 23.6751 139.11 23.6751H135.795V31.2946C135.795 31.5914 135.696 31.8141 135.498 32.012C135.3 32.2099 135.053 32.3088 134.781 32.3088C134.509 32.3088 134.236 32.2099 134.038 32.012C133.841 31.8141 133.742 31.5667 133.742 31.2946V23.6503H130.427C130.13 23.6503 129.907 23.5514 129.709 23.3534C129.511 23.1555 129.412 22.9082 129.412 22.6113C129.412 22.3144 129.511 22.0918 129.709 21.8691C129.907 21.6712 130.155 21.5723 130.427 21.5723H139.11C139.407 21.5723 139.654 21.6712 139.852 21.8939Z" fill="white"/>
<path d="M152.37 21.8691C152.567 22.0918 152.666 22.3392 152.666 22.5866C152.666 22.8587 152.567 23.1061 152.37 23.3287L148.263 27.4353V31.2698C148.263 31.5667 148.164 31.8141 147.966 32.012C147.768 32.2099 147.521 32.3088 147.224 32.3088C146.927 32.3088 146.68 32.2099 146.482 32.012C146.284 31.8141 146.185 31.5667 146.185 31.2698V27.4353L142.078 23.3287C141.979 23.2298 141.88 23.1061 141.856 22.9824C141.806 22.8587 141.781 22.735 141.781 22.5866C141.781 22.2897 141.88 22.067 142.078 21.8691C142.276 21.6712 142.524 21.5723 142.796 21.5723C143.068 21.5723 143.315 21.6712 143.538 21.8691L147.199 25.5304L150.86 21.8691C151.058 21.6712 151.306 21.5723 151.578 21.5723C151.899 21.5723 152.147 21.6712 152.37 21.8691Z" fill="white"/>
<path d="M53.0942 15.7151H47.5033C47.2064 15.7151 46.959 15.6161 46.7611 15.4182C46.5632 15.2203 46.4642 14.9729 46.4642 14.6761C46.4642 14.3792 46.5632 14.1566 46.7611 13.9586C46.959 13.7607 47.2064 13.6618 47.5033 13.6618H53.0942C53.3168 13.6618 53.5395 13.5876 53.7374 13.4639C53.9353 13.3154 54.0837 13.1423 54.158 12.9691C54.1827 12.8949 54.2074 12.8207 54.2074 12.7465C54.2322 12.6722 54.2322 12.598 54.2322 12.5238C54.2322 12.3012 54.158 12.1032 54.0343 11.9053C53.8858 11.7074 53.7127 11.559 53.5395 11.4848C53.3911 11.4106 53.2426 11.3858 53.0942 11.3858H49.6803C48.9876 11.3858 48.3938 11.2127 47.8743 10.8416C47.6269 10.6684 47.3796 10.4705 47.1817 10.2231C46.9837 9.97572 46.8353 9.72834 46.7116 9.43147C46.5384 9.03565 46.4642 8.6151 46.4642 8.1698C46.4642 7.8482 46.5137 7.5266 46.6127 7.22973C46.7116 6.93287 46.8353 6.66074 47.0085 6.38862C47.3548 5.86911 47.8249 5.47329 48.4186 5.2259C48.8144 5.05273 49.2102 4.97852 49.6555 4.97852H55.2465C55.5433 4.97852 55.766 5.07747 55.9886 5.27538C56.1865 5.47329 56.2855 5.72067 56.2855 5.9928C56.2855 6.28966 56.1865 6.53705 55.9886 6.73496C55.7907 6.93287 55.5433 7.03182 55.2465 7.03182H49.6803C49.4329 7.03182 49.235 7.10604 49.0371 7.22973C48.8391 7.35343 48.7155 7.5266 48.6165 7.72451C48.5918 7.79872 48.567 7.87294 48.567 7.92241C48.5423 7.99663 48.5423 8.07085 48.5423 8.14506C48.5423 8.39245 48.6165 8.59036 48.7402 8.78827C48.8886 8.98618 49.0618 9.13461 49.235 9.20882C49.3587 9.2583 49.5071 9.30778 49.6803 9.30778H53.0942C53.7869 9.30778 54.3806 9.48095 54.9001 9.85203C55.1475 10.0252 55.3949 10.2231 55.5928 10.4705C55.7907 10.7179 55.9391 10.9653 56.0628 11.2621C56.236 11.658 56.3102 12.0785 56.3102 12.4991C56.3102 12.8454 56.2607 13.167 56.1618 13.4639C56.0628 13.7607 55.9391 14.0576 55.766 14.305C55.4196 14.8245 54.9496 15.2203 54.3559 15.4677C53.9353 15.6409 53.5147 15.7151 53.0942 15.7151Z" fill="white"/>
<path d="M58.7089 14.6761V6.01754C58.7089 5.72068 58.8078 5.49803 59.0057 5.30012C59.2036 5.10221 59.451 4.97852 59.7479 4.97852H64.844C65.2399 4.97852 65.6357 5.02799 66.0068 5.15169C66.3778 5.27538 66.6994 5.42381 67.021 5.64646C67.6643 6.06702 68.1343 6.63601 68.4312 7.35343C68.6291 7.82346 68.728 8.31823 68.728 8.86248C68.728 9.2583 68.6785 9.65412 68.5548 10.0252C68.4312 10.3963 68.2827 10.7179 68.0601 11.0395C67.6395 11.6827 67.0705 12.1527 66.3531 12.4496C65.8831 12.6475 65.3636 12.7465 64.844 12.7465H60.7869V14.7008C60.7869 14.9977 60.688 15.2451 60.49 15.443C60.2921 15.6409 60.0447 15.7398 59.7479 15.7398C59.451 15.7398 59.2036 15.6409 59.0057 15.443C58.8078 15.2203 58.7089 14.9729 58.7089 14.6761ZM64.8688 10.6437C65.2646 10.6437 65.5862 10.5447 65.8831 10.3468C66.1305 10.1736 66.3284 9.97572 66.4768 9.7036C66.6252 9.43147 66.6747 9.15935 66.6747 8.83774C66.6747 8.46667 66.5758 8.14506 66.3531 7.8482C66.1552 7.55134 65.8831 7.32869 65.5615 7.18026C65.3388 7.0813 65.0914 7.05656 64.844 7.05656H60.7869V10.6437H64.8688Z" fill="white"/>
<path d="M79.8605 4.97852C80.1573 4.97852 80.38 5.07747 80.5779 5.27538C80.7758 5.47329 80.8747 5.72068 80.8747 6.01754V14.6761C80.8747 14.9729 80.7758 15.2203 80.5779 15.4182C80.38 15.6161 80.1326 15.7151 79.8605 15.7151C79.5883 15.7151 79.3162 15.6161 79.1183 15.4182C78.9204 15.2203 78.8214 14.9729 78.8214 14.6761V11.3858H72.8594V14.6761C72.8594 14.9729 72.7605 15.2203 72.5626 15.4182C72.3646 15.6161 72.1173 15.7151 71.8204 15.7151C71.5235 15.7151 71.2761 15.6161 71.0782 15.4182C70.8803 15.2203 70.7814 14.9729 70.7814 14.6761V6.01754C70.7814 5.72068 70.8803 5.49803 71.0782 5.27538C71.2761 5.07747 71.5235 4.97852 71.8204 4.97852C72.1173 4.97852 72.3399 5.07747 72.5626 5.27538C72.7605 5.47329 72.8594 5.72068 72.8594 6.01754V9.33252H78.8214V6.01754C78.8214 5.72068 78.9204 5.49803 79.1183 5.27538C79.3162 5.07747 79.5636 4.97852 79.8605 4.97852Z" fill="white"/>
<path d="M83.7446 14.6761V6.01754C83.7446 5.72068 83.8436 5.49803 84.0415 5.27538C84.2394 5.07747 84.4868 4.97852 84.7837 4.97852C85.0805 4.97852 85.3032 5.07747 85.5011 5.27538C85.699 5.47329 85.7979 5.72068 85.7979 6.01754V14.6761C85.7979 14.9729 85.699 15.2203 85.5011 15.4182C85.3032 15.6161 85.0558 15.7151 84.7837 15.7151C84.4868 15.7151 84.2394 15.6161 84.0415 15.4182C83.8436 15.2203 83.7446 14.9729 83.7446 14.6761Z" fill="white"/>
<path d="M88.7416 14.7005V6.04195C88.7416 5.84404 88.7911 5.64613 88.9148 5.47296C89.0384 5.29979 89.1869 5.20084 89.36 5.10188C89.4837 5.05241 89.6322 5.00293 89.7806 5.00293C90.0527 5.00293 90.2754 5.10188 90.4733 5.29979L97.3259 12.1524V6.04195C97.3259 5.74509 97.4248 5.52244 97.6228 5.32453C97.8207 5.12662 98.068 5.02767 98.3402 5.02767C98.637 5.02767 98.8597 5.12662 99.0576 5.32453C99.2555 5.52244 99.3545 5.76983 99.3545 6.04195V14.6015C99.3545 14.7994 99.305 14.9973 99.1813 15.1705C99.0823 15.3437 98.9092 15.4674 98.7113 15.5416C98.5876 15.5911 98.4639 15.6158 98.3402 15.6158C98.068 15.6158 97.8207 15.5169 97.6228 15.3189L90.7701 8.46634V14.7005C90.7701 14.9973 90.6712 15.22 90.4733 15.4179C90.2754 15.6158 90.028 15.7148 89.7559 15.7148C89.4837 15.7148 89.2364 15.6158 89.0384 15.4179C88.8405 15.22 88.7416 14.9973 88.7416 14.7005Z" fill="white"/>
<path d="M111.947 13.9827C112.145 14.2054 112.244 14.428 112.244 14.7002C112.244 14.9723 112.145 15.2197 111.947 15.4176C111.848 15.5165 111.749 15.6155 111.625 15.6402C111.502 15.6897 111.378 15.7144 111.254 15.7144C111.13 15.7144 111.007 15.6897 110.883 15.6402C110.759 15.5907 110.66 15.5165 110.562 15.4176L106.95 11.8057L103.338 15.4176C103.14 15.6155 102.917 15.7144 102.62 15.7144C102.497 15.7144 102.373 15.6897 102.249 15.6402C102.126 15.5907 102.002 15.5165 101.928 15.4176C101.829 15.3186 101.73 15.2197 101.705 15.096C101.656 14.9723 101.631 14.8486 101.631 14.7249C101.631 14.4528 101.73 14.2054 101.928 14.0075L105.54 10.3956L101.854 6.75905C101.656 6.56114 101.557 6.33849 101.557 6.04163C101.557 5.91794 101.581 5.79424 101.631 5.67055C101.68 5.54686 101.755 5.42316 101.854 5.32421C101.952 5.22525 102.051 5.15104 102.175 5.10156C102.299 5.05208 102.422 5.02734 102.546 5.02734C102.67 5.02734 102.794 5.05208 102.917 5.10156C103.041 5.15104 103.14 5.22525 103.239 5.32421L106.875 8.96079L110.487 5.32421C110.685 5.1263 110.908 5.05208 111.205 5.05208C111.328 5.05208 111.452 5.07682 111.576 5.1263C111.699 5.17578 111.798 5.24999 111.897 5.34895C112.095 5.57159 112.194 5.81898 112.194 6.06637C112.194 6.33849 112.095 6.58588 111.897 6.78379L108.286 10.3956L111.947 13.9827Z" fill="white"/>
<path d="M4.59529 0H30.2524C32.7925 0 34.8476 2.0641 34.8476 4.61539V30.3846C34.8476 32.9359 32.7925 35 30.2524 35H4.59529C2.05512 35 0 32.9359 0 30.3846V4.61539C0 2.0641 2.05512 0 4.59529 0Z" fill="#618AFF"/>
<path d="M25.4272 8.55048C24.2529 7.47356 22.8998 6.64022 21.4191 6.0633C20.0916 5.55048 18.713 5.28125 17.4493 5.28125H17.4365C16.1728 5.28125 14.7942 5.55048 13.4667 6.0633C11.986 6.64022 10.633 7.47356 9.4586 8.55048C7.48007 10.371 5.10583 13.73 5.10583 19.3838C5.10583 19.6659 5.25901 19.9351 5.50154 20.0761C5.52707 20.0889 7.88854 21.4864 8.34807 24.23C8.65442 26.1146 9.93089 27.5505 12.0115 28.4095C13.505 29.0248 14.9091 29.1146 14.9602 29.1146C15.1772 29.1274 15.3942 29.0505 15.5474 28.8966C15.7005 28.7428 15.8027 28.5377 15.8027 28.3197V22.6659C16.3132 22.8197 16.8494 22.8966 17.3982 22.8966C17.9854 22.8966 18.5471 22.8197 19.0704 22.653V28.3325C19.0704 28.5505 19.1598 28.7684 19.3257 28.9095C19.4789 29.0505 19.6704 29.1274 19.8746 29.1274C19.8874 29.1274 19.9129 29.1274 19.9257 29.1274C19.9895 29.1274 21.3808 29.0377 22.8743 28.4223C24.9677 27.5761 26.2314 26.1274 26.5378 24.2428C26.7292 23.1146 27.2526 22.0761 28.1078 21.1659C28.7716 20.4607 29.3843 20.0889 29.3843 20.0889C29.6268 19.9479 29.78 19.6787 29.78 19.3966C29.78 13.73 27.4185 10.371 25.4272 8.55048ZM17.4365 6.88381C19.0577 6.88381 21.4191 7.47356 23.5253 9.05048L22.134 11.73H12.7136L11.3478 9.05048C13.4667 7.46074 15.8282 6.88381 17.4365 6.88381ZM9.90536 23.9736C9.4586 21.23 7.54389 19.5761 6.68866 18.9607C6.79078 14.5248 8.51401 11.7556 10.1096 10.1274L11.4244 12.7043L11.4371 16.0633C11.4371 17.2941 11.7307 18.512 12.2796 19.5761C12.7774 20.5377 13.4284 21.3069 14.2198 21.871V27.3966C12.8668 27.1402 10.3011 26.3454 9.90536 23.9736ZM13.6965 18.8454C13.2625 18.012 13.0327 17.0505 13.0327 16.0633V13.3197H21.8276L21.8021 15.9479C21.7893 16.9607 21.5595 17.9479 21.1255 18.8197C20.5639 19.9479 19.4661 21.2941 17.411 21.2941C15.2793 21.2941 14.1688 19.7684 13.6965 18.8454ZM24.9805 23.9736C24.7635 25.2813 23.87 26.2813 22.3127 26.9223C21.7127 27.1659 21.1255 27.3197 20.666 27.4095V21.8454C21.4191 21.2813 22.0574 20.512 22.5297 19.5377C23.0658 18.4479 23.3594 17.2171 23.3721 15.9607L23.3977 12.7171L24.7635 10.1274C26.3718 11.7556 28.0951 14.5248 28.1972 18.9736C27.342 19.5761 25.4272 21.23 24.9805 23.9736Z" fill="white"/>
</svg>
