<svg width="206" height="33" viewBox="0 0 206 33" fill="none" xmlns="http://www.w3.org/2000/svg">
<path d="M53.3593 22.9448H47.1533C46.8238 22.9448 46.5492 22.835 46.3295 22.6153C46.1098 22.3956 46 22.121 46 21.7915C46 21.462 46.1098 21.2149 46.3295 20.9952C46.5492 20.7755 46.8238 20.6657 47.1533 20.6657H53.3593C53.6064 20.6657 53.8535 20.5833 54.0732 20.446C54.2929 20.2812 54.4577 20.089 54.54 19.8968C54.5675 19.8144 54.595 19.732 54.595 19.6497C54.6224 19.5673 54.6224 19.4849 54.6224 19.4025C54.6224 19.1554 54.54 18.9357 54.4027 18.716C54.238 18.4963 54.0458 18.3316 53.8535 18.2492C53.6888 18.1943 53.524 18.1394 53.3593 18.1394H49.5698C48.8009 18.1394 48.1419 17.9471 47.5652 17.5352C47.2906 17.343 47.016 17.1233 46.7963 16.8487C46.5767 16.5741 46.4119 16.2995 46.2746 15.97C46.0824 15.5307 46 15.0638 46 14.5696C46 14.2126 46.0549 13.8556 46.1648 13.5261C46.2746 13.1966 46.4119 12.8945 46.6041 12.6199C46.9886 12.0432 47.5103 11.6039 48.1693 11.3293C48.6087 11.1371 49.0481 11.0547 49.5423 11.0547H55.7483C56.0778 11.0547 56.3249 11.1645 56.5721 11.3842C56.7918 11.6039 56.9016 11.8785 56.9016 12.1805C56.9016 12.4826 56.7918 12.7847 56.5721 13.0043C56.3524 13.224 56.0778 13.3339 55.7483 13.3339H49.5698C49.2952 13.3339 49.0755 13.4162 48.8558 13.5535C48.6362 13.6908 48.4989 13.8831 48.389 14.1027C48.3616 14.1851 48.3341 14.2675 48.3341 14.3224C48.3066 14.4048 48.3066 14.4872 48.3066 14.5696C48.3066 14.8442 48.389 15.0638 48.5263 15.2835C48.6911 15.5032 48.8833 15.668 49.0755 15.7503C49.2128 15.8053 49.3776 15.8602 49.5698 15.8602H53.3593C54.1281 15.8602 54.7872 16.0524 55.3638 16.4643C55.6384 16.6565 55.913 16.8762 56.1327 17.1508C56.3524 17.4254 56.5172 17.7 56.6545 18.0295C56.8467 18.4689 56.9291 18.9357 56.9291 19.4025C56.9291 19.787 56.8741 20.1439 56.7643 20.4735C56.6545 20.803 56.5172 21.105 56.3249 21.4071C55.9405 21.9837 55.4188 22.4231 54.7597 22.6977C54.2929 22.8625 53.8261 22.9448 53.3593 22.9448Z" fill="white"/>
<path d="M59.5928 21.7916V12.1807C59.5928 11.8511 59.7026 11.604 59.9223 11.3843C60.142 11.1646 60.4166 11.0273 60.7461 11.0273H66.4028C66.8422 11.0273 67.2816 11.0823 67.6935 11.2196C68.1054 11.3569 68.4623 11.5216 68.8193 11.7688C69.5333 12.2356 70.055 12.8672 70.3845 13.6635C70.6042 14.1852 70.7141 14.7344 70.7141 15.3386C70.7141 15.7779 70.6591 16.2173 70.5218 16.6292C70.3845 17.0411 70.2198 17.3981 69.9726 17.755C69.5058 18.469 68.8742 18.9907 68.0779 19.3203C67.5562 19.5399 66.9795 19.6498 66.4028 19.6498H61.8994V21.8191C61.8994 22.1486 61.7896 22.4232 61.5699 22.6429C61.3502 22.8626 61.0756 22.9724 60.7461 22.9724C60.4166 22.9724 60.142 22.8626 59.9223 22.6429C59.7026 22.3958 59.5928 22.1212 59.5928 21.7916ZM66.4303 17.3431C66.8697 17.3431 67.2266 17.2333 67.5562 17.0136C67.8308 16.8214 68.0504 16.6017 68.2152 16.2997C68.38 15.9976 68.4349 15.6955 68.4349 15.3386C68.4349 14.9267 68.325 14.5697 68.0779 14.2402C67.8308 13.9106 67.5562 13.6635 67.1992 13.4987C66.952 13.3889 66.6774 13.3614 66.4028 13.3614H61.8994V17.3431H66.4303Z" fill="white"/>
<path d="M83.071 11.0547C83.4005 11.0547 83.6476 11.1645 83.8673 11.3842C84.087 11.6039 84.1968 11.8785 84.1968 12.208V21.819C84.1968 22.1485 84.087 22.4231 83.8673 22.6428C83.6476 22.8625 83.373 22.9723 83.071 22.9723C82.7689 22.9723 82.4668 22.8625 82.2472 22.6428C82.0275 22.4231 81.9176 22.1485 81.9176 21.819V18.1668H75.2998V21.819C75.2998 22.1485 75.19 22.4231 74.9703 22.6428C74.7506 22.8625 74.476 22.9723 74.1465 22.9723C73.817 22.9723 73.5424 22.8625 73.3227 22.6428C73.103 22.4231 72.9932 22.1485 72.9932 21.819V12.208C72.9932 11.8785 73.103 11.6313 73.3227 11.3842C73.5424 11.1645 73.817 11.0547 74.1465 11.0547C74.476 11.0547 74.7231 11.1645 74.9703 11.3842C75.19 11.6039 75.2998 11.8785 75.2998 12.208V15.8876H81.9176V12.208C81.9176 11.8785 82.0275 11.6313 82.2472 11.3842C82.4668 11.1645 82.7414 11.0547 83.071 11.0547Z" fill="white"/>
<path d="M87.3823 21.7916V12.1807C87.3823 11.8511 87.4922 11.604 87.7118 11.3569C87.9315 11.1372 88.2061 11.0273 88.5356 11.0273C88.8652 11.0273 89.1123 11.1372 89.332 11.3569C89.5517 11.5765 89.6615 11.8511 89.6615 12.1807V21.7916C89.6615 22.1212 89.5517 22.3958 89.332 22.6154C89.1123 22.8351 88.8377 22.945 88.5356 22.945C88.2061 22.945 87.9315 22.8351 87.7118 22.6154C87.4922 22.3958 87.3823 22.1212 87.3823 21.7916Z" fill="white"/>
<path d="M92.9292 21.8468V12.2358C92.9292 12.0162 92.9841 11.7965 93.1214 11.6043C93.2587 11.412 93.4235 11.3022 93.6157 11.1924C93.753 11.1374 93.9178 11.0825 94.0825 11.0825C94.3846 11.0825 94.6317 11.1924 94.8514 11.412L102.458 19.0184V12.2084C102.458 11.8789 102.568 11.6317 102.787 11.412C103.007 11.1924 103.282 11.0825 103.584 11.0825C103.913 11.0825 104.16 11.1924 104.38 11.412C104.6 11.6317 104.71 11.9063 104.71 12.2084V21.7095C104.71 21.9292 104.655 22.1489 104.517 22.3411C104.407 22.5333 104.215 22.6706 103.996 22.753C103.858 22.8079 103.721 22.8354 103.584 22.8354C103.282 22.8354 103.007 22.7255 102.787 22.5059L95.1809 14.8995V21.8194C95.1809 22.1489 95.0711 22.396 94.8514 22.6157C94.6317 22.8354 94.3571 22.9452 94.0551 22.9452C93.753 22.9452 93.4784 22.8354 93.2587 22.6157C93.039 22.4235 92.9292 22.1489 92.9292 21.8468Z" fill="white"/>
<path d="M118.687 21.023C118.906 21.2702 119.016 21.5173 119.016 21.8194C119.016 22.1214 118.906 22.396 118.687 22.6157C118.577 22.7255 118.467 22.8354 118.33 22.8628C118.192 22.8903 118.055 22.9452 117.918 22.9452C117.78 22.9452 117.643 22.9178 117.506 22.8628C117.368 22.8079 117.259 22.7255 117.149 22.6157L113.14 18.6065L109.13 22.6157C108.911 22.8354 108.664 22.9452 108.334 22.9452C108.197 22.9452 108.059 22.9178 107.922 22.8628C107.785 22.8079 107.648 22.7255 107.565 22.6157C107.455 22.5059 107.346 22.396 107.318 22.2313C107.263 22.094 107.236 21.9567 107.236 21.8194C107.236 21.5173 107.346 21.2427 107.565 21.023L111.574 17.0139L107.483 13.0047C107.263 12.785 107.153 12.5379 107.153 12.2084C107.153 12.0711 107.181 11.9338 107.236 11.7965C107.291 11.6592 107.373 11.5219 107.483 11.412C107.593 11.3022 107.703 11.2198 107.84 11.1649C107.977 11.11 108.114 11.0825 108.252 11.0825C108.389 11.0825 108.526 11.11 108.664 11.1649C108.801 11.2198 108.911 11.3022 109.021 11.412L113.057 15.4487L117.066 11.412C117.286 11.1924 117.533 11.11 117.863 11.11C118 11.11 118.137 11.1374 118.275 11.1924C118.412 11.2473 118.522 11.3297 118.632 11.4395C118.851 11.6866 118.961 11.9612 118.961 12.2358C118.961 12.5379 118.851 12.8125 118.632 13.0322L114.622 17.0413L118.687 21.023Z" fill="white"/>
<path d="M127.638 21.7916V12.1807C127.638 11.8511 127.748 11.604 127.968 11.3843C128.187 11.1646 128.462 11.0273 128.792 11.0273H134.448C134.888 11.0273 135.327 11.0823 135.739 11.2196C136.151 11.3569 136.508 11.5216 136.865 11.7688C137.579 12.2356 138.1 12.8672 138.43 13.6635C138.65 14.1852 138.759 14.7344 138.759 15.3386C138.759 15.7779 138.705 16.2173 138.567 16.6292C138.43 17.0411 138.265 17.3981 138.046 17.755C137.579 18.469 136.947 18.9907 136.151 19.3203C135.629 19.5399 135.052 19.6498 134.476 19.6498H129.972V21.8191C129.972 22.1486 129.862 22.4232 129.643 22.6429C129.423 22.8626 129.148 22.9724 128.819 22.9724C128.489 22.9724 128.215 22.8626 127.995 22.6429C127.775 22.3958 127.638 22.1212 127.638 21.7916ZM134.476 17.3431C134.915 17.3431 135.272 17.2333 135.602 17.0136C135.876 16.8214 136.096 16.6017 136.261 16.2997C136.425 15.9976 136.48 15.6955 136.48 15.3386C136.48 14.9267 136.37 14.5697 136.123 14.2402C135.876 13.9106 135.602 13.6635 135.245 13.4987C134.997 13.3889 134.723 13.3614 134.448 13.3614H129.945V17.3431H134.476Z" fill="#618AFF"/>
<path d="M143.126 19.4025C143.126 19.6497 143.208 19.8693 143.346 20.1165C143.455 20.2812 143.62 20.4185 143.812 20.5284C144.005 20.6382 144.197 20.6657 144.389 20.6657H150.046C150.375 20.6657 150.622 20.7755 150.87 20.9952C151.089 21.2149 151.199 21.4895 151.199 21.819C151.199 22.1485 151.089 22.4231 150.87 22.6428C150.65 22.8625 150.375 22.9723 150.046 22.9723H144.389C144.005 22.9723 143.675 22.9174 143.346 22.8075C143.016 22.6977 142.714 22.5604 142.412 22.3682C141.835 21.9838 141.396 21.462 141.121 20.803C140.929 20.3636 140.847 19.8968 140.847 19.43V14.597C140.847 14.1027 140.929 13.6634 141.121 13.224C141.396 12.565 141.835 12.0432 142.412 11.6588C142.687 11.4666 143.016 11.3293 143.346 11.2194C143.675 11.1096 144.032 11.0547 144.389 11.0547H150.046C150.375 11.0547 150.622 11.1645 150.87 11.3842C151.089 11.6039 151.199 11.8785 151.199 12.208C151.199 12.5375 151.089 12.8121 150.87 13.0318C150.65 13.2515 150.375 13.3613 150.046 13.3613H144.389C144.197 13.3613 144.005 13.4162 143.812 13.4986C143.62 13.581 143.455 13.7183 143.346 13.9105C143.208 14.1302 143.126 14.3773 143.126 14.6245V15.8876H149.963C150.293 15.8876 150.54 15.9975 150.787 16.2172C151.007 16.4368 151.117 16.7114 151.117 17.0135C151.117 17.343 151.007 17.6176 150.787 17.8373C150.568 18.057 150.293 18.1668 149.963 18.1668H143.126V19.4025Z" fill="#618AFF"/>
<path d="M159.602 22.9451C158.97 22.9451 158.394 22.8627 157.817 22.6705C157.24 22.4783 156.746 22.2311 156.279 21.9291C155.785 21.5995 155.373 21.2426 155.016 20.7757C154.659 20.3364 154.357 19.8421 154.137 19.2929C153.973 18.9359 153.863 18.5515 153.78 18.167C153.698 17.7826 153.643 17.3707 153.643 16.9588C153.643 16.3272 153.725 15.7506 153.918 15.1739C154.11 14.5973 154.357 14.103 154.659 13.6362C154.989 13.1419 155.346 12.73 155.812 12.3455C156.252 11.9886 156.746 11.6865 157.295 11.4668C158.037 11.1373 158.806 11 159.629 11H161.909C162.54 11 163.117 11.0824 163.666 11.2746C164.215 11.4668 164.737 11.714 165.231 12.016C165.725 12.3455 166.137 12.73 166.522 13.1693C166.879 13.6087 167.181 14.103 167.401 14.6522C167.565 15.0092 167.675 15.3661 167.757 15.778C167.84 16.1899 167.867 16.5744 167.867 16.9863C167.867 17.6178 167.785 18.1945 167.593 18.7712C167.401 19.3204 167.153 19.8421 166.851 20.3364C166.522 20.8307 166.137 21.2426 165.698 21.627C165.259 21.984 164.764 22.286 164.215 22.5057C163.858 22.6705 163.474 22.7803 163.089 22.8627C162.705 22.9451 162.293 23 161.881 23H159.602V22.9451ZM161.909 20.6384C162.293 20.6384 162.65 20.5835 163.007 20.4737C163.336 20.3638 163.666 20.1991 163.968 20.0069C164.243 19.8146 164.517 19.5675 164.737 19.2929C164.957 19.0183 165.149 18.7162 165.286 18.3867C165.478 17.9474 165.561 17.4805 165.561 16.9588C165.561 16.5744 165.506 16.2174 165.396 15.8604C165.286 15.5034 165.121 15.2014 164.929 14.8993C164.517 14.2952 163.995 13.8558 163.309 13.5538C162.87 13.3616 162.403 13.2792 161.881 13.2792H159.602C159.217 13.2792 158.86 13.3341 158.503 13.4439C158.147 13.5538 157.844 13.7185 157.542 13.9108C156.938 14.2952 156.499 14.8444 156.197 15.5034C156.005 15.9703 155.922 16.4371 155.922 16.9314C155.922 17.3158 155.977 17.6728 156.087 18.0297C156.197 18.3867 156.362 18.6888 156.554 18.9908C156.746 19.2654 156.993 19.54 157.268 19.7597C157.542 19.9794 157.844 20.1716 158.174 20.3089C158.613 20.5011 159.08 20.5835 159.602 20.5835H161.909V20.6384Z" fill="#618AFF"/>
<path d="M170.394 21.7916V12.1807C170.394 11.8511 170.503 11.604 170.723 11.3843C170.943 11.1646 171.217 11.0273 171.547 11.0273H177.204C177.643 11.0273 178.082 11.0823 178.494 11.2196C178.906 11.3569 179.263 11.5216 179.62 11.7688C180.334 12.2356 180.856 12.8672 181.185 13.6635C181.405 14.1852 181.515 14.7344 181.515 15.3386C181.515 15.7779 181.46 16.2173 181.323 16.6292C181.185 17.0411 181.021 17.3981 180.801 17.755C180.334 18.469 179.702 18.9907 178.906 19.3203C178.384 19.5399 177.808 19.6498 177.231 19.6498H172.728V21.8191C172.728 22.1486 172.618 22.4232 172.398 22.6429C172.178 22.8626 171.904 22.9724 171.574 22.9724C171.245 22.9724 170.97 22.8626 170.751 22.6429C170.503 22.3958 170.394 22.1212 170.394 21.7916ZM177.231 17.3431C177.67 17.3431 178.027 17.2333 178.357 17.0136C178.632 16.8214 178.851 16.6017 179.016 16.2997C179.181 15.9976 179.236 15.6955 179.236 15.3386C179.236 14.9267 179.126 14.5697 178.879 14.2402C178.632 13.9106 178.357 13.6635 178 13.4987C177.753 13.3889 177.478 13.3614 177.204 13.3614H172.7V17.3431H177.231Z" fill="#618AFF"/>
<path d="M185.195 22.3408C184.618 21.9564 184.179 21.4347 183.904 20.7756C183.712 20.3363 183.629 19.8694 183.629 19.4026V12.1807C183.629 11.8511 183.739 11.604 183.959 11.3569C184.179 11.1372 184.453 11.0273 184.755 11.0273C185.057 11.0273 185.359 11.1372 185.579 11.3569C185.799 11.5765 185.909 11.8511 185.909 12.1807V19.4026C185.909 19.6498 185.991 19.8694 186.128 20.1166C186.238 20.2813 186.375 20.4186 186.595 20.5285C186.787 20.6109 186.979 20.6658 187.172 20.6658H192.828C193.158 20.6658 193.433 20.7756 193.652 20.9953C193.872 21.215 193.982 21.4896 193.982 21.8191C193.982 22.1486 193.872 22.4232 193.652 22.6429C193.433 22.8626 193.158 22.9724 192.828 22.9724H187.172C186.787 22.9724 186.458 22.9175 186.128 22.8077C185.799 22.6704 185.497 22.5331 185.195 22.3408Z" fill="#618AFF"/>
<path d="M197.716 19.4025C197.716 19.6497 197.799 19.8693 197.936 20.1165C198.046 20.2812 198.21 20.4185 198.403 20.5284C198.595 20.6382 198.787 20.6657 198.979 20.6657H204.636C204.966 20.6657 205.213 20.7755 205.46 20.9952C205.68 21.2149 205.789 21.4895 205.789 21.819C205.789 22.1485 205.68 22.4231 205.46 22.6428C205.24 22.8625 204.966 22.9723 204.636 22.9723H198.979C198.595 22.9723 198.265 22.9174 197.936 22.8075C197.606 22.6977 197.304 22.5604 197.002 22.3682C196.426 21.9838 195.986 21.462 195.712 20.803C195.519 20.3636 195.437 19.8968 195.437 19.43V14.597C195.437 14.1027 195.519 13.6634 195.712 13.224C195.986 12.565 196.426 12.0432 197.002 11.6588C197.277 11.4666 197.606 11.3293 197.936 11.2194C198.265 11.1096 198.622 11.0547 198.979 11.0547H204.636C204.966 11.0547 205.213 11.1645 205.46 11.3842C205.68 11.6039 205.789 11.8785 205.789 12.208C205.789 12.5375 205.68 12.8121 205.46 13.0318C205.24 13.2515 204.966 13.3613 204.636 13.3613H198.979C198.787 13.3613 198.595 13.4162 198.403 13.4986C198.21 13.581 198.046 13.7183 197.936 13.9105C197.799 14.1302 197.716 14.3773 197.716 14.6245V15.8876H204.554C204.883 15.8876 205.13 15.9975 205.378 16.2172C205.597 16.4368 205.707 16.7114 205.707 17.0135C205.707 17.343 205.597 17.6176 205.378 17.8373C205.158 18.057 204.883 18.1668 204.554 18.1668H197.716V19.4025Z" fill="#618AFF"/>
<path d="M4.33271 0H28.5236C30.9187 0 32.8564 1.94615 32.8564 4.35165V28.6484C32.8564 31.0538 30.9187 33 28.5236 33H4.33271C1.93768 33 0 31.0538 0 28.6484V4.35165C0 1.94615 1.93768 0 4.33271 0Z" fill="#618AFF"/>
<path d="M23.9742 8.06289C22.8669 7.0475 21.5912 6.26179 20.1951 5.71783C18.9434 5.23431 17.6436 4.98047 16.4521 4.98047H16.4401C15.2486 4.98047 13.9488 5.23431 12.6971 5.71783C11.301 6.26179 10.0252 7.0475 8.918 8.06289C7.05253 9.77937 4.81396 12.9464 4.81396 18.2772C4.81396 18.5431 4.95839 18.797 5.18706 18.9299C5.21113 18.942 7.43766 20.2596 7.87093 22.8464C8.15978 24.6233 9.36331 25.9772 11.3251 26.7871C12.7332 27.3673 14.0571 27.4519 14.1052 27.4519C14.3098 27.464 14.5144 27.3915 14.6588 27.2464C14.8033 27.1014 14.8995 26.9079 14.8995 26.7024V21.3717C15.381 21.5167 15.8864 21.5893 16.404 21.5893C16.9576 21.5893 17.4871 21.5167 17.9806 21.3596V26.7145C17.9806 26.92 18.0648 27.1255 18.2213 27.2585C18.3657 27.3915 18.5462 27.464 18.7388 27.464C18.7508 27.464 18.7749 27.464 18.7869 27.464C18.8471 27.464 20.159 27.3794 21.5671 26.7992C23.5409 26.0014 24.7324 24.6354 25.0212 22.8585C25.2018 21.7948 25.6952 20.8156 26.5016 19.9574C27.1274 19.2926 27.7051 18.942 27.7051 18.942C27.9338 18.809 28.0782 18.5552 28.0782 18.2893C28.0782 12.9464 25.8517 9.77937 23.9742 8.06289ZM16.4401 6.49146C17.9685 6.49146 20.1951 7.0475 22.1809 8.53432L20.869 11.0607H11.987L10.6992 8.53432C12.6971 7.03541 14.9236 6.49146 16.4401 6.49146ZM9.33924 22.6046C8.918 20.0178 7.11271 18.4585 6.30634 17.8783C6.40262 13.6959 8.02739 11.0849 9.5318 9.5497L10.7714 11.9794L10.7835 15.1464C10.7835 16.3068 11.0603 17.4552 11.5778 18.4585C12.0472 19.3651 12.661 20.0904 13.4072 20.6222V25.8321C12.1314 25.5904 9.71233 24.8409 9.33924 22.6046ZM12.9137 17.7695C12.5045 16.9838 12.2879 16.0772 12.2879 15.1464V12.5596H20.5802L20.5561 15.0376C20.5441 15.9926 20.3275 16.9233 19.9183 17.7453C19.3887 18.809 18.3537 20.0783 16.416 20.0783C14.4061 20.0783 13.359 18.6398 12.9137 17.7695ZM23.5529 22.6046C23.3483 23.8376 22.5058 24.7805 21.0375 25.3849C20.4719 25.6145 19.9183 25.7596 19.485 25.8442V20.5981C20.1951 20.0662 20.7968 19.3409 21.2421 18.4222C21.7476 17.3948 22.0244 16.2343 22.0365 15.0497L22.0605 11.9915L23.3483 9.5497C24.8648 11.0849 26.4895 13.6959 26.5858 17.8904C25.7794 18.4585 23.9742 20.0178 23.5529 22.6046Z" fill="white"/>
</svg>
