<svg width="97" height="114" viewBox="0 0 97 114" fill="none" xmlns="http://www.w3.org/2000/svg">
<path d="M64.9863 89.1996C65.6476 88.6791 66.2393 88.1587 66.8659 87.673C67.6665 87.0485 68.5367 87.1526 69.198 87.9159C70.4163 89.3383 71.6694 90.7261 72.8528 92.218C73.4098 92.9119 74.0363 93.2588 74.8717 93.467C77.4127 94.1262 79.9188 94.8548 82.425 95.5487C84.061 95.9997 85.7317 96.416 87.3677 96.9364C90.2568 97.8038 92.4148 99.6426 93.9464 102.21C94.9558 103.91 95.5823 105.784 96 107.692C96.1741 108.524 95.6171 109.357 94.7818 109.531C93.9812 109.704 93.1458 109.149 92.937 108.351C92.5193 106.512 91.9275 104.743 90.8485 103.181C89.665 101.447 88.0291 100.337 86.0102 99.7814C83.5388 99.1222 81.0675 98.3936 78.5961 97.6997C77.0994 97.2834 75.6026 96.8671 74.1059 96.4507C73.7926 96.3813 73.6534 96.4507 73.5142 96.763C71.4605 101.69 69.4069 106.582 67.3532 111.508C66.8659 112.722 65.578 112.965 64.6382 112.063C61.6795 109.149 58.7208 106.269 55.797 103.355C55.3793 102.939 55.3793 102.939 55.066 103.459C53.256 106.339 51.4112 109.218 49.636 112.133C48.8702 113.382 47.4083 113.312 46.6773 112.202C44.7977 109.357 42.8485 106.582 40.934 103.771C40.8644 103.667 40.76 103.563 40.6556 103.424C39.6461 104.257 38.7063 105.055 37.7317 105.888C35.33 107.9 32.9282 109.947 30.5265 111.959C29.5867 112.757 28.4728 112.514 27.9159 111.404C25.549 106.651 23.1472 101.932 20.8151 97.1793C20.6759 96.8671 20.5366 96.763 20.1886 96.8671C17.6476 97.5956 15.0718 98.2895 12.496 98.9834C11.6258 99.2263 10.7208 99.3997 9.81583 99.6773C8.00582 100.267 6.50908 101.343 5.39523 102.869C4.31619 104.361 3.65484 106.061 3.23715 107.831C2.99349 108.871 2.43657 109.426 1.56637 109.392C0.556944 109.392 -0.139213 108.524 0.104442 107.449C0.835407 104.153 2.19291 101.134 4.83831 98.8793C6.05658 97.8385 7.41409 97.0752 8.91083 96.6242C10.7904 96.0691 12.7397 95.5834 14.6541 95.0629C16.5686 94.5425 18.5178 94.0221 20.4322 93.467C20.7107 93.3976 20.9891 93.2241 21.2328 93.0507C23.4257 91.42 25.6186 89.7894 27.8115 88.1587C28.6121 87.5689 29.2734 87.5689 30.0392 88.1587C30.3176 88.3669 30.5961 88.6098 30.8746 88.8526C31.0486 89.0261 31.2227 89.0608 31.3619 88.8179C31.9536 88.02 32.5453 87.1873 33.1023 86.3546C33.2067 86.2158 33.2067 86.0077 33.2067 85.8342C33.2067 84.4811 33.2067 83.0933 33.2067 81.7402C33.2067 81.5321 33.1023 81.2545 32.9282 81.1157C28.7513 77.8892 25.6534 73.8646 23.5997 69.0074C22.7295 66.9257 22.1378 64.7399 21.7201 62.4848C21.4765 61.097 21.198 59.7092 20.9543 58.3562C20.9195 58.1133 20.7803 58.0092 20.5366 58.0092C20.0493 58.0092 19.562 58.0092 19.0747 58.0092C18.4134 58.0092 17.8912 57.7663 17.4736 57.2459C15.7332 54.9908 14.7585 52.4581 14.5845 49.6478C14.4801 48.0172 14.4453 46.4212 14.4801 44.7906C14.4801 43.9232 14.6193 43.0906 14.7585 42.2232C14.863 41.6334 15.2459 41.1824 15.8724 41.0436C16.5337 40.8701 17.2299 40.7313 17.8912 40.6273C18.2045 40.5926 18.3438 40.4885 18.3089 40.1415C18.0305 37.366 17.752 34.5904 17.4736 31.8496C17.2299 29.525 16.9862 27.2005 16.7426 24.876C16.5337 22.829 16.3249 20.782 16.116 18.7697C16.0464 18.2493 16.2205 17.7983 16.4989 17.3472C20.7455 11.3104 25.5838 5.6899 30.979 0.555112C31.3619 0.173473 31.8144 0 32.3713 0C35.4692 0.069389 38.6019 0.069389 41.6998 0.277556C44.7977 0.485723 47.8956 0.867363 50.9587 1.35309C54.5091 1.9082 57.9899 2.63678 61.401 3.74701C68.0145 5.86337 73.5838 9.50629 78.2132 14.6758C78.5613 15.0574 78.7354 15.4737 78.7005 15.9942C78.5613 18.1452 78.4569 20.331 78.3177 22.482C78.1784 24.7025 78.074 26.9229 77.9348 29.1434C77.7607 32.37 77.5519 35.6313 77.3779 38.8578C77.343 39.1701 77.343 39.4476 77.343 39.7599C77.3082 40.5232 77.3082 40.5232 78.1088 40.662C78.805 40.8007 79.5011 40.9395 80.1625 41.0783C80.7542 41.2171 81.1719 41.5987 81.3111 42.1885C81.8681 44.513 82.0421 46.8723 81.7984 49.2662C81.4852 52.2846 80.3017 54.9214 78.4569 57.2806C78.1088 57.7317 77.6911 57.9745 77.0994 57.9745C76.6121 57.9745 76.1248 57.9745 75.6375 57.9745C75.3938 57.9745 75.2546 58.0439 75.2198 58.3215C75.0109 59.6052 74.7325 60.8542 74.4888 62.1379C73.8274 65.9542 72.6092 69.5278 70.6251 72.8585C68.6759 76.085 66.2045 78.8606 63.2111 81.1851C62.9326 81.3933 62.8282 81.6015 62.8282 81.9484C62.863 83.2321 62.8282 84.5158 62.8282 85.7648C62.8282 85.973 62.863 86.2158 62.9674 86.424C63.4895 87.4648 64.1161 88.4016 64.9863 89.1996ZM27.6723 24.0433C28.0899 26.5066 27.6026 28.6577 27.2894 30.8087C27.0805 32.3006 26.8369 33.8271 26.628 35.319C26.4192 36.8803 26.2103 38.4068 25.9667 39.9681C25.723 41.564 25.4794 43.16 25.2705 44.7906C25.0617 46.2131 24.8528 47.6355 24.644 49.058C24.5744 49.5784 24.2611 49.9601 23.7738 50.2029C22.8688 50.6193 21.9986 50.2029 21.5461 49.1621C20.8151 47.4621 20.0841 45.762 19.3532 44.062C19.2836 43.8885 19.2488 43.6804 18.9355 43.7151C17.8216 43.7498 17.6128 43.9579 17.578 45.0335C17.578 45.0682 17.578 45.1029 17.578 45.1029C17.6476 46.7335 17.6128 48.3988 17.752 50.0295C17.8912 51.6254 18.4482 53.1173 19.3184 54.5051C19.5272 54.8173 19.7361 54.9908 20.1538 54.9561C20.8151 54.9214 21.4765 54.9214 22.1378 54.9561C23.0428 54.9908 23.5997 55.4765 23.7738 56.3786C24.1915 58.5643 24.5744 60.7848 24.992 62.9705C25.3749 65.0869 26.0711 67.0992 26.9761 69.0421C28.9949 73.2401 31.8492 76.7789 35.7825 79.3463C37.0008 80.1443 38.2886 80.9076 39.6461 81.5321C41.2473 82.2954 42.9529 82.677 44.6933 82.9546C47.4431 83.3709 50.1581 83.3362 52.8731 82.7117C56.0058 82.0178 58.8253 80.5606 61.2966 78.6524C66.8659 74.4544 70.0682 68.7645 71.2865 61.9297C71.6346 60.0562 71.9478 58.2174 72.2959 56.3439C72.4699 55.3377 73.0269 54.9214 74.0711 54.8867C74.6976 54.8867 75.3242 54.8867 75.9855 54.8867C76.1596 54.8867 76.3684 54.7826 76.438 54.6785C77.4823 53.1867 78.2132 51.5213 78.5265 49.7172C78.805 48.0172 78.7354 46.2825 78.5265 44.5824C78.4569 43.9232 78.4221 43.9232 77.7607 43.8192C77.5171 43.7845 77.2734 43.7498 77.0298 43.6804C76.6817 43.5416 76.5077 43.7151 76.4032 44.0273C75.8463 45.4151 75.2894 46.8029 74.6976 48.1907C74.3496 49.0233 73.6882 49.405 72.8528 49.2662C72.1567 49.1274 71.6694 48.5029 71.5649 47.6702C71.4257 46.2825 71.2169 44.8947 71.0428 43.5416C70.8688 42.2232 70.6947 40.9395 70.5207 39.6211C70.3119 37.8517 70.0682 36.0476 69.8594 34.2782C69.6853 32.8557 69.5113 31.3985 69.3024 29.976C69.2676 29.7679 69.1284 29.525 68.9544 29.3862C68.3626 28.9699 67.7361 28.623 67.1095 28.276C66.4482 27.8944 66.1349 27.3393 66.1349 26.576C66.1349 25.327 66.1349 24.1127 66.1349 22.8637C66.1349 22.2739 66.1349 22.2392 65.5084 22.2739C61.7143 22.4473 57.9203 22.6555 54.1262 22.829C53.7085 22.8637 53.256 22.7596 52.8731 22.5861C48.8354 20.5044 44.8325 18.4228 40.7948 16.3411C40.6208 16.237 40.4119 16.2023 40.2379 16.2023C38.6715 16.237 37.1052 16.4799 35.6084 16.9309C32.7542 17.7289 30.2132 19.082 27.9507 20.9902C27.8115 21.129 27.6723 21.3718 27.6723 21.58C27.6723 22.4473 27.6723 23.3841 27.6723 24.0433ZM73.8971 40.9395C73.9319 40.9395 73.9667 40.9395 74.0015 40.9395C74.0363 40.766 74.0711 40.6273 74.0711 40.4538C74.1407 39.4823 74.1755 38.5456 74.2451 37.5741C74.454 34.0353 74.6628 30.5312 74.8717 26.9923C75.0805 23.627 75.2546 20.2269 75.4634 16.8615C75.4982 16.5146 75.359 16.3064 75.1501 16.0636C73.0965 13.8778 70.7992 11.9696 68.2582 10.3737C64.9166 8.29199 61.3314 6.80012 57.4678 5.96745C55.4489 5.51643 53.4649 4.99601 51.446 4.68376C48.6962 4.23273 45.9464 3.88578 43.1965 3.57353C39.8898 3.19189 36.5482 3.12251 33.2415 3.1572C32.9978 3.1572 32.7194 3.29598 32.5802 3.43476C31.7448 4.23273 30.9094 5.0654 30.1088 5.89807C26.2103 9.85324 22.6947 14.086 19.4924 18.6309C19.388 18.7697 19.3184 18.9432 19.3184 19.082C19.4576 20.5391 19.5968 22.031 19.7361 23.4882C19.9101 25.2923 20.1189 27.0964 20.293 28.9352C20.467 30.6352 20.6411 32.3353 20.8151 34.0353C20.9891 35.8394 21.198 37.6435 21.3372 39.4476C21.4416 40.5232 21.5461 41.5987 22.103 42.5355C22.1726 42.6395 22.2422 42.7089 22.3467 42.8824C22.4859 41.8416 22.6251 40.9395 22.7643 40.0028C23.008 38.4068 23.2517 36.8109 23.4953 35.1802C23.7738 33.2373 24.0522 31.3291 24.3307 29.3862C24.4699 28.3801 24.6788 27.4087 24.6788 26.4025C24.6788 24.529 24.5744 22.6902 24.5047 20.8167C24.4699 20.1575 24.6788 19.6718 25.1661 19.2208C26.4888 18.0411 27.8811 16.9656 29.4475 16.0982C32.8238 14.1901 36.4786 13.1492 40.3771 13.0104C40.934 12.9757 41.4562 13.0798 41.9435 13.3227C45.9116 15.3697 49.8797 17.4513 53.8129 19.4636C54.0218 19.5677 54.2306 19.6371 54.4743 19.6371C55.4837 19.6024 56.4931 19.5677 57.5026 19.4983C60.8789 19.3595 64.2205 19.1861 67.5968 19.0473C68.6759 19.0126 69.3372 19.6371 69.3372 20.7126C69.3372 22.3086 69.3372 23.9045 69.3372 25.5005C69.3372 25.778 69.4069 25.9515 69.6505 26.0903C70.2422 26.4025 70.7992 26.7842 71.3909 27.1311C72.0174 27.478 72.2959 27.9985 72.3655 28.6924C72.5048 30.0107 72.6788 31.2944 72.8528 32.6128C73.1313 34.7986 73.4098 36.9843 73.6882 39.1701C73.7578 39.7946 73.8275 40.3497 73.8971 40.9395ZM36.3046 83.475C36.3046 84.3423 36.2698 85.2097 36.3046 86.1118C36.3046 86.6669 36.2002 87.1873 35.9565 87.673C35.33 88.9567 34.5294 90.1016 33.52 91.1078C33.2067 91.42 33.2415 91.5935 33.52 91.9057C35.9913 94.7854 38.7411 97.3528 41.7694 99.6773C42.0479 99.8855 42.2915 100.163 42.5004 100.441C44.1016 102.73 45.6679 105.055 47.2343 107.379C47.5127 107.761 47.7912 108.177 48.0696 108.594C48.2089 108.42 48.2785 108.316 48.3481 108.177C50.0537 105.471 51.7245 102.765 53.4301 100.094C53.7085 99.6773 54.0218 99.261 54.4047 98.9834C57.2589 96.8324 59.9391 94.4731 62.4453 91.9057C62.7586 91.5935 62.6889 91.42 62.4453 91.1425C61.5055 90.2057 60.7745 89.1302 60.148 87.9853C59.7999 87.3261 59.5562 86.6669 59.6259 85.9036C59.6607 85.2444 59.6259 84.5505 59.6259 83.8913C59.6259 83.7872 59.591 83.6484 59.591 83.5097C51.8289 87.4648 44.1016 87.222 36.3046 83.475ZM29.9 108.316C32.789 105.888 35.6432 103.494 38.4975 101.1C38.3234 100.961 38.2538 100.892 38.1494 100.822C35.8173 98.914 33.6244 96.8324 31.6403 94.5425C30.805 93.6058 30.0044 92.669 29.2038 91.6976C28.9601 91.3853 28.7513 91.3853 28.4032 91.6282C26.8717 92.8078 25.3053 93.9527 23.739 95.0976C23.4953 95.2711 23.4257 95.4099 23.5649 95.7221C25.1661 98.914 26.7672 102.106 28.3684 105.263C28.8557 106.269 29.343 107.241 29.9 108.316ZM65.2647 108.247C65.6476 107.31 65.9957 106.512 66.3438 105.679C67.8057 102.175 69.3024 98.6365 70.7644 95.1323C70.8688 94.8548 70.8688 94.6813 70.6599 94.4384C69.7549 93.3976 68.8499 92.3221 67.9449 91.2812C67.8753 91.2118 67.7709 91.1424 67.6317 91.0037C64.4293 94.4037 61.1922 97.7344 57.433 100.579C60.0784 103.147 62.6541 105.679 65.2647 108.247Z" fill="#D0D5D8"/>
</svg>
