<svg xmlns="http://www.w3.org/2000/svg" viewBox="0 0 1024 1024"><defs><style>.cls-1{fill:#ebedef;}.cls-2{fill:#b0b7bc;}</style></defs><title>profile_avatar</title><g id="Layer_2" data-name="Layer 2"><g id="Layer_2-2" data-name="Layer 2"><circle class="cls-1" cx="512" cy="512" r="512"/><path class="cls-2" d="M887,848.63c-42.55-33.63-91.3-55.85-141-76.39-23-9.51-46.86-17.23-67.84-31.17-11.29-7.5-22.77-15.59-24.79-29.81-2.18-15.39-2.33-31.13-2.41-46.73,0-9,4.5-16.51,11-23,21.73-21.8,35.46-48.47,46.43-76.87,2-5.22,5.24-10.64,9.39-14.25,28.91-25.18,44.56-55.73,41.8-95-1.62-23-11.15-41.19-29.55-54.59-5.57-4.06-7.1-8.38-5.88-14.78,4.24-22.26,8.38-44.53,12.26-66.85,4.09-23.57,5.74-47.25,1.51-71-5.74-32.21-24.79-50.5-57.14-54.27-4.26-.5-6.71-2.19-9.32-5.08-5.32-5.87-10.6-11.88-16.57-17.05-38.75-33.61-85.41-46.54-135.19-49.4-35.06-2-69.36,4.44-102.38,16.29-39.1,14-72.65,36.14-96.93,70.6-21.66,30.73-30,64.61-22.64,101.85,4.69,23.64,9.67,47.23,14.39,70.86,1.61,8,.87,14.31-7.15,20.24-17.11,12.65-26.73,30.05-28.17,52-2.57,39,12.14,70.13,41.19,95.33,2.86,2.48,5.78,5.57,7.14,9,12.72,32.17,28,62.68,53.15,87.33a20.58,20.58,0,0,1,5.57,12.07,348.06,348.06,0,0,1,1.31,40c-.58,16.72-8,30-22.09,39.87-16.72,11.72-35.3,19.4-54,26.92-40.47,16.3-80.7,33.14-118.31,55.49A364.41,364.41,0,0,0,145,852a29.59,29.59,0,0,0-8.44,9.66,515.14,515.14,0,0,0,40.66,39.26,29.72,29.72,0,0,0,4.6-3.36,297.9,297.9,0,0,1,34.71-24.47c37.52-23,78.18-39.28,118.78-55.81,27-11,53.63-22.9,75.59-43,20.29-18.54,30.69-41.61,32.1-68.85.63-12.1,1-24.23,1.25-36.34.49-25.06-6.75-47.31-24.93-65.2-18-17.67-28.6-39.69-37.88-62.58-6-14.85-14.21-27.8-27.4-37.83-13.71-10.43-20.11-25.18-19.36-42.69a17.63,17.63,0,0,1,8.09-14.7c.17-.12.35-.22.54-.32,26-14.71,32-37.78,27.06-65.26-3.9-21.68-8.16-43.29-12.08-65-1.67-9.22-3.76-18.47-4.18-27.78-1.24-27.34,12.73-47.76,32.15-64.83,21.39-18.8,47-29.41,74.53-35.87,20.28-4.75,40.76-7.3,61.47-5.88C562,184,598.61,194.81,626.12,225.88c6.3,7.11,11.15,15.54,16.29,23.61,2.21,3.47,4.41,4.8,8.63,4a85.39,85.39,0,0,1,14.36-.89c9.38-.08,14,3.37,15.8,12.54,1,4.87,1.64,10.08,1,14.94-2.54,19.19-5.72,38.3-8.53,57.45-2.93,19.94-6.13,39.86-8.42,59.88-2.19,19.09,6.93,33.25,21.74,44.28,5.57,4.14,13.12,6.46,14.16,14.75,1.36,10.78.41,21.38-5.4,30.79-3.36,5.44-7,11.32-12,15-15.44,11.42-24.31,27.09-31.12,44.32-8.9,22.5-20.51,43.14-38,60.36-14.78,14.58-21.57,33.1-22,53.55-.38,17.74-.82,35.71,1.48,53.22,4.06,30.89,20.06,55.13,46.15,72.56,22.3,14.89,46.85,25.05,71.52,35.13,44.66,18.23,89,37.18,128.75,65.17,4.18,2.94,8.16,6,12,9.21a515.19,515.19,0,0,0,41.53-41.5A29.59,29.59,0,0,0,890,851C889,850.23,888,849.42,887,848.63Z"/></g></g></svg>