<svg width="15" height="18" viewBox="0 0 15 18" fill="none" xmlns="http://www.w3.org/2000/svg">
<path fill-rule="evenodd" clip-rule="evenodd" d="M0 1.08C0 0.48353 0.454112 0 1.01426 0H6.02922C6.58937 0 7.04348 0.48353 7.04348 1.08V6H1.01426C0.454112 6 0 5.51647 0 4.92V1.08ZM7.04348 12H13.0727C13.6328 12 14.087 11.5165 14.087 10.92V7.08C14.087 6.48353 13.6328 6 13.0727 6H7.04348V12ZM7.04348 12V16.92C7.04348 17.5165 6.58937 18 6.02922 18H1.01426C0.454112 18 0 17.5165 0 16.92V13.08C0 12.4835 0.454112 12 1.01426 12H7.04348Z" fill="#B0B7BC"/>
</svg>
