<svg xmlns="http://www.w3.org/2000/svg" width="1499.319" height="1351.636" viewBox="0 0 1233.5 1112">
  <metadata><?xpacket begin="﻿" id="W5M0MpCehiHzreSzNTczkc9d"?>
<x:xmpmeta xmlns:x="adobe:ns:meta/" x:xmptk="Adobe XMP Core 5.6-c142 79.160924, 2017/07/13-01:06:39        ">
   <rdf:RDF xmlns:rdf="http://www.w3.org/1999/02/22-rdf-syntax-ns#">
      <rdf:Description rdf:about=""/>
   </rdf:RDF>
</x:xmpmeta>
                                                                                                    
                                                                                                    
                                                                                                    
                                                                                                    
                                                                                                    
                                                                                                    
                                                                                                    
                                                                                                    
                                                                                                    
                                                                                                    
                                                                                                    
                                                                                                    
                                                                                                    
                                                                                                    
                                                                                                    
                                                                                                    
                                                                                                    
                                                                                                    
                                                                                                    
                                                                                                    
                           
<?xpacket end="w"?></metadata>
<defs>
    <style>
      .cls-1 {
        fill: #3b4755;
      }

      .cls-1, .cls-2, .cls-3 {
        fill-rule: evenodd;
      }

      .cls-2 {
        fill: #fff;
      }

      .cls-3 {
        fill: #6b7a8d;
      }
    </style>
  </defs>
  <path class="cls-1" d="M1230.95,1076.59l-81.21-164.584V63.918A63.891,63.891,0,0,0,1085.87,0h-1022A63.9,63.9,0,0,0,0,63.918V1048.08A63.9,63.9,0,0,0,63.874,1112H1208.96A24.542,24.542,0,0,0,1230.95,1076.59Z"/>
  <path id="Scan_or_paste_in_Sphinx" data-name="Scan or paste in Sphinx" class="cls-2" d="M189.529,621.868q-5.812,4.449-16.72,4.448a39.1,39.1,0,0,1-9.723-1.183,24.567,24.567,0,0,1-8.181-3.7,18.049,18.049,0,0,1-7.786-15.569h-13.85a28.131,28.131,0,0,0,1.579,9.614,27.593,27.593,0,0,0,4.378,7.893,31.55,31.55,0,0,0,6.566,6.17,40.827,40.827,0,0,0,8.18,4.449,47.53,47.53,0,0,0,9.221,2.69,52.328,52.328,0,0,0,9.616.9,52.967,52.967,0,0,0,14.962-1.973,34.8,34.8,0,0,0,11.482-5.632,24.8,24.8,0,0,0,9.939-20.377,27.632,27.632,0,0,0-2.045-10.906,25.229,25.229,0,0,0-6.244-8.682,42.1,42.1,0,0,0-10.656-6.924,99.746,99.746,0,0,0-15.357-5.56A94.669,94.669,0,0,1,163.8,573.8a33.074,33.074,0,0,1-7.57-4.233,15.341,15.341,0,0,1-4.342-5.023,13,13,0,0,1-1.4-6.027,17.275,17.275,0,0,1,1.292-6.744,14.1,14.1,0,0,1,3.946-5.345,19.179,19.179,0,0,1,6.746-3.552,32.044,32.044,0,0,1,9.616-1.291,30.925,30.925,0,0,1,10.19,1.506,19.72,19.72,0,0,1,7.176,4.233,17.056,17.056,0,0,1,4.269,6.458,22.909,22.909,0,0,1,1.4,8.108h13.849a30.011,30.011,0,0,0-2.439-11.839A29.47,29.47,0,0,0,199.4,539.93a35.522,35.522,0,0,0-11.589-7.031,43.487,43.487,0,0,0-15.715-2.655,46.362,46.362,0,0,0-14.568,2.153,34.309,34.309,0,0,0-11.194,5.991,26.99,26.99,0,0,0-7.212,9.04,25.344,25.344,0,0,0-2.548,11.3,23.9,23.9,0,0,0,2.369,10.834,26.317,26.317,0,0,0,6.781,8.43,46.026,46.026,0,0,0,10.692,6.529,103.344,103.344,0,0,0,14.029,5.059,111.782,111.782,0,0,1,12.2,4.2,31.469,31.469,0,0,1,7.643,4.377,12.892,12.892,0,0,1,3.947,5.13,17.4,17.4,0,0,1,1.112,6.457A14.445,14.445,0,0,1,189.529,621.868Zm56.045,2.439a18.95,18.95,0,0,1-6.53-6.385,26.933,26.933,0,0,1-3.445-8.933,51.26,51.26,0,0,1-1-10.153v-3.013a50.546,50.546,0,0,1,1-10.009,26.881,26.881,0,0,1,3.481-8.969,19.277,19.277,0,0,1,6.53-6.421,19.557,19.557,0,0,1,10.226-2.44,18.755,18.755,0,0,1,7.284,1.363,17.438,17.438,0,0,1,9.4,9.149,20.194,20.194,0,0,1,1.686,6.708h12.559a30.79,30.79,0,0,0-2.584-11.121,27.051,27.051,0,0,0-6.351-8.933,29.721,29.721,0,0,0-9.616-5.919,34.042,34.042,0,0,0-12.378-2.153,34.624,34.624,0,0,0-15.213,3.121,31.024,31.024,0,0,0-10.764,8.431,35.69,35.69,0,0,0-6.423,12.341,51.23,51.23,0,0,0-2.117,14.852v3.013a51.227,51.227,0,0,0,2.117,14.853,35.667,35.667,0,0,0,6.423,12.34,30.9,30.9,0,0,0,10.8,8.431,34.844,34.844,0,0,0,15.249,3.121,32.138,32.138,0,0,0,11.661-2.117,33.01,33.01,0,0,0,9.651-5.668,28.879,28.879,0,0,0,6.71-8.251,23.189,23.189,0,0,0,2.835-9.865H274.206a14.84,14.84,0,0,1-1.829,5.991,16.4,16.4,0,0,1-4.019,4.771,19.113,19.113,0,0,1-5.7,3.157A21.968,21.968,0,0,1,245.574,624.307Zm117.974,11.839V635a31.117,31.117,0,0,1-2.045-7.5,53.394,53.394,0,0,1-.682-8.287v-36.09a28.067,28.067,0,0,0-2.153-11.408,22.564,22.564,0,0,0-5.956-8.143,24.9,24.9,0,0,0-9.149-4.879,40.169,40.169,0,0,0-11.661-1.615,37.558,37.558,0,0,0-12.738,2.045,32.839,32.839,0,0,0-9.723,5.31,24.2,24.2,0,0,0-6.208,7.354,17.33,17.33,0,0,0-2.188,8.251h13.347a9.564,9.564,0,0,1,1.22-4.664,12.548,12.548,0,0,1,3.409-3.91,17.412,17.412,0,0,1,5.274-2.691,21.944,21.944,0,0,1,6.817-1q8.109,0,12.271,4.126t4.162,11.085v6.1h-13.2a58.307,58.307,0,0,0-14.424,1.65,32.99,32.99,0,0,0-11.015,4.879,21.951,21.951,0,0,0-7,8,23.857,23.857,0,0,0-2.44,11.013,21.9,21.9,0,0,0,1.866,9,21.466,21.466,0,0,0,5.274,7.282,25.11,25.11,0,0,0,8.253,4.879,30.922,30.922,0,0,0,10.8,1.794,29.947,29.947,0,0,0,6.817-.753,29.011,29.011,0,0,0,5.992-2.081,30.111,30.111,0,0,0,5.095-3.085,35.563,35.563,0,0,0,4.2-3.7q0.285,2.367.717,4.556a14.378,14.378,0,0,0,1.148,3.623h13.922Zm-42.374-11.157a14.067,14.067,0,0,1-4.665-2.8,10.962,10.962,0,0,1-2.834-4.2,14.509,14.509,0,0,1-.933-5.237,11.594,11.594,0,0,1,6.171-10.727q6.171-3.55,17.581-3.551h11.051v15.928a18.093,18.093,0,0,1-2.978,4.305,21.324,21.324,0,0,1-4.485,3.695,25.178,25.178,0,0,1-5.74,2.619,22.123,22.123,0,0,1-6.746,1A18.16,18.16,0,0,1,321.174,624.989Zm60.457-66.476v77.633h13.276V580.827a23.38,23.38,0,0,1,7.607-9.04,19.158,19.158,0,0,1,11.338-3.444,21.991,21.991,0,0,1,6.709.933,11.752,11.752,0,0,1,4.88,2.941,12.743,12.743,0,0,1,2.978,5.2,25.931,25.931,0,0,1,1,7.713v51.014H442.7v-50.87a41.761,41.761,0,0,0-1.758-12.951,22.924,22.924,0,0,0-4.987-8.753,18.885,18.885,0,0,0-7.822-4.951,32.119,32.119,0,0,0-10.262-1.543,28.843,28.843,0,0,0-13.2,2.978,30.006,30.006,0,0,0-10.046,8.215l-0.431-9.758H381.631Zm113.956,39.678a47.994,47.994,0,0,0,2.475,15.677,37.129,37.129,0,0,0,7.069,12.484,32.328,32.328,0,0,0,11.123,8.251,37.822,37.822,0,0,0,29.421,0,32.347,32.347,0,0,0,11.123-8.251,36.671,36.671,0,0,0,7.033-12.484,48.668,48.668,0,0,0,2.439-15.677v-1.579a48.673,48.673,0,0,0-2.439-15.677,37.078,37.078,0,0,0-7.033-12.52,32.45,32.45,0,0,0-11.159-8.323,35.13,35.13,0,0,0-14.818-3.014,34.528,34.528,0,0,0-14.639,3.014,32.169,32.169,0,0,0-11.087,8.323,37.873,37.873,0,0,0-7.033,12.52,48,48,0,0,0-2.475,15.677v1.579Zm13.347-1.579A43,43,0,0,1,510.3,585.67a27.876,27.876,0,0,1,4.127-9.112,21.109,21.109,0,0,1,6.853-6.242,18.944,18.944,0,0,1,9.544-2.332,19.5,19.5,0,0,1,9.688,2.332,20.9,20.9,0,0,1,6.924,6.242,28.455,28.455,0,0,1,4.162,9.112,41.955,41.955,0,0,1,1.4,10.942v1.579a41.821,41.821,0,0,1-1.4,10.977,28.934,28.934,0,0,1-4.126,9.077,20.17,20.17,0,0,1-6.889,6.206,21.358,21.358,0,0,1-19.267,0,20.59,20.59,0,0,1-6.889-6.206,27.9,27.9,0,0,1-4.127-9.077,42.863,42.863,0,0,1-1.363-10.977v-1.579Zm111.515-38.529a10.471,10.471,0,0,0-2.583-.682,19.672,19.672,0,0,0-3.3-.323,20.461,20.461,0,0,0-10.979,2.8,23.369,23.369,0,0,0-7.535,7.605l-0.215-8.969H582.919v77.633h13.275v-55.1a18.308,18.308,0,0,1,6.5-8.108q4.341-3.013,11.23-3.014,1.866,0,3.337.108t3.193,0.395V558.083Zm114.171,38.6a61.815,61.815,0,0,0-1.974-16.18A36.786,36.786,0,0,0,726.8,568.02a27.058,27.058,0,0,0-9.508-8.072,28.164,28.164,0,0,0-12.953-2.87,30.708,30.708,0,0,0-12.989,2.583,26.336,26.336,0,0,0-9.544,7.462l-0.646-8.61H669.031V665.994h13.276V628.612a26.078,26.078,0,0,0,9.436,6.673,33.028,33.028,0,0,0,12.809,2.3,26.408,26.408,0,0,0,22.21-11.157,38.622,38.622,0,0,0,5.849-12.484,58.585,58.585,0,0,0,2.009-15.749v-1.507Zm-13.276,1.507a48.123,48.123,0,0,1-1.22,11.013,27.545,27.545,0,0,1-3.8,9.076,19.741,19.741,0,0,1-6.494,6.171,18.031,18.031,0,0,1-9.293,2.3,22.941,22.941,0,0,1-6.243-.789,19.114,19.114,0,0,1-5.024-2.189,17.719,17.719,0,0,1-3.946-3.372,25.364,25.364,0,0,1-3.014-4.269V579.034a25.4,25.4,0,0,1,3.014-4.269,18.278,18.278,0,0,1,8.934-5.633,22.3,22.3,0,0,1,6.135-.789,18.611,18.611,0,0,1,9.4,2.26,19.3,19.3,0,0,1,6.53,6.135,27.6,27.6,0,0,1,3.8,9,47.208,47.208,0,0,1,1.22,10.942v1.507Zm92,37.955V635a31.071,31.071,0,0,1-2.045-7.5,53.271,53.271,0,0,1-.682-8.287v-36.09a28.067,28.067,0,0,0-2.153-11.408,22.564,22.564,0,0,0-5.956-8.143,24.9,24.9,0,0,0-9.149-4.879,40.171,40.171,0,0,0-11.662-1.615,37.548,37.548,0,0,0-12.737,2.045,32.839,32.839,0,0,0-9.723,5.31,24.2,24.2,0,0,0-6.208,7.354,17.319,17.319,0,0,0-2.188,8.251h13.347a9.564,9.564,0,0,1,1.22-4.664,12.548,12.548,0,0,1,3.409-3.91,17.4,17.4,0,0,1,5.274-2.691,21.944,21.944,0,0,1,6.817-1q8.109,0,12.271,4.126t4.162,11.085v6.1h-13.2a58.3,58.3,0,0,0-14.423,1.65,33.005,33.005,0,0,0-11.016,4.879,21.957,21.957,0,0,0-7,8,23.857,23.857,0,0,0-2.44,11.013,21.9,21.9,0,0,0,1.866,9,21.466,21.466,0,0,0,5.274,7.282,25.115,25.115,0,0,0,8.252,4.879,30.93,30.93,0,0,0,10.8,1.794,29.95,29.95,0,0,0,6.818-.753,29.031,29.031,0,0,0,5.992-2.081,30.15,30.15,0,0,0,5.1-3.085,35.471,35.471,0,0,0,4.2-3.7q0.287,2.367.718,4.556a14.338,14.338,0,0,0,1.148,3.623h13.922Zm-42.375-11.157a14.072,14.072,0,0,1-4.664-2.8,10.975,10.975,0,0,1-2.835-4.2,14.53,14.53,0,0,1-.932-5.237,11.594,11.594,0,0,1,6.171-10.727q6.171-3.55,17.581-3.551h11.051v15.928a18.093,18.093,0,0,1-2.978,4.305,21.35,21.35,0,0,1-4.485,3.695,25.166,25.166,0,0,1-5.741,2.619,22.112,22.112,0,0,1-6.745,1A18.165,18.165,0,0,1,770.966,624.989Zm104.591-5.022a10.2,10.2,0,0,1-3.194,3.551,16.589,16.589,0,0,1-5.2,2.368,26.824,26.824,0,0,1-7.176.861,28.373,28.373,0,0,1-6.315-.718,17.832,17.832,0,0,1-5.813-2.439,14.621,14.621,0,0,1-4.413-4.484,13.911,13.911,0,0,1-1.973-6.852H828.2a22.3,22.3,0,0,0,2.081,9.363,24.145,24.145,0,0,0,6.1,8.107,30.6,30.6,0,0,0,9.939,5.7,39.9,39.9,0,0,0,13.67,2.152,41.982,41.982,0,0,0,12.271-1.686,29.742,29.742,0,0,0,9.472-4.7,20.26,20.26,0,0,0,8.181-16.574,19.375,19.375,0,0,0-1.687-8.323,17.886,17.886,0,0,0-5.13-6.349,33.773,33.773,0,0,0-8.683-4.844,87.386,87.386,0,0,0-12.343-3.731,86.911,86.911,0,0,1-9.006-2.4,22.248,22.248,0,0,1-5.49-2.583,7.353,7.353,0,0,1-2.727-3.121,10,10,0,0,1-.717-3.875,10.716,10.716,0,0,1,.861-4.2,9.909,9.909,0,0,1,2.727-3.659,13.933,13.933,0,0,1,4.772-2.583,22.511,22.511,0,0,1,7.068-.969,18.957,18.957,0,0,1,6.961,1.184,16.3,16.3,0,0,1,5.1,3.085,13.01,13.01,0,0,1,3.157,4.3,11.6,11.6,0,0,1,1.077,4.772h13.347a22.5,22.5,0,0,0-2.009-9.435,22.274,22.274,0,0,0-5.848-7.713,28.4,28.4,0,0,0-9.329-5.2,37.943,37.943,0,0,0-12.451-1.9,36.169,36.169,0,0,0-11.84,1.83,28.281,28.281,0,0,0-9.042,4.951,22.318,22.318,0,0,0-5.777,7.246,19.384,19.384,0,0,0-2.045,8.718,17.4,17.4,0,0,0,1.938,8.395,18.468,18.468,0,0,0,5.561,6.206,35.512,35.512,0,0,0,8.791,4.484,87.283,87.283,0,0,0,11.625,3.229,56.061,56.061,0,0,1,9.257,2.655,19.06,19.06,0,0,1,5.418,3.121,8.542,8.542,0,0,1,2.547,3.587,12.511,12.511,0,0,1,.646,4.054A9.343,9.343,0,0,1,875.557,619.967Zm36.382-80.252v18.8H897.8v10.26h14.137v48.072a29.083,29.083,0,0,0,1.435,9.794,17.139,17.139,0,0,0,3.875,6.422,13.942,13.942,0,0,0,5.7,3.48,22.725,22.725,0,0,0,6.925,1.04,31.73,31.73,0,0,0,6.1-.5q2.511-.5,4.09-0.933V625.384q-1,.215-2.834.538a20.089,20.089,0,0,1-3.481.323,15.556,15.556,0,0,1-3.193-.323,6.051,6.051,0,0,1-2.727-1.328,6.949,6.949,0,0,1-1.9-2.834,13.527,13.527,0,0,1-.717-4.843V568.773h14.5v-10.26h-14.5v-18.8H911.939Zm85.9,96.61a32.576,32.576,0,0,0,8.144-3.372,30.75,30.75,0,0,0,6.21-4.807,35.791,35.791,0,0,0,4.52-5.561l-8.11-6.314a29.972,29.972,0,0,1-8.54,7.606,23.117,23.117,0,0,1-11.911,2.87,21.383,21.383,0,0,1-16.685-7.462,24.491,24.491,0,0,1-4.592-8.108,33.193,33.193,0,0,1-1.758-10.045h52.6v-5.955a58.5,58.5,0,0,0-1.86-15.139,34.084,34.084,0,0,0-5.78-12.054,27.232,27.232,0,0,0-9.94-8,32.746,32.746,0,0,0-14.35-2.906,31.134,31.134,0,0,0-12.7,2.691,32.742,32.742,0,0,0-10.836,7.785,38.037,38.037,0,0,0-7.571,12.556,47.422,47.422,0,0,0-2.834,16.933v3.013a43.656,43.656,0,0,0,2.511,15.067A34.39,34.39,0,0,0,961.526,627a32.748,32.748,0,0,0,11.23,7.785,37.08,37.08,0,0,0,14.675,2.8A39.512,39.512,0,0,0,997.836,636.325ZM994.32,569.85a16.655,16.655,0,0,1,5.633,4.879,20.811,20.811,0,0,1,3.227,6.816,36.76,36.76,0,0,1,1.26,7.677v1h-38.9a35.259,35.259,0,0,1,2.4-9.543,22.987,22.987,0,0,1,4.413-6.96,17.907,17.907,0,0,1,13.419-5.74A17.752,17.752,0,0,1,994.32,569.85ZM454.181,734.844H440.905v77.633h13.276V734.844ZM441.8,719.633a7.544,7.544,0,0,0,5.849,2.153,7.662,7.662,0,0,0,5.884-2.153,7.582,7.582,0,0,0,2.009-5.381,7.844,7.844,0,0,0-2.009-5.453,7.528,7.528,0,0,0-5.884-2.224A7.414,7.414,0,0,0,441.8,708.8a7.923,7.923,0,0,0-1.973,5.453A7.657,7.657,0,0,0,441.8,719.633Zm33.62,15.211v77.633H488.7V757.158a23.369,23.369,0,0,1,7.606-9.04,19.163,19.163,0,0,1,11.338-3.444,22,22,0,0,1,6.71.933,11.765,11.765,0,0,1,4.88,2.941,12.754,12.754,0,0,1,2.978,5.2,25.934,25.934,0,0,1,1,7.713v51.014H536.49v-50.87a41.761,41.761,0,0,0-1.758-12.951,22.926,22.926,0,0,0-4.988-8.753,18.875,18.875,0,0,0-7.821-4.951,32.124,32.124,0,0,0-10.262-1.543,28.837,28.837,0,0,0-13.2,2.978,30.006,30.006,0,0,0-10.046,8.215l-0.431-9.758H475.422ZM644.848,798.2q-5.812,4.449-16.72,4.448a39.107,39.107,0,0,1-9.724-1.183,24.57,24.57,0,0,1-8.18-3.7,18.043,18.043,0,0,1-7.786-15.569h-13.85a28.131,28.131,0,0,0,1.579,9.614,27.566,27.566,0,0,0,4.377,7.893,31.575,31.575,0,0,0,6.566,6.17,40.835,40.835,0,0,0,8.181,4.449,47.509,47.509,0,0,0,9.221,2.69,52.311,52.311,0,0,0,9.616.9,52.972,52.972,0,0,0,14.962-1.973,34.8,34.8,0,0,0,11.481-5.632,24.8,24.8,0,0,0,9.939-20.377,27.632,27.632,0,0,0-2.045-10.906,25.239,25.239,0,0,0-6.243-8.682,42.12,42.12,0,0,0-10.657-6.924,99.731,99.731,0,0,0-15.356-5.56,94.542,94.542,0,0,1-11.087-3.731,33.061,33.061,0,0,1-7.571-4.233,15.325,15.325,0,0,1-4.341-5.023,13,13,0,0,1-1.4-6.027A17.293,17.293,0,0,1,607.1,728.1a14.1,14.1,0,0,1,3.947-5.345,19.166,19.166,0,0,1,6.745-3.552,32.049,32.049,0,0,1,9.616-1.291,30.921,30.921,0,0,1,10.19,1.506,19.72,19.72,0,0,1,7.176,4.233,17.07,17.07,0,0,1,4.27,6.458,22.909,22.909,0,0,1,1.4,8.108H664.3a29.991,29.991,0,0,0-2.44-11.839,29.467,29.467,0,0,0-7.14-10.117,35.543,35.543,0,0,0-11.589-7.031,43.5,43.5,0,0,0-15.716-2.655,46.356,46.356,0,0,0-14.567,2.153,34.3,34.3,0,0,0-11.195,5.991,27,27,0,0,0-7.212,9.04,25.356,25.356,0,0,0-2.547,11.3,23.9,23.9,0,0,0,2.368,10.834,26.331,26.331,0,0,0,6.781,8.43,46.048,46.048,0,0,0,10.692,6.529,103.31,103.31,0,0,0,14.03,5.059,111.932,111.932,0,0,1,12.2,4.2,31.479,31.479,0,0,1,7.642,4.377,12.874,12.874,0,0,1,3.947,5.13,17.4,17.4,0,0,1,1.112,6.457A14.447,14.447,0,0,1,644.848,798.2Zm100.823-25.184a61.815,61.815,0,0,0-1.974-16.18,36.786,36.786,0,0,0-5.848-12.484,27.058,27.058,0,0,0-9.508-8.072,28.164,28.164,0,0,0-12.953-2.87,30.708,30.708,0,0,0-12.989,2.583,26.336,26.336,0,0,0-9.544,7.462l-0.645-8.61H680.082V842.325h13.276V804.943a26.078,26.078,0,0,0,9.436,6.673,33.028,33.028,0,0,0,12.809,2.3,26.408,26.408,0,0,0,22.21-11.157,38.622,38.622,0,0,0,5.849-12.484,58.585,58.585,0,0,0,2.009-15.749v-1.507ZM732.4,774.522a48.123,48.123,0,0,1-1.22,11.013,27.545,27.545,0,0,1-3.8,9.076,19.741,19.741,0,0,1-6.494,6.171,18.031,18.031,0,0,1-9.293,2.3,22.941,22.941,0,0,1-6.243-.789,19.114,19.114,0,0,1-5.024-2.189,17.719,17.719,0,0,1-3.946-3.372,25.364,25.364,0,0,1-3.014-4.269V755.365a25.4,25.4,0,0,1,3.014-4.269,18.278,18.278,0,0,1,8.934-5.633,22.3,22.3,0,0,1,6.135-.789,18.611,18.611,0,0,1,9.4,2.26,19.3,19.3,0,0,1,6.53,6.135,27.6,27.6,0,0,1,3.8,9,47.208,47.208,0,0,1,1.22,10.942v1.507ZM775.81,702.27H762.535V812.477H775.81V757.158a23.38,23.38,0,0,1,7.607-9.04,19.158,19.158,0,0,1,11.338-3.444,21.991,21.991,0,0,1,6.709.933,11.752,11.752,0,0,1,4.88,2.941,12.743,12.743,0,0,1,2.978,5.2,25.9,25.9,0,0,1,1,7.713v51.014H823.6v-50.87a41.761,41.761,0,0,0-1.758-12.951,22.924,22.924,0,0,0-4.987-8.753,18.885,18.885,0,0,0-7.822-4.951,32.119,32.119,0,0,0-10.262-1.543,28.953,28.953,0,0,0-12.988,2.87,29.792,29.792,0,0,0-9.975,7.964V702.27ZM857.9,734.844H844.628v77.633H857.9V734.844Zm-12.379-15.211a7.543,7.543,0,0,0,5.849,2.153,7.662,7.662,0,0,0,5.884-2.153,7.582,7.582,0,0,0,2.009-5.381,7.844,7.844,0,0,0-2.009-5.453,7.528,7.528,0,0,0-5.884-2.224,7.412,7.412,0,0,0-5.849,2.224,7.923,7.923,0,0,0-1.973,5.453A7.657,7.657,0,0,0,845.525,719.633Zm33.62,15.211v77.633H892.42V757.158a23.38,23.38,0,0,1,7.607-9.04,19.163,19.163,0,0,1,11.338-3.444,22,22,0,0,1,6.71.933,11.755,11.755,0,0,1,4.879,2.941,12.732,12.732,0,0,1,2.978,5.2,25.9,25.9,0,0,1,1,7.713v51.014h13.276v-50.87a41.791,41.791,0,0,0-1.758-12.951,22.926,22.926,0,0,0-4.988-8.753,18.885,18.885,0,0,0-7.822-4.951,32.117,32.117,0,0,0-10.261-1.543,28.837,28.837,0,0,0-13.2,2.978,30.01,30.01,0,0,0-10.047,8.215l-0.43-9.758H879.145Zm90.131,0H953.919l25.4,38.386L953.13,812.477h15.428l17.94-29.058,17.942,29.058h15.35L993.6,773.23l25.408-38.386h-15.5l-17.227,28.341Z"/>
  <path class="cls-3" d="M859.2,375H817.636a9.138,9.138,0,0,1-9.128-9.148V324.193a9.128,9.128,0,1,1,18.256,0V356.7H859.2A9.148,9.148,0,0,1,859.2,375ZM817.636,244.955a9.138,9.138,0,0,1-9.128-9.148V194.148A9.138,9.138,0,0,1,817.636,185H859.2a9.148,9.148,0,0,1,0,18.3H826.764v32.511A9.138,9.138,0,0,1,817.636,244.955Zm170.967,0a9.138,9.138,0,0,1-9.128-9.148V203.3H947.036a9.148,9.148,0,0,1,0-18.3H988.6a9.138,9.138,0,0,1,9.128,9.148v41.659A9.138,9.138,0,0,1,988.6,244.955ZM988.6,375H947.036a9.148,9.148,0,0,1,0-18.3h32.439V324.193a9.128,9.128,0,1,1,18.256,0v41.659A9.138,9.138,0,0,1,988.6,375Zm20.267-85.874H798.128a9.148,9.148,0,0,1,0-18.3H1008.87A9.148,9.148,0,0,1,1008.87,289.126Z"/>
</svg>
