<svg width="22" height="18" viewBox="0 0 22 18" fill="none" xmlns="http://www.w3.org/2000/svg">
<path d="M6.74699 1.73322H3.62624V4.81224C3.62624 5.29142 3.23421 5.67885 2.74933 5.67885C2.26446 5.67885 1.87243 5.29142 1.87243 4.81224V0.866606C1.87243 0.387422 2.26446 -4.76837e-06 2.74933 -4.76837e-06H6.74183C7.22671 -4.76837e-06 7.61874 0.387422 7.61874 0.866606C7.61874 1.34579 7.22671 1.73322 6.74699 1.73322Z" fill="white"/>
<path d="M2.74933 12.3212C3.23421 12.3212 3.62624 12.7086 3.62624 13.1878V16.2668H6.74183C7.22671 16.2668 7.61874 16.6542 7.61874 17.1334C7.61874 17.6126 7.22671 18 6.74183 18H2.74933C2.26446 18 1.87243 17.6126 1.87243 17.1334V13.1878C1.87243 12.7086 2.26446 12.3212 2.74933 12.3212Z" fill="white"/>
<path d="M15.1807 16.2668H18.2963V13.1878C18.2963 12.7086 18.6883 12.3212 19.1732 12.3212C19.6581 12.3212 20.0501 12.7086 20.0501 13.1878V17.1334C20.0501 17.6126 19.6581 18 19.1732 18H15.1807C14.6958 18 14.3038 17.6126 14.3038 17.1334C14.3038 16.6542 14.6958 16.2668 15.1807 16.2668Z" fill="white"/>
<path d="M19.1785 5.67885C18.6936 5.67885 18.3016 5.29142 18.3016 4.81224V1.73322H15.186C14.7011 1.73322 14.3091 1.34579 14.3091 0.866606C14.3091 0.387422 14.7011 -4.76837e-06 15.186 -4.76837e-06H19.1785C19.6634 -4.76837e-06 20.0554 0.387422 20.0554 0.866606V4.81224C20.0554 5.29142 19.6582 5.67885 19.1785 5.67885Z" fill="white"/>
<path d="M21.1231 9.86917H0.876905C0.392028 9.86917 0 9.48175 0 9.00256C0 8.52338 0.392028 8.13595 0.876905 8.13595H21.1231C21.608 8.13595 22 8.52338 22 9.00256C22 9.48175 21.608 9.86917 21.1231 9.86917Z" fill="white"/>
</svg>
