<svg xmlns="http://www.w3.org/2000/svg" width="77" height="78" viewBox="0 0 77 78" fill="none">
  <rect x="0.5" y="0.17627" width="75" height="75.6477" fill="white"/>
  <g filter="url(#filter0_d_7676_14272)">
    <path d="M17.7461 9.021H58.9212C62.9977 9.021 66.2958 12.3596 66.2958 16.4861V58.1665C66.2958 62.2931 62.9977 65.6316 58.9212 65.6316H17.7461C13.6696 65.6316 10.3715 62.2931 10.3715 58.1665V16.4861C10.3715 12.3596 13.6696 9.021 17.7461 9.021Z" fill="#618AFF"/>
  </g>
  <path d="M51.3518 23.0241C49.4372 21.305 47.2313 19.9748 44.8174 19.0538C42.6531 18.2352 40.4056 17.8054 38.3454 17.8054H38.3245C36.2643 17.8054 34.0168 18.2352 31.8525 19.0538C29.4385 19.9748 27.2327 21.305 25.3181 23.0241C22.0925 25.9302 18.2218 31.2922 18.2218 40.3174C18.2218 40.7677 18.4715 41.1975 18.8669 41.4226C18.9085 41.443 22.7584 43.6738 23.5076 48.0534C24.0071 51.0618 26.0881 53.3539 29.4802 54.7251C31.915 55.7075 34.2041 55.8507 34.2873 55.8507C34.6411 55.8712 34.9949 55.7484 35.2446 55.5028C35.4943 55.2572 35.6608 54.9298 35.6608 54.5819V45.5566C36.4932 45.8022 37.3673 45.925 38.2621 45.925C39.2194 45.925 40.135 45.8022 40.9883 45.5361V54.6023C40.9883 54.9502 41.1339 55.2982 41.4045 55.5233C41.6542 55.7484 41.9663 55.8712 42.2993 55.8712C42.3201 55.8712 42.3617 55.8712 42.3825 55.8712C42.4866 55.8712 44.7549 55.7279 47.1897 54.7456C50.6026 53.3949 52.6628 51.0823 53.1623 48.0739C53.4744 46.2729 54.3277 44.6152 55.7219 43.1621C56.8041 42.0365 57.803 41.443 57.803 41.443C58.1984 41.2179 58.4481 40.7881 58.4481 40.3379C58.4481 31.2922 54.5982 25.9302 51.3518 23.0241ZM38.3245 20.3636C40.9674 20.3636 44.8174 21.305 48.251 23.8223L45.9827 28.0996H30.6247L28.398 23.8223C31.8525 21.2845 35.7024 20.3636 38.3245 20.3636ZM26.0465 47.6441C25.3181 43.2645 22.1966 40.6244 20.8023 39.6421C20.9688 32.561 23.7781 28.1405 26.3794 25.5414L28.5229 29.6549L28.5437 35.0169C28.5437 36.9816 29.0223 38.9258 29.9172 40.6244C30.7288 42.1593 31.7901 43.3873 33.0803 44.2877V53.1084C30.8745 52.699 26.6916 51.4302 26.0465 47.6441ZM32.2271 39.4579C31.5196 38.1276 31.145 36.5927 31.145 35.0169V30.6373H45.4833L45.4417 34.8327C45.4208 36.4495 45.0463 38.0253 44.3387 39.417C43.4231 41.2179 41.6334 43.3668 38.2829 43.3668C34.8076 43.3668 32.9971 40.9314 32.2271 39.4579ZM50.6234 47.6441C50.2696 49.7316 48.8129 51.3279 46.2741 52.3511C45.296 52.74 44.3387 52.9856 43.5895 53.1288V44.2468C44.8173 43.3463 45.8579 42.1184 46.6278 40.563C47.5019 38.8235 47.9805 36.8588 48.0013 34.8532L48.0429 29.6754L50.2696 25.5414C52.8917 28.1405 55.7011 32.561 55.8676 39.6625C54.4733 40.6244 51.3518 43.2645 50.6234 47.6441Z" fill="white"/>
  <defs>
    <filter id="filter0_d_7676_14272" x="0.37146" y="1.021" width="75.9243" height="76.6106" filterUnits="userSpaceOnUse" color-interpolation-filters="sRGB">
      <feFlood flood-opacity="0" result="BackgroundImageFix"/>
      <feColorMatrix in="SourceAlpha" type="matrix" values="0 0 0 0 0 0 0 0 0 0 0 0 0 0 0 0 0 0 127 0" result="hardAlpha"/>
      <feOffset dy="2"/>
      <feGaussianBlur stdDeviation="5"/>
      <feComposite in2="hardAlpha" operator="out"/>
      <feColorMatrix type="matrix" values="0 0 0 0 0.380392 0 0 0 0 0.541176 0 0 0 0 1 0 0 0 0.5 0"/>
      <feBlend mode="normal" in2="BackgroundImageFix" result="effect1_dropShadow_7676_14272"/>
      <feBlend mode="normal" in="SourceGraphic" in2="effect1_dropShadow_7676_14272" result="shape"/>
    </filter>
  </defs>
</svg>