<svg id="Tribes_logo" data-name="Tribes logo" xmlns="http://www.w3.org/2000/svg" width="1500.319" height="253.189" viewBox="0 0 782.19 132">
  <metadata><?xpacket begin="﻿" id="W5M0MpCehiHzreSzNTczkc9d"?>
<x:xmpmeta xmlns:x="adobe:ns:meta/" x:xmptk="Adobe XMP Core 5.6-c142 79.160924, 2017/07/13-01:06:39        ">
   <rdf:RDF xmlns:rdf="http://www.w3.org/1999/02/22-rdf-syntax-ns#">
      <rdf:Description rdf:about=""/>
   </rdf:RDF>
</x:xmpmeta>
                                                                                                    
                                                                                                    
                                                                                                    
                                                                                                    
                                                                                                    
                                                                                                    
                                                                                                    
                                                                                                    
                                                                                                    
                                                                                                    
                                                                                                    
                                                                                                    
                                                                                                    
                                                                                                    
                                                                                                    
                                                                                                    
                                                                                                    
                                                                                                    
                                                                                                    
                                                                                                    
                           
<?xpacket end="w"?></metadata>
<defs>
    <style>
      .cls-1, .cls-3 {
        fill: #618aff;
      }

      .cls-1, .cls-2 {
        fill-rule: evenodd;
      }

      .cls-2 {
        fill: #fff;
      }
    </style>
  </defs>
  <path id="tribes" class="cls-1" d="M1501.63,366.978h-37.44a4.23,4.23,0,0,0-3.14,1.312,4.56,4.56,0,0,0,0,6.336,4.226,4.226,0,0,0,3.14,1.312h14.27v32.9a4.226,4.226,0,0,0,1.31,3.136,4.378,4.378,0,0,0,3.17,1.28,4.371,4.371,0,0,0,4.42-4.416v-32.9h14.27a4.48,4.48,0,1,0,0-8.96h0Zm48.83,30.4a15.981,15.981,0,0,0,3.91-2.368,15.751,15.751,0,0,0,3.07-3.392,16.343,16.343,0,0,0,1.98-4.16,15.815,15.815,0,0,0-.54-10.848,15.808,15.808,0,0,0-8.42-8.448,15.287,15.287,0,0,0-6.14-1.248h-24.64a4.356,4.356,0,0,0-3.2,1.344,4.241,4.241,0,0,0-1.28,3.136V408.77a4.476,4.476,0,0,0,4.48,4.48,4.2,4.2,0,0,0,3.13-1.312,4.343,4.343,0,0,0,1.28-3.168V398.658h15.04l13.38,13.376a4.111,4.111,0,0,0,1.5.992,5.008,5.008,0,0,0,1.7.288,4.779,4.779,0,0,0,1.63-.288,4.144,4.144,0,0,0,1.51-.992,4.276,4.276,0,0,0,1.28-3.136,4.644,4.644,0,0,0-1.28-3.2Zm-26.37-21.5h20.23a6.546,6.546,0,0,1,2.65.544,7.334,7.334,0,0,1,2.21,1.472,6.952,6.952,0,0,1,1.51,7.616,6.865,6.865,0,0,1-1.51,2.176,7.3,7.3,0,0,1-2.21,1.472,6.529,6.529,0,0,1-2.65.544h-20.23V375.874Zm48.99,36.064a4.324,4.324,0,0,0,3.17,1.312,4.226,4.226,0,0,0,3.14-1.312,4.383,4.383,0,0,0,1.28-3.168V371.458a4.386,4.386,0,0,0-1.28-3.168,4.23,4.23,0,0,0-3.14-1.312,4.476,4.476,0,0,0-4.48,4.48V408.77A4.331,4.331,0,0,0,1573.08,411.938Zm61.32-26.08a12.972,12.972,0,0,0,.99-5.056,13.805,13.805,0,0,0-1.63-6.528,13.226,13.226,0,0,0-4.45-4.928,13.422,13.422,0,0,0-7.75-2.368h-25.15a4.243,4.243,0,0,0-3.13,1.28,4.317,4.317,0,0,0-1.28,3.2v37.376a4.371,4.371,0,0,0,4.41,4.416h25.15a13.925,13.925,0,0,0,6.53-1.6,12.79,12.79,0,0,0,4.93-4.48,15.2,15.2,0,0,0,1.73-3.616,13.154,13.154,0,0,0,.64-4.064,13.329,13.329,0,0,0-.96-5.056,14.577,14.577,0,0,0-2.69-4.288A16.068,16.068,0,0,0,1634.4,385.858Zm-10.12,17.7a4.911,4.911,0,0,1-2.72.8h-20.67v-28.48h20.67a4.615,4.615,0,0,1,2.31.576,5.189,5.189,0,0,1,1.73,1.6,4.43,4.43,0,0,1,.83,2.752,4.609,4.609,0,0,1-.58,2.272,5.239,5.239,0,0,1-1.53,1.76,5.44,5.44,0,0,1-2.5.832h-10.69a4.476,4.476,0,0,0-4.48,4.48,4.226,4.226,0,0,0,1.31,3.136,4.378,4.378,0,0,0,3.17,1.28h10.24a7.427,7.427,0,0,1,2.11.384,5.219,5.219,0,0,1,2.15,1.856,4.816,4.816,0,0,1,.8,2.688,4.316,4.316,0,0,1-.39,1.856A4.247,4.247,0,0,1,1624.28,403.554Zm29.16-8.992H1680a4.493,4.493,0,0,0,4.48-4.48,4.2,4.2,0,0,0-1.32-3.136,4.359,4.359,0,0,0-3.16-1.28h-26.56v-4.928a5.121,5.121,0,0,1,.83-2.752,4.132,4.132,0,0,1,1.76-1.568,5.125,5.125,0,0,1,2.27-.544h21.95a4.48,4.48,0,1,0,0-8.96H1658.3a12.917,12.917,0,0,0-4.1.64,15.454,15.454,0,0,0-3.58,1.728,13.158,13.158,0,0,0-4.99,6.08,13.527,13.527,0,0,0-1.09,5.376v18.688a13.52,13.52,0,0,0,1.09,5.376,13.153,13.153,0,0,0,4.99,6.08,15.373,15.373,0,0,0,3.58,1.728,12.889,12.889,0,0,0,4.1.64h21.95a4.48,4.48,0,1,0,0-8.96H1658.3a5.111,5.111,0,0,1-2.27-.544,4.119,4.119,0,0,1-1.76-1.568,5.119,5.119,0,0,1-.83-2.752v-4.864Zm76.28,17.6a13.166,13.166,0,0,0,6.08-4.992,15.2,15.2,0,0,0,1.73-3.616,13.068,13.068,0,0,0,.64-4.128,13.527,13.527,0,0,0-1.09-5.376,13.094,13.094,0,0,0-2.04-3.392,13.436,13.436,0,0,0-2.95-2.624,13.017,13.017,0,0,0-7.74-2.368h-14.72a4.507,4.507,0,0,1-1.92-.384,5.345,5.345,0,0,1-2.18-1.792,4.791,4.791,0,0,1-.83-2.752,3.315,3.315,0,0,1,.13-0.96c0.08-.3.17-0.6,0.25-0.9a4.948,4.948,0,0,1,1.8-2.176,4.743,4.743,0,0,1,2.75-.832h24.06a4.476,4.476,0,0,0,4.48-4.48,4.229,4.229,0,0,0-1.31-3.136,4.382,4.382,0,0,0-3.17-1.28h-24.06a13.351,13.351,0,0,0-5.38,1.088,13.178,13.178,0,0,0-6.08,4.992,15.632,15.632,0,0,0-1.73,3.616,13.159,13.159,0,0,0-.64,4.064,13.856,13.856,0,0,0,1.09,5.44,13.876,13.876,0,0,0,12.74,8.384h14.72a4.841,4.841,0,0,1,1.92.384,5.337,5.337,0,0,1,2.17,1.792,4.827,4.827,0,0,1,.84,2.688,4.075,4.075,0,0,1-.13.992c-0.09.32-.17,0.63-0.26,0.928a5.347,5.347,0,0,1-1.79,2.176,4.943,4.943,0,0,1-2.75.832h-24.07a4.359,4.359,0,0,0-3.16,1.28,4.2,4.2,0,0,0-1.32,3.136,4.493,4.493,0,0,0,4.48,4.48h24.07a13.566,13.566,0,0,0,5.37-1.088h0Z" transform="translate(-956 -322)"/>
  <path id="sphinx" class="cls-2" d="M1175.91,412.162a13.166,13.166,0,0,0,6.08-4.992,15.593,15.593,0,0,0,1.73-3.616,13.359,13.359,0,0,0,.64-4.128,13.7,13.7,0,0,0-1.09-5.376,13.876,13.876,0,0,0-12.74-8.384h-14.72a4.571,4.571,0,0,1-1.92-.384,5.321,5.321,0,0,1-2.17-1.792,4.718,4.718,0,0,1-.83-2.752,3.7,3.7,0,0,1,.12-0.96c0.09-.3.17-0.6,0.26-0.9a4.926,4.926,0,0,1,1.79-2.176,4.766,4.766,0,0,1,2.75-.832h24.07a4.476,4.476,0,0,0,4.48-4.48,4.229,4.229,0,0,0-1.31-3.136,4.4,4.4,0,0,0-3.17-1.28h-24.07a13.837,13.837,0,0,0-11.45,6.08,15.236,15.236,0,0,0-1.73,3.616,12.868,12.868,0,0,0-.64,4.064,13.681,13.681,0,0,0,1.09,5.44,12.841,12.841,0,0,0,2.05,3.392,14.086,14.086,0,0,0,10.68,4.992h14.72a4.771,4.771,0,0,1,1.92.384,5.361,5.361,0,0,1,2.18,1.792,4.895,4.895,0,0,1,.83,2.688,3.64,3.64,0,0,1-.13.992c-0.08.32-.17,0.63-0.25,0.928a5.347,5.347,0,0,1-1.79,2.176,5,5,0,0,1-2.76.832h-24.06a4.382,4.382,0,0,0-3.17,1.28,4.229,4.229,0,0,0-1.31,3.136,4.476,4.476,0,0,0,4.48,4.48h24.06a13.614,13.614,0,0,0,5.38-1.088h0Zm20.26-.224a4.475,4.475,0,0,0,7.64-3.168v-8.384h17.54a16.821,16.821,0,0,0,6.53-1.28,16.691,16.691,0,0,0,2.81-29.248,17.066,17.066,0,0,0-4.35-2.112,16.071,16.071,0,0,0-4.99-.768h-22.02a4.388,4.388,0,0,0-3.2,1.344,4.279,4.279,0,0,0-1.28,3.136V408.77A4.3,4.3,0,0,0,1196.17,411.938Zm7.64-20.512V375.938h17.54a7.388,7.388,0,0,1,6.46,3.456,7.284,7.284,0,0,1,1.35,4.288,7.727,7.727,0,0,1-.9,3.68,7.782,7.782,0,0,1-6.91,4.064h-17.54Zm79.46-23.136a4.3,4.3,0,0,0-1.31,3.168V385.73h-25.73V371.458a4.48,4.48,0,1,0-8.96,0V408.77a4.48,4.48,0,1,0,8.96,0V394.626h25.73V408.77a4.476,4.476,0,0,0,4.48,4.48,4.2,4.2,0,0,0,3.13-1.312,4.343,4.343,0,0,0,1.28-3.168V371.458a4.346,4.346,0,0,0-1.28-3.168,4.208,4.208,0,0,0-3.13-1.312A4.312,4.312,0,0,0,1283.27,368.29Zm20.8,43.648a4.308,4.308,0,0,0,3.17,1.312,4.2,4.2,0,0,0,3.13-1.312,4.343,4.343,0,0,0,1.28-3.168V371.458a4.346,4.346,0,0,0-1.28-3.168,4.208,4.208,0,0,0-3.13-1.312,4.476,4.476,0,0,0-4.48,4.48V408.77A4.292,4.292,0,0,0,1304.07,411.938ZM1325.48,412a4.335,4.335,0,0,0,7.42-3.1v-26.88l29.5,29.5a4.565,4.565,0,0,0,3.14,1.28,4.425,4.425,0,0,0,1.6-.32,4.058,4.058,0,0,0,1.98-1.632,4.428,4.428,0,0,0,.71-2.4V371.522a4.372,4.372,0,0,0-7.43-3.1,4.173,4.173,0,0,0-1.28,3.1v26.432l-29.5-29.5a3.786,3.786,0,0,0-2.94-1.28,4.278,4.278,0,0,0-1.8.384,4.415,4.415,0,0,0-1.95,1.568,4.1,4.1,0,0,0-.73,2.4V408.9A4.134,4.134,0,0,0,1325.48,412Zm85.24-21.792,15.56-15.616a4.2,4.2,0,0,0,1.28-3.072,4.568,4.568,0,0,0-1.28-3.136,3.945,3.945,0,0,0-1.44-.928,4.835,4.835,0,0,0-1.64-.288,4.172,4.172,0,0,0-3.07,1.216l-15.55,15.68-15.68-15.68a3.945,3.945,0,0,0-1.44-.928,4.757,4.757,0,0,0-3.26,0,3.787,3.787,0,0,0-1.44.928,4.229,4.229,0,0,0-1,1.5,4.83,4.83,0,0,0-.28,1.632,4.031,4.031,0,0,0,1.28,3.072l15.61,15.616-15.55,15.552a4.2,4.2,0,0,0-1.28,3.072,4.833,4.833,0,0,0,.29,1.632,3.539,3.539,0,0,0,.99,1.44,3.618,3.618,0,0,0,1.44.992,4.779,4.779,0,0,0,1.63.288,4.045,4.045,0,0,0,3.07-1.28l15.62-15.552,15.55,15.552a3.618,3.618,0,0,0,1.44.992,4.779,4.779,0,0,0,1.63.288,4.835,4.835,0,0,0,1.64-.288,3.618,3.618,0,0,0,1.44-.992,4.2,4.2,0,0,0,1.28-3.072,4.5,4.5,0,0,0-1.28-3.072Z" transform="translate(-956 -322)"/>
  <rect id="Rectangle_1_copy" data-name="Rectangle 1 copy" class="cls-3" width="134" height="132" rx="24" ry="24"/>
  <path id="Shape_807_copy" data-name="Shape 807 copy" class="cls-2" d="M1053.65,353.951a48.826,48.826,0,0,0-15.38-9.382,43.562,43.562,0,0,0-15.25-2.969h-0.04a43.466,43.466,0,0,0-15.24,2.969,48.849,48.849,0,0,0-15.39,9.382c-7.631,6.867-16.726,19.537-16.726,40.9a3,3,0,0,0,1.523,2.607c0.091,0.051,9.187,5.345,10.914,15.675,1.185,7.1,6.058,12.556,14.089,15.772a40.22,40.22,0,0,0,11.34,2.661,3.054,3.054,0,0,0,2.27-.812,3,3,0,0,0,.96-2.191V407.2a21.74,21.74,0,0,0,6.15.861,22.06,22.06,0,0,0,6.41-.922v21.422a3,3,0,0,0,.96,2.191,3.085,3.085,0,0,0,2.09.818c0.06,0,.12,0,0.19-0.006a40.292,40.292,0,0,0,11.34-2.661c8.03-3.216,12.89-8.671,14.08-15.772a21.989,21.989,0,0,1,6.02-11.621,24.474,24.474,0,0,1,4.9-4.054,3.006,3.006,0,0,0,1.52-2.607C1070.38,373.488,1061.28,360.818,1053.65,353.951Zm-30.67-6.332h0.04a41.115,41.115,0,0,1,23.35,8.19l-5.35,10.112h-36.17L999.6,355.832A41.128,41.128,0,0,1,1022.98,347.619Zm-28.906,64.533c-1.73-10.348-9.086-16.6-12.337-18.9,0.4-16.738,6.992-27.2,13.133-33.345l5.055,9.731,0.027,12.692A28.63,28.63,0,0,0,1003.2,395.6a24.132,24.132,0,0,0,7.42,8.654v20.86C1005.41,424.124,995.569,421.094,994.074,412.152Zm14.526-19.333a22.818,22.818,0,0,1-2.55-10.5l-0.02-10.375h33.77l-0.09,9.919a24.751,24.751,0,0,1-2.6,10.854c-2.16,4.257-6.39,9.33-14.24,9.33C1014.68,402.043,1010.42,396.264,1008.6,392.819Zm43.33,19.333c-0.83,4.956-4.27,8.7-10.23,11.121a33.594,33.594,0,0,1-6.32,1.832v-21a24.1,24.1,0,0,0,7.18-8.692,30.542,30.542,0,0,0,3.24-13.5l0.12-12.257,5.18-9.788c6.15,6.139,12.77,16.609,13.17,33.381C1061.01,395.555,1053.66,401.8,1051.93,412.152Z" transform="translate(-956 -322)"/>
</svg>
