<svg width="758" height="160" viewBox="0 0 758 160" fill="none" xmlns="http://www.w3.org/2000/svg">
<path d="M0 10C0 4.47715 4.48369 0 10.0145 0H714.246C718.094 0 721.602 2.20127 723.27 5.6633L757.009 75.6633C758.33 78.404 758.33 81.596 757.009 84.3367L723.27 154.337C721.602 157.799 718.094 160 714.246 160H10.0145C4.48359 160 0 155.523 0 150V10Z" fill="white"/>
<path d="M1 10C1 5.0308 5.03461 1 10.0145 1H714.246C717.711 1 720.868 2.98199 722.369 6.09735L756.108 76.0975C757.297 78.5638 757.297 81.4362 756.108 83.9025L722.369 153.903C720.868 157.018 717.711 159 714.246 159H10.0145C5.0345 159 1 154.969 1 150V10Z" stroke="#49C998" stroke-opacity="0.2" stroke-width="2"/>
</svg>
