<svg width="758" height="160" viewBox="0 0 758 160" fill="none" xmlns="http://www.w3.org/2000/svg">
<g filter="url(#filter0_d_18_291)">
<path d="M0 9.875C0 4.42119 4.47186 0 9.98808 0H712.362C716.2 0 719.698 2.17375 721.362 5.59251L755.012 74.7175C756.329 77.424 756.329 80.5761 755.012 83.2825L721.362 152.408C719.698 155.827 716.2 158 712.362 158H9.98808C4.47176 158 0 153.579 0 148.125V9.875Z" fill="white"/>
<path d="M1 9.875C1 4.98418 5.01338 1 9.98808 1H712.362C715.822 1 718.969 2.95961 720.463 6.03006L754.113 75.1552C755.296 77.5854 755.296 80.4146 754.113 82.8448L720.463 151.97L721.282 152.369L720.463 151.97C718.969 155.041 715.822 157 712.362 157H9.98808C5.01327 157 1 153.016 1 148.125V9.875Z" stroke="#49C998" stroke-opacity="0.2" stroke-width="2"/>
</g>
<defs>
<filter id="filter0_d_18_291" x="-6" y="-5" width="768" height="170" filterUnits="userSpaceOnUse" color-interpolation-filters="sRGB">
<feFlood flood-opacity="0" result="BackgroundImageFix"/>
<feColorMatrix in="SourceAlpha" type="matrix" values="0 0 0 0 0 0 0 0 0 0 0 0 0 0 0 0 0 0 127 0" result="hardAlpha"/>
<feOffset dy="1"/>
<feGaussianBlur stdDeviation="3"/>
<feComposite in2="hardAlpha" operator="out"/>
<feColorMatrix type="matrix" values="0 0 0 0 0 0 0 0 0 0 0 0 0 0 0 0 0 0 0.07 0"/>
<feBlend mode="normal" in2="BackgroundImageFix" result="effect1_dropShadow_18_291"/>
<feBlend mode="normal" in="SourceGraphic" in2="effect1_dropShadow_18_291" result="shape"/>
</filter>
</defs>
</svg>
