<svg width="80" height="80" viewBox="0 0 80 80" fill="none" xmlns="http://www.w3.org/2000/svg">
<path opacity="0.5" fill-rule="evenodd" clip-rule="evenodd" d="M70.7105 65.6309C76.5099 58.6897 80 49.7524 80 40C80 17.9086 62.0914 0 40 0C17.9086 0 0 17.9086 0 40C0 50.7443 4.23616 60.4992 11.1294 67.6856L11.5 66.4996L12.5 59.9996L18 55.9996L28 52.4996L33.5 48.4996V43.4996L28 34.9996L27.5 27.9996L29.5 18.4996L37.5 13.4996L46 14.4996L52.5 15.4996L53 20.9996L54 28.9996L53.5 34.4996L47.5 44.9996L48.5 50.4996L60 54.4996L67.5 58.4996L70.5 63.9996L70.7105 65.6309Z" fill="#DDE1E5"/>
<mask id="mask0_5594_9692" style="mask-type:alpha" maskUnits="userSpaceOnUse" x="0" y="0" width="80" height="80">
<circle cx="40" cy="40" r="40" fill="#DDE1E5"/>
</mask>
<g mask="url(#mask0_5594_9692)">
<path d="M71.5885 88.3698C74.4288 88.3698 77.2026 88.3698 79.9765 88.373C80.176 88.373 80.3818 88.392 80.5749 88.449C81.1892 88.6295 81.6167 89.2184 81.5629 89.7662C81.4964 90.4153 80.9517 90.941 80.2836 90.9948C80.1601 91.0043 80.0335 90.9948 79.9068 90.9948C53.7961 90.9948 27.6823 90.9948 1.57164 90.9948C1.38482 90.9948 1.19166 91.0011 1.01118 90.9568C0.358885 90.7985 -0.119251 90.1779 -0.062255 89.5984C0.00740721 88.8954 0.599536 88.3698 1.35949 88.3666C3.49052 88.3603 5.62155 88.3666 7.75575 88.3666C8.4587 88.3666 9.15849 88.3666 9.83611 88.3666C9.66512 87.7618 9.41181 87.1887 9.36114 86.5998C9.28515 85.7163 9.31681 84.8234 9.36114 83.9336C9.46564 81.8216 9.59546 79.7127 9.72529 77.6007C9.91211 74.602 10.1053 71.6002 10.2984 68.6016C10.3871 67.2115 10.4219 65.8151 10.5771 64.4345C10.9475 61.1477 12.4516 58.4816 15.0893 56.4677C17.2203 54.8433 19.687 54.001 22.2487 53.3677C24.842 52.7249 27.3973 51.9586 29.7405 50.6414C30.5226 50.2012 31.2477 49.6376 31.938 49.055C32.584 48.5104 32.9165 47.7789 32.8595 46.8923C32.8215 46.316 32.8151 45.7302 32.8626 45.1539C32.9038 44.6568 32.7265 44.3021 32.3972 43.9538C30.8741 42.3421 29.8735 40.439 29.351 38.2858C29.2814 37.9977 29.1737 37.8109 28.8856 37.6589C27.3308 36.8356 26.6215 35.4455 26.3619 33.7673C26.1782 32.583 26.2891 31.4336 26.7007 30.3095C26.745 30.186 26.7482 30.0309 26.7292 29.8947C26.5962 28.9701 26.3746 28.0487 26.3334 27.1209C26.2447 25.202 26.0991 23.2736 26.6215 21.3801C27.2295 19.1731 28.5088 17.4695 30.4118 16.1997C30.8963 15.8768 31.3332 15.4651 31.7259 15.0345C33.2268 13.3943 35.1362 12.5868 37.2767 12.2828C38.3881 12.1245 39.5154 12.0168 40.6363 12.001C42.5837 11.9725 44.4994 12.248 46.3391 12.9288C48.1092 13.5842 49.9331 13.8471 51.8139 13.7901C52.1116 13.7806 52.4124 13.8027 52.7069 13.7742C53.8215 13.6697 54.3059 14.2492 54.3819 15.3131C54.4548 16.3422 54.2806 17.3333 53.8595 18.2864C53.7803 18.4669 53.7771 18.7519 53.8626 18.9229C54.7587 20.7151 55.1736 22.6182 55.2369 24.6099C55.2907 26.3198 55.1767 28.0138 54.7841 29.6889C54.7271 29.9264 54.7904 30.2145 54.8664 30.4583C55.4902 32.4564 55.354 34.3753 54.2584 36.1833C53.8436 36.8704 53.2198 37.3422 52.5264 37.7317C52.3966 37.8045 52.2541 37.9502 52.2224 38.0864C51.6683 40.4042 50.5885 42.4339 48.9388 44.1501C48.714 44.3844 48.638 44.6283 48.6475 44.9449C48.6696 45.6035 48.6823 46.2622 48.6475 46.9208C48.6031 47.7694 48.942 48.4344 49.5119 49.017C50.5252 50.0556 51.7791 50.7205 53.0805 51.3127C55.4174 52.3734 57.8872 53.0226 60.3634 53.6622C62.7636 54.2828 65.0023 55.2518 66.9116 56.8698C69.1123 58.7317 70.5024 61.0812 70.8317 63.9564C71.0787 66.1127 71.1579 68.2913 71.3067 70.4603C71.4682 72.8193 71.6297 75.1752 71.7785 77.5342C71.8861 79.2694 71.9716 81.0046 72.073 82.7398C72.1236 83.5979 72.1838 84.4592 72.2408 85.3173C72.3136 86.3686 72.0761 87.3597 71.5948 88.3666L71.5885 88.3698ZM61.9118 88.3476C61.9118 88.221 61.9086 88.1165 61.9118 88.0088C61.991 86.3338 62.0733 84.6619 62.1493 82.9868C62.2601 80.5138 62.3646 78.0408 62.4754 75.5678C62.5482 73.9561 62.6274 72.3443 62.7002 70.7326C62.8174 68.1044 62.9346 65.4731 63.0391 62.8418C63.0644 62.237 62.8364 62.0248 62.2316 62.0248C47.8907 62.0248 33.5498 62.0248 19.2057 62.0248C18.6104 62.0248 18.3571 62.3161 18.3951 62.8988C18.4552 63.836 18.4996 64.7733 18.5407 65.7138C18.7085 69.5167 18.8669 73.3196 19.0347 77.1225C19.1519 79.8299 19.2753 82.5372 19.3988 85.2445C19.4463 86.2736 19.5033 87.3027 19.5572 88.3413H61.9118V88.3476ZM16.9575 88.278C16.929 87.6257 16.8942 86.9544 16.8657 86.2799C16.7643 83.8703 16.6662 81.4574 16.5585 79.0477C16.4477 76.5747 16.3242 74.1049 16.207 71.635C16.0867 69.1145 15.9569 66.5972 15.8524 64.0767C15.8239 63.3927 15.7606 62.6803 15.8999 62.0217C16.2545 60.3656 17.5496 59.403 19.2563 59.403C33.5656 59.403 47.878 59.403 62.1904 59.403C62.2696 59.403 62.3488 59.403 62.4248 59.403C64.0048 59.4505 65.3411 60.5619 65.5627 62.1103C65.6577 62.7658 65.5944 63.4497 65.5691 64.1179C65.4994 66.0114 65.4139 67.9081 65.3284 69.8017C65.1954 72.7116 65.0498 75.6216 64.9168 78.5316C64.8281 80.4726 64.7458 82.4137 64.6666 84.3547C64.6128 85.6783 64.5653 87.0051 64.5115 88.3761C65.4297 88.3761 66.2878 88.3761 67.146 88.3761C68.5075 88.3698 69.6316 87.2584 69.6158 85.8936C69.6063 84.9532 69.5525 84.0159 69.4923 83.0786C69.296 79.9533 69.0838 76.8312 68.8812 73.7059C68.6849 70.6598 68.5265 67.6105 68.2954 64.5675C68.1466 62.6106 67.3043 60.9387 65.949 59.5296C64.4196 57.9433 62.5103 57.0091 60.4331 56.3885C58.6282 55.8502 56.7884 55.4164 54.9962 54.8401C52.9602 54.1878 50.9875 53.3582 49.1858 52.1423C47.1434 55.1188 44.3189 56.7305 40.7535 56.74C37.1722 56.7495 34.3255 55.1473 32.2768 52.193C31.7449 52.5001 31.2541 52.8072 30.7443 53.0764C28.1129 54.4538 25.2948 55.2993 22.4291 56.0149C20.2158 56.5658 18.1069 57.3385 16.3179 58.8172C14.2533 60.5239 13.2401 62.7404 13.0944 65.3876C13.0247 66.6542 12.9582 67.9176 12.8791 69.1842C12.7366 71.4831 12.5846 73.7787 12.4389 76.0744C12.363 77.2619 12.287 78.4493 12.2205 79.6367C12.1001 81.7171 11.9671 83.7974 11.8817 85.8778C11.8342 87.0304 12.5909 88.088 13.7372 88.2558C14.7726 88.4078 15.8461 88.2875 16.9575 88.2875V88.278ZM35.0918 24.2299C34.9145 24.5655 34.6992 24.9772 34.4807 25.3888C33.2616 27.675 31.7575 29.7016 29.4144 30.9713C29.2465 31.0631 29.1009 31.2848 29.0502 31.4779C28.7779 32.4532 28.8191 33.4316 29.1927 34.3721C29.4334 34.9801 29.8767 35.4012 30.5638 35.5278C31.2287 35.6482 31.5992 36.0915 31.6911 36.7438C32.052 39.2674 33.2173 41.351 35.1298 43.0134C36.1019 43.8588 37.1532 44.6473 38.4768 44.7866C39.7022 44.9132 40.9466 44.9322 42.1784 44.8816C42.8813 44.8531 43.6413 44.7233 44.2556 44.4066C47.3619 42.8107 49.2364 40.2712 49.7937 36.7976C49.8982 36.1516 50.2212 35.6703 50.883 35.5437C51.7284 35.379 52.2256 34.8534 52.3997 34.0713C52.5454 33.4253 52.5834 32.7445 52.5739 32.0796C52.5707 31.7788 52.4124 31.2975 52.1971 31.212C51.0381 30.7497 50.3574 29.8535 49.7779 28.8276C49.3188 28.0107 48.8755 27.181 48.3562 26.4053C47.6405 25.3318 46.5798 24.8315 45.3005 24.9202C44.3696 24.9867 43.4513 25.1957 42.5204 25.3002C40.9751 25.4743 39.4236 25.5662 37.9005 25.1735C36.96 24.9297 36.0513 24.5624 35.0855 24.2394L35.0918 24.2299ZM51.8519 16.4087C51.5353 16.4087 51.396 16.4119 51.2598 16.4087C49.3979 16.3359 47.555 16.1459 45.7945 15.4746C44.4741 14.968 43.0967 14.6608 41.6876 14.6418C40.3925 14.6228 39.0879 14.6767 37.8055 14.8255C35.874 15.0503 34.2021 15.8134 33.0653 17.5012C32.9006 17.745 32.6157 17.935 32.3528 18.0806C30.1395 19.2997 28.9616 21.1553 28.9077 23.6916C28.8887 24.6162 28.9046 25.5408 28.9046 26.4654C28.9046 27.0069 28.9046 27.5452 28.9046 28.0867L29.0882 28.1373C29.4175 27.8365 29.769 27.5579 30.0762 27.2317C31.5612 25.658 32.4922 23.7518 33.3281 21.7886C33.7809 20.7246 34.7625 20.4745 35.6206 21.2471C36.7542 22.2667 38.1095 22.7005 39.5914 22.8113C41.2443 22.938 42.8592 22.6245 44.4836 22.4029C46.8331 22.083 48.8375 22.7417 50.2845 24.67C50.9843 25.601 51.5131 26.6586 52.1179 27.6592C52.2002 27.7922 52.2794 27.9283 52.3617 28.0613C52.4061 28.0487 52.4472 28.0392 52.4916 28.0265C52.5327 27.4249 52.5897 26.8232 52.6182 26.2216C52.7354 23.7581 52.4409 21.3896 51.0761 19.2491C50.7532 18.7424 50.8577 18.2136 51.1806 17.7038C51.4181 17.3302 51.5923 16.9185 51.8551 16.4087H51.8519ZM35.4845 46.5376C35.5383 47.8042 35.2723 49.0233 34.468 50.0746C34.2686 50.3374 34.2844 50.5242 34.4617 50.7712C36.2634 53.2949 38.6826 54.4411 41.7826 54.0453C44.0308 53.7604 45.7248 52.5824 46.9977 50.7427C47.1719 50.4926 47.1719 50.3057 47.0009 50.0271C46.7033 49.5395 46.4088 49.0233 46.2536 48.4787C46.07 47.8454 46.0383 47.1678 45.9496 46.5725C42.5045 47.9182 39.0277 47.9341 35.4845 46.5376V46.5376Z" fill="#C0C5CA"/>
</g>
<mask id="mask1_5594_9692" style="mask-type:alpha" maskUnits="userSpaceOnUse" x="0" y="0" width="80" height="80">
<circle cx="40" cy="40" r="40" fill="#DDE1E5"/>
</mask>
<g mask="url(#mask1_5594_9692)">
<path d="M71.5885 88.3698C74.4288 88.3698 77.2026 88.3698 79.9765 88.373C80.176 88.373 80.3818 88.392 80.5749 88.449C81.1892 88.6295 81.6167 89.2184 81.5629 89.7662C81.4964 90.4153 80.9517 90.941 80.2836 90.9948C80.1601 91.0043 80.0335 90.9948 79.9068 90.9948C53.7961 90.9948 27.6823 90.9948 1.57164 90.9948C1.38482 90.9948 1.19166 91.0011 1.01118 90.9568C0.358885 90.7985 -0.119251 90.1779 -0.062255 89.5984C0.00740721 88.8954 0.599536 88.3698 1.35949 88.3666C3.49052 88.3603 5.62155 88.3666 7.75575 88.3666C8.4587 88.3666 9.15849 88.3666 9.83611 88.3666C9.66512 87.7618 9.41181 87.1887 9.36114 86.5998C9.28515 85.7163 9.31681 84.8234 9.36114 83.9336C9.46564 81.8216 9.59546 79.7127 9.72529 77.6007C9.91211 74.602 10.1053 71.6002 10.2984 68.6016C10.3871 67.2115 10.4219 65.8151 10.5771 64.4345C10.9475 61.1477 12.4516 58.4816 15.0893 56.4677C17.2203 54.8433 19.687 54.001 22.2487 53.3677C24.842 52.7249 27.3973 51.9586 29.7405 50.6414C30.5226 50.2012 31.2477 49.6376 31.938 49.055C32.584 48.5104 32.9165 47.7789 32.8595 46.8923C32.8215 46.316 32.8151 45.7302 32.8626 45.1539C32.9038 44.6568 32.7265 44.3021 32.3972 43.9538C30.8741 42.3421 29.8735 40.439 29.351 38.2858C29.2814 37.9977 29.1737 37.8109 28.8856 37.6589C27.3308 36.8356 26.6215 35.4455 26.3619 33.7673C26.1782 32.583 26.2891 31.4336 26.7007 30.3095C26.745 30.186 26.7482 30.0309 26.7292 29.8947C26.5962 28.9701 26.3746 28.0487 26.3334 27.1209C26.2447 25.202 26.0991 23.2736 26.6215 21.3801C27.2295 19.1731 28.5088 17.4695 30.4118 16.1997C30.8963 15.8768 31.3332 15.4651 31.7259 15.0345C33.2268 13.3943 35.1362 12.5868 37.2767 12.2828C38.3881 12.1245 39.5154 12.0168 40.6363 12.001C42.5837 11.9725 44.4994 12.248 46.3391 12.9288C48.1092 13.5842 49.9331 13.8471 51.8139 13.7901C52.1116 13.7806 52.4124 13.8027 52.7069 13.7742C53.8215 13.6697 54.3059 14.2492 54.3819 15.3131C54.4548 16.3422 54.2806 17.3333 53.8595 18.2864C53.7803 18.4669 53.7771 18.7519 53.8626 18.9229C54.7587 20.7151 55.1736 22.6182 55.2369 24.6099C55.2907 26.3198 55.1767 28.0138 54.7841 29.6889C54.7271 29.9264 54.7904 30.2145 54.8664 30.4583C55.4902 32.4564 55.354 34.3753 54.2584 36.1833C53.8436 36.8704 53.2198 37.3422 52.5264 37.7317C52.3966 37.8045 52.2541 37.9502 52.2224 38.0864C51.6683 40.4042 50.5885 42.4339 48.9388 44.1501C48.714 44.3844 48.638 44.6283 48.6475 44.9449C48.6696 45.6035 48.6823 46.2622 48.6475 46.9208C48.6031 47.7694 48.942 48.4344 49.5119 49.017C50.5252 50.0556 51.7791 50.7205 53.0805 51.3127C55.4174 52.3734 57.8872 53.0226 60.3634 53.6622C62.7636 54.2828 65.0023 55.2518 66.9116 56.8698C69.1123 58.7317 70.5024 61.0812 70.8317 63.9564C71.0787 66.1127 71.1579 68.2913 71.3067 70.4603C71.4682 72.8193 71.6297 75.1752 71.7785 77.5342C71.8861 79.2694 71.9716 81.0046 72.073 82.7398C72.1236 83.5979 72.1838 84.4592 72.2408 85.3173C72.3136 86.3686 72.0761 87.3597 71.5948 88.3666L71.5885 88.3698ZM61.9118 88.3476C61.9118 88.221 61.9086 88.1165 61.9118 88.0088C61.991 86.3338 62.0733 84.6619 62.1493 82.9868C62.2601 80.5138 62.3646 78.0408 62.4754 75.5678C62.5482 73.9561 62.6274 72.3443 62.7002 70.7326C62.8174 68.1044 62.9346 65.4731 63.0391 62.8418C63.0644 62.237 62.8364 62.0248 62.2316 62.0248C47.8907 62.0248 33.5498 62.0248 19.2057 62.0248C18.6104 62.0248 18.3571 62.3161 18.3951 62.8988C18.4552 63.836 18.4996 64.7733 18.5407 65.7138C18.7085 69.5167 18.8669 73.3196 19.0347 77.1225C19.1519 79.8299 19.2753 82.5372 19.3988 85.2445C19.4463 86.2736 19.5033 87.3027 19.5572 88.3413H61.9118V88.3476ZM16.9575 88.278C16.929 87.6257 16.8942 86.9544 16.8657 86.2799C16.7643 83.8703 16.6662 81.4574 16.5585 79.0477C16.4477 76.5747 16.3242 74.1049 16.207 71.635C16.0867 69.1145 15.9569 66.5972 15.8524 64.0767C15.8239 63.3927 15.7606 62.6803 15.8999 62.0217C16.2545 60.3656 17.5496 59.403 19.2563 59.403C33.5656 59.403 47.878 59.403 62.1904 59.403C62.2696 59.403 62.3488 59.403 62.4248 59.403C64.0048 59.4505 65.3411 60.5619 65.5627 62.1103C65.6577 62.7658 65.5944 63.4497 65.5691 64.1179C65.4994 66.0114 65.4139 67.9081 65.3284 69.8017C65.1954 72.7116 65.0498 75.6216 64.9168 78.5316C64.8281 80.4726 64.7458 82.4137 64.6666 84.3547C64.6128 85.6783 64.5653 87.0051 64.5115 88.3761C65.4297 88.3761 66.2878 88.3761 67.146 88.3761C68.5075 88.3698 69.6316 87.2584 69.6158 85.8936C69.6063 84.9532 69.5525 84.0159 69.4923 83.0786C69.296 79.9533 69.0838 76.8312 68.8812 73.7059C68.6849 70.6598 68.5265 67.6105 68.2954 64.5675C68.1466 62.6106 67.3043 60.9387 65.949 59.5296C64.4196 57.9433 62.5103 57.0091 60.4331 56.3885C58.6282 55.8502 56.7884 55.4164 54.9962 54.8401C52.9602 54.1878 50.9875 53.3582 49.1858 52.1423C47.1434 55.1188 44.3189 56.7305 40.7535 56.74C37.1722 56.7495 34.3255 55.1473 32.2768 52.193C31.7449 52.5001 31.2541 52.8072 30.7443 53.0764C28.1129 54.4538 25.2948 55.2993 22.4291 56.0149C20.2158 56.5658 18.1069 57.3385 16.3179 58.8172C14.2533 60.5239 13.2401 62.7404 13.0944 65.3876C13.0247 66.6542 12.9582 67.9176 12.8791 69.1842C12.7366 71.4831 12.5846 73.7787 12.4389 76.0744C12.363 77.2619 12.287 78.4493 12.2205 79.6367C12.1001 81.7171 11.9671 83.7974 11.8817 85.8778C11.8342 87.0304 12.5909 88.088 13.7372 88.2558C14.7726 88.4078 15.8461 88.2875 16.9575 88.2875V88.278ZM35.0918 24.2299C34.9145 24.5655 34.6992 24.9772 34.4807 25.3888C33.2616 27.675 31.7575 29.7016 29.4144 30.9713C29.2465 31.0631 29.1009 31.2848 29.0502 31.4779C28.7779 32.4532 28.8191 33.4316 29.1927 34.3721C29.4334 34.9801 29.8767 35.4012 30.5638 35.5278C31.2287 35.6482 31.5992 36.0915 31.6911 36.7438C32.052 39.2674 33.2173 41.351 35.1298 43.0134C36.1019 43.8588 37.1532 44.6473 38.4768 44.7866C39.7022 44.9132 40.9466 44.9322 42.1784 44.8816C42.8813 44.8531 43.6413 44.7233 44.2556 44.4066C47.3619 42.8107 49.2364 40.2712 49.7937 36.7976C49.8982 36.1516 50.2212 35.6703 50.883 35.5437C51.7284 35.379 52.2256 34.8534 52.3997 34.0713C52.5454 33.4253 52.5834 32.7445 52.5739 32.0796C52.5707 31.7788 52.4124 31.2975 52.1971 31.212C51.0381 30.7497 50.3574 29.8535 49.7779 28.8276C49.3188 28.0107 48.8755 27.181 48.3562 26.4053C47.6405 25.3318 46.5798 24.8315 45.3005 24.9202C44.3696 24.9867 43.4513 25.1957 42.5204 25.3002C40.9751 25.4743 39.4236 25.5662 37.9005 25.1735C36.96 24.9297 36.0513 24.5624 35.0855 24.2394L35.0918 24.2299ZM51.8519 16.4087C51.5353 16.4087 51.396 16.4119 51.2598 16.4087C49.3979 16.3359 47.555 16.1459 45.7945 15.4746C44.4741 14.968 43.0967 14.6608 41.6876 14.6418C40.3925 14.6228 39.0879 14.6767 37.8055 14.8255C35.874 15.0503 34.2021 15.8134 33.0653 17.5012C32.9006 17.745 32.6157 17.935 32.3528 18.0806C30.1395 19.2997 28.9616 21.1553 28.9077 23.6916C28.8887 24.6162 28.9046 25.5408 28.9046 26.4654C28.9046 27.0069 28.9046 27.5452 28.9046 28.0867L29.0882 28.1373C29.4175 27.8365 29.769 27.5579 30.0762 27.2317C31.5612 25.658 32.4922 23.7518 33.3281 21.7886C33.7809 20.7246 34.7625 20.4745 35.6206 21.2471C36.7542 22.2667 38.1095 22.7005 39.5914 22.8113C41.2443 22.938 42.8592 22.6245 44.4836 22.4029C46.8331 22.083 48.8375 22.7417 50.2845 24.67C50.9843 25.601 51.5131 26.6586 52.1179 27.6592C52.2002 27.7922 52.2794 27.9283 52.3617 28.0613C52.4061 28.0487 52.4472 28.0392 52.4916 28.0265C52.5327 27.4249 52.5897 26.8232 52.6182 26.2216C52.7354 23.7581 52.4409 21.3896 51.0761 19.2491C50.7532 18.7424 50.8577 18.2136 51.1806 17.7038C51.4181 17.3302 51.5923 16.9185 51.8551 16.4087H51.8519ZM35.4845 46.5376C35.5383 47.8042 35.2723 49.0233 34.468 50.0746C34.2686 50.3374 34.2844 50.5242 34.4617 50.7712C36.2634 53.2949 38.6826 54.4411 41.7826 54.0453C44.0308 53.7604 45.7248 52.5824 46.9977 50.7427C47.1719 50.4926 47.1719 50.3057 47.0009 50.0271C46.7033 49.5395 46.4088 49.0233 46.2536 48.4787C46.07 47.8454 46.0383 47.1678 45.9496 46.5725C42.5045 47.9182 39.0277 47.9341 35.4845 46.5376V46.5376Z" fill="#C0C5CA"/>
</g>
</svg>
