<svg width="758" height="160" viewBox="0 0 758 160" fill="none" xmlns="http://www.w3.org/2000/svg">
<g filter="url(#filter0_d_18_291)">
<path d="M0 10C0 4.47715 4.48369 0 10.0145 0H714.246C718.094 0 721.602 2.20127 723.27 5.6633L757.009 75.6633C758.33 78.404 758.33 81.596 757.009 84.3367L723.27 154.337C721.602 157.799 718.094 160 714.246 160H10.0145C4.48359 160 0 155.523 0 150V10Z" fill="white"/>
<path d="M1 10C1 5.0308 5.03461 1 10.0145 1H714.246C717.711 1 720.868 2.98198 722.369 6.09735L756.108 76.0975C757.297 78.5638 757.297 81.4362 756.108 83.9025L722.369 153.903C720.868 157.018 717.711 159 714.246 159H10.0145C5.0345 159 1 154.969 1 150V10Z" stroke="#49C998" stroke-opacity="0.2" stroke-width="2"/>
</g>
<defs>
<filter id="filter0_d_18_291" x="-6" y="-5" width="770" height="172" filterUnits="userSpaceOnUse" color-interpolation-filters="sRGB">
<feFlood flood-opacity="0" result="BackgroundImageFix"/>
<feColorMatrix in="SourceAlpha" type="matrix" values="0 0 0 0 0 0 0 0 0 0 0 0 0 0 0 0 0 0 127 0" result="hardAlpha"/>
<feOffset dy="1"/>
<feGaussianBlur stdDeviation="3"/>
<feComposite in2="hardAlpha" operator="out"/>
<feColorMatrix type="matrix" values="0 0 0 0 0 0 0 0 0 0 0 0 0 0 0 0 0 0 0.07 0"/>
<feBlend mode="normal" in2="BackgroundImageFix" result="effect1_dropShadow_18_291"/>
<feBlend mode="normal" in="SourceGraphic" in2="effect1_dropShadow_18_291" result="shape"/>
</filter>
</defs>
</svg>
