<svg xmlns="http://www.w3.org/2000/svg" width="43" height="43" viewBox="0 0 43 43" fill="none">
<circle cx="21.0206" cy="21.0206" r="20.0206" fill="#EBEDEF" stroke="white" stroke-width="2"/>
<mask id="mask0_7722_5565" style="mask-type:alpha" maskUnits="userSpaceOnUse" x="9" y="9" width="24" height="24">
<rect x="9" y="9" width="24" height="24" fill="#D9D9D9"/>
</mask>
<g mask="url(#mask0_7722_5565)">
<path d="M19.9998 17.8L17.0998 20.7C16.9165 20.8834 16.6831 20.975 16.3998 20.975C16.1165 20.975 15.8831 20.8834 15.6998 20.7C15.5165 20.5167 15.4248 20.2834 15.4248 20C15.4248 19.7167 15.5165 19.4834 15.6998 19.3L20.2998 14.7C20.4998 14.5 20.7331 14.4 20.9998 14.4C21.2665 14.4 21.4998 14.5 21.6998 14.7L26.2998 19.3C26.4831 19.4834 26.5748 19.7167 26.5748 20C26.5748 20.2834 26.4831 20.5167 26.2998 20.7C26.1165 20.8834 25.8831 20.975 25.5998 20.975C25.3165 20.975 25.0831 20.8834 24.8998 20.7L21.9998 17.8V26C21.9998 26.2834 21.904 26.5209 21.7123 26.7125C21.5206 26.9042 21.2831 27 20.9998 27C20.7165 27 20.479 26.9042 20.2873 26.7125C20.0956 26.5209 19.9998 26.2834 19.9998 26V17.8Z" fill="#5F6368"/>
</g>
</svg>