<svg width="31" height="31" viewBox="0 0 31 31" fill="none" xmlns="http://www.w3.org/2000/svg">
<path d="M15.5 0C6.94172 0 0 6.94365 0 15.5043C0 24.065 6.93308 31 15.5 31C24.0669 31 31 24.0563 31 15.4957C31 6.93501 24.0583 0 15.5 0ZM23.773 12.5124L15.2061 20.7272C14.9035 21.0126 14.5145 21.1596 14.1255 21.1596C13.7365 21.1596 13.3475 21.0126 13.0449 20.7272L8.75712 16.6198C8.1347 16.0232 8.11741 15.0374 8.71389 14.4148C9.31038 13.7922 10.2959 13.7749 10.9183 14.3715L14.1255 17.4499L21.6118 10.2642C22.2342 9.6675 23.2197 9.69345 23.8162 10.3074C24.4127 10.93 24.3954 11.9158 23.773 12.5124Z" fill="white"/>
</svg>
