<svg xmlns="http://www.w3.org/2000/svg" viewBox="0 0 91.19 91.19"><defs><style>.cls-1,.cls-3{fill:#d15aff;}.cls-1{opacity:0.3;}.cls-2{fill:#9f29ca;}.cls-4{fill:#e5a2ff;}.cls-5{fill:#fff;}</style></defs><title>VIP</title><g id="Layer_2" data-name="Layer 2"><g id="Layer_1-2" data-name="Layer 1"><circle class="cls-1" cx="45.59" cy="45.59" r="45.59"/><rect x="67.34" y="41.59" width="4" height="4"/><rect x="67.34" y="37.59" width="4" height="4"/><rect x="63.34" y="45.59" width="4" height="4"/><rect class="cls-2" x="63.34" y="41.59" width="4" height="4"/><rect class="cls-2" x="63.34" y="37.59" width="4" height="4"/><rect x="63.34" y="33.59" width="4" height="4"/><rect x="59.34" y="49.59" width="4" height="4"/><rect class="cls-2" x="59.34" y="45.59" width="4" height="4"/><rect x="59.34" y="41.59" width="4" height="4"/><rect class="cls-3" x="59.34" y="37.59" width="4" height="4"/><rect class="cls-2" x="59.34" y="33.59" width="4" height="4"/><rect x="59.34" y="29.59" width="4" height="4"/><rect x="55.34" y="53.59" width="4" height="4"/><rect class="cls-2" x="55.34" y="49.59" width="4" height="4"/><rect class="cls-3" x="55.34" y="45.59" width="4" height="4"/><rect x="55.34" y="41.59" width="4" height="4"/><rect class="cls-3" x="55.34" y="37.59" width="4" height="4"/><rect class="cls-3" x="55.34" y="33.59" width="4" height="4"/><rect class="cls-2" x="55.34" y="29.59" width="4" height="4"/><rect x="55.34" y="25.59" width="4" height="4"/><rect x="51.34" y="57.59" width="4" height="4"/><rect class="cls-2" x="51.34" y="53.59" width="4" height="4"/><rect class="cls-3" x="51.34" y="49.59" width="4" height="4"/><rect class="cls-3" x="51.34" y="45.59" width="4" height="4"/><rect x="51.34" y="41.59" width="4" height="4"/><rect class="cls-3" x="51.34" y="37.59" width="4" height="4"/><rect x="51.34" y="33.59" width="4" height="4"/><rect class="cls-3" x="51.34" y="29.59" width="4" height="4"/><rect x="51.34" y="25.59" width="4" height="4"/><rect x="47.34" y="61.59" width="4" height="4"/><rect class="cls-2" x="47.34" y="57.59" width="4" height="4"/><rect class="cls-3" x="47.34" y="53.59" width="4" height="4"/><rect class="cls-3" x="47.34" y="49.59" width="4" height="4"/><rect class="cls-3" x="47.34" y="45.59" width="4" height="4"/><rect x="47.34" y="41.59" width="4" height="4"/><rect x="47.34" y="37.59" width="4" height="4"/><rect class="cls-3" x="47.34" y="33.59" width="4" height="4"/><rect class="cls-3" x="47.34" y="29.59" width="4" height="4"/><rect x="47.34" y="25.59" width="4" height="4"/><rect x="43.34" y="65.59" width="4" height="4"/><rect class="cls-2" x="43.34" y="61.59" width="4" height="4"/><rect x="43.34" y="57.59" width="4" height="4"/><rect x="43.34" y="53.59" width="4" height="4"/><rect x="43.34" y="49.59" width="4" height="4"/><rect x="43.34" y="45.59" width="4" height="4"/><rect x="43.34" y="41.59" width="4" height="4"/><rect class="cls-3" x="43.34" y="37.59" width="4" height="4"/><rect class="cls-3" x="43.34" y="33.59" width="4" height="4"/><rect class="cls-3" x="43.34" y="29.59" width="4" height="4"/><rect x="43.34" y="25.59" width="4" height="4"/><rect x="39.34" y="61.59" width="4" height="4"/><rect class="cls-4" x="39.34" y="57.59" width="4" height="4"/><rect class="cls-3" x="39.34" y="53.59" width="4" height="4"/><rect class="cls-3" x="39.34" y="49.59" width="4" height="4"/><rect class="cls-3" x="39.34" y="45.59" width="4" height="4"/><rect x="39.34" y="41.59" width="4" height="4"/><rect x="39.34" y="37.59" width="4" height="4"/><rect class="cls-3" x="39.34" y="33.59" width="4" height="4"/><rect class="cls-3" x="39.34" y="29.59" width="4" height="4"/><rect x="39.34" y="25.59" width="4" height="4"/><rect x="35.34" y="57.59" width="4" height="4"/><rect class="cls-4" x="35.34" y="53.59" width="4" height="4"/><rect class="cls-3" x="35.34" y="49.59" width="4" height="4"/><rect class="cls-3" x="35.34" y="45.59" width="4" height="4"/><rect x="35.34" y="41.59" width="4" height="4"/><rect class="cls-3" x="35.34" y="37.59" width="4" height="4"/><rect x="35.34" y="33.59" width="4" height="4"/><rect class="cls-3" x="35.34" y="29.59" width="4" height="4"/><rect x="35.34" y="25.59" width="4" height="4"/><rect x="31.34" y="53.59" width="4" height="4"/><rect class="cls-4" x="31.34" y="49.59" width="4" height="4"/><rect class="cls-3" x="31.34" y="45.59" width="4" height="4"/><rect x="31.34" y="41.59" width="4" height="4"/><rect class="cls-3" x="31.34" y="37.59" width="4" height="4"/><rect class="cls-5" x="31.34" y="33.59" width="4" height="4"/><rect class="cls-4" x="31.34" y="29.59" width="4" height="4"/><rect x="31.34" y="25.59" width="4" height="4"/><rect x="27.34" y="49.59" width="4" height="4"/><rect class="cls-4" x="27.34" y="45.59" width="4" height="4"/><rect x="27.34" y="41.59" width="4" height="4"/><rect class="cls-5" x="27.34" y="37.59" width="4" height="4"/><rect class="cls-4" x="27.34" y="33.59" width="4" height="4"/><rect x="27.34" y="29.59" width="4" height="4"/><rect x="23.34" y="45.59" width="4" height="4"/><rect class="cls-4" x="23.34" y="41.59" width="4" height="4"/><rect class="cls-4" x="23.34" y="37.59" width="4" height="4"/><rect x="23.34" y="33.59" width="4" height="4"/><rect x="19.34" y="41.59" width="4" height="4"/><rect x="19.34" y="37.59" width="4" height="4"/></g></g></svg>