<svg xmlns="http://www.w3.org/2000/svg" viewBox="0 0 360.47 270.35"><defs><style>.cls-1{fill:#fff;}.cls-2{fill:#151e27;}.cls-3{fill:#2495f0;}</style></defs><title>Whale</title><g id="Layer_2" data-name="Layer 2"><g id="ICON"><rect class="cls-1" x="30.3" y="188.67" width="149.93" height="66.5"/><circle class="cls-2" cx="165.17" cy="145.17" r="37.5"/><path class="cls-3" d="M0,67.59V191.5a11.25,11.25,0,0,0,11.26,11.26H22.53v45.06a22.54,22.54,0,0,0,22.53,22.53H225.29c22.53,0,45.06-11.26,56.32-22.53s65-76.3,73.22-84.48,7.75-16.9-5.63-16.9H337.94V56.31c0-11.28,22.53-21.34,22.53-33.78V0H337.94a22.52,22.52,0,0,0-22.53,22.53A22.52,22.52,0,0,0,292.88,0H270.35V22.53c0,12.45,22.53,22.53,22.53,33.78V67.59a11.25,11.25,0,0,1-11.26,11.26H270.35C225.29,78.85,214,0,169,0H67.59A67.6,67.6,0,0,0,0,67.59Zm144.93,69.85a20.78,20.78,0,1,1,20.78,20.78A20.78,20.78,0,0,1,144.93,137.44ZM33.79,214a11.25,11.25,0,0,1,11.26-11.26H169V214a33.79,33.79,0,0,1-33.79,33.79H33.79Z"/></g></g></svg>