<svg xmlns="http://www.w3.org/2000/svg" width="17" height="15" viewBox="0 0 17 15" fill="none">
  <path fill-rule="evenodd" clip-rule="evenodd" d="M15.8683 0.957333C15.5375 0.649333 15.158 0.5 14.7299 0.5L5.97294 0.499999C5.54483 0.499999 5.16536 0.658667 4.83454 0.976C4.50372 1.29333 4.33832 1.65733 4.33832 2.068L4.33831 5.16667L5.97294 5.16667L5.97294 2.03067L14.7299 2.03067L14.7299 12.9693L5.97294 12.9693L5.97294 9.83333L4.33831 9.83333L4.33831 12.9693C4.33831 13.38 4.50372 13.7347 4.83454 14.0427C5.16536 14.3507 5.54482 14.5 5.97294 14.5L14.7299 14.5C15.158 14.5 15.5375 14.3507 15.8683 14.0427C16.1991 13.744 16.3645 13.38 16.3645 12.9693L16.3645 2.068C16.3645 1.62933 16.1991 1.26533 15.8683 0.957333ZM8.13422 8.16673L8.13422 10.5001L11.3646 7.4014L8.13422 4.30273L8.13422 6.63607L6.87487e-07 6.63607L5.53672e-07 8.16673L8.13422 8.16673Z" fill="white"/>
</svg>