<svg xmlns="http://www.w3.org/2000/svg" width="68" height="69" viewBox="0 0 68 69" fill="none">
  <rect x="3.06152" y="2.15039" width="60.8768" height="61.6995" fill="white"/>
  <g filter="url(#filter0_d_9234_16460)">
    <path d="M16.6491 8.73145H51.1737C54.5918 8.73145 57.3572 11.5454 57.3572 15.0234V50.1537C57.3572 53.6318 54.5918 56.4457 51.1737 56.4457H16.6491C13.231 56.4457 10.4656 53.6318 10.4656 50.1537V15.0234C10.4656 11.5454 13.231 8.73145 16.6491 8.73145Z" fill="#618AFF"/>
  </g>
  <path d="M44.8256 20.5343C43.2202 19.0854 41.3706 17.9642 39.3466 17.188C37.5318 16.498 35.6473 16.1357 33.9199 16.1357H33.9024C32.175 16.1357 30.2905 16.498 28.4758 17.188C26.4517 17.9642 24.6021 19.0854 22.9968 20.5343C20.2922 22.9837 17.0466 27.503 17.0466 35.11C17.0466 35.4895 17.256 35.8517 17.5876 36.0415C17.6225 36.0587 20.8505 37.9389 21.4787 41.6302C21.8975 44.1659 23.6424 46.0978 26.4866 47.2535C28.5281 48.0815 30.4475 48.2022 30.5173 48.2022C30.814 48.2195 31.1106 48.116 31.32 47.909C31.5294 47.702 31.669 47.426 31.669 47.1328V39.5258C32.3669 39.7328 33.0998 39.8363 33.8501 39.8363C34.6528 39.8363 35.4205 39.7328 36.1359 39.5086V47.15C36.1359 47.4433 36.2581 47.7365 36.4849 47.9262C36.6943 48.116 36.956 48.2195 37.2352 48.2195C37.2527 48.2195 37.2876 48.2195 37.305 48.2195C37.3923 48.2195 39.2942 48.0987 41.3357 47.2708C44.1974 46.1323 45.9249 44.1831 46.3436 41.6475C46.6054 40.1296 47.3208 38.7324 48.4899 37.5077C49.3972 36.5589 50.2348 36.0587 50.2348 36.0587C50.5663 35.869 50.7757 35.5067 50.7757 35.1273C50.7757 27.503 47.5476 22.9837 44.8256 20.5343ZM33.9024 18.2919C36.1185 18.2919 39.3466 19.0854 42.2256 21.207L40.3237 24.8122H27.4463L25.5792 21.207C28.4758 19.0681 31.7039 18.2919 33.9024 18.2919ZM23.6075 41.2853C22.9968 37.5939 20.3794 35.3687 19.2103 34.5408C19.3499 28.5725 21.7055 24.8467 23.8867 22.656L25.6839 26.1231L25.7014 30.6424C25.7014 32.2984 26.1027 33.937 26.853 35.3687C27.5335 36.6624 28.4234 37.6974 29.5053 38.4564V45.8908C27.6557 45.5458 24.1484 44.4764 23.6075 41.2853ZM28.7899 34.3855C28.1966 33.2643 27.8825 31.9706 27.8825 30.6424V26.9511H39.9049L39.87 30.4872C39.8526 31.8499 39.5385 33.1781 38.9452 34.351C38.1775 35.869 36.6768 37.6802 33.8675 37.6802C30.9535 37.6802 29.4355 35.6275 28.7899 34.3855ZM44.2148 41.2853C43.9182 43.0447 42.6968 44.3901 40.568 45.2526C39.7479 45.5803 38.9452 45.7873 38.3171 45.9081V38.4219C39.3465 37.6629 40.219 36.6279 40.8646 35.317C41.5975 33.8508 41.9988 32.1949 42.0163 30.5044L42.0512 26.1404L43.9182 22.656C46.1168 24.8467 48.4724 28.5725 48.612 34.558C47.4429 35.3687 44.8256 37.5939 44.2148 41.2853Z" fill="white"/>
  <defs>
    <filter id="filter0_d_9234_16460" x="0.465576" y="0.731445" width="66.8916" height="67.7144" filterUnits="userSpaceOnUse" color-interpolation-filters="sRGB">
      <feFlood flood-opacity="0" result="BackgroundImageFix"/>
      <feColorMatrix in="SourceAlpha" type="matrix" values="0 0 0 0 0 0 0 0 0 0 0 0 0 0 0 0 0 0 127 0" result="hardAlpha"/>
      <feOffset dy="2"/>
      <feGaussianBlur stdDeviation="5"/>
      <feComposite in2="hardAlpha" operator="out"/>
      <feColorMatrix type="matrix" values="0 0 0 0 0.380392 0 0 0 0 0.541176 0 0 0 0 1 0 0 0 0.5 0"/>
      <feBlend mode="normal" in2="BackgroundImageFix" result="effect1_dropShadow_9234_16460"/>
      <feBlend mode="normal" in="SourceGraphic" in2="effect1_dropShadow_9234_16460" result="shape"/>
    </filter>
  </defs>
</svg>