<svg width="80" height="80" viewBox="0 0 80 80" fill="none" xmlns="http://www.w3.org/2000/svg">
<path opacity="0.3" d="M40 80C62.0914 80 80 62.0914 80 40C80 17.9086 62.0914 0 40 0C17.9086 0 0 17.9086 0 40C0 62.0914 17.9086 80 40 80Z" fill="#2596F1"/>
<path d="M51.2285 41.7539H47.7197V45.2627H51.2285V41.7539Z" fill="#44A4D4"/>
<path d="M58.2461 41.7539H54.7373V45.2627H58.2461V41.7539Z" fill="#2596F1"/>
<path d="M58.2461 38.2451H54.7373V41.7539H58.2461V38.2451Z" fill="#2596F1"/>
<path d="M58.2461 34.7363H54.7373V38.2451H58.2461V34.7363Z" fill="#2596F1"/>
<path d="M58.2461 31.2275H54.7373V34.7363H58.2461V31.2275Z" fill="#63BBF7"/>
<path d="M58.2461 27.7188H54.7373V31.2275H58.2461V27.7188Z" fill="black"/>
<path d="M47.7197 41.7539H44.2109V45.2627H47.7197V41.7539Z" fill="#44A4D4"/>
<path d="M54.7373 41.7539H51.2285V45.2627H54.7373V41.7539Z" fill="#2596F1"/>
<path d="M54.7373 38.2451H51.2285V41.7539H54.7373V38.2451Z" fill="#2596F1"/>
<path d="M54.7373 48.7715H51.2285V52.2803H54.7373V48.7715Z" fill="#2596F1"/>
<path d="M54.7373 45.2627H51.2285V48.7715H54.7373V45.2627Z" fill="#2596F1"/>
<path d="M65.2637 20.7012H61.7549V24.2099H65.2637V20.7012Z" fill="#63BBF7"/>
<path d="M58.2461 20.7012H54.7373V24.2099H58.2461V20.7012Z" fill="#63BBF7"/>
<path d="M65.2637 17.1924H61.7549V20.7012H65.2637V17.1924Z" fill="black"/>
<path d="M58.2461 17.1924H54.7373V20.7012H58.2461V17.1924Z" fill="black"/>
<path d="M61.7549 20.7012H58.2461V24.2099H61.7549V20.7012Z" fill="black"/>
<path d="M68.7724 20.7012H65.2637V24.2099H68.7724V20.7012Z" fill="black"/>
<path d="M40.7021 55.7891H37.1934V59.2978H40.7021V55.7891Z" fill="black"/>
<path d="M44.2109 55.7891H40.7021V59.2978H44.2109V55.7891Z" fill="#63BBF7"/>
<path d="M44.2109 52.2803H40.7021V55.789H44.2109V52.2803Z" fill="#63BBF7"/>
<path d="M44.2109 48.7715H40.7021V52.2803H44.2109V48.7715Z" fill="#2596F1"/>
<path d="M47.7197 52.2803H44.2109V55.789H47.7197V52.2803Z" fill="#0A609B"/>
<path d="M51.2285 52.2803H47.7197V55.789H51.2285V52.2803Z" fill="#0A609B"/>
<path d="M54.7373 55.7891H51.2285V59.2978H54.7373V55.7891Z" fill="black"/>
<path d="M51.2285 55.7891H47.7197V59.2978H51.2285V55.7891Z" fill="black"/>
<path d="M47.7197 48.7715H44.2109V52.2803H47.7197V48.7715Z" fill="#2596F1"/>
<path d="M51.2285 48.7715H47.7197V52.2803H51.2285V48.7715Z" fill="#2596F1"/>
<path d="M44.2109 41.7539H40.7021V45.2627H44.2109V41.7539Z" fill="#44A4D4"/>
<path d="M44.2109 38.2451H40.7021V41.7539H44.2109V38.2451Z" fill="#2596F1"/>
<path d="M44.2109 34.7363H40.7021V38.2451H44.2109V34.7363Z" fill="#2596F1"/>
<path d="M44.2109 31.2275H40.7021V34.7363H44.2109V31.2275Z" fill="#2596F1"/>
<path d="M47.7197 31.2275H44.2109V34.7363H47.7197V31.2275Z" fill="#2596F1"/>
<path d="M54.7373 34.7363H51.2285V38.2451H54.7373V34.7363Z" fill="#2596F1"/>
<path d="M51.2285 38.2451H47.7197V41.7539H51.2285V38.2451Z" fill="#2596F1"/>
<path d="M51.2285 34.7363H47.7197V38.2451H51.2285V34.7363Z" fill="#2596F1"/>
<path d="M47.7197 38.2451H44.2109V41.7539H47.7197V38.2451Z" fill="#2596F1"/>
<path d="M47.7197 34.7363H44.2109V38.2451H47.7197V34.7363Z" fill="#2596F1"/>
<path d="M40.7021 52.2803H37.1934V55.789H40.7021V52.2803Z" fill="#0A609B"/>
<path d="M37.1933 52.2803H33.6846V55.789H37.1933V52.2803Z" fill="#0A609B"/>
<path d="M40.7021 48.7715H37.1934V52.2803H40.7021V48.7715Z" fill="#2596F1"/>
<path d="M40.7021 41.7539H37.1934V45.2627H40.7021V41.7539Z" fill="#44A4D4"/>
<path d="M40.7021 38.2451H37.1934V41.7539H40.7021V38.2451Z" fill="#2596F1"/>
<path d="M40.7021 34.7363H37.1934V38.2451H40.7021V34.7363Z" fill="#2596F1"/>
<path d="M40.7021 31.2275H37.1934V34.7363H40.7021V31.2275Z" fill="#2596F1"/>
<path d="M40.7021 27.7188H37.1934V31.2275H40.7021V27.7188Z" fill="#2596F1"/>
<path d="M40.7021 24.21H37.1934V27.7187H40.7021V24.21Z" fill="#63BBF7"/>
<path d="M44.2109 24.21H40.7021V27.7187H44.2109V24.21Z" fill="black"/>
<path d="M40.7021 20.7012H37.1934V24.2099H40.7021V20.7012Z" fill="black"/>
<path d="M54.7373 31.2275H51.2285V34.7363H54.7373V31.2275Z" fill="black"/>
<path d="M51.2285 31.2275H47.7197V34.7363H51.2285V31.2275Z" fill="black"/>
<path d="M47.7197 27.7188H44.2109V31.2275H47.7197V27.7188Z" fill="black"/>
<path d="M44.2109 27.7188H40.7021V31.2275H44.2109V27.7188Z" fill="#2596F1"/>
<path d="M37.1933 55.7891H33.6846V59.2978H37.1933V55.7891Z" fill="black"/>
<path d="M37.1933 48.7715H33.6846V52.2803H37.1933V48.7715Z" fill="#DCDCDC"/>
<path d="M37.1933 38.2451H33.6846V41.7539H37.1933V38.2451Z" fill="#2596F1"/>
<path d="M37.1933 34.7363H33.6846V38.2451H37.1933V34.7363Z" fill="#2596F1"/>
<path d="M37.1933 31.2275H33.6846V34.7363H37.1933V31.2275Z" fill="#44A4D4"/>
<path d="M37.1933 31.2275H33.6846V34.7363H37.1933V31.2275Z" fill="#44A4D4"/>
<path d="M37.1933 31.2275H33.6846V34.7363H37.1933V31.2275Z" fill="#2596F1"/>
<path d="M37.1933 27.7188H33.6846V31.2275H37.1933V27.7188Z" fill="#2596F1"/>
<path d="M37.1933 24.21H33.6846V27.7187H37.1933V24.21Z" fill="#63BBF7"/>
<path d="M37.1933 20.7012H33.6846V24.2099H37.1933V20.7012Z" fill="black"/>
<path d="M33.6846 55.7891H30.1758V59.2978H33.6846V55.7891Z" fill="black"/>
<path d="M33.6846 52.2803H30.1758V55.789H33.6846V52.2803Z" fill="#DCDCDC"/>
<path d="M33.6846 48.7715H30.1758V52.2803H33.6846V48.7715Z" fill="#C1C1C1"/>
<path d="M33.6846 38.2451H30.1758V41.7539H33.6846V38.2451Z" fill="white"/>
<path d="M37.1933 38.2451H33.6846V41.7539H37.1933V38.2451Z" fill="black"/>
<path d="M33.6846 34.7363H30.1758V38.2451H33.6846V34.7363Z" fill="#2596F1"/>
<path d="M33.6846 31.2275H30.1758V34.7363H33.6846V31.2275Z" fill="#44A4D4"/>
<path d="M33.6846 31.2275H30.1758V34.7363H33.6846V31.2275Z" fill="#44A4D4"/>
<path d="M33.6846 31.2275H30.1758V34.7363H33.6846V31.2275Z" fill="#2596F1"/>
<path d="M33.6846 27.7188H30.1758V31.2275H33.6846V27.7188Z" fill="#2596F1"/>
<path d="M33.6846 24.21H30.1758V27.7187H33.6846V24.21Z" fill="#63BBF7"/>
<path d="M33.6846 20.7012H30.1758V24.2099H33.6846V20.7012Z" fill="black"/>
<path d="M30.1758 52.2803H26.667V55.789H30.1758V52.2803Z" fill="white"/>
<path d="M30.1758 55.7891H26.667V59.2978H30.1758V55.7891Z" fill="black"/>
<path d="M30.1758 48.7715H26.667V52.2803H30.1758V48.7715Z" fill="#DCDCDC"/>
<path d="M30.1758 38.2451H26.667V41.7539H30.1758V38.2451Z" fill="#2596F1"/>
<path d="M26.667 38.2451H23.1582V41.7539H26.667V38.2451Z" fill="#2596F1"/>
<path d="M30.1758 34.7363H26.667V38.2451H30.1758V34.7363Z" fill="#2596F1"/>
<path d="M26.667 34.7363H23.1582V38.2451H26.667V34.7363Z" fill="#2596F1"/>
<path d="M30.1758 31.2275H26.667V34.7363H30.1758V31.2275Z" fill="#44A4D4"/>
<path d="M30.1758 31.2275H26.667V34.7363H30.1758V31.2275Z" fill="#44A4D4"/>
<path d="M30.1758 31.2275H26.667V34.7363H30.1758V31.2275Z" fill="#2596F1"/>
<path d="M30.1758 27.7188H26.667V31.2275H30.1758V27.7188Z" fill="#2596F1"/>
<path d="M30.1758 24.21H26.667V27.7187H30.1758V24.21Z" fill="#63BBF7"/>
<path d="M30.1758 20.7012H26.667V24.2099H30.1758V20.7012Z" fill="black"/>
<path d="M26.667 52.2803H23.1582V55.789H26.667V52.2803Z" fill="#DCDCDC"/>
<path d="M26.667 48.7715H23.1582V52.2803H26.667V48.7715Z" fill="#C1C1C1"/>
<path d="M23.1582 38.2451H19.6494V41.7539H23.1582V38.2451Z" fill="#44A4D4"/>
<path d="M23.1582 38.2451H19.6494V41.7539H23.1582V38.2451Z" fill="#2596F1"/>
<path d="M19.6494 38.2451H16.1406V41.7539H19.6494V38.2451Z" fill="#63BBF7"/>
<path d="M23.1582 34.7363H19.6494V38.2451H23.1582V34.7363Z" fill="#44A4D4"/>
<path d="M26.667 31.2275H23.1582V34.7363H26.667V31.2275Z" fill="#44A4D4"/>
<path d="M26.667 31.2275H23.1582V34.7363H26.667V31.2275Z" fill="#44A4D4"/>
<path d="M26.667 31.2275H23.1582V34.7363H26.667V31.2275Z" fill="#2596F1"/>
<path d="M26.667 27.7188H23.1582V31.2275H26.667V27.7188Z" fill="#2596F1"/>
<path d="M26.667 24.21H23.1582V27.7187H26.667V24.21Z" fill="#63BBF7"/>
<path d="M23.1582 48.7715H19.6494V52.2803H23.1582V48.7715Z" fill="#DCDCDC"/>
<path d="M44.2109 45.2627H40.7021V48.7715H44.2109V45.2627Z" fill="#2596F1"/>
<path d="M47.7197 45.2627H44.2109V48.7715H47.7197V45.2627Z" fill="#2596F1"/>
<path d="M51.2285 45.2627H47.7197V48.7715H51.2285V45.2627Z" fill="#2596F1"/>
<path d="M40.7021 45.2627H37.1934V48.7715H40.7021V45.2627Z" fill="#2596F1"/>
<path d="M37.1933 45.2627H33.6846V48.7715H37.1933V45.2627Z" fill="black"/>
<path d="M33.6846 45.2627H30.1758V48.7715H33.6846V45.2627Z" fill="black"/>
<path d="M30.1758 45.2627H26.667V48.7715H30.1758V45.2627Z" fill="black"/>
<path d="M26.667 45.2627H23.1582V48.7715H26.667V45.2627Z" fill="black"/>
<path d="M23.1582 45.2627H19.6494V48.7715H23.1582V45.2627Z" fill="black"/>
<path d="M23.1582 34.7363H19.6494V38.2451H23.1582V34.7363Z" fill="#2596F1"/>
<path d="M23.1582 31.2275H19.6494V34.7363H23.1582V31.2275Z" fill="#2596F1"/>
<path d="M23.1582 27.7188H19.6494V31.2275H23.1582V27.7188Z" fill="#63BBF7"/>
<path d="M23.1582 24.21H19.6494V27.7187H23.1582V24.21Z" fill="#63BBF7"/>
<path d="M26.667 20.7012H23.1582V24.2099H26.667V20.7012Z" fill="black"/>
<path d="M23.1582 20.7012H19.6494V24.2099H23.1582V20.7012Z" fill="black"/>
<path d="M30.1758 41.7539H26.667V45.2627H30.1758V41.7539Z" fill="#2596F1"/>
<path d="M26.667 41.7539H23.1582V45.2627H26.667V41.7539Z" fill="#2596F1"/>
<path d="M23.1582 41.7539H19.6494V45.2627H23.1582V41.7539Z" fill="#2596F1"/>
<path d="M19.6494 41.7539H16.1406V45.2627H19.6494V41.7539Z" fill="#63BBF7"/>
<path d="M47.7197 41.7539H44.2109V45.2627H47.7197V41.7539Z" fill="#2596F1"/>
<path d="M51.2285 41.7539H47.7197V45.2627H51.2285V41.7539Z" fill="#2596F1"/>
<path d="M19.6494 45.2627H16.1406V48.7715H19.6494V45.2627Z" fill="black"/>
<path d="M19.6494 48.7715H16.1406V52.2803H19.6494V48.7715Z" fill="black"/>
<path d="M19.6494 24.21H16.1406V27.7187H19.6494V24.21Z" fill="black"/>
<path d="M19.6494 27.7188H16.1406V31.2275H19.6494V27.7188Z" fill="#63BBF7"/>
<path d="M19.6494 31.2275H16.1406V34.7363H19.6494V31.2275Z" fill="#63BBF7"/>
<path d="M19.6494 34.7363H16.1406V38.2451H19.6494V34.7363Z" fill="#63BBF7"/>
<path d="M16.1406 38.2451H12.6318V41.7539H16.1406V38.2451Z" fill="black"/>
<path d="M16.1406 41.7539H12.6318V45.2627H16.1406V41.7539Z" fill="black"/>
<path d="M16.1406 45.2627H12.6318V48.7715H16.1406V45.2627Z" fill="black"/>
<path d="M19.6494 52.2803H16.1406V55.789H19.6494V52.2803Z" fill="black"/>
<path d="M16.1406 27.7188H12.6318V31.2275H16.1406V27.7188Z" fill="black"/>
<path d="M16.1406 31.2275H12.6318V34.7363H16.1406V31.2275Z" fill="black"/>
<path d="M16.1406 34.7363H12.6318V38.2451H16.1406V34.7363Z" fill="black"/>
<path d="M23.1582 52.2803H19.6494V55.789H23.1582V52.2803Z" fill="white"/>
<path d="M58.2461 45.2627H54.7373V48.7715H58.2461V45.2627Z" fill="#44A4D4"/>
<path d="M61.7549 41.7539H58.2461V45.2627H61.7549V41.7539Z" fill="#2596F1"/>
<path d="M61.7549 38.2451H58.2461V41.7539H61.7549V38.2451Z" fill="#2596F1"/>
<path d="M61.7549 34.7363H58.2461V38.2451H61.7549V34.7363Z" fill="#2596F1"/>
<path d="M61.7549 31.2275H58.2461V34.7363H61.7549V31.2275Z" fill="#2596F1"/>
<path d="M61.7549 27.7188H58.2461V31.2275H61.7549V27.7188Z" fill="#63BBF7"/>
<path d="M58.2461 52.2803H54.7373V55.789H58.2461V52.2803Z" fill="black"/>
<path d="M58.2461 45.2627H54.7373V48.7715H58.2461V45.2627Z" fill="#2596F1"/>
<path d="M54.7373 52.2803H51.2285V55.789H54.7373V52.2803Z" fill="#0A609B"/>
<path d="M58.2461 48.7715H54.7373V52.2803H58.2461V48.7715Z" fill="#0A609B"/>
<path d="M61.7549 45.2627H58.2461V48.7715H61.7549V45.2627Z" fill="black"/>
<path d="M65.2637 41.7539H61.7549V45.2627H65.2637V41.7539Z" fill="black"/>
<path d="M65.2637 38.2451H61.7549V41.7539H65.2637V38.2451Z" fill="black"/>
<path d="M65.2637 34.7363H61.7549V38.2451H65.2637V34.7363Z" fill="black"/>
<path d="M65.2637 31.2275H61.7549V34.7363H65.2637V31.2275Z" fill="black"/>
<path d="M65.2637 27.7188H61.7549V31.2275H65.2637V27.7188Z" fill="black"/>
<path d="M58.2461 24.21H54.7373V27.7187H58.2461V24.21Z" fill="#63BBF7"/>
<path d="M61.7549 24.21H58.2461V27.7187H61.7549V24.21Z" fill="#63BBF7"/>
<path d="M54.7373 24.21H51.2285V27.7187H54.7373V24.21Z" fill="black"/>
<path d="M54.7373 20.7012H51.2285V24.2099H54.7373V20.7012Z" fill="black"/>
<path d="M65.2637 24.21H61.7549V27.7187H65.2637V24.21Z" fill="#63BBF7"/>
<path d="M68.7724 24.21H65.2637V27.7187H68.7724V24.21Z" fill="black"/>
<path d="M61.7549 48.7715H58.2461V52.2803H61.7549V48.7715Z" fill="black"/>
<path d="M47.7197 55.7891H44.2109V59.2978H47.7197V55.7891Z" fill="black"/>
<path d="M26.667 55.7891H23.1582V59.2978H26.667V55.7891Z" fill="black"/>
<path d="M23.1582 55.7891H19.6494V59.2978H23.1582V55.7891Z" fill="black"/>
<path d="M44.2109 41.7539H40.7021V45.2627H44.2109V41.7539Z" fill="#2596F1"/>
<path d="M40.7021 41.7539H37.1934V45.2627H40.7021V41.7539Z" fill="#2596F1"/>
<path d="M37.1933 41.7539H33.6846V45.2627H37.1933V41.7539Z" fill="#2596F1"/>
<path d="M33.6846 41.7539H30.1758V45.2627H33.6846V41.7539Z" fill="#2596F1"/>
<path d="M44.2109 59.2979H40.7021V62.8066H44.2109V59.2979Z" fill="#63BBF7"/>
<path d="M47.7197 59.2979H44.2109V62.8066H47.7197V59.2979Z" fill="black"/>
<path d="M33.6846 59.2979H30.1758V62.8066H33.6846V59.2979Z" fill="black"/>
<path d="M30.1758 59.2979H26.667V62.8066H30.1758V59.2979Z" fill="#2596F1"/>
</svg>
