<svg width="67" height="88" viewBox="0 0 67 88" fill="none" xmlns="http://www.w3.org/2000/svg">
<g clip-path="url(#clip0_3574_61151)">
<path d="M25.7691 66.8701H20.6152V71.9878H25.7691V66.8701Z" fill="#63D3FF"/>
<path d="M25.7691 71.9873H20.6152V77.1049H25.7691V71.9873Z" fill="#63D3FF"/>
<path d="M25.7691 61.7524H20.6152V66.8701H25.7691V61.7524Z" fill="#63D3FF"/>
<path d="M25.7691 77.1055H20.6152V82.2231H25.7691V77.1055Z" fill="#63D3FF"/>
<path d="M30.9224 61.7524H25.7686V66.8701H30.9224V61.7524Z" fill="#63D3FF"/>
<path d="M30.9224 71.9873H25.7686V77.1049H30.9224V71.9873Z" fill="#63D3FF"/>
<path d="M30.9224 66.8701H25.7686V71.9878H30.9224V66.8701Z" fill="#63D3FF"/>
<path d="M41.23 61.7524H36.0762V66.8701H41.23V61.7524Z" fill="#63D3FF"/>
<path d="M36.0757 61.7524H30.9219V66.8701H36.0757V61.7524Z" fill="#63D3FF"/>
<path d="M41.23 66.8701H36.0762V71.9878H41.23V66.8701Z" fill="#63D3FF"/>
<path d="M41.23 71.9873H36.0762V77.1049H41.23V71.9873Z" fill="#63D3FF"/>
<path d="M36.0757 66.8701H30.9219V71.9878H36.0757V66.8701Z" fill="#63D3FF"/>
<path d="M46.3843 61.7524H41.2305V66.8701H46.3843V61.7524Z" fill="#63D3FF"/>
<path d="M46.3843 71.9873H41.2305V77.1049H46.3843V71.9873Z" fill="#63D3FF"/>
<path d="M46.3843 66.8701H41.2305V71.9878H46.3843V66.8701Z" fill="#63D3FF"/>
<path d="M46.3843 77.1055H41.2305V82.2231H46.3843V77.1055Z" fill="#63D3FF"/>
<path d="M20.6148 61.7524H15.4609V66.8701H20.6148V61.7524Z" fill="black"/>
<path d="M20.6148 66.8701H15.4609V71.9878H20.6148V66.8701Z" fill="black"/>
<path d="M20.6148 71.9873H15.4609V77.1049H20.6148V71.9873Z" fill="black"/>
<path d="M20.6148 77.1055H15.4609V82.2231H20.6148V77.1055Z" fill="black"/>
<path d="M20.6148 82.2231H15.4609V87.3408H20.6148V82.2231Z" fill="black"/>
<path d="M25.7691 82.2231H20.6152V87.3408H25.7691V82.2231Z" fill="black"/>
<path d="M30.9224 77.1055H25.7686V82.2231H30.9224V77.1055Z" fill="black"/>
<path d="M36.0757 71.9873H30.9219V77.1049H36.0757V71.9873Z" fill="black"/>
<path d="M41.23 77.1055H36.0762V82.2231H41.23V77.1055Z" fill="black"/>
<path d="M46.3843 82.2231H41.2305V87.3408H46.3843V82.2231Z" fill="black"/>
<path d="M51.5376 82.2231H46.3838V87.3408H51.5376V82.2231Z" fill="black"/>
<path d="M51.5376 77.1055H46.3838V82.2231H51.5376V77.1055Z" fill="black"/>
<path d="M51.5376 71.9873H46.3838V77.1049H51.5376V71.9873Z" fill="black"/>
<path d="M51.5376 66.8701H46.3838V71.9878H51.5376V66.8701Z" fill="black"/>
<path d="M51.5376 61.7524H46.3838V66.8701H51.5376V61.7524Z" fill="black"/>
<path d="M67.0005 36.1646H61.8467V41.2822H67.0005V36.1646Z" fill="black"/>
<path d="M67.0005 31.0469H61.8467V36.1645H67.0005V31.0469Z" fill="black"/>
<path d="M67.0005 25.9292H61.8467V31.0468H67.0005V25.9292Z" fill="black"/>
<path d="M61.8462 46.3999H56.6924V51.5175H61.8462V46.3999Z" fill="black"/>
<path d="M61.8462 41.2817H56.6924V46.3994H61.8462V41.2817Z" fill="black"/>
<path d="M61.8462 36.1646H56.6924V41.2822H61.8462V36.1646Z" fill="#38B269"/>
<path d="M61.8462 31.0469H56.6924V36.1645H61.8462V31.0469Z" fill="#38B269"/>
<path d="M61.8462 25.9292H56.6924V31.0468H61.8462V25.9292Z" fill="#38B269"/>
<path d="M61.8462 20.8115H56.6924V25.9292H61.8462V20.8115Z" fill="black"/>
<path d="M61.8462 15.6938H56.6924V20.8115H61.8462V15.6938Z" fill="black"/>
<path d="M56.6919 51.5176H51.5381V56.6352H56.6919V51.5176Z" fill="black"/>
<path d="M56.6919 46.3999H51.5381V51.5175H56.6919V46.3999Z" fill="#38B269"/>
<path d="M56.6919 41.2817H51.5381V46.3994H56.6919V41.2817Z" fill="#38B269"/>
<path d="M56.6919 36.1646H51.5381V41.2822H56.6919V36.1646Z" fill="#60EF9A"/>
<path d="M56.6919 31.0469H51.5381V36.1645H56.6919V31.0469Z" fill="#60EF9A"/>
<path d="M56.6919 25.9292H51.5381V31.0468H56.6919V25.9292Z" fill="#60EF9A"/>
<path d="M56.6919 20.8115H51.5381V25.9292H56.6919V20.8115Z" fill="#38B269"/>
<path d="M56.6919 15.6938H51.5381V20.8115H56.6919V15.6938Z" fill="#38B269"/>
<path d="M56.6919 10.5757H51.5381V15.6933H56.6919V10.5757Z" fill="black"/>
<path d="M51.5376 56.6348H46.3838V61.7524H51.5376V56.6348Z" fill="black"/>
<path d="M51.5376 51.5176H46.3838V56.6352H51.5376V51.5176Z" fill="#38B269"/>
<path d="M51.5376 46.3999H46.3838V51.5175H51.5376V46.3999Z" fill="#60EF9A"/>
<path d="M51.5376 41.2817H46.3838V46.3994H51.5376V41.2817Z" fill="#60EF9A"/>
<path d="M51.5376 36.1646H46.3838V41.2822H51.5376V36.1646Z" fill="#60EF9A"/>
<path d="M51.5376 31.0469H46.3838V36.1645H51.5376V31.0469Z" fill="#60EF9A"/>
<path d="M51.5376 25.9292H46.3838V31.0468H51.5376V25.9292Z" fill="#60EF9A"/>
<path d="M51.5376 20.8115H46.3838V25.9292H51.5376V20.8115Z" fill="#60EF9A"/>
<path d="M51.5376 15.6938H46.3838V20.8115H51.5376V15.6938Z" fill="#60EF9A"/>
<path d="M51.5376 10.5757H46.3838V15.6933H51.5376V10.5757Z" fill="#38B269"/>
<path d="M51.5376 5.4585H46.3838V10.5761H51.5376V5.4585Z" fill="black"/>
<path d="M46.3843 56.6348H41.2305V61.7524H46.3843V56.6348Z" fill="black"/>
<path d="M46.3843 51.5176H41.2305V56.6352H46.3843V51.5176Z" fill="#38B269"/>
<path d="M46.3843 46.3999H41.2305V51.5175H46.3843V46.3999Z" fill="#60EF9A"/>
<path d="M46.3843 41.2817H41.2305V46.3994H46.3843V41.2817Z" fill="#60EF9A"/>
<path d="M46.3843 36.1646H41.2305V41.2822H46.3843V36.1646Z" fill="#60EF9A"/>
<path d="M46.3843 31.0469H41.2305V36.1645H46.3843V31.0469Z" fill="#60EF9A"/>
<path d="M46.3843 25.9292H41.2305V31.0468H46.3843V25.9292Z" fill="#60EF9A"/>
<path d="M46.3843 20.8115H41.2305V25.9292H46.3843V20.8115Z" fill="#60EF9A"/>
<path d="M46.3843 15.6938H41.2305V20.8115H46.3843V15.6938Z" fill="#60EF9A"/>
<path d="M46.3843 10.5757H41.2305V15.6933H46.3843V10.5757Z" fill="#60EF9A"/>
<path d="M46.3843 5.4585H41.2305V10.5761H46.3843V5.4585Z" fill="black"/>
<path d="M41.231 61.7524H36.0771V66.8701H41.231V61.7524Z" fill="black"/>
<path d="M41.231 56.6348H36.0771V61.7524H41.231V56.6348Z" fill="#38B269"/>
<path d="M41.231 51.5176H36.0771V56.6352H41.231V51.5176Z" fill="#60EF9A"/>
<path d="M41.231 46.3999H36.0771V51.5175H41.231V46.3999Z" fill="#60EF9A"/>
<path d="M41.231 41.2817H36.0771V46.3994H41.231V41.2817Z" fill="#60EF9A"/>
<path d="M41.231 36.1646H36.0771V41.2822H41.231V36.1646Z" fill="#60EF9A"/>
<path d="M41.231 31.0469H36.0771V36.1645H41.231V31.0469Z" fill="#60EF9A"/>
<path d="M41.231 25.9292H36.0771V31.0468H41.231V25.9292Z" fill="#60EF9A"/>
<path d="M41.231 20.8115H36.0771V25.9292H41.231V20.8115Z" fill="#60EF9A"/>
<path d="M41.231 15.6938H36.0771V20.8115H41.231V15.6938Z" fill="#60EF9A"/>
<path d="M41.231 10.5757H36.0771V15.6933H41.231V10.5757Z" fill="#60EF9A"/>
<path d="M41.231 5.4585H36.0771V10.5761H41.231V5.4585Z" fill="#60EF9A"/>
<path d="M41.231 0.34082H36.0771V5.45847H41.231V0.34082Z" fill="black"/>
<path d="M36.0767 61.7524H30.9229V66.8701H36.0767V61.7524Z" fill="black"/>
<path d="M36.0767 56.6348H30.9229V61.7524H36.0767V56.6348Z" fill="#38B269"/>
<path d="M36.0767 51.5176H30.9229V56.6352H36.0767V51.5176Z" fill="#60EF9A"/>
<path d="M36.0767 46.3999H30.9229V51.5175H36.0767V46.3999Z" fill="#60EF9A"/>
<path d="M36.0767 41.2817H30.9229V46.3994H36.0767V41.2817Z" fill="#60EF9A"/>
<path d="M36.0767 36.1646H30.9229V41.2822H36.0767V36.1646Z" fill="#60EF9A"/>
<path d="M36.0767 31.0469H30.9229V36.1645H36.0767V31.0469Z" fill="#60EF9A"/>
<path d="M36.0767 25.9292H30.9229V31.0468H36.0767V25.9292Z" fill="#60EF9A"/>
<path d="M36.0767 20.8115H30.9229V25.9292H36.0767V20.8115Z" fill="#60EF9A"/>
<path d="M36.0767 15.6938H30.9229V20.8115H36.0767V15.6938Z" fill="#60EF9A"/>
<path d="M36.0767 10.5757H30.9229V15.6933H36.0767V10.5757Z" fill="#60EF9A"/>
<path d="M36.0767 5.4585H30.9229V10.5761H36.0767V5.4585Z" fill="#60EF9A"/>
<path d="M36.0767 0.34082H30.9229V5.45847H36.0767V0.34082Z" fill="black"/>
<path d="M30.9234 61.7524H25.7695V66.8701H30.9234V61.7524Z" fill="black"/>
<path d="M30.9234 56.6348H25.7695V61.7524H30.9234V56.6348Z" fill="#AAF2C7"/>
<path d="M30.9234 51.5176H25.7695V56.6352H30.9234V51.5176Z" fill="#60EF9A"/>
<path d="M30.9234 46.3999H25.7695V51.5175H30.9234V46.3999Z" fill="#60EF9A"/>
<path d="M30.9234 41.2817H25.7695V46.3994H30.9234V41.2817Z" fill="#60EF9A"/>
<path d="M30.9234 36.1646H25.7695V41.2822H30.9234V36.1646Z" fill="#60EF9A"/>
<path d="M30.9234 31.0469H25.7695V36.1645H30.9234V31.0469Z" fill="#60EF9A"/>
<path d="M30.9234 25.9292H25.7695V31.0468H30.9234V25.9292Z" fill="#60EF9A"/>
<path d="M30.9234 20.8115H25.7695V25.9292H30.9234V20.8115Z" fill="#60EF9A"/>
<path d="M30.9234 15.6938H25.7695V20.8115H30.9234V15.6938Z" fill="#60EF9A"/>
<path d="M30.9234 10.5757H25.7695V15.6933H30.9234V10.5757Z" fill="white"/>
<path d="M30.9234 5.4585H25.7695V10.5761H30.9234V5.4585Z" fill="#AAF2C7"/>
<path d="M30.9234 0.34082H25.7695V5.45847H30.9234V0.34082Z" fill="black"/>
<path d="M25.7691 56.6348H20.6152V61.7524H25.7691V56.6348Z" fill="black"/>
<path d="M25.7691 51.5176H20.6152V56.6352H25.7691V51.5176Z" fill="#AAF2C7"/>
<path d="M25.7691 46.3999H20.6152V51.5175H25.7691V46.3999Z" fill="#60EF9A"/>
<path d="M25.7691 41.2817H20.6152V46.3994H25.7691V41.2817Z" fill="#60EF9A"/>
<path d="M25.7691 36.1646H20.6152V41.2822H25.7691V36.1646Z" fill="#60EF9A"/>
<path d="M25.7691 31.0469H20.6152V36.1645H25.7691V31.0469Z" fill="#60EF9A"/>
<path d="M25.7691 25.9292H20.6152V31.0468H25.7691V25.9292Z" fill="#60EF9A"/>
<path d="M25.7691 20.8115H20.6152V25.9292H25.7691V20.8115Z" fill="#60EF9A"/>
<path d="M25.7691 15.6938H20.6152V20.8115H25.7691V15.6938Z" fill="white"/>
<path d="M25.7691 10.5757H20.6152V15.6933H25.7691V10.5757Z" fill="#AAF2C7"/>
<path d="M25.7691 5.4585H20.6152V10.5761H25.7691V5.4585Z" fill="black"/>
<path d="M20.6148 56.6348H15.4609V61.7524H20.6148V56.6348Z" fill="black"/>
<path d="M20.6148 51.5176H15.4609V56.6352H20.6148V51.5176Z" fill="#AAF2C7"/>
<path d="M20.6148 46.3999H15.4609V51.5175H20.6148V46.3999Z" fill="#60EF9A"/>
<path d="M20.6148 41.2817H15.4609V46.3994H20.6148V41.2817Z" fill="#60EF9A"/>
<path d="M20.6148 36.1646H15.4609V41.2822H20.6148V36.1646Z" fill="#60EF9A"/>
<path d="M20.6148 31.0469H15.4609V36.1645H20.6148V31.0469Z" fill="#60EF9A"/>
<path d="M20.6148 25.9292H15.4609V31.0468H20.6148V25.9292Z" fill="#60EF9A"/>
<path d="M20.6148 20.8115H15.4609V25.9292H20.6148V20.8115Z" fill="#60EF9A"/>
<path d="M20.6148 15.6938H15.4609V20.8115H20.6148V15.6938Z" fill="#60EF9A"/>
<path d="M20.6148 10.5757H15.4609V15.6933H20.6148V10.5757Z" fill="#AAF2C7"/>
<path d="M20.6148 5.4585H15.4609V10.5761H20.6148V5.4585Z" fill="black"/>
<path d="M15.4615 51.5176H10.3076V56.6352H15.4615V51.5176Z" fill="black"/>
<path d="M15.4615 46.3999H10.3076V51.5175H15.4615V46.3999Z" fill="#AAF2C7"/>
<path d="M15.4615 41.2817H10.3076V46.3994H15.4615V41.2817Z" fill="#AAF2C7"/>
<path d="M15.4615 36.1646H10.3076V41.2822H15.4615V36.1646Z" fill="#60EF9A"/>
<path d="M15.4615 31.0469H10.3076V36.1645H15.4615V31.0469Z" fill="#60EF9A"/>
<path d="M15.4615 25.9292H10.3076V31.0468H15.4615V25.9292Z" fill="#60EF9A"/>
<path d="M15.4615 20.8115H10.3076V25.9292H15.4615V20.8115Z" fill="#AAF2C7"/>
<path d="M15.4615 15.6938H10.3076V20.8115H15.4615V15.6938Z" fill="#AAF2C7"/>
<path d="M15.4615 10.5757H10.3076V15.6933H15.4615V10.5757Z" fill="black"/>
<path d="M10.3081 46.3999H5.1543V51.5175H10.3081V46.3999Z" fill="black"/>
<path d="M10.3081 41.2817H5.1543V46.3994H10.3081V41.2817Z" fill="black"/>
<path d="M10.3081 36.1646H5.1543V41.2822H10.3081V36.1646Z" fill="#AAF2C7"/>
<path d="M10.3081 31.0469H5.1543V36.1645H10.3081V31.0469Z" fill="#AAF2C7"/>
<path d="M10.3081 25.9292H5.1543V31.0468H10.3081V25.9292Z" fill="#AAF2C7"/>
<path d="M10.3081 20.8115H5.1543V25.9292H10.3081V20.8115Z" fill="black"/>
<path d="M10.3081 15.6938H5.1543V20.8115H10.3081V15.6938Z" fill="black"/>
<path d="M5.15385 36.1646H0V41.2822H5.15385V36.1646Z" fill="black"/>
<path d="M5.15385 31.0469H0V36.1645H5.15385V31.0469Z" fill="black"/>
<path d="M5.15385 25.9292H0V31.0468H5.15385V25.9292Z" fill="black"/>
<path d="M46.3843 41.2822H41.2305V46.3999H46.3843V41.2822Z" fill="black"/>
<path d="M46.3843 36.1646H41.2305V41.2822H46.3843V36.1646Z" fill="black"/>
<path d="M46.3843 25.9292H41.2305V31.0468H46.3843V25.9292Z" fill="black"/>
<path d="M46.3843 20.8115H41.2305V25.9292H46.3843V20.8115Z" fill="black"/>
<path d="M41.23 31.0464H36.0762V36.164H41.23V31.0464Z" fill="black"/>
<path d="M36.0757 41.2822H30.9219V46.3999H36.0757V41.2822Z" fill="black"/>
<path d="M36.0757 36.1646H30.9219V41.2822H36.0757V36.1646Z" fill="black"/>
<path d="M36.0757 31.0464H30.9219V36.164H36.0757V31.0464Z" fill="black"/>
<path d="M36.0757 25.9292H30.9219V31.0468H36.0757V25.9292Z" fill="black"/>
<path d="M36.0757 20.8115H30.9219V25.9292H36.0757V20.8115Z" fill="black"/>
<path d="M25.7691 41.2822H20.6152V46.3999H25.7691V41.2822Z" fill="black"/>
<path d="M25.7691 36.1646H20.6152V41.2822H25.7691V36.1646Z" fill="black"/>
<path d="M25.7691 31.0464H20.6152V36.164H25.7691V31.0464Z" fill="black"/>
<path d="M25.7691 25.9292H20.6152V31.0468H25.7691V25.9292Z" fill="black"/>
<path d="M25.7691 20.8115H20.6152V25.9292H25.7691V20.8115Z" fill="black"/>
<path d="M20.6148 25.9292H15.4609V31.0468H20.6148V25.9292Z" fill="black"/>
</g>
<defs>
<clipPath id="clip0_3574_61151">
<rect width="67" height="87" fill="white" transform="translate(0 0.34082)"/>
</clipPath>
</defs>
</svg>
