<svg width="80" height="80" viewBox="0 0 80 80" fill="none" xmlns="http://www.w3.org/2000/svg">
<path opacity="0.3" d="M40 80C62.0914 80 80 62.0914 80 40C80 17.9086 62.0914 0 40 0C17.9086 0 0 17.9086 0 40C0 62.0914 17.9086 80 40 80Z" fill="#FFDD4D"/>
<path d="M61.0527 34.7373H57.5439V38.2461H61.0527V34.7373Z" fill="#FFDD4D"/>
<path d="M57.5439 34.7373H54.0352V38.2461H57.5439V34.7373Z" fill="#FFDD4D"/>
<path d="M54.0351 45.2637H50.5264V48.7724H54.0351V45.2637Z" fill="black"/>
<path d="M54.0351 41.7549H50.5264V45.2637H54.0351V41.7549Z" fill="#FFDD4D"/>
<path d="M54.0351 38.2461H50.5264V41.7549H54.0351V38.2461Z" fill="#FFDD4D"/>
<path d="M54.0351 34.7373H50.5264V38.2461H54.0351V34.7373Z" fill="#FFDD4D"/>
<path d="M54.0351 31.2285H50.5264V34.7373H54.0351V31.2285Z" fill="#FFF1B6"/>
<path d="M54.0351 27.7197H50.5264V31.2285H54.0351V27.7197Z" fill="black"/>
<path d="M50.5264 48.7725H47.0176V52.2812H50.5264V48.7725Z" fill="#FFDD4D"/>
<path d="M50.5264 45.2637H47.0176V48.7724H50.5264V45.2637Z" fill="black"/>
<path d="M50.5264 41.7549H47.0176V45.2637H50.5264V41.7549Z" fill="#FFDD4D"/>
<path d="M50.5264 38.2461H47.0176V41.7549H50.5264V38.2461Z" fill="#FFDD4D"/>
<path d="M61.0527 45.2637H57.5439V48.7724H61.0527V45.2637Z" fill="black"/>
<path d="M61.0527 41.7549H57.5439V45.2637H61.0527V41.7549Z" fill="#FFDD4D"/>
<path d="M61.0527 38.2461H57.5439V41.7549H61.0527V38.2461Z" fill="#FFDD4D"/>
<path d="M57.5439 45.2637H54.0352V48.7724H57.5439V45.2637Z" fill="black"/>
<path d="M54.0351 48.7725H50.5264V52.2812H54.0351V48.7725Z" fill="#FFDD4D"/>
<path d="M61.0527 48.7725H57.5439V52.2812H61.0527V48.7725Z" fill="#FFDD4D"/>
<path d="M57.5439 48.7725H54.0352V52.2812H57.5439V48.7725Z" fill="#FFDD4D"/>
<path d="M50.5264 52.2812H47.0176V55.79H50.5264V52.2812Z" fill="#FF9343"/>
<path d="M54.0351 52.2812H50.5264V55.79H54.0351V52.2812Z" fill="#FF9343"/>
<path d="M61.0527 52.2812H57.5439V55.79H61.0527V52.2812Z" fill="#FF9343"/>
<path d="M57.5439 52.2812H54.0352V55.79H57.5439V52.2812Z" fill="#FF9343"/>
<path d="M57.5439 41.7549H54.0352V45.2637H57.5439V41.7549Z" fill="#FFDD4D"/>
<path d="M57.5439 38.2461H54.0352V41.7549H57.5439V38.2461Z" fill="#FFDD4D"/>
<path d="M50.5264 34.7373H47.0176V38.2461H50.5264V34.7373Z" fill="#FFF1B6"/>
<path d="M50.5264 31.2285H47.0176V34.7373H50.5264V31.2285Z" fill="black"/>
<path d="M50.5264 27.7197H47.0176V31.2285H50.5264V27.7197Z" fill="black"/>
<path d="M47.0176 52.2812H43.5088V55.79H47.0176V52.2812Z" fill="#FF9343"/>
<path d="M47.0176 48.7725H43.5088V52.2812H47.0176V48.7725Z" fill="#FFDD4D"/>
<path d="M47.0176 45.2637H43.5088V48.7724H47.0176V45.2637Z" fill="black"/>
<path d="M47.0176 41.7549H43.5088V45.2637H47.0176V41.7549Z" fill="#FFDD4D"/>
<path d="M47.0176 38.2461H43.5088V41.7549H47.0176V38.2461Z" fill="#FFDD4D"/>
<path d="M47.0176 34.7373H43.5088V38.2461H47.0176V34.7373Z" fill="#FF9343"/>
<path d="M47.0176 31.2285H43.5088V34.7373H47.0176V31.2285Z" fill="#FFF1B6"/>
<path d="M47.0176 27.7197H43.5088V31.2285H47.0176V27.7197Z" fill="#FFF1B6"/>
<path d="M47.0176 24.2109H43.5088V27.7197H47.0176V24.2109Z" fill="black"/>
<path d="M47.0176 20.7021H43.5088V24.2109H47.0176V20.7021Z" fill="black"/>
<path d="M61.0527 31.2285H57.5439V34.7373H61.0527V31.2285Z" fill="#FFDD4D"/>
<path d="M61.0527 27.7197H57.5439V31.2285H61.0527V27.7197Z" fill="#FFDD4D"/>
<path d="M61.0527 24.2109H57.5439V27.7197H61.0527V24.2109Z" fill="#FFF1B6"/>
<path d="M57.5439 31.2285H54.0352V34.7373H57.5439V31.2285Z" fill="#FFDD4D"/>
<path d="M57.5439 27.7197H54.0352V31.2285H57.5439V27.7197Z" fill="#FFF1B6"/>
<path d="M57.5439 24.2109H54.0352V27.7197H57.5439V24.2109Z" fill="black"/>
<path d="M61.0527 20.7021H57.5439V24.2109H61.0527V20.7021Z" fill="black"/>
<path d="M43.5088 52.2812H40V55.79H43.5088V52.2812Z" fill="#FF9343"/>
<path d="M43.5088 48.7725H40V52.2812H43.5088V48.7725Z" fill="#FFDD4D"/>
<path d="M43.5088 45.2637H40V48.7724H43.5088V45.2637Z" fill="black"/>
<path d="M43.5088 41.7549H40V45.2637H43.5088V41.7549Z" fill="#FFDD4D"/>
<path d="M43.5088 38.2461H40V41.7549H43.5088V38.2461Z" fill="#FFDD4D"/>
<path d="M43.5088 34.7373H40V38.2461H43.5088V34.7373Z" fill="#FFDD4D"/>
<path d="M43.5088 31.2285H40V34.7373H43.5088V31.2285Z" fill="#FFDD4D"/>
<path d="M43.5088 27.7197H40V31.2285H43.5088V27.7197Z" fill="#FFDD4D"/>
<path d="M43.5088 24.2109H40V27.7197H43.5088V24.2109Z" fill="#FFDD4D"/>
<path d="M43.5088 20.7021H40V24.2109H43.5088V20.7021Z" fill="#FFF1B6"/>
<path d="M43.5088 17.1934H40V20.7021H43.5088V17.1934Z" fill="black"/>
<path d="M40 52.2812H36.4912V55.79H40V52.2812Z" fill="#FF9343"/>
<path d="M40 48.7725H36.4912V52.2812H40V48.7725Z" fill="#FFDD4D"/>
<path d="M40 45.2637H36.4912V48.7724H40V45.2637Z" fill="black"/>
<path d="M40 41.7549H36.4912V45.2637H40V41.7549Z" fill="#FFDD4D"/>
<path d="M40 38.2461H36.4912V41.7549H40V38.2461Z" fill="#FFDD4D"/>
<path d="M40 34.7373H36.4912V38.2461H40V34.7373Z" fill="#FFDD4D"/>
<path d="M40 31.2285H36.4912V34.7373H40V31.2285Z" fill="#FFDD4D"/>
<path d="M40 27.7197H36.4912V31.2285H40V27.7197Z" fill="#FFDD4D"/>
<path d="M40 24.2109H36.4912V27.7197H40V24.2109Z" fill="#FFF1B6"/>
<path d="M40 20.7021H36.4912V24.2109H40V20.7021Z" fill="#FFF1B6"/>
<path d="M40 17.1934H36.4912V20.7021H40V17.1934Z" fill="black"/>
<path d="M36.4912 52.2812H32.9824V55.79H36.4912V52.2812Z" fill="#FF9343"/>
<path d="M36.4912 48.7725H32.9824V52.2812H36.4912V48.7725Z" fill="#FFDD4D"/>
<path d="M36.4912 45.2637H32.9824V48.7724H36.4912V45.2637Z" fill="black"/>
<path d="M36.4912 41.7549H32.9824V45.2637H36.4912V41.7549Z" fill="#FFDD4D"/>
<path d="M36.4912 38.2461H32.9824V41.7549H36.4912V38.2461Z" fill="#FFDD4D"/>
<path d="M36.4912 34.7373H32.9824V38.2461H36.4912V34.7373Z" fill="#FF9343"/>
<path d="M36.4912 31.2285H32.9824V34.7373H36.4912V31.2285Z" fill="#FFF1B6"/>
<path d="M36.4912 27.7197H32.9824V31.2285H36.4912V27.7197Z" fill="#FFF1B6"/>
<path d="M36.4912 24.2109H32.9824V27.7197H36.4912V24.2109Z" fill="black"/>
<path d="M36.4912 20.7021H32.9824V24.2109H36.4912V20.7021Z" fill="black"/>
<path d="M32.9824 52.2812H29.4736V55.79H32.9824V52.2812Z" fill="#FF9343"/>
<path d="M32.9824 48.7725H29.4736V52.2812H32.9824V48.7725Z" fill="#FFDD4D"/>
<path d="M32.9824 45.2637H29.4736V48.7724H32.9824V45.2637Z" fill="black"/>
<path d="M32.9824 41.7549H29.4736V45.2637H32.9824V41.7549Z" fill="#FFDD4D"/>
<path d="M32.9824 38.2461H29.4736V41.7549H32.9824V38.2461Z" fill="#FFDD4D"/>
<path d="M32.9824 34.7373H29.4736V38.2461H32.9824V34.7373Z" fill="#FFF1B6"/>
<path d="M32.9824 31.2285H29.4736V34.7373H32.9824V31.2285Z" fill="black"/>
<path d="M32.9824 27.7197H29.4736V31.2285H32.9824V27.7197Z" fill="black"/>
<path d="M29.4736 52.2812H25.9648V55.79H29.4736V52.2812Z" fill="#FF9343"/>
<path d="M29.4736 48.7725H25.9648V52.2812H29.4736V48.7725Z" fill="#FFDD4D"/>
<path d="M29.4736 45.2637H25.9648V48.7724H29.4736V45.2637Z" fill="black"/>
<path d="M29.4736 41.7549H25.9648V45.2637H29.4736V41.7549Z" fill="#FFDD4D"/>
<path d="M29.4736 38.2461H25.9648V41.7549H29.4736V38.2461Z" fill="#FFDD4D"/>
<path d="M29.4736 34.7373H25.9648V38.2461H29.4736V34.7373Z" fill="#FFDD4D"/>
<path d="M29.4736 31.2285H25.9648V34.7373H29.4736V31.2285Z" fill="#FFF1B6"/>
<path d="M29.4736 27.7197H25.9648V31.2285H29.4736V27.7197Z" fill="black"/>
<path d="M25.9648 34.7373H22.4561V38.2461H25.9648V34.7373Z" fill="#FFDD4D"/>
<path d="M25.9648 31.2285H22.4561V34.7373H25.9648V31.2285Z" fill="#FFDD4D"/>
<path d="M25.9648 27.7197H22.4561V31.2285H25.9648V27.7197Z" fill="#FFF1B6"/>
<path d="M25.9648 24.2109H22.4561V27.7197H25.9648V24.2109Z" fill="black"/>
<path d="M22.456 34.7373H18.9473V38.2461H22.456V34.7373Z" fill="#FFDD4D"/>
<path d="M22.456 31.2285H18.9473V34.7373H22.456V31.2285Z" fill="#FFDD4D"/>
<path d="M22.456 27.7197H18.9473V31.2285H22.456V27.7197Z" fill="#FFDD4D"/>
<path d="M22.456 24.2109H18.9473V27.7197H22.456V24.2109Z" fill="#FFF1B6"/>
<path d="M18.9472 34.7373H15.4385V38.2461H18.9472V34.7373Z" fill="black"/>
<path d="M18.9472 31.2285H15.4385V34.7373H18.9472V31.2285Z" fill="black"/>
<path d="M18.9472 27.7197H15.4385V31.2285H18.9472V27.7197Z" fill="black"/>
<path d="M18.9472 24.2109H15.4385V27.7197H18.9472V24.2109Z" fill="black"/>
<path d="M22.456 20.7021H18.9473V24.2109H22.456V20.7021Z" fill="black"/>
<path d="M18.9472 20.7021H15.4385V24.2109H18.9472V20.7021Z" fill="black"/>
<path d="M25.9648 48.7725H22.4561V52.2812H25.9648V48.7725Z" fill="#FFDD4D"/>
<path d="M25.9648 45.2637H22.4561V48.7724H25.9648V45.2637Z" fill="black"/>
<path d="M25.9648 41.7549H22.4561V45.2637H25.9648V41.7549Z" fill="#FFDD4D"/>
<path d="M22.456 41.7549H18.9473V45.2637H22.456V41.7549Z" fill="#FFDD4D"/>
<path d="M25.9648 38.2461H22.4561V41.7549H25.9648V38.2461Z" fill="#FFDD4D"/>
<path d="M22.456 45.2637H18.9473V48.7724H22.456V45.2637Z" fill="black"/>
<path d="M18.9472 45.2637H15.4385V48.7724H18.9472V45.2637Z" fill="black"/>
<path d="M22.456 48.7725H18.9473V52.2812H22.456V48.7725Z" fill="#FFDD4D"/>
<path d="M18.9472 48.7725H15.4385V52.2812H18.9472V48.7725Z" fill="black"/>
<path d="M25.9648 52.2812H22.4561V55.79H25.9648V52.2812Z" fill="#FF9343"/>
<path d="M22.456 52.2812H18.9473V55.79H22.456V52.2812Z" fill="#FF9343"/>
<path d="M18.9472 52.2812H15.4385V55.79H18.9472V52.2812Z" fill="black"/>
<path d="M50.5264 55.79H47.0176V59.2988H50.5264V55.79Z" fill="black"/>
<path d="M54.0351 55.79H50.5264V59.2988H54.0351V55.79Z" fill="black"/>
<path d="M61.0527 55.79H57.5439V59.2988H61.0527V55.79Z" fill="black"/>
<path d="M64.5615 34.7373H61.0527V38.2461H64.5615V34.7373Z" fill="black"/>
<path d="M64.5615 45.2637H61.0527V48.7724H64.5615V45.2637Z" fill="black"/>
<path d="M64.5615 41.7549H61.0527V45.2637H64.5615V41.7549Z" fill="black"/>
<path d="M64.5615 38.2461H61.0527V41.7549H64.5615V38.2461Z" fill="black"/>
<path d="M64.5615 48.7725H61.0527V52.2812H64.5615V48.7725Z" fill="black"/>
<path d="M64.5615 52.2812H61.0527V55.79H64.5615V52.2812Z" fill="black"/>
<path d="M64.5615 31.2285H61.0527V34.7373H64.5615V31.2285Z" fill="black"/>
<path d="M64.5615 27.7197H61.0527V31.2285H64.5615V27.7197Z" fill="black"/>
<path d="M64.5615 24.2109H61.0527V27.7197H64.5615V24.2109Z" fill="black"/>
<path d="M64.5615 20.7021H61.0527V24.2109H64.5615V20.7021Z" fill="black"/>
<path d="M64.5615 55.79H61.0527V59.2988H64.5615V55.79Z" fill="black"/>
<path d="M57.5439 55.79H54.0352V59.2988H57.5439V55.79Z" fill="black"/>
<path d="M47.0176 55.79H43.5088V59.2988H47.0176V55.79Z" fill="black"/>
<path d="M43.5088 55.79H40V59.2988H43.5088V55.79Z" fill="black"/>
<path d="M40 55.79H36.4912V59.2988H40V55.79Z" fill="black"/>
<path d="M36.4912 55.79H32.9824V59.2988H36.4912V55.79Z" fill="black"/>
<path d="M32.9824 55.79H29.4736V59.2988H32.9824V55.79Z" fill="black"/>
<path d="M29.4736 55.79H25.9648V59.2988H29.4736V55.79Z" fill="black"/>
<path d="M25.9648 55.79H22.4561V59.2988H25.9648V55.79Z" fill="black"/>
<path d="M22.456 55.79H18.9473V59.2988H22.456V55.79Z" fill="black"/>
<path d="M18.9472 55.79H15.4385V59.2988H18.9472V55.79Z" fill="black"/>
<path d="M18.9472 41.7549H15.4385V45.2637H18.9472V41.7549Z" fill="black"/>
<path d="M22.456 38.2461H18.9473V41.7549H22.456V38.2461Z" fill="#FFDD4D"/>
<path d="M18.9472 38.2461H15.4385V41.7549H18.9472V38.2461Z" fill="black"/>
</svg>
