<svg width="81" height="81" viewBox="0 0 81 81" fill="none" xmlns="http://www.w3.org/2000/svg">
<g clip-path="url(#clip0_3574_61081)">
<path opacity="0.3" d="M40.5 81C62.8675 81 81 62.8675 81 40.5C81 18.1325 62.8675 0 40.5 0C18.1325 0 0 18.1325 0 40.5C0 62.8675 18.1325 81 40.5 81Z" fill="#63D3FF"/>
<path d="M35.0821 64.8359H31.4297V68.4883H35.0821V64.8359Z" fill="#E6E7E8"/>
<path d="M31.5401 61.1841H27.8877V64.8365H31.5401V61.1841Z" fill="#E6E7E8"/>
<path d="M27.8877 57.6416H24.2354V61.294H27.8877V57.6416Z" fill="#E6E7E8"/>
<path d="M24.3448 53.9897H20.6924V57.6421H24.3448V53.9897Z" fill="#E6E7E8"/>
<path d="M20.6934 28.8652H17.041V54.1H20.6934V28.8652Z" fill="#E6E7E8"/>
<path d="M38.6238 57.6411H35.0821V61.1828H31.4297V64.8352H42.2762V61.1828H38.6238V57.6411Z" fill="#63D3FF"/>
<path d="M31.5391 57.6411H27.8867V61.2935H31.5391V57.6411Z" fill="#63D3FF"/>
<path d="M42.2754 53.9893H38.623V57.6417H42.2754V53.9893Z" fill="#63D3FF"/>
<path d="M35.0821 53.9893H31.4297V57.6417H35.0821V53.9893Z" fill="#63D3FF"/>
<path d="M53.0112 50.4468H49.4695V53.9885H45.8171V57.6409H42.2754V61.1826H49.4695V57.6409H56.6636V53.9885H53.0112V50.4468Z" fill="#63D3FF"/>
<path d="M45.9278 50.4468H42.2754V54.0992H45.9278V50.4468Z" fill="#63D3FF"/>
<path d="M63.8571 46.7953V43.2536H60.2047V39.6012H56.663V36.0595H53.0106V10.8247H49.4688V14.4771H42.2747V18.0188H49.4688V39.6012H42.2747V43.2536H35.0806V46.7953H27.8865V50.4477H20.6924V53.9894H24.2341V57.6418H27.8865V53.9894H31.4282V50.4477H35.0806V53.9894H38.6223V50.4477H42.2747V46.7953H45.8164V43.2536H49.4688V46.7953H53.0106V43.2536H56.663V46.7953H60.2047V50.4477H56.663V53.9894H63.8571V50.4477H67.3988V46.7953H63.8571Z" fill="#63D3FF"/>
<path d="M56.6641 46.7949H53.0117V50.4473H56.6641V46.7949Z" fill="#63D3FF"/>
<path d="M49.4698 46.7949H45.8174V50.4473H49.4698V46.7949Z" fill="#63D3FF"/>
<path d="M27.8865 25.2129H20.6924V28.8653H27.8865V25.2129Z" fill="#63D3FF"/>
<path d="M35.0808 21.6704H27.8867V25.3228H35.0808V21.6704Z" fill="#63D3FF"/>
<path d="M42.2761 18.0186H35.082V21.671H42.2761V18.0186Z" fill="#63D3FF"/>
<path d="M42.2761 64.8359H35.082V68.4883H42.2761V64.8359Z" fill="black"/>
<path d="M31.5401 64.8359H27.8877V68.4883H31.5401V64.8359Z" fill="black"/>
<path d="M49.4695 61.1836H42.2754V64.836H49.4695V61.1836Z" fill="black"/>
<path d="M27.8877 61.1836H24.2354V64.836H27.8877V61.1836Z" fill="black"/>
<path d="M56.6629 57.6416H49.4688V61.294H56.6629V57.6416Z" fill="black"/>
<path d="M42.2754 57.6416H38.623V61.294H42.2754V57.6416Z" fill="black"/>
<path d="M35.0821 57.6416H31.4297V61.294H35.0821V57.6416Z" fill="black"/>
<path d="M24.3448 57.6416H20.6924V61.294H24.3448V57.6416Z" fill="black"/>
<path d="M63.8582 53.9893H56.6641V57.6417H63.8582V53.9893Z" fill="black"/>
<path d="M45.9278 53.9893H42.2754V57.6417H45.9278V53.9893Z" fill="black"/>
<path d="M38.7344 53.9893H35.082V57.6417H38.7344V53.9893Z" fill="black"/>
<path d="M31.5401 53.9893H27.8877V57.6417H31.5401V53.9893Z" fill="black"/>
<path d="M20.6934 53.9893H17.041V57.6417H20.6934V53.9893Z" fill="black"/>
<path d="M67.5108 50.4478H63.8584V54.1002H67.5108V50.4478Z" fill="black"/>
<path d="M56.6641 50.4478H53.0117V54.1002H56.6641V50.4478Z" fill="black"/>
<path d="M49.4698 50.4478H45.8174V54.1002H49.4698V50.4478Z" fill="black"/>
<path d="M42.2754 50.4478H38.623V54.1002H42.2754V50.4478Z" fill="black"/>
<path d="M35.0821 50.4478H31.4297V54.1002H35.0821V50.4478Z" fill="black"/>
<path d="M17.0407 28.8653H20.6931V25.2129H13.499V53.9894H17.0407V28.8653Z" fill="black"/>
<path d="M71.0518 46.7954H67.3994V50.4478H71.0518V46.7954Z" fill="black"/>
<path d="M60.3165 46.7954H56.6641V50.4478H60.3165V46.7954Z" fill="black"/>
<path d="M53.1211 46.7954H49.4688V50.4478H53.1211V46.7954Z" fill="black"/>
<path d="M45.9278 46.7954H42.2754V50.4478H45.9278V46.7954Z" fill="black"/>
<path d="M67.5108 43.2534H63.8584V46.9058H67.5108V43.2534Z" fill="black"/>
<path d="M56.6641 43.2534H53.0117V46.9058H56.6641V43.2534Z" fill="black"/>
<path d="M49.4698 43.2534H45.8174V46.9058H49.4698V43.2534Z" fill="black"/>
<path d="M63.8585 39.6011H60.2061V43.2535H63.8585V39.6011Z" fill="black"/>
<path d="M60.3165 36.0596H56.6641V39.712H60.3165V36.0596Z" fill="black"/>
<path d="M56.6641 10.8247H53.0117V36.0595H56.6641V10.8247Z" fill="black"/>
<path d="M35.0806 21.6714V25.2132H27.8865V28.8656H20.6924V50.4479H27.8865V46.7955H35.0806V43.2538H42.2747V39.6014H49.4688V18.019H42.2747V21.6714H35.0806Z" fill="black"/>
<path d="M27.8865 21.6709H20.6924V25.3233H27.8865V21.6709Z" fill="black"/>
<path d="M35.0818 18.019H27.8877V21.6714H35.0818V18.019Z" fill="black"/>
<path d="M42.2761 14.4771H35.082V18.1294H42.2761V14.4771Z" fill="black"/>
<path d="M49.4695 10.8247H42.2754V14.4771H49.4695V10.8247Z" fill="black"/>
</g>
<defs>
<clipPath id="clip0_3574_61081">
<rect width="81" height="81" fill="white"/>
</clipPath>
</defs>
</svg>
