<svg width="80" height="80" viewBox="0 0 80 80" fill="none" xmlns="http://www.w3.org/2000/svg">
<path opacity="0.3" d="M40 80C62.0914 80 80 62.0914 80 40C80 17.9086 62.0914 0 40 0C17.9086 0 0 17.9086 0 40C0 62.0914 17.9086 80 40 80Z" fill="#60EF9A"/>
<path d="M59.2988 31.2275H55.79V34.7363H59.2988V31.2275Z" fill="black"/>
<path d="M55.79 38.2451H52.2812V41.7539H55.79V38.2451Z" fill="black"/>
<path d="M52.2812 34.7363H48.7725V38.2451H52.2812V34.7363Z" fill="#60EF9A"/>
<path d="M59.2988 34.7363H55.79V38.2451H59.2988V34.7363Z" fill="black"/>
<path d="M62.8076 27.7188H59.2988V31.2275H62.8076V27.7188Z" fill="black"/>
<path d="M62.8076 24.21H59.2988V27.7187H62.8076V24.21Z" fill="black"/>
<path d="M62.8076 17.1924H59.2988V20.7012H62.8076V17.1924Z" fill="black"/>
<path d="M62.8076 20.7012H59.2988V24.2099H62.8076V20.7012Z" fill="black"/>
<path d="M48.7724 41.7539H45.2637V45.2627H48.7724V41.7539Z" fill="black"/>
<path d="M52.2812 41.7539H48.7725V45.2627H52.2812V41.7539Z" fill="black"/>
<path d="M48.7724 34.7363H45.2637V38.2451H48.7724V34.7363Z" fill="#60EF9A"/>
<path d="M52.2812 38.2451H48.7725V41.7539H52.2812V38.2451Z" fill="#38B269"/>
<path d="M48.7724 38.2451H45.2637V41.7539H48.7724V38.2451Z" fill="#38B269"/>
<path d="M48.7724 31.2275H45.2637V34.7363H48.7724V31.2275Z" fill="#38B269"/>
<path d="M48.7724 27.7188H45.2637V31.2275H48.7724V27.7188Z" fill="#60EF9A"/>
<path d="M48.7724 24.21H45.2637V27.7187H48.7724V24.21Z" fill="#60EF9A"/>
<path d="M45.2637 24.21H41.7549V27.7187H45.2637V24.21Z" fill="#AAF2C7"/>
<path d="M52.2812 31.2275H48.7725V34.7363H52.2812V31.2275Z" fill="#60EF9A"/>
<path d="M52.2812 27.7188H48.7725V31.2275H52.2812V27.7188Z" fill="#38B269"/>
<path d="M52.2812 24.21H48.7725V27.7187H52.2812V24.21Z" fill="#60EF9A"/>
<path d="M55.79 34.7363H52.2812V38.2451H55.79V34.7363Z" fill="#38B269"/>
<path d="M55.79 31.2275H52.2812V34.7363H55.79V31.2275Z" fill="#60EF9A"/>
<path d="M55.79 27.7188H52.2812V31.2275H55.79V27.7188Z" fill="#60EF9A"/>
<path d="M55.79 24.21H52.2812V27.7187H55.79V24.21Z" fill="#60EF9A"/>
<path d="M59.2988 27.7188H55.79V31.2275H59.2988V27.7188Z" fill="#60EF9A"/>
<path d="M59.2988 24.21H55.79V27.7187H59.2988V24.21Z" fill="#60EF9A"/>
<path d="M48.7724 20.7012H45.2637V24.2099H48.7724V20.7012Z" fill="#AAF2C7"/>
<path d="M52.2812 20.7012H48.7725V24.2099H52.2812V20.7012Z" fill="#AAF2C7"/>
<path d="M55.79 20.7012H52.2812V24.2099H55.79V20.7012Z" fill="#AAF2C7"/>
<path d="M59.2988 20.7012H55.79V24.2099H59.2988V20.7012Z" fill="#AAF2C7"/>
<path d="M52.2812 17.1924H48.7725V20.7012H52.2812V17.1924Z" fill="black"/>
<path d="M45.2637 45.2627H41.7549V48.7715H45.2637V45.2627Z" fill="black"/>
<path d="M45.2637 41.7539H41.7549V45.2627H45.2637V41.7539Z" fill="#60EF9A"/>
<path d="M45.2637 38.2451H41.7549V41.7539H45.2637V38.2451Z" fill="#60EF9A"/>
<path d="M45.2637 34.7363H41.7549V38.2451H45.2637V34.7363Z" fill="#38B269"/>
<path d="M45.2637 31.2275H41.7549V34.7363H45.2637V31.2275Z" fill="#60EF9A"/>
<path d="M45.2637 27.7188H41.7549V31.2275H45.2637V27.7188Z" fill="#60EF9A"/>
<path d="M41.7549 24.21H38.2461V27.7187H41.7549V24.21Z" fill="black"/>
<path d="M45.2637 20.7012H41.7549V24.2099H45.2637V20.7012Z" fill="#60EF9A"/>
<path d="M59.2988 17.1924H55.79V20.7012H59.2988V17.1924Z" fill="black"/>
<path d="M41.7549 59.2979H38.2461V62.8066H41.7549V59.2979Z" fill="black"/>
<path d="M38.2461 59.2979H34.7373V62.8066H38.2461V59.2979Z" fill="black"/>
<path d="M38.2461 55.7891H34.7373V59.2978H38.2461V55.7891Z" fill="black"/>
<path d="M45.2637 59.2979H41.7549V62.8066H45.2637V59.2979Z" fill="black"/>
<path d="M48.7724 59.2979H45.2637V62.8066H48.7724V59.2979Z" fill="black"/>
<path d="M52.2812 59.2979H48.7725V62.8066H52.2812V59.2979Z" fill="black"/>
<path d="M45.2637 55.7891H41.7549V59.2978H45.2637V55.7891Z" fill="black"/>
<path d="M34.7373 59.2979H31.2285V62.8066H34.7373V59.2979Z" fill="black"/>
<path d="M31.2285 59.2979H27.7197V62.8066H31.2285V59.2979Z" fill="black"/>
<path d="M41.7549 55.7891H38.2461V59.2978H41.7549V55.7891Z" fill="black"/>
<path d="M41.7549 52.2803H38.2461V55.789H41.7549V52.2803Z" fill="black"/>
<path d="M41.7549 48.7715H38.2461V52.2803H41.7549V48.7715Z" fill="black"/>
<path d="M41.7549 45.2627H38.2461V48.7715H41.7549V45.2627Z" fill="black"/>
<path d="M41.7549 41.7539H38.2461V45.2627H41.7549V41.7539Z" fill="black"/>
<path d="M41.7549 38.2451H38.2461V41.7539H41.7549V38.2451Z" fill="black"/>
<path d="M41.7549 34.7363H38.2461V38.2451H41.7549V34.7363Z" fill="black"/>
<path d="M41.7549 31.2275H38.2461V34.7363H41.7549V31.2275Z" fill="black"/>
<path d="M41.7549 27.7188H38.2461V31.2275H41.7549V27.7188Z" fill="black"/>
<path d="M55.79 17.1924H52.2812V20.7012H55.79V17.1924Z" fill="black"/>
<path d="M38.2461 45.2627H34.7373V48.7715H38.2461V45.2627Z" fill="#38B269"/>
<path d="M38.2461 41.7539H34.7373V45.2627H38.2461V41.7539Z" fill="#38B269"/>
<path d="M38.2461 38.2451H34.7373V41.7539H38.2461V38.2451Z" fill="#60EF9A"/>
<path d="M34.7373 38.2451H31.2285V41.7539H34.7373V38.2451Z" fill="#38B269"/>
<path d="M38.2461 34.7363H34.7373V38.2451H38.2461V34.7363Z" fill="#60EF9A"/>
<path d="M38.2461 31.2275H34.7373V34.7363H38.2461V31.2275Z" fill="#60EF9A"/>
<path d="M48.7724 17.1924H45.2637V20.7012H48.7724V17.1924Z" fill="black"/>
<path d="M34.7373 45.2627H31.2285V48.7715H34.7373V45.2627Z" fill="#60EF9A"/>
<path d="M34.7373 41.7539H31.2285V45.2627H34.7373V41.7539Z" fill="#38B269"/>
<path d="M38.2461 48.7715H34.7373V52.2803H38.2461V48.7715Z" fill="black"/>
<path d="M34.7373 34.7363H31.2285V38.2451H34.7373V34.7363Z" fill="#60EF9A"/>
<path d="M34.7373 31.2275H31.2285V34.7363H34.7373V31.2275Z" fill="#AAF2C7"/>
<path d="M31.2285 31.2275H27.7197V34.7363H31.2285V31.2275Z" fill="#60EF9A"/>
<path d="M34.7373 27.7188H31.2285V31.2275H34.7373V27.7188Z" fill="#AAF2C7"/>
<path d="M45.2637 20.7012H41.7549V24.2099H45.2637V20.7012Z" fill="black"/>
<path d="M38.2461 31.2275H34.7373V34.7363H38.2461V31.2275Z" fill="black"/>
<path d="M34.7373 27.7188H31.2285V31.2275H34.7373V27.7188Z" fill="black"/>
<path d="M31.2285 45.2627H27.7197V48.7715H31.2285V45.2627Z" fill="#60EF9A"/>
<path d="M31.2285 41.7539H27.7197V45.2627H31.2285V41.7539Z" fill="#38B269"/>
<path d="M31.2285 38.2451H27.7197V41.7539H31.2285V38.2451Z" fill="#60EF9A"/>
<path d="M31.2285 34.7363H27.7197V38.2451H31.2285V34.7363Z" fill="#38B269"/>
<path d="M27.7197 31.2275H24.2109V34.7363H27.7197V31.2275Z" fill="#60EF9A"/>
<path d="M24.2109 31.2275H20.7021V34.7363H24.2109V31.2275Z" fill="#AAF2C7"/>
<path d="M31.2285 27.7188H27.7197V31.2275H31.2285V27.7188Z" fill="#AAF2C7"/>
<path d="M27.7197 27.7188H24.2109V31.2275H27.7197V27.7188Z" fill="#AAF2C7"/>
<path d="M24.2109 27.7188H20.7021V31.2275H24.2109V27.7188Z" fill="#AAF2C7"/>
<path d="M27.7197 38.2451H24.2109V41.7539H27.7197V38.2451Z" fill="#38B269"/>
<path d="M27.7197 34.7363H24.2109V38.2451H27.7197V34.7363Z" fill="#60EF9A"/>
<path d="M31.2285 24.21H27.7197V27.7187H31.2285V24.21Z" fill="black"/>
<path d="M27.7197 24.21H24.2109V27.7187H27.7197V24.21Z" fill="black"/>
<path d="M24.2109 24.21H20.7021V27.7187H24.2109V24.21Z" fill="black"/>
<path d="M34.7373 45.2627H31.2285V48.7715H34.7373V45.2627Z" fill="black"/>
<path d="M27.7197 41.7539H24.2109V45.2627H27.7197V41.7539Z" fill="#AAF2C7"/>
<path d="M20.7021 24.21H17.1934V27.7187H20.7021V24.21Z" fill="black"/>
<path d="M20.7021 27.7188H17.1934V31.2275H20.7021V27.7188Z" fill="black"/>
<path d="M20.7021 31.2275H17.1934V34.7363H20.7021V31.2275Z" fill="black"/>
<path d="M24.2109 34.7363H20.7021V38.2451H24.2109V34.7363Z" fill="black"/>
<path d="M31.2285 45.2627H27.7197V48.7715H31.2285V45.2627Z" fill="black"/>
<path d="M27.7197 41.7539H24.2109V45.2627H27.7197V41.7539Z" fill="black"/>
<path d="M24.2109 38.2451H20.7021V41.7539H24.2109V38.2451Z" fill="black"/>
</svg>
