<svg width="80" height="80" viewBox="0 0 80 80" fill="none" xmlns="http://www.w3.org/2000/svg">
<path opacity="0.3" d="M40 80C62.0914 80 80 62.0914 80 40C80 17.9086 62.0914 0 40 0C17.9086 0 0 17.9086 0 40C0 62.0914 17.9086 80 40 80Z" fill="#FFDD4D"/>
<path d="M62.8074 33.4214H58.6846V37.5442H62.8074V33.4214Z" fill="black"/>
<path d="M58.5964 37.6318H54.4736V41.7546H58.5964V37.6318Z" fill="black"/>
<path d="M58.5964 33.4214H54.4736V37.5442H58.5964V33.4214Z" fill="#FFDD4D"/>
<path d="M58.5964 29.2988H54.4736V33.4216H58.5964V29.2988Z" fill="black"/>
<path d="M54.4744 50H50.3516V54.1228H54.4744V50Z" fill="#FFDD4D"/>
<path d="M54.4744 45.8774H50.3516V50.0002H54.4744V45.8774Z" fill="black"/>
<path d="M54.4744 41.7544H50.3516V45.8772H54.4744V41.7544Z" fill="black"/>
<path d="M54.4744 37.6318H50.3516V41.7546H54.4744V37.6318Z" fill="#FFDD4D"/>
<path d="M58.5964 50H54.4736V54.1228H58.5964V50Z" fill="black"/>
<path d="M54.4744 54.2109H50.3516V58.3337H54.4744V54.2109Z" fill="#FFDD4D"/>
<path d="M58.5964 54.2109H54.4736V58.3337H58.5964V54.2109Z" fill="black"/>
<path d="M54.4744 33.4214H50.3516V37.5442H54.4744V33.4214Z" fill="#FFDD4D"/>
<path d="M54.4744 29.2988H50.3516V33.4216H54.4744V29.2988Z" fill="black"/>
<path d="M50.3513 54.2109H46.2285V58.3337H50.3513V54.2109Z" fill="black"/>
<path d="M50.3513 50H46.2285V54.1228H50.3513V50Z" fill="#FFDD4D"/>
<path d="M50.3513 45.8774H46.2285V50.0002H50.3513V45.8774Z" fill="#FFDD4D"/>
<path d="M50.3513 41.7544H46.2285V45.8772H50.3513V41.7544Z" fill="#FFDD4D"/>
<path d="M50.3513 37.6318H46.2285V41.7546H50.3513V37.6318Z" fill="#FFDD4D"/>
<path d="M50.3513 33.4214H46.2285V37.5442H50.3513V33.4214Z" fill="#FFDD4D"/>
<path d="M50.3513 29.2988H46.2285V33.4216H50.3513V29.2988Z" fill="black"/>
<path d="M50.3513 25.1758H46.2285V29.2986H50.3513V25.1758Z" fill="black"/>
<path d="M62.8074 29.2988H58.6846V33.4216H62.8074V29.2988Z" fill="black"/>
<path d="M46.1404 50H42.0176V54.1228H46.1404V50Z" fill="black"/>
<path d="M46.1404 45.8774H42.0176V50.0002H46.1404V45.8774Z" fill="#FFDD4D"/>
<path d="M46.1404 41.7544H42.0176V45.8772H46.1404V41.7544Z" fill="#FFDD4D"/>
<path d="M46.1404 37.6318H42.0176V41.7546H46.1404V37.6318Z" fill="black"/>
<path d="M46.1404 33.4214H42.0176V37.5442H46.1404V33.4214Z" fill="black"/>
<path d="M46.1404 29.2988H42.0176V33.4216H46.1404V29.2988Z" fill="#FFDD4D"/>
<path d="M46.1404 25.1758H42.0176V29.2986H46.1404V25.1758Z" fill="#FFDD4D"/>
<path d="M46.1404 20.9653H42.0176V25.0881H46.1404V20.9653Z" fill="black"/>
<path d="M42.0173 50H37.8945V54.1228H42.0173V50Z" fill="black"/>
<path d="M42.0173 45.8774H37.8945V50.0002H42.0173V45.8774Z" fill="#FFDD4D"/>
<path d="M42.0173 41.7544H37.8945V45.8772H42.0173V41.7544Z" fill="#FFDD4D"/>
<path d="M42.0173 37.6318H37.8945V41.7546H42.0173V37.6318Z" fill="#FFDD4D"/>
<path d="M42.0173 33.4214H37.8945V37.5442H42.0173V33.4214Z" fill="#FFDD4D"/>
<path d="M42.0173 29.2988H37.8945V33.4216H42.0173V29.2988Z" fill="#FFDD4D"/>
<path d="M42.0173 25.1758H37.8945V29.2986H42.0173V25.1758Z" fill="#FFDD4D"/>
<path d="M42.0173 20.9653H37.8945V25.0881H42.0173V20.9653Z" fill="#FF9343"/>
<path d="M42.0173 16.8423H37.8945V20.9651H42.0173V16.8423Z" fill="black"/>
<path d="M37.8953 50H33.7725V54.1228H37.8953V50Z" fill="black"/>
<path d="M37.8953 45.8774H33.7725V50.0002H37.8953V45.8774Z" fill="#FFDD4D"/>
<path d="M37.8953 41.7544H33.7725V45.8772H37.8953V41.7544Z" fill="#FFDD4D"/>
<path d="M37.8953 37.6318H33.7725V41.7546H37.8953V37.6318Z" fill="black"/>
<path d="M37.8953 33.4214H33.7725V37.5442H37.8953V33.4214Z" fill="black"/>
<path d="M37.8953 29.2988H33.7725V33.4216H37.8953V29.2988Z" fill="#FF9343"/>
<path d="M37.8953 25.1758H33.7725V29.2986H37.8953V25.1758Z" fill="#FF9343"/>
<path d="M37.8953 20.9653H33.7725V25.0881H37.8953V20.9653Z" fill="black"/>
<path d="M33.7722 54.2109H29.6494V58.3337H33.7722V54.2109Z" fill="black"/>
<path d="M33.7722 50H29.6494V54.1228H33.7722V50Z" fill="#FFDD4D"/>
<path d="M33.7722 45.8774H29.6494V50.0002H33.7722V45.8774Z" fill="#FF9343"/>
<path d="M33.7722 41.7544H29.6494V45.8772H33.7722V41.7544Z" fill="#FF9343"/>
<path d="M33.7722 37.6318H29.6494V41.7546H33.7722V37.6318Z" fill="#FFDD4D"/>
<path d="M33.7722 33.4214H29.6494V37.5442H33.7722V33.4214Z" fill="#FF9343"/>
<path d="M33.7722 29.2988H29.6494V33.4216H33.7722V29.2988Z" fill="black"/>
<path d="M33.7722 25.1758H29.6494V29.2986H33.7722V25.1758Z" fill="black"/>
<path d="M29.5623 54.2109H25.4395V58.3337H29.5623V54.2109Z" fill="#FF9343"/>
<path d="M29.5623 50H25.4395V54.1228H29.5623V50Z" fill="#FF9343"/>
<path d="M29.5623 45.8774H25.4395V50.0002H29.5623V45.8774Z" fill="black"/>
<path d="M29.5623 41.7544H25.4395V45.8772H29.5623V41.7544Z" fill="black"/>
<path d="M29.5623 37.6318H25.4395V41.7546H29.5623V37.6318Z" fill="#FF9343"/>
<path d="M29.5623 33.4214H25.4395V37.5442H29.5623V33.4214Z" fill="#FF9343"/>
<path d="M29.5623 29.2988H25.4395V33.4216H29.5623V29.2988Z" fill="black"/>
<path d="M25.4392 33.4214H21.3164V37.5442H25.4392V33.4214Z" fill="#FF9343"/>
<path d="M25.4392 29.2988H21.3164V33.4216H25.4392V29.2988Z" fill="black"/>
<path d="M21.3162 33.4214H17.1934V37.5442H21.3162V33.4214Z" fill="black"/>
<path d="M21.3162 29.2988H17.1934V33.4216H21.3162V29.2988Z" fill="black"/>
<path d="M25.4392 50H21.3164V54.1228H25.4392V50Z" fill="black"/>
<path d="M25.4392 37.6318H21.3164V41.7546H25.4392V37.6318Z" fill="black"/>
<path d="M25.4392 54.2109H21.3164V58.3337H25.4392V54.2109Z" fill="black"/>
<path d="M54.4744 58.3335H50.3516V62.4563H54.4744V58.3335Z" fill="black"/>
<path d="M29.5623 58.3335H25.4395V62.4563H29.5623V58.3335Z" fill="black"/>
</svg>
