<svg width="80" height="80" viewBox="0 0 80 80" fill="none" xmlns="http://www.w3.org/2000/svg">
<path opacity="0.3" d="M40 80C62.0914 80 80 62.0914 80 40C80 17.9086 62.0914 0 40 0C17.9086 0 0 17.9086 0 40C0 62.0914 17.9086 80 40 80Z" fill="#60EF9A"/>
<path d="M62.8076 27.7197H59.2988V31.2285H62.8076V27.7197Z" fill="black"/>
<path d="M62.8076 24.2109H59.2988V27.7197H62.8076V24.2109Z" fill="black"/>
<path d="M62.8076 20.7021H59.2988V24.2109H62.8076V20.7021Z" fill="black"/>
<path d="M62.8076 17.1934H59.2988V20.7021H62.8076V17.1934Z" fill="black"/>
<path d="M59.2988 31.2285H55.79V34.7373H59.2988V31.2285Z" fill="black"/>
<path d="M59.2988 27.7197H55.79V31.2285H59.2988V27.7197Z" fill="#FF9343"/>
<path d="M59.2988 24.2109H55.79V27.7197H59.2988V24.2109Z" fill="#FFDD4D"/>
<path d="M59.2988 20.7021H55.79V24.2109H59.2988V20.7021Z" fill="#FFDD4D"/>
<path d="M59.2988 17.1934H55.79V20.7021H59.2988V17.1934Z" fill="black"/>
<path d="M55.79 34.7373H52.2812V38.2461H55.79V34.7373Z" fill="black"/>
<path d="M55.79 31.2285H52.2812V34.7373H55.79V31.2285Z" fill="#FF9343"/>
<path d="M55.79 27.7197H52.2812V31.2285H55.79V27.7197Z" fill="#FFDD4D"/>
<path d="M55.79 24.2109H52.2812V27.7197H55.79V24.2109Z" fill="white"/>
<path d="M55.79 20.7021H52.2812V24.2109H55.79V20.7021Z" fill="#FFDD4D"/>
<path d="M55.79 17.1934H52.2812V20.7021H55.79V17.1934Z" fill="black"/>
<path d="M52.2812 38.2461H48.7725V41.7549H52.2812V38.2461Z" fill="black"/>
<path d="M52.2812 34.7373H48.7725V38.2461H52.2812V34.7373Z" fill="#FF9343"/>
<path d="M52.2812 31.2285H48.7725V34.7373H52.2812V31.2285Z" fill="#FFDD4D"/>
<path d="M52.2812 27.7197H48.7725V31.2285H52.2812V27.7197Z" fill="white"/>
<path d="M52.2812 24.2109H48.7725V27.7197H52.2812V24.2109Z" fill="#FFDD4D"/>
<path d="M52.2812 20.7021H48.7725V24.2109H52.2812V20.7021Z" fill="#FFF1B6"/>
<path d="M52.2812 17.1934H48.7725V20.7021H52.2812V17.1934Z" fill="black"/>
<path d="M48.7724 41.7549H45.2637V45.2637H48.7724V41.7549Z" fill="black"/>
<path d="M48.7724 38.2461H45.2637V41.7549H48.7724V38.2461Z" fill="#FF9343"/>
<path d="M48.7724 34.7373H45.2637V38.2461H48.7724V34.7373Z" fill="#FFDD4D"/>
<path d="M48.7724 31.2285H45.2637V34.7373H48.7724V31.2285Z" fill="white"/>
<path d="M48.7724 27.7197H45.2637V31.2285H48.7724V27.7197Z" fill="#FFDD4D"/>
<path d="M48.7724 24.2109H45.2637V27.7197H48.7724V24.2109Z" fill="#FFF1B6"/>
<path d="M48.7724 20.7021H45.2637V24.2109H48.7724V20.7021Z" fill="black"/>
<path d="M45.2637 55.79H41.7549V59.2988H45.2637V55.79Z" fill="black"/>
<path d="M45.2637 52.2812H41.7549V55.79H45.2637V52.2812Z" fill="black"/>
<path d="M45.2637 45.2637H41.7549V48.7724H45.2637V45.2637Z" fill="black"/>
<path d="M45.2637 41.7549H41.7549V45.2637H45.2637V41.7549Z" fill="#FF9343"/>
<path d="M45.2637 38.2461H41.7549V41.7549H45.2637V38.2461Z" fill="#FFDD4D"/>
<path d="M45.2637 34.7373H41.7549V38.2461H45.2637V34.7373Z" fill="white"/>
<path d="M45.2637 31.2285H41.7549V34.7373H45.2637V31.2285Z" fill="#FFDD4D"/>
<path d="M45.2637 27.7197H41.7549V31.2285H45.2637V27.7197Z" fill="#FFF1B6"/>
<path d="M45.2637 24.2109H41.7549V27.7197H45.2637V24.2109Z" fill="black"/>
<path d="M41.7549 55.79H38.2461V59.2988H41.7549V55.79Z" fill="black"/>
<path d="M41.7549 52.2812H38.2461V55.79H41.7549V52.2812Z" fill="#38B269"/>
<path d="M41.7549 48.7725H38.2461V52.2812H41.7549V48.7725Z" fill="black"/>
<path d="M41.7549 45.2637H38.2461V48.7724H41.7549V45.2637Z" fill="#FF9343"/>
<path d="M41.7549 41.7549H38.2461V45.2637H41.7549V41.7549Z" fill="#FFDD4D"/>
<path d="M41.7549 38.2461H38.2461V41.7549H41.7549V38.2461Z" fill="white"/>
<path d="M41.7549 34.7373H38.2461V38.2461H41.7549V34.7373Z" fill="#FFDD4D"/>
<path d="M41.7549 31.2285H38.2461V34.7373H41.7549V31.2285Z" fill="#FFF1B6"/>
<path d="M41.7549 27.7197H38.2461V31.2285H41.7549V27.7197Z" fill="black"/>
<path d="M38.2461 55.79H34.7373V59.2988H38.2461V55.79Z" fill="black"/>
<path d="M38.2461 52.2812H34.7373V55.79H38.2461V52.2812Z" fill="#38B269"/>
<path d="M38.2461 48.7725H34.7373V52.2812H38.2461V48.7725Z" fill="#60EF9A"/>
<path d="M38.2461 45.2637H34.7373V48.7724H38.2461V45.2637Z" fill="black"/>
<path d="M38.2461 41.7549H34.7373V45.2637H38.2461V41.7549Z" fill="#FFDD4D"/>
<path d="M38.2461 38.2461H34.7373V41.7549H38.2461V38.2461Z" fill="#FFDD4D"/>
<path d="M38.2461 34.7373H34.7373V38.2461H38.2461V34.7373Z" fill="#FFF1B6"/>
<path d="M38.2461 31.2285H34.7373V34.7373H38.2461V31.2285Z" fill="black"/>
<path d="M34.7373 52.2812H31.2285V55.79H34.7373V52.2812Z" fill="black"/>
<path d="M34.7373 48.7725H31.2285V52.2812H34.7373V48.7725Z" fill="#60EF9A"/>
<path d="M34.7373 45.2637H31.2285V48.7724H34.7373V45.2637Z" fill="#60EF9A"/>
<path d="M34.7373 41.7549H31.2285V45.2637H34.7373V41.7549Z" fill="black"/>
<path d="M34.7373 38.2461H31.2285V41.7549H34.7373V38.2461Z" fill="#FFF1B6"/>
<path d="M34.7373 34.7373H31.2285V38.2461H34.7373V34.7373Z" fill="black"/>
<path d="M31.2285 52.2812H27.7197V55.79H31.2285V52.2812Z" fill="black"/>
<path d="M31.2285 48.7725H27.7197V52.2812H31.2285V48.7725Z" fill="black"/>
<path d="M31.2285 45.2637H27.7197V48.7724H31.2285V45.2637Z" fill="#60EF9A"/>
<path d="M31.2285 41.7549H27.7197V45.2637H31.2285V41.7549Z" fill="#60EF9A"/>
<path d="M31.2285 38.2461H27.7197V41.7549H31.2285V38.2461Z" fill="black"/>
<path d="M27.7197 55.79H24.2109V59.2988H27.7197V55.79Z" fill="black"/>
<path d="M27.7197 52.2812H24.2109V55.79H27.7197V52.2812Z" fill="#60EF9A"/>
<path d="M27.7197 48.7725H24.2109V52.2812H27.7197V48.7725Z" fill="black"/>
<path d="M27.7197 45.2637H24.2109V48.7724H27.7197V45.2637Z" fill="black"/>
<path d="M27.7197 41.7549H24.2109V45.2637H27.7197V41.7549Z" fill="#AAF2C7"/>
<path d="M27.7197 38.2461H24.2109V41.7549H27.7197V38.2461Z" fill="#AAF2C7"/>
<path d="M27.7197 34.7373H24.2109V38.2461H27.7197V34.7373Z" fill="black"/>
<path d="M24.2109 59.2988H20.7021V62.8076H24.2109V59.2988Z" fill="black"/>
<path d="M24.2109 55.79H20.7021V59.2988H24.2109V55.79Z" fill="#60EF9A"/>
<path d="M24.2109 52.2812H20.7021V55.79H24.2109V52.2812Z" fill="black"/>
<path d="M24.2109 41.7549H20.7021V45.2637H24.2109V41.7549Z" fill="black"/>
<path d="M24.2109 38.2461H20.7021V41.7549H24.2109V38.2461Z" fill="black"/>
<path d="M24.2109 34.7373H20.7021V38.2461H24.2109V34.7373Z" fill="black"/>
<path d="M20.7021 59.2988H17.1934V62.8076H20.7021V59.2988Z" fill="black"/>
<path d="M20.7021 55.79H17.1934V59.2988H20.7021V55.79Z" fill="black"/>
</svg>
