<svg width="80" height="80" viewBox="0 0 80 80" fill="none" xmlns="http://www.w3.org/2000/svg">
<path opacity="0.3" d="M40 80C62.0914 80 80 62.0914 80 40C80 17.9086 62.0914 0 40 0C17.9086 0 0 17.9086 0 40C0 62.0914 17.9086 80 40 80Z" fill="#FFDD4D"/>
<path d="M61.9306 33.8594H58.4219V37.3681H61.9306V33.8594Z" fill="#FF9343"/>
<path d="M58.4219 33.8594H54.9131V37.3681H58.4219V33.8594Z" fill="#FF9343"/>
<path d="M54.9131 40.877H51.4043V44.3857H54.9131V40.877Z" fill="black"/>
<path d="M54.9131 37.3682H51.4043V40.8769H54.9131V37.3682Z" fill="black"/>
<path d="M54.9131 33.8594H51.4043V37.3681H54.9131V33.8594Z" fill="#FF9343"/>
<path d="M54.9131 30.3506H51.4043V33.8594H54.9131V30.3506Z" fill="black"/>
<path d="M54.9131 26.8418H51.4043V30.3506H54.9131V26.8418Z" fill="black"/>
<path d="M54.9131 23.333H51.4043V26.8418H54.9131V23.333Z" fill="black"/>
<path d="M51.4043 40.877H47.8955V44.3857H51.4043V40.877Z" fill="#FFDD4D"/>
<path d="M51.4043 37.3682H47.8955V40.8769H51.4043V37.3682Z" fill="#FFDD4D"/>
<path d="M51.4043 33.8594H47.8955V37.3681H51.4043V33.8594Z" fill="#FF9343"/>
<path d="M51.4043 30.3506H47.8955V33.8594H51.4043V30.3506Z" fill="#FFDD4D"/>
<path d="M51.4043 26.8418H47.8955V30.3506H51.4043V26.8418Z" fill="#FFDD4D"/>
<path d="M51.4043 23.333H47.8955V26.8418H51.4043V23.333Z" fill="#FFDD4D"/>
<path d="M51.4043 19.8242H47.8955V23.333H51.4043V19.8242Z" fill="black"/>
<path d="M47.8955 58.4209H44.3867V61.9297H47.8955V58.4209Z" fill="black"/>
<path d="M47.8955 54.9121H44.3867V58.4209H47.8955V54.9121Z" fill="#BCBEC0"/>
<path d="M47.8955 51.4033H44.3867V54.9121H47.8955V51.4033Z" fill="#E6E7E8"/>
<path d="M47.8955 47.8945H44.3867V51.4033H47.8955V47.8945Z" fill="#E6E7E8"/>
<path d="M51.4043 51.4033H47.8955V54.9121H51.4043V51.4033Z" fill="#BCBEC0"/>
<path d="M51.4043 47.8945H47.8955V51.4033H51.4043V47.8945Z" fill="#E6E7E8"/>
<path d="M54.9131 47.8945H51.4043V51.4033H54.9131V47.8945Z" fill="#BCBEC0"/>
<path d="M47.8955 40.877H44.3867V44.3857H47.8955V40.877Z" fill="#FFDD4D"/>
<path d="M47.8955 37.3682H44.3867V40.8769H47.8955V37.3682Z" fill="#FFDD4D"/>
<path d="M47.8955 33.8594H44.3867V37.3681H47.8955V33.8594Z" fill="#FFDD4D"/>
<path d="M47.8955 30.3506H44.3867V33.8594H47.8955V30.3506Z" fill="black"/>
<path d="M47.8955 26.8418H44.3867V30.3506H47.8955V26.8418Z" fill="black"/>
<path d="M47.8955 23.333H44.3867V26.8418H47.8955V23.333Z" fill="#FFDD4D"/>
<path d="M47.8955 19.8242H44.3867V23.333H47.8955V19.8242Z" fill="#FFDD4D"/>
<path d="M47.8955 16.3154H44.3867V19.8242H47.8955V16.3154Z" fill="black"/>
<path d="M44.3867 51.4033H40.8779V54.9121H44.3867V51.4033Z" fill="#E6E7E8"/>
<path d="M44.3867 47.8945H40.8779V51.4033H44.3867V47.8945Z" fill="#E6E7E8"/>
<path d="M44.3867 40.877H40.8779V44.3857H44.3867V40.877Z" fill="#FFDD4D"/>
<path d="M44.3867 37.3682H40.8779V40.8769H44.3867V37.3682Z" fill="#FFDD4D"/>
<path d="M44.3867 33.8594H40.8779V37.3681H44.3867V33.8594Z" fill="#FFDD4D"/>
<path d="M44.3867 30.3506H40.8779V33.8594H44.3867V30.3506Z" fill="#FFDD4D"/>
<path d="M44.3867 26.8418H40.8779V30.3506H44.3867V26.8418Z" fill="#FFDD4D"/>
<path d="M44.3867 23.333H40.8779V26.8418H44.3867V23.333Z" fill="#FFDD4D"/>
<path d="M44.3867 19.8242H40.8779V23.333H44.3867V19.8242Z" fill="#FFDD4D"/>
<path d="M44.3867 16.3154H40.8779V19.8242H44.3867V16.3154Z" fill="black"/>
<path d="M40.8779 51.4033H37.3691V54.9121H40.8779V51.4033Z" fill="#E6E7E8"/>
<path d="M44.3867 54.9121H40.8779V58.4209H44.3867V54.9121Z" fill="#BCBEC0"/>
<path d="M40.8779 54.9121H37.3691V58.4209H40.8779V54.9121Z" fill="#BCBEC0"/>
<path d="M40.8779 47.8945H37.3691V51.4033H40.8779V47.8945Z" fill="#E6E7E8"/>
<path d="M40.8779 37.3682H37.3691V40.8769H40.8779V37.3682Z" fill="#FFDD4D"/>
<path d="M40.8779 33.8594H37.3691V37.3681H40.8779V33.8594Z" fill="#FFDD4D"/>
<path d="M40.8779 30.3506H37.3691V33.8594H40.8779V30.3506Z" fill="#FFDD4D"/>
<path d="M40.8779 30.3506H37.3691V33.8594H40.8779V30.3506Z" fill="#FFDD4D"/>
<path d="M40.8779 30.3506H37.3691V33.8594H40.8779V30.3506Z" fill="#FFDD4D"/>
<path d="M40.8779 26.8418H37.3691V30.3506H40.8779V26.8418Z" fill="#FFDD4D"/>
<path d="M40.8779 23.333H37.3691V26.8418H40.8779V23.333Z" fill="#FFDD4D"/>
<path d="M40.8779 19.8242H37.3691V23.333H40.8779V19.8242Z" fill="#FFDD4D"/>
<path d="M40.8779 16.3154H37.3691V19.8242H40.8779V16.3154Z" fill="black"/>
<path d="M37.3691 58.4209H33.8604V61.9297H37.3691V58.4209Z" fill="black"/>
<path d="M37.3691 54.9121H33.8604V58.4209H37.3691V54.9121Z" fill="#BCBEC0"/>
<path d="M37.3691 51.4033H33.8604V54.9121H37.3691V51.4033Z" fill="#E6E7E8"/>
<path d="M37.3691 47.8945H33.8604V51.4033H37.3691V47.8945Z" fill="black"/>
<path d="M37.3691 37.3682H33.8604V40.8769H37.3691V37.3682Z" fill="#FFDD4D"/>
<path d="M37.3691 33.8594H33.8604V37.3681H37.3691V33.8594Z" fill="#FFDD4D"/>
<path d="M37.3691 30.3506H33.8604V33.8594H37.3691V30.3506Z" fill="#FFDD4D"/>
<path d="M37.3691 30.3506H33.8604V33.8594H37.3691V30.3506Z" fill="#FFDD4D"/>
<path d="M37.3691 30.3506H33.8604V33.8594H37.3691V30.3506Z" fill="#FFDD4D"/>
<path d="M37.3691 26.8418H33.8604V30.3506H37.3691V26.8418Z" fill="#FFDD4D"/>
<path d="M37.3691 23.333H33.8604V26.8418H37.3691V23.333Z" fill="#FFDD4D"/>
<path d="M37.3691 19.8242H33.8604V23.333H37.3691V19.8242Z" fill="#FFF1B6"/>
<path d="M37.3691 16.3154H33.8604V19.8242H37.3691V16.3154Z" fill="black"/>
<path d="M33.8603 51.4033H30.3516V54.9121H33.8603V51.4033Z" fill="#E6E7E8"/>
<path d="M33.8603 54.9121H30.3516V58.4209H33.8603V54.9121Z" fill="white"/>
<path d="M33.8603 47.8945H30.3516V51.4033H33.8603V47.8945Z" fill="#E6E7E8"/>
<path d="M33.8603 37.3682H30.3516V40.8769H33.8603V37.3682Z" fill="#FFDD4D"/>
<path d="M30.3515 37.3682H26.8428V40.8769H30.3515V37.3682Z" fill="#FFDD4D"/>
<path d="M33.8603 33.8594H30.3516V37.3681H33.8603V33.8594Z" fill="#FFDD4D"/>
<path d="M30.3515 33.8594H26.8428V37.3681H30.3515V33.8594Z" fill="#FFF1B6"/>
<path d="M33.8603 30.3506H30.3516V33.8594H33.8603V30.3506Z" fill="black"/>
<path d="M33.8603 30.3506H30.3516V33.8594H33.8603V30.3506Z" fill="#FFF1B6"/>
<path d="M33.8603 30.3506H30.3516V33.8594H33.8603V30.3506Z" fill="#FFF1B6"/>
<path d="M33.8603 26.8418H30.3516V30.3506H33.8603V26.8418Z" fill="#FFF1B6"/>
<path d="M33.8603 23.333H30.3516V26.8418H33.8603V23.333Z" fill="#FFF1B6"/>
<path d="M33.8603 19.8242H30.3516V23.333H33.8603V19.8242Z" fill="black"/>
<path d="M30.3515 51.4033H26.8428V54.9121H30.3515V51.4033Z" fill="white"/>
<path d="M30.3515 47.8945H26.8428V51.4033H30.3515V47.8945Z" fill="#E6E7E8"/>
<path d="M26.8428 37.3682H23.334V40.8769H26.8428V37.3682Z" fill="black"/>
<path d="M26.8428 37.3682H23.334V40.8769H26.8428V37.3682Z" fill="#FFF1B6"/>
<path d="M23.334 37.3682H19.8252V40.8769H23.334V37.3682Z" fill="black"/>
<path d="M26.8428 33.8594H23.334V37.3681H26.8428V33.8594Z" fill="#FFF1B6"/>
<path d="M30.3515 30.3506H26.8428V33.8594H30.3515V30.3506Z" fill="black"/>
<path d="M30.3515 30.3506H26.8428V33.8594H30.3515V30.3506Z" fill="black"/>
<path d="M30.3515 30.3506H26.8428V33.8594H30.3515V30.3506Z" fill="black"/>
<path d="M30.3515 26.8418H26.8428V30.3506H30.3515V26.8418Z" fill="black"/>
<path d="M30.3515 23.333H26.8428V26.8418H30.3515V23.333Z" fill="black"/>
<path d="M26.8428 47.8945H23.334V51.4033H26.8428V47.8945Z" fill="white"/>
<path d="M47.8955 44.3857H44.3867V47.8945H47.8955V44.3857Z" fill="#E6E7E8"/>
<path d="M51.4043 44.3857H47.8955V47.8945H51.4043V44.3857Z" fill="#E6E7E8"/>
<path d="M54.9131 44.3857H51.4043V47.8945H54.9131V44.3857Z" fill="#BCBEC0"/>
<path d="M44.3867 44.3857H40.8779V47.8945H44.3867V44.3857Z" fill="#E6E7E8"/>
<path d="M40.8779 44.3857H37.3691V47.8945H40.8779V44.3857Z" fill="black"/>
<path d="M37.3691 44.3857H33.8604V47.8945H37.3691V44.3857Z" fill="#FFDD4D"/>
<path d="M33.8603 44.3857H30.3516V47.8945H33.8603V44.3857Z" fill="black"/>
<path d="M30.3515 44.3857H26.8428V47.8945H30.3515V44.3857Z" fill="#E6E7E8"/>
<path d="M26.8428 44.3857H23.334V47.8945H26.8428V44.3857Z" fill="white"/>
<path d="M26.8428 33.8594H23.334V37.3681H26.8428V33.8594Z" fill="black"/>
<path d="M26.8428 30.3506H23.334V33.8594H26.8428V30.3506Z" fill="black"/>
<path d="M33.8603 40.877H30.3516V44.3857H33.8603V40.877Z" fill="#FFDD4D"/>
<path d="M30.3515 40.877H26.8428V44.3857H30.3515V40.877Z" fill="black"/>
<path d="M26.8428 40.877H23.334V44.3857H26.8428V40.877Z" fill="black"/>
<path d="M23.334 40.877H19.8252V44.3857H23.334V40.877Z" fill="black"/>
<path d="M51.4043 40.877H47.8955V44.3857H51.4043V40.877Z" fill="black"/>
<path d="M54.9131 40.877H51.4043V44.3857H54.9131V40.877Z" fill="black"/>
<path d="M58.4219 40.877H54.9131V44.3857H58.4219V40.877Z" fill="black"/>
<path d="M23.334 44.3857H19.8252V47.8945H23.334V44.3857Z" fill="black"/>
<path d="M58.4219 44.3857H54.9131V47.8945H58.4219V44.3857Z" fill="black"/>
<path d="M23.334 47.8945H19.8252V51.4033H23.334V47.8945Z" fill="black"/>
<path d="M58.4219 47.8945H54.9131V51.4033H58.4219V47.8945Z" fill="black"/>
<path d="M26.8428 51.4033H23.334V54.9121H26.8428V51.4033Z" fill="black"/>
<path d="M54.9131 51.4033H51.4043V54.9121H54.9131V51.4033Z" fill="black"/>
<path d="M30.3515 54.9121H26.8428V58.4209H30.3515V54.9121Z" fill="black"/>
<path d="M33.8603 58.4209H30.3516V61.9297H33.8603V58.4209Z" fill="black"/>
<path d="M37.3691 58.4209H33.8604V61.9297H37.3691V58.4209Z" fill="black"/>
<path d="M40.8779 58.4209H37.3691V61.9297H40.8779V58.4209Z" fill="black"/>
<path d="M44.3867 58.4209H40.8779V61.9297H44.3867V58.4209Z" fill="black"/>
<path d="M51.4043 54.9121H47.8955V58.4209H51.4043V54.9121Z" fill="black"/>
<path d="M47.8955 58.4209H44.3867V61.9297H47.8955V58.4209Z" fill="black"/>
<path d="M47.8955 40.877H44.3867V44.3857H47.8955V40.877Z" fill="black"/>
<path d="M44.3867 40.877H40.8779V44.3857H44.3867V40.877Z" fill="black"/>
<path d="M40.8779 40.877H37.3691V44.3857H40.8779V40.877Z" fill="black"/>
<path d="M37.3691 40.877H33.8604V44.3857H37.3691V40.877Z" fill="#FFDD4D"/>
</svg>
