<svg width="80" height="80" viewBox="0 0 80 80" fill="none" xmlns="http://www.w3.org/2000/svg">
<path opacity="0.3" d="M40 80C62.0914 80 80 62.0914 80 40C80 17.9086 62.0914 0 40 0C17.9086 0 0 17.9086 0 40C0 62.0914 17.9086 80 40 80Z" fill="#D15AFF"/>
<path d="M63.6836 37.3682H60.1748V40.8769H63.6836V37.3682Z" fill="black"/>
<path d="M63.6836 33.8594H60.1748V37.3681H63.6836V33.8594Z" fill="black"/>
<path d="M60.1748 40.877H56.666V44.3857H60.1748V40.877Z" fill="black"/>
<path d="M60.1748 37.3682H56.666V40.8769H60.1748V37.3682Z" fill="#9F29CA"/>
<path d="M60.1748 33.8594H56.666V37.3681H60.1748V33.8594Z" fill="#9F29CA"/>
<path d="M60.1748 30.3506H56.666V33.8594H60.1748V30.3506Z" fill="black"/>
<path d="M56.666 44.3857H53.1572V47.8945H56.666V44.3857Z" fill="black"/>
<path d="M56.666 40.877H53.1572V44.3857H56.666V40.877Z" fill="#9F29CA"/>
<path d="M56.666 37.3682H53.1572V40.8769H56.666V37.3682Z" fill="black"/>
<path d="M56.666 33.8594H53.1572V37.3681H56.666V33.8594Z" fill="#D15AFF"/>
<path d="M56.666 30.3506H53.1572V33.8594H56.666V30.3506Z" fill="#9F29CA"/>
<path d="M56.666 26.8418H53.1572V30.3506H56.666V26.8418Z" fill="black"/>
<path d="M53.1572 47.8945H49.6484V51.4033H53.1572V47.8945Z" fill="black"/>
<path d="M53.1572 44.3857H49.6484V47.8945H53.1572V44.3857Z" fill="#9F29CA"/>
<path d="M53.1572 40.877H49.6484V44.3857H53.1572V40.877Z" fill="#D15AFF"/>
<path d="M53.1572 37.3682H49.6484V40.8769H53.1572V37.3682Z" fill="black"/>
<path d="M53.1572 33.8594H49.6484V37.3681H53.1572V33.8594Z" fill="#D15AFF"/>
<path d="M53.1572 30.3506H49.6484V33.8594H53.1572V30.3506Z" fill="#D15AFF"/>
<path d="M53.1572 26.8418H49.6484V30.3506H53.1572V26.8418Z" fill="#9F29CA"/>
<path d="M53.1572 23.333H49.6484V26.8418H53.1572V23.333Z" fill="black"/>
<path d="M49.6484 51.4033H46.1396V54.9121H49.6484V51.4033Z" fill="black"/>
<path d="M49.6484 47.8945H46.1396V51.4033H49.6484V47.8945Z" fill="#9F29CA"/>
<path d="M49.6484 44.3857H46.1396V47.8945H49.6484V44.3857Z" fill="#D15AFF"/>
<path d="M49.6484 40.877H46.1396V44.3857H49.6484V40.877Z" fill="#D15AFF"/>
<path d="M49.6484 37.3682H46.1396V40.8769H49.6484V37.3682Z" fill="black"/>
<path d="M49.6484 33.8594H46.1396V37.3681H49.6484V33.8594Z" fill="#D15AFF"/>
<path d="M49.6484 30.3506H46.1396V33.8594H49.6484V30.3506Z" fill="black"/>
<path d="M49.6484 26.8418H46.1396V30.3506H49.6484V26.8418Z" fill="#D15AFF"/>
<path d="M49.6484 23.333H46.1396V26.8418H49.6484V23.333Z" fill="black"/>
<path d="M46.1396 54.9121H42.6309V58.4209H46.1396V54.9121Z" fill="black"/>
<path d="M46.1396 51.4033H42.6309V54.9121H46.1396V51.4033Z" fill="#9F29CA"/>
<path d="M46.1396 47.8945H42.6309V51.4033H46.1396V47.8945Z" fill="#D15AFF"/>
<path d="M46.1396 44.3857H42.6309V47.8945H46.1396V44.3857Z" fill="#D15AFF"/>
<path d="M46.1396 40.877H42.6309V44.3857H46.1396V40.877Z" fill="#D15AFF"/>
<path d="M46.1396 37.3682H42.6309V40.8769H46.1396V37.3682Z" fill="black"/>
<path d="M46.1396 33.8594H42.6309V37.3681H46.1396V33.8594Z" fill="black"/>
<path d="M46.1396 30.3506H42.6309V33.8594H46.1396V30.3506Z" fill="#D15AFF"/>
<path d="M46.1396 26.8418H42.6309V30.3506H46.1396V26.8418Z" fill="#D15AFF"/>
<path d="M46.1396 23.333H42.6309V26.8418H46.1396V23.333Z" fill="black"/>
<path d="M42.6308 58.4209H39.1221V61.9297H42.6308V58.4209Z" fill="black"/>
<path d="M42.6308 54.9121H39.1221V58.4209H42.6308V54.9121Z" fill="#9F29CA"/>
<path d="M42.6308 51.4033H39.1221V54.9121H42.6308V51.4033Z" fill="black"/>
<path d="M42.6308 47.8945H39.1221V51.4033H42.6308V47.8945Z" fill="black"/>
<path d="M42.6308 44.3857H39.1221V47.8945H42.6308V44.3857Z" fill="black"/>
<path d="M42.6308 40.877H39.1221V44.3857H42.6308V40.877Z" fill="black"/>
<path d="M42.6308 37.3682H39.1221V40.8769H42.6308V37.3682Z" fill="black"/>
<path d="M42.6308 33.8594H39.1221V37.3681H42.6308V33.8594Z" fill="#D15AFF"/>
<path d="M42.6308 30.3506H39.1221V33.8594H42.6308V30.3506Z" fill="#D15AFF"/>
<path d="M42.6308 26.8418H39.1221V30.3506H42.6308V26.8418Z" fill="#D15AFF"/>
<path d="M42.6308 23.333H39.1221V26.8418H42.6308V23.333Z" fill="black"/>
<path d="M39.1221 54.9121H35.6133V58.4209H39.1221V54.9121Z" fill="black"/>
<path d="M39.1221 51.4033H35.6133V54.9121H39.1221V51.4033Z" fill="#E5A2FF"/>
<path d="M39.1221 47.8945H35.6133V51.4033H39.1221V47.8945Z" fill="#D15AFF"/>
<path d="M39.1221 44.3857H35.6133V47.8945H39.1221V44.3857Z" fill="#D15AFF"/>
<path d="M39.1221 40.877H35.6133V44.3857H39.1221V40.877Z" fill="#D15AFF"/>
<path d="M39.1221 37.3682H35.6133V40.8769H39.1221V37.3682Z" fill="black"/>
<path d="M39.1221 33.8594H35.6133V37.3681H39.1221V33.8594Z" fill="black"/>
<path d="M39.1221 30.3506H35.6133V33.8594H39.1221V30.3506Z" fill="#D15AFF"/>
<path d="M39.1221 26.8418H35.6133V30.3506H39.1221V26.8418Z" fill="#D15AFF"/>
<path d="M39.1221 23.333H35.6133V26.8418H39.1221V23.333Z" fill="black"/>
<path d="M35.6133 51.4033H32.1045V54.9121H35.6133V51.4033Z" fill="black"/>
<path d="M35.6133 47.8945H32.1045V51.4033H35.6133V47.8945Z" fill="#E5A2FF"/>
<path d="M35.6133 44.3857H32.1045V47.8945H35.6133V44.3857Z" fill="#D15AFF"/>
<path d="M35.6133 40.877H32.1045V44.3857H35.6133V40.877Z" fill="#D15AFF"/>
<path d="M35.6133 37.3682H32.1045V40.8769H35.6133V37.3682Z" fill="black"/>
<path d="M35.6133 33.8594H32.1045V37.3681H35.6133V33.8594Z" fill="#D15AFF"/>
<path d="M35.6133 30.3506H32.1045V33.8594H35.6133V30.3506Z" fill="black"/>
<path d="M35.6133 26.8418H32.1045V30.3506H35.6133V26.8418Z" fill="#D15AFF"/>
<path d="M35.6133 23.333H32.1045V26.8418H35.6133V23.333Z" fill="black"/>
<path d="M32.1045 47.8945H28.5957V51.4033H32.1045V47.8945Z" fill="black"/>
<path d="M32.1045 44.3857H28.5957V47.8945H32.1045V44.3857Z" fill="#E5A2FF"/>
<path d="M32.1045 40.877H28.5957V44.3857H32.1045V40.877Z" fill="#D15AFF"/>
<path d="M32.1045 37.3682H28.5957V40.8769H32.1045V37.3682Z" fill="black"/>
<path d="M32.1045 33.8594H28.5957V37.3681H32.1045V33.8594Z" fill="#D15AFF"/>
<path d="M32.1045 30.3506H28.5957V33.8594H32.1045V30.3506Z" fill="white"/>
<path d="M32.1045 26.8418H28.5957V30.3506H32.1045V26.8418Z" fill="#E5A2FF"/>
<path d="M32.1045 23.333H28.5957V26.8418H32.1045V23.333Z" fill="black"/>
<path d="M28.5957 44.3857H25.0869V47.8945H28.5957V44.3857Z" fill="black"/>
<path d="M28.5957 40.877H25.0869V44.3857H28.5957V40.877Z" fill="#E5A2FF"/>
<path d="M28.5957 37.3682H25.0869V40.8769H28.5957V37.3682Z" fill="black"/>
<path d="M28.5957 33.8594H25.0869V37.3681H28.5957V33.8594Z" fill="white"/>
<path d="M28.5957 30.3506H25.0869V33.8594H28.5957V30.3506Z" fill="#E5A2FF"/>
<path d="M28.5957 26.8418H25.0869V30.3506H28.5957V26.8418Z" fill="black"/>
<path d="M25.0869 40.877H21.5781V44.3857H25.0869V40.877Z" fill="black"/>
<path d="M25.0869 37.3682H21.5781V40.8769H25.0869V37.3682Z" fill="#E5A2FF"/>
<path d="M25.0869 33.8594H21.5781V37.3681H25.0869V33.8594Z" fill="#E5A2FF"/>
<path d="M25.0869 30.3506H21.5781V33.8594H25.0869V30.3506Z" fill="black"/>
<path d="M21.5781 37.3682H18.0693V40.8769H21.5781V37.3682Z" fill="black"/>
<path d="M21.5781 33.8594H18.0693V37.3681H21.5781V33.8594Z" fill="black"/>
</svg>
