<svg xmlns="http://www.w3.org/2000/svg" width="16" height="17" viewBox="0 0 16 17" fill="none">
  <mask id="mask0_10861_2544" style="mask-type:alpha" maskUnits="userSpaceOnUse" x="0" y="0" width="16" height="17">
    <rect y="0.676758" width="16" height="16" fill="#D9D9D9"/>
  </mask>
  <g mask="url(#mask0_10861_2544)">
    <path d="M7.99999 10.6435C7.9111 10.6435 7.82777 10.6296 7.74999 10.6019C7.67221 10.5741 7.59999 10.5269 7.53332 10.4602L4.46666 7.39352C4.34444 7.2713 4.28333 7.11574 4.28333 6.92686C4.28333 6.73797 4.34444 6.58241 4.46666 6.46019C4.58888 6.33797 4.74444 6.27686 4.93333 6.27686C5.12221 6.27686 5.27777 6.33797 5.39999 6.46019L7.99999 9.06019L10.6 6.46019C10.7222 6.33797 10.8778 6.27686 11.0667 6.27686C11.2555 6.27686 11.4111 6.33797 11.5333 6.46019C11.6555 6.58241 11.7167 6.73797 11.7167 6.92686C11.7167 7.11574 11.6555 7.2713 11.5333 7.39352L8.46666 10.4602C8.39999 10.5269 8.32777 10.5741 8.24999 10.6019C8.17221 10.6296 8.08888 10.6435 7.99999 10.6435Z" fill="#8E969C"/>
  </g>
</svg>