<svg xmlns="http://www.w3.org/2000/svg" width="17" height="21" viewBox="0 0 17 21" fill="none">
  <path d="M15.7775 0.5H4.67357C4.27018 0.5 3.94279 0.834328 3.94279 1.24627V4.52637H0.730778C0.327388 4.52637 0 4.8607 0 5.27264V19.7537C0 20.1657 0.327388 20.5 0.730778 20.5H11.8347C12.2381 20.5 12.5655 20.1657 12.5655 19.7537V16.4736H15.7775C16.1809 16.4736 16.5083 16.1393 16.5083 15.7274V1.24627C16.5083 0.834328 16.1809 0.5 15.7775 0.5ZM11.1039 19.0075H1.46156V6.01891H11.1039V19.0075ZM15.0467 14.9811H12.5655V5.27264C12.5655 4.8607 12.2381 4.52637 11.8347 4.52637H5.40434V1.99254H15.0467V14.9811Z" fill="#B0B7BC"/>
</svg>