<svg width="16" height="17" viewBox="0 0 16 17" fill="none" xmlns="http://www.w3.org/2000/svg">
<mask id="mask0_10748_3054" style="mask-type:alpha" maskUnits="userSpaceOnUse" x="0" y="0" width="16" height="17">
<rect y="0.964844" width="16" height="16" fill="#D9D9D9"/>
</mask>
<g mask="url(#mask0_10748_3054)">
<path fill-rule="evenodd" clip-rule="evenodd" d="M8 2.96484C4.68508 2.96484 2 5.71747 2 9.11578C2 11.8344 3.72007 14.1377 6.10313 14.9533C6.40147 15.01 6.51197 14.8212 6.51197 14.655C6.51197 14.5078 6.50829 14.1226 6.5046 13.6091C4.8361 13.9791 4.4825 12.786 4.4825 12.786C4.20994 12.0761 3.81584 11.8873 3.81584 11.8873C3.27072 11.5059 3.85635 11.5135 3.85635 11.5135C4.45672 11.5588 4.77716 12.1478 4.77716 12.1478C5.31123 13.088 6.18048 12.8162 6.52302 12.6576C6.57827 12.2611 6.73296 11.9892 6.90239 11.8344C5.56906 11.6796 4.16943 11.151 4.16943 8.79483C4.16943 8.12272 4.40147 7.57521 4.78821 7.14476C4.7256 6.98995 4.51934 6.36315 4.84715 5.51735C4.84715 5.51735 5.35175 5.35121 6.49724 6.14793C6.97606 6.01199 7.48803 5.94403 8 5.94025C8.50829 5.94025 9.02394 6.01199 9.50276 6.14793C10.6483 5.35121 11.1529 5.51735 11.1529 5.51735C11.4807 6.36315 11.2744 6.98995 11.2118 7.14476C11.5948 7.57521 11.8269 8.12272 11.8269 8.79483C11.8269 11.1585 10.4236 11.6758 9.08656 11.8307C9.30018 12.0194 9.4954 12.397 9.4954 12.971C9.4954 13.7941 9.48803 14.4549 9.48803 14.6588C9.48803 14.8249 9.59484 15.0137 9.90055 14.9533C12.2836 14.1377 14 11.8344 14 9.11956C14 5.71747 11.3149 2.96484 8 2.96484Z" fill="#5F6368"/>
</g>
</svg>
