<svg width="16" height="17" viewBox="0 0 16 17" fill="none" xmlns="http://www.w3.org/2000/svg">
<mask id="mask0_10748_3031" style="mask-type:alpha" maskUnits="userSpaceOnUse" x="0" y="0" width="16" height="17">
<rect y="0.964844" width="16" height="16" fill="#D9D9D9"/>
</mask>
<g mask="url(#mask0_10748_3031)">
<path d="M8.00106 15.2982C7.1251 15.2982 6.30175 15.132 5.53099 14.7996C4.76023 14.4671 4.08977 14.0159 3.51963 13.4461C2.94947 12.8762 2.4981 12.206 2.16551 11.4356C1.83292 10.6652 1.66663 9.84198 1.66663 8.96603C1.66663 8.09007 1.83285 7.26671 2.16529 6.49596C2.49774 5.72519 2.9489 5.05474 3.51879 4.48459C4.08869 3.91444 4.75885 3.46306 5.52928 3.13048C6.29969 2.79789 7.12287 2.63159 7.99883 2.63159C8.87478 2.63159 9.69814 2.79781 10.4689 3.13026C11.2397 3.4627 11.9101 3.91387 12.4803 4.48376C13.0504 5.05366 13.5018 5.72382 13.8344 6.49424C14.167 7.26465 14.3333 8.08784 14.3333 8.96379C14.3333 9.83975 14.167 10.6631 13.8346 11.4339C13.5021 12.2046 13.051 12.8751 12.4811 13.4452C11.9112 14.0154 11.241 14.4668 10.4706 14.7993C9.7002 15.1319 8.87701 15.2982 8.00106 15.2982ZM7.33328 14.2649V12.9649C6.96661 12.9649 6.65272 12.8344 6.39161 12.5732C6.1305 12.3121 5.99994 11.9982 5.99994 11.6316V10.9649L2.79994 7.76491C2.76661 7.96491 2.73605 8.16491 2.70828 8.36491C2.6805 8.56491 2.66661 8.76491 2.66661 8.96491C2.66661 10.3094 3.10828 11.4871 3.99161 12.4982C4.87494 13.5094 5.98883 14.0982 7.33328 14.2649ZM11.9333 12.5649C12.1555 12.3205 12.3555 12.0566 12.5333 11.7732C12.7111 11.4899 12.8583 11.1955 12.9749 10.8899C13.0916 10.5844 13.1805 10.2705 13.2416 9.94824C13.3027 9.62602 13.3333 9.29824 13.3333 8.96491C13.3333 7.8728 13.0316 6.87541 12.4281 5.97274C11.8247 5.07009 11.0153 4.41876 9.99994 4.01876V4.29824C9.99994 4.66491 9.86939 4.9788 9.60828 5.23991C9.34716 5.50102 9.03328 5.63158 8.66661 5.63158H7.33328V6.96491C7.33328 7.1538 7.26939 7.31213 7.14161 7.43991C7.01383 7.56769 6.8555 7.63158 6.66661 7.63158H5.33328V8.96491H9.33328C9.52217 8.96491 9.6805 9.0288 9.80828 9.15658C9.93605 9.28435 9.99994 9.44269 9.99994 9.63158V11.6316H10.6666C10.9555 11.6316 11.2166 11.7177 11.4499 11.8899C11.6833 12.0621 11.8444 12.2871 11.9333 12.5649Z" fill="#5F6368"/>
</g>
</svg>
