<svg xmlns="http://www.w3.org/2000/svg" width="16" height="16" viewBox="0 0 16 16" fill="none">
  <path d="M3.48828 8.76562C4.21745 9.49479 5.10286 9.85938 6.14453 9.85938C7.1862 9.85938 8.07161 9.49479 8.80078 8.76562C9.52995 8.03646 9.89453 7.15104 9.89453 6.10938C9.89453 5.06771 9.52995 4.18229 8.80078 3.45312C8.07161 2.72396 7.1862 2.35938 6.14453 2.35938C5.10286 2.35938 4.21745 2.72396 3.48828 3.45312C2.75911 4.18229 2.39453 5.06771 2.39453 6.10938C2.39453 7.15104 2.75911 8.03646 3.48828 8.76562ZM11.1445 9.85938L15.2852 14L14.0352 15.25L9.89453 11.1094V10.4453L9.66016 10.2109C8.67057 11.0703 7.4987 11.5 6.14453 11.5C4.63411 11.5 3.34505 10.9792 2.27734 9.9375C1.23568 8.89583 0.714844 7.61979 0.714844 6.10938C0.714844 4.59896 1.23568 3.32292 2.27734 2.28125C3.34505 1.21354 4.63411 0.679688 6.14453 0.679688C7.65495 0.679688 8.93099 1.21354 9.97266 2.28125C11.0143 3.32292 11.5352 4.59896 11.5352 6.10938C11.5352 6.65625 11.4049 7.28125 11.1445 7.98438C10.8841 8.66146 10.5846 9.20833 10.2461 9.625L10.4805 9.85938H11.1445Z" fill="#B0B7BC"/>
</svg>