<?xml version="1.0" encoding="utf-8"?>
<!DOCTYPE svg PUBLIC "-//W3C//DTD SVG 1.1//EN" "http://www.w3.org/Graphics/SVG/1.1/DTD/svg11.dtd">
<svg version="1.1" xmlns="http://www.w3.org/2000/svg" xmlns:xlink="http://www.w3.org/1999/xlink" x="0px" y="0px" viewBox="0 0 1000 1000" enable-background="new 0 0 1000 1000" xml:space="preserve">
<g><g><path style="fill:#9f5bca;" d="M775.9,391.9c-3.6-6.3-10.4-10.1-17.6-10.1H544.2L693.9,38.5c2.8-6.3,2.1-13.6-1.6-19.3c-3.8-5.8-10.2-9.2-17-9.2H437.4c-8.6,0-16.3,5.4-19.2,13.6L222.5,577.7c-2.2,6.2-1.2,13.1,2.6,18.5c3.8,5.4,10,8.6,16.6,8.6h230.5L360.1,963.6c-1.9,6.2-0.8,12.9,3,18.1c3.8,5.2,9.9,8.3,16.4,8.3H435c7.3,0,14.1-3.9,17.7-10.3L776,412.3C779.6,406,779.5,398.2,775.9,391.9z"/></g><g></g><g></g><g></g><g></g><g></g><g></g><g></g><g></g><g></g><g></g><g></g><g></g><g></g><g></g><g></g></g>
</svg>