<svg width="80" height="71" viewBox="0 0 80 71" fill="none" xmlns="http://www.w3.org/2000/svg">
<path d="M79.3691 38.7471C79.3691 38.0067 79.2458 37.2973 79.0298 36.5878C78.2895 34.3977 76.1302 32.7319 73.8167 32.6394C73.2306 32.6085 72.6137 32.6394 71.9967 32.6085C71.3489 32.6085 71.4106 32.6702 71.4106 32.0224C71.4106 30.2025 71.4106 28.3517 71.4106 26.5317C71.4106 24.4341 70.7629 22.4907 69.4981 20.825C67.5548 18.2339 64.9636 16.8457 61.7247 16.7532C59.7505 16.6915 57.8071 16.7224 55.8329 16.7532C55.617 16.7532 55.5553 16.6915 55.5553 16.4756C55.5553 15.2109 55.5553 13.9461 55.5553 12.6814C55.5553 12.4655 55.6479 12.4038 55.8021 12.3112C58.6092 11.1699 60.059 8.20861 59.2878 5.27815C58.3624 1.69991 54.2906 -0.181757 50.9591 1.45313C48.4605 2.65616 47.1341 5.37069 47.7202 8.08522C48.1829 10.0903 49.3859 11.5401 51.2984 12.3421C51.4835 12.4038 51.5452 12.4963 51.5452 12.7123C51.5452 13.977 51.5452 15.2726 51.5452 16.5373C51.5452 16.599 51.5452 16.6915 51.5144 16.7532C43.5867 16.7532 35.659 16.7532 27.7314 16.7532C27.7314 16.6298 27.7314 16.5064 27.7314 16.4139C27.7314 15.18 27.7314 13.9461 27.7314 12.7123C27.7314 12.4963 27.8239 12.4038 28.009 12.3421C31.0629 11.0774 32.5127 7.62252 31.2788 4.59952C29.9832 1.26805 26.0965 -0.120063 23.0118 1.54567C20.9759 2.65616 19.9271 4.41444 19.8654 6.7588C19.8037 9.16486 21.3152 11.4167 23.5671 12.2804C23.7521 12.3421 23.8138 12.4346 23.8138 12.6506C23.8138 13.9153 23.8138 15.18 23.8138 16.4139C23.8138 16.6607 23.7213 16.7224 23.5054 16.7224C21.6545 16.7224 19.8346 16.6915 17.9838 16.7224C17.336 16.7224 16.719 16.7841 16.0712 16.8766C14.313 17.1851 12.7706 17.9254 11.4442 19.0667C9.13069 21.1335 7.95851 23.6629 7.95851 26.7168C7.95851 28.5367 7.95851 30.3567 7.95851 32.1767C7.95851 32.5777 7.95851 32.5777 7.52665 32.5777C7.00225 32.5777 6.47786 32.5468 5.95346 32.5777C5.36737 32.6394 4.75043 32.6702 4.19518 32.8245C1.60404 33.6573 0 35.8783 0 38.5928C0 41.184 0 43.806 0 46.3971C0 46.8907 0.0616939 47.4151 0.185082 47.9086C0.80202 50.4997 3.20808 52.3814 5.89176 52.3814C6.47786 52.3814 7.0331 52.3814 7.61919 52.3814C7.89681 52.3814 7.95851 52.4431 7.95851 52.7207C7.95851 55.1885 7.95851 57.6871 7.95851 60.1548C7.95851 61.2653 8.0819 62.345 8.45206 63.4246C9.25408 65.769 10.7039 67.589 12.8632 68.8845C14.4672 69.8408 16.2255 70.2726 18.0763 70.2726C20.3281 70.2726 42.6305 70.2726 48.8615 70.2726C52.995 70.2726 57.1285 70.2726 61.262 70.2726C61.9406 70.2726 62.6193 70.2109 63.2979 70.1184C64.8402 69.8716 66.2284 69.2547 67.4622 68.2984C70.1151 66.2317 71.4415 63.5172 71.4415 60.1548C71.4415 57.6562 71.4415 55.1885 71.4415 52.6899C71.4415 52.5048 71.5032 52.4123 71.6883 52.4431C72.336 52.4431 72.953 52.474 73.6008 52.4431C75.2357 52.3814 76.5929 51.7645 77.7343 50.5923C78.8756 49.3893 79.4 47.9394 79.4 46.3046C79.3691 43.7751 79.3691 41.2765 79.3691 38.7471ZM7.95851 41.9243C7.95851 42.1402 7.95851 42.3253 7.95851 42.5412C7.95851 44.4229 7.95851 46.3046 7.95851 48.1862C7.95851 48.4022 7.89681 48.4638 7.68089 48.4638C7.09479 48.4638 6.5087 48.4638 5.89176 48.4638C4.81212 48.433 3.97925 47.5693 3.97925 46.4588C3.97925 43.8368 3.97925 41.2457 3.97925 38.6237C3.97925 37.4515 4.81212 36.5878 5.9843 36.5569C6.5087 36.5569 7.06395 36.5569 7.58834 36.5569C7.83512 36.5569 7.92766 36.6186 7.92766 36.8963C7.95851 38.562 7.95851 40.2586 7.95851 41.9243ZM53.5811 4.84629C54.6608 4.84629 55.5553 5.74085 55.5553 6.8205C55.5553 7.90014 54.6299 8.7947 53.5811 8.7947C52.5015 8.7947 51.6069 7.90014 51.6069 6.8205C51.6069 5.74085 52.5015 4.84629 53.5811 4.84629ZM25.788 4.84629C26.8677 4.84629 27.7622 5.74085 27.7622 6.8205C27.7622 7.90014 26.8677 8.7947 25.788 8.82555C24.7084 8.82555 23.8138 7.93099 23.8138 6.85134C23.8138 5.7717 24.7392 4.84629 25.788 4.84629ZM67.4622 60.2165C67.4622 62.2524 66.6602 63.949 65.0253 65.1829C64.0691 65.8924 63.0203 66.2934 61.8172 66.3242C58.8559 66.3551 55.8638 66.3242 52.9025 66.3242C51.5761 66.3242 50.2188 66.3242 48.8924 66.3242C42.6305 66.3242 20.2973 66.3242 17.9838 66.3242C15.9787 66.3242 14.3747 65.5222 13.1408 63.949C12.2771 62.8385 11.9378 61.5738 11.9378 60.1857C11.9378 58.0264 11.9378 55.8671 11.9378 53.7078C11.9378 48.3096 11.9378 42.9422 11.9378 37.544C11.9378 33.9349 11.9378 30.3259 11.9378 26.7476C11.9378 24.0639 13.6652 21.7196 16.2255 20.9792C16.7499 20.825 17.336 20.7633 17.8912 20.7633C27.2687 20.7633 36.677 20.7633 46.0545 20.7633C51.1751 20.7633 56.2956 20.7633 61.4162 20.7633C63.8223 20.7633 65.6114 21.8738 66.8145 23.9714C67.308 24.8659 67.4931 25.8222 67.4931 26.8402C67.4931 33.8116 67.4931 40.783 67.4931 47.7544C67.4622 51.857 67.4622 56.0213 67.4622 60.2165ZM75.3899 46.5822C75.3899 47.5693 74.5262 48.4022 73.5391 48.433C72.953 48.4639 72.3361 48.433 71.7191 48.433C71.4723 48.433 71.4106 48.3405 71.4106 48.1245C71.4106 46.2429 71.4106 44.3612 71.4106 42.5104C71.4106 40.6287 71.4106 38.7779 71.4106 36.8963C71.4106 36.5569 71.4106 36.5261 71.7808 36.5569C72.4286 36.5569 73.1072 36.5261 73.755 36.6186C74.6496 36.7112 75.359 37.544 75.359 38.4386C75.3899 41.184 75.3899 43.8985 75.3899 46.5822Z" fill="#D0D5D8"/>
</svg>
