<svg width="200" height="200" viewBox="0 0 200 200" fill="none" xmlns="http://www.w3.org/2000/svg">
<path d="M110.1 164.3C121.3 149.1 126.8 137.9 125.6 131.5C120.4 135.3 114.2 137.3 107.7 137.4C106 143.9 99.9 159.2 97.8 164.4C100.7 164.4 107.7 164.5 110.1 164.3Z" fill="#191919"/>
<path d="M125.4 164.2C127.5 164.6 134.9 164.4 137.4 164.3C139.3 151 141.1 133.4 140.8 129.6C140.5 126.3 139.9 123.1 139.1 119.9C135.5 122.4 131.9 126.8 126.8 130.6C127 134.2 126.4 137.7 125.2 141.1C125.4 146.6 125.7 159.2 125.4 164.2Z" fill="#191919"/>
<path d="M125.1 112.6C125.9 116.9 126.4 121.2 126.6 125.6C130.9 122.3 134.4 118.4 138.1 116C136.9 111.8 135.5 107.6 133.9 103.5C123.8 105.1 109.1 97.9 101.3 92C98.4 111.1 105.8 127.1 107.7 133.3C114.1 132.8 120.3 130.4 125.4 126.5C125.3 121.9 124.9 117.2 124.3 112.7C124.2 112.2 125 112.1 125.1 112.6Z" fill="#191919"/>
<path d="M5.69998 173.9C5.39998 173.9 5.09998 174.1 5.09998 174.4C5.09998 174.7 5.29998 175 5.59998 175H5.69998C68.1 175.2 131.8 174.7 194.4 174.8C194.7 174.8 195 174.5 195 174.2C195 173.9 194.7 173.6 194.4 173.6C202.2 173.6 76.6 173.7 5.69998 173.9Z" fill="#191919"/>
<path d="M17.3 53.5002C16.5 50.3002 17.1 45.1002 17.7 42.5002C17.3 42.5002 16.9 42.6002 16.6 42.7002C15.8 39.3002 14.8 35.6002 14 32.2002C13.8 31.4002 12.6 31.8002 12.8 32.6002C13.3 35.1002 14.5 40.4002 15.4 43.4002C12.2 45.4002 10.8 51.2002 17.3 53.5002Z" fill="#191919"/>
<path d="M56 45.5C64.9 38.4 56.8 30.8 50.2 34C47.5 35.3 52.7 48.1 56 45.5Z" fill="#191919"/>
<path d="M23.4 59.0001C32.1 60.1001 40.9 58.4001 48.5 54.0001C50.6 52.8001 55.9 49.4001 56.8 47.2001C56.9 46.9001 56.8 46.6001 56.5 46.5001C56.2 46.4001 55.9 46.5001 55.8 46.8001C55.1 48.6001 50 51.9001 48 53.1001C41 57.1001 32.9 58.8001 24.9 58.1001C21.2 57.8001 20.7 57.6001 20.1 53.5001C18.7 44.8001 21 36.5001 29.5 32.8001C34.7 30.5001 44.1 29.9001 48.7 33.6001C49.3 34.1001 50 33.1001 49.4 32.6001C44.5 28.7001 34.5 29.2001 29.1 31.6001C19.9 35.6001 17.3 44.7001 18.9 53.9001C19.2 57.2001 19.9 58.5001 23.4 59.0001Z" fill="#191919"/>
<path d="M62.6 68.3001C63.8 64.5001 70.5 64.6001 71.3 68.7001C74.5 66.1001 73.1 49.4001 61.1 52.2001C59.8 52.5001 54.1 61.4001 62.6 68.3001Z" fill="#191919"/>
<path d="M28.8 74.0999C27.5 71.0999 26.1 63.7999 26.4 60.3999C18.2 61.6999 18.6 74.0999 28.8 74.0999Z" fill="#191919"/>
<path d="M24.9 117.8C28.7 118 29.8 120.7 29.8 122.2C29.8 123.7 31.2 123.8 31.4 122C31.6 120.2 30.5 114.9 24.6 115.1C18.7 115.3 17.2 122.2 20 124.6C21.7 126.1 22.1 125.4 21.5 124.3C20.2 121.8 21.2 117.7 24.9 117.8Z" fill="#191919"/>
<path d="M75 129.2C78.3 126.4 78.6 118.2 70.4 116.8C62.6 115.5 61 123.8 63.3 127.1C64.5 128.7 65.3 128 64.7 126.7C63.4 124.3 64.4 121.2 66.8 120C67.7 119.6 68.6 119.4 69.6 119.4C76 119.7 75.1 126.7 73.8 128.3C72.4 129.9 73.4 130.5 75 129.2Z" fill="#191919"/>
<path d="M47.7001 118.6C42.2001 117.2 38.2001 114 36.4001 111.3C33.3001 120.4 44.7001 122.8 47.7001 118.6Z" fill="#191919"/>
<path d="M64.4 116.5C64.5 114.4 64.4 112.3 64.1 110.2C55.2 109.5 50.8 115.6 55.9 120C56.8 118.7 60.2 119.1 61.6 119.5C62 118 63 116.9 64.4 116.5Z" fill="#191919"/>
<path d="M42.7 172.2C43.1 171.8 41.3 165 33 164.8C24.7 164.6 21.4 171.3 22.4 172.2C23.1 172.8 42.2 172.6 42.7 172.2Z" fill="#191919"/>
<path d="M51.8 172C52.6 172.4 70.8 172.5 71.1 171.6C71.4 170.7 69.4 164.2 60.8 164.3C52.2 164.4 50.7 171.5 51.8 172Z" fill="#191919"/>
<path d="M35.3 118.1C30.8 124.4 27.8 131.7 26.6 139.4C25.3 147.6 26 156 28.6 163.9C28.8 164.4 29.7 164.2 29.6 163.6C27.2 155.9 26.6 147.6 27.9 139.6C29.1 132.1 32 125 36.3 118.7C36.5 118.4 36.4 118 36.1 117.9C35.8 117.8 35.5 117.8 35.3 118.1Z" fill="#191919"/>
<path d="M42.4 122.1C42.8 121.5 42 120.8 41.6 121.4C40.6 122.9 39.6 124.4 38.8 126.1C37.6 125.9 36.5 125.6 35.3 125.3C33.9 124.9 33.8 125.8 34.9 126.3C35.9 126.8 37 127.1 38.2 127.2C37.3 129.1 36.4 131.1 35.8 133.1C34.8 133.1 33.9 132.9 32.9 132.7C31.1 132.3 30.8 133.3 32.4 133.8C33.4 134.1 34.4 134.3 35.4 134.3C34.8 136.3 34.3 138.3 34 140.3C33 140.3 32 140.3 31 140.2C29.2 140 29 141 30.8 141.4C31.8 141.6 32.8 141.7 33.8 141.6C33.5 143.9 33.3 146.2 33.3 148.5C32.4 148.5 31.4 148.5 30.5 148.5C29 148.6 28.9 149.6 30.6 149.7C31.5 149.7 32.4 149.7 33.4 149.7C33.5 152 33.7 154.3 34.1 156.5C33.1 156.6 32 156.7 31 156.6C29.4 156.5 29.7 157.8 31.5 157.8C32.5 157.8 33.4 157.8 34.4 157.7C34.8 159.8 35.4 161.9 36.3 163.9C36.4 164.2 36.6 164.3 36.9 164.2C37.2 164.1 37.3 163.9 37.2 163.6C34.9 155.9 34.1 149.6 35.2 141.6C36 134.6 38.5 127.9 42.4 122.1Z" fill="#191919"/>
<path d="M60.6 126.5C60.5 126.8 60.4 127.2 60.3 127.5C59.1 127.5 57.2 127.1 56.6 127C56 126.9 55.9001 127.8 56.4001 128C57.5001 128.4 58.7001 128.7 59.9001 128.8C59.4001 130.6 59.1 132.4 58.8 134.3C57.6 134.3 56.4001 134.3 55.2001 134.2C54.1001 134.1 53.9001 134.9 54.7001 135.3C55.9001 135.7 57.3 135.8 58.6 135.7C58.3 138.3 58.2 141 58.3 143.6C56.8 143.7 55.4001 143.7 53.9001 143.4C53.6001 143.4 53.3 143.6 53.3 143.9C53.3 144.2 53.4001 144.4 53.7001 144.5C54.7001 144.8 57.6001 145.2 58.4001 144.8C58.5001 146.6 58.7 148.4 59 150.2C57.8 150.3 56.9001 150.6 55.4001 150.6C53.7001 150.6 53.7 151.7 55.5 151.8C56.7 151.9 58.0001 151.8 59.2001 151.4C59.7001 153.3 60.2001 155.3 60.7001 157.1C59.6001 157.4 58.5001 157.6 57.4001 157.6C54.6001 157.7 55.9 159.2 58.6 158.8C59.4 158.7 60.3 158.5 61 158.1C61.6 160 62.4 161.8 63.3 163.5C63.6 164 64.4 163.7 64.2 163.1C61.7 156.2 60 151.5 59.6 144.1C59.3 138.3 60.0001 132.4 61.7001 126.8C61.8001 126.5 61.6 126.1 61.3 126C61.1 125.9 60.7 126.1 60.6 126.5Z" fill="#191919"/>
<path d="M55.9 163.9C56.2 164.3 57 164.1 56.8 163.6C50.5 150.3 51.4 135.6 56.5 121.7C56.8 121 55.6 120.6 55.3 121.4C52.2 129 50.8 137.1 51.1 145.3C51.4 151 52.9 158.9 55.9 163.9Z" fill="#191919"/>
<path d="M27.4 114.3C27.4999 114.8 28.2999 115 28.2999 114.4C28.7999 110.2 29.1 100 29.2 94.5002C29.3 88.3002 29.1 82.0002 29 75.8002C29 75.5002 28.8 75.2002 28.4 75.2002C28.1 75.2002 27.9 75.4002 27.9 75.8002C27.9 77.1002 28 78.5002 28 79.8002C26.8 79.9002 25.2999 79.6002 25.2999 80.4002C25.1999 81.3002 27.5 81.2002 28.1 81.1002C28.2 82.7002 28.2 84.4002 28.1 86.0002C27.3 86.1002 26.5 86.1002 25.6 86.2002C25 86.3002 24.7999 87.1002 25.7999 87.3002C26.4999 87.4002 27.3 87.4002 28.1 87.3002C28.2 89.4002 28.2 91.5002 28.1 93.6002C27.2 93.6002 26.1999 93.6002 25.2999 93.7002C24.9999 93.7002 24.6999 94.0002 24.7999 94.3002C24.7999 94.5002 25 94.8002 25.2 94.8002C26.2 94.8002 27.2 94.8002 28.1 94.8002C28.1 96.7002 28 98.5002 28 100.4C23.9 99.8002 24.7 101.7 25.5 101.7L27.9 101.8C27.9 103.8 27.9 105.7 27.7 107.7C26.9 107.7 26.0999 107.7 25.2999 107.7C24.9999 107.7 24.7 107.9 24.7 108.2C24.7 108.5 24.9 108.8 25.2 108.8C26 108.9 26.8 108.9 27.6 108.9C27.5 110.8 27.4 112.6 27.4 114.3Z" fill="#191919"/>
<path d="M22 114C22 114.6 23 114.7 23.1 114C23.6 108.2 23.8 103.4 23.8 74.1002C23.8 73.3002 22.5 73.4002 22.5 74.2002C22.8 98.8002 22.1 103 22 114Z" fill="#191919"/>
<path d="M67.5 77.7001C68.4 77.7001 69.2999 77.6001 70.0999 77.3001L70.5999 83.6001C69.8999 84.0001 68.9999 84.1001 68.1999 84.1001C67.0999 84.2001 66.9999 85.3001 68.0999 85.4001C68.9999 85.5001 69.8999 85.3001 70.6999 85.0001L71.1999 92.5001C70.2999 92.8001 69.4 92.9001 68.5 92.9001C67.4 92.9001 67.4 93.9001 68.3 94.1001C69.3 94.2001 70.3 94.1001 71.3 93.8001C71.4 96.0001 71.4999 98.3001 71.5999 100.5C70.8999 100.8 70.1 100.9 69.4 100.9C67.6 100.8 68.1999 103 71.6999 101.8C71.7999 103.9 71.8 105.9 71.9 108C71.1 108.4 70.2 108.5 69.4 108.3C68.5 108.2 68.5 109.2 69.3 109.5C70.2 109.7 71.1 109.7 71.9 109.4C71.9 111.4 72 113.3 72 115.3C72 116.1 73.3 116.2 73.3 115.4C73.3 103.4 72.3 82.3001 70.4 68.3001C70.3 67.7001 69.3 67.8001 69.4 68.4001C69.6 71.0001 69.7999 73.6001 70.0999 76.2001C69.1999 76.5001 68.3 76.6001 67.4 76.6001C66.1 76.5001 66.2 77.6001 67.5 77.7001Z" fill="#191919"/>
<path d="M63.1 69.1002C64.9 84.5002 65.8 100 66 115.5C66 116.3 67.3001 116.4 67.3001 115.6C66.8001 103.3 66.5 82.9002 64.2 68.9002C64.1 68.4002 63 68.5002 63.1 69.1002Z" fill="#191919"/>
<path d="M71.9 73.5001C74.2 80.0001 76.1 86.7001 76.5 93.5001C75.8 94.4001 74.9 95.2001 73.8 95.7001C72.8 96.3001 73.4 97.0001 74.2 96.9001C75.1 96.6001 75.9 96.1001 76.6 95.4001C76.8 100.6 75.9 105.7 74 110.5C73.8 111 74.6 111.3 74.9 110.9C77.4 107 78 98.0001 77.8 93.5001C77.3 86.5001 75.8 79.6001 73.2 73.1001C72.9 72.3001 71.6 72.7001 71.9 73.5001Z" fill="#191919"/>
<path d="M52.5999 118.1C53.1999 118.1 53.2999 117.1 52.6999 117.1C47.8999 116.6 41.7999 115.1 38.3999 109.9C34.7999 104.5 35.3999 97.2 34.6999 90.8C32.9999 75.4 28.9999 69.3 28.9999 60.8C28.9999 60 27.6999 60 27.6999 60.9C27.3999 69 31.4999 74.6 33.2999 90.1C34.0999 97.3 33.5999 105.1 37.3999 110.7C40.3999 115.2 47.1999 118.2 52.5999 118.1Z" fill="#191919"/>
<path d="M58.6 52.7002C59.3 53.2002 60 52.2002 59.3 51.6002C58.3 50.8002 57.2 50.2002 56 49.9002C55.3 49.7002 54.9 50.8002 55.5 51.0002C56.6 51.4002 57.6 52.0002 58.6 52.7002Z" fill="#191919"/>
<path d="M37.1 99.3999C36.6 99.1999 36.3 100.1 36.8 100.3C44.1 103.8 55.8 103.6 63.5 101.1C63.8 100.9 63.9 100.5 63.8 100.2C63.7 99.8999 63.4 99.7999 63.1 99.8999C53.1 102.9 42.3 101.5 37.1 99.3999Z" fill="#191919"/>
<path d="M35.6 73.0001C37.2 79.1001 38.4 85.3001 39.2 91.6001C39.4 92.8001 38.8 93.5001 41.1 93.7001C45.1 94.2001 49.1 94.1001 53 93.5001C54.4 93.3001 54.6 92.9001 54.5 91.5001C53.9 84.7001 52.8 77.9001 51.2 71.2001C50.9 70.1001 50.5 69.6001 49.3 69.6001C48.4 69.6001 47.6 69.7001 46.8 69.9001C46.7 69.1001 46.5 68.3001 46.2 67.6001C45.8 66.5001 45.4 66.4001 44.3 66.5001C42.6 66.6001 41 66.8001 39.3 67.2001C38.6 67.3001 38.2 67.6001 38.2 68.2001C38.2 69.1001 38.3 69.9001 38.5 70.7001C36 71.1001 35 70.9001 35.6 73.0001ZM38.7 71.9001C40.3 71.7001 39.6 70.9001 39.5 68.4001C41.2 68.1001 43 67.9001 44.8 67.7001C45.1 68.4001 45.3 69.5001 45.6 70.2001C45.8 70.8001 46.4 71.2001 47 71.2001C47.9 71.1001 48.8 71.1001 49.7 71.0001C51.3 75.9001 52.6 84.5001 53.3 92.2001C49.8 92.7001 43.3 92.9001 40.6 92.3001C39.9 85.5001 38.6 78.8001 36.8 72.2001C37.4 72.1001 38 71.9001 38.7 71.9001Z" fill="#191919"/>
<path d="M139.6 52.8C141.5 54 143.7 54.5 145.9 54.1C146.6 54 146.4 53.2 145.8 53.2C143.9 53.3 142 52.8 140.3 51.9C138.6 50.9 139.1 48.3 139.5 46.6C140.2 42.7 141.8 39 143.2 35.4C143.4 34.9 142.6 34.7 142.4 35.1C140.8 38.2 136.3 48.8 138.8 52.1C138.5 52.7 138.1 53.3 137.7 53.8C137.3 54.2 138 55.4 139.6 52.8Z" fill="#191919"/>
<path d="M152.1 39.0001C151.8 39.9001 151.3 44.9001 152.6 45.9001C153 46.2001 153.2 45.7001 154.2 45.4001C156.9 44.4001 154.4 49.9001 151.6 49.4001C149.7 49.1001 151.1 50.3001 145.1 59.6001C144.9 60.0001 145.5 60.4001 145.8 60.0001C148 57.0001 149.5 53.7001 151.3 50.5001C153.9 51.2001 156.6 48.0001 156.6 46.0001C156.6 44.1001 154.8 43.6001 153.3 44.7001C152.6 42.7001 153.3 40.4001 153.4 39.2001C153.5 38.1001 153.1 38.2001 152.3 37.9001C149.4 36.9001 146.5 35.8001 144.2 33.6001C141.7 31.2001 141.9 25.9001 146.6 26.1001C153.1 26.5001 155.3 33.2001 155.8 37.6001C155.9 38.1001 156.1 38.3001 156.5 38.3001C158.4 38.1001 158.9 38.7001 158.3 40.3001C157.9 41.4001 157.3 42.5001 156.6 43.5001C156.1 44.3001 156.5 44.8001 157.3 44.0001C158.2 43.1001 158.9 41.9001 159.3 40.7001C159.9 38.7001 159.2 37.0001 156.9 37.2001C155.8 28.4001 150.6 25.0001 146.6 24.9001C140.7 24.8001 140.1 31.1001 143.6 34.4001C145.8 36.7001 148.8 38.2001 152.1 39.0001Z" fill="#191919"/>
<path d="M100.6 89.7002C106.2 95.1002 122.1 103.7 133.8 102.4C137.5 105.9 141.6 108.8 146.1 111.2C147 111.7 147.6 112.2 148.5 111.5C150.6 110.1 152.4 108.2 153.7 106.1C154.3 105.1 154.1 104.6 153.3 103.8C148.2 98.5002 144 92.4002 140.7 85.8002C143.6 83.8002 147.9 76.5002 148.7 73.0002C148.8 72.8002 148.7 72.6002 148.5 72.5002C148.3 72.4002 148.1 72.5002 148 72.7002C145.8 77.7002 143.1 82.2002 140.2 84.8002C137.9 79.9002 133.4 67.9002 133.9 62.4002C133.9 61.9002 133.1 61.8002 133 62.3002C132.3 68.6002 135.7 77.5002 139.5 85.8002C142.9 92.9002 147.4 99.4002 152.8 105.1C151.6 107.3 149.9 109.2 147.8 110.6C141.8 107.6 136.4 103.5 131.9 98.6002C123.8 89.8002 118.7 78.2002 117.6 71.2002C117.5 70.6002 116.6 70.8002 116.7 71.4002C117.9 81.7002 125.4 93.9002 132.7 101.2C121.9 101.4 109.1 95.4002 100.9 88.4002C105.5 69.5002 114.2 54.1002 135.8 52.9002C135.7 56.4002 137.8 61.1002 140.6 62.6002C144.7 64.8002 147.2 63.1002 148.4 59.3002C152.6 62.6002 156.4 76.6002 157.3 81.7002C158.5 88.2002 151.4 90.6002 146.2 91.5002C145.9 91.5002 145.7 91.8002 145.7 92.2002C145.7 92.6002 146 92.7002 146.4 92.7002H146.5C152.6 91.5002 159.7 88.9002 158.5 81.5002C157.4 74.9002 152.6 60.4002 148.4 58.0002C147.8 57.7002 147.5 58.1002 147.3 58.9002C146.2 62.4002 143.5 63.6002 140.5 61.2002C138 59.2002 137.4 56.2002 136.9 53.4002C136.7 52.2002 136.5 51.6002 135.4 51.7002C115.8 52.3002 103.9 66.7002 99.8999 87.2002C99.5999 88.8002 99.2999 88.5002 100.6 89.7002Z" fill="#191919"/>
<path d="M144.5 39.3C144.8 39.4 145.1 39.2 145.2 38.9C145.3 38.6 145.1 38.3 144.8 38.2C144 37.9 143 38.1 142.3 38.6C141.9 38.9 141.8 39.7 142.5 39.4C143.2 39.1 143.8 39.1 144.5 39.3Z" fill="#191919"/>
<path d="M142.6 42.5C143 42.3 143.4 41.3 142.9 41C142.1 40.6 141.7 42.8 142.6 42.5Z" fill="#191919"/>
<path d="M143.5 48.8C145.2 49.7 147.3 48.2 146.4 47.6C145.7 47.2 145.9 48.4 144.3 48.3C142.7 48.2 143.2 48.7 143.5 48.8Z" fill="#191919"/>
<path d="M144.4 46.6002C144.6 46.6002 144.8 46.5002 144.9 46.2002C144.9 46.0002 144.8 45.8002 144.6 45.7002C142.7 45.4002 143.1 45.5002 144.7 42.8002C145 42.3002 144.5 41.9002 144.2 42.4002C143.5 43.2002 143 44.1002 142.6 45.0002C141.9 46.4002 143.4 46.5002 144.4 46.6002Z" fill="#191919"/>
<path d="M147.4 42.6999C147 41.6999 145.7 43.5999 146.5 43.9999C147.1 44.1999 147.6 43.1999 147.4 42.6999Z" fill="#191919"/>
<path d="M149.1 42.3C149.3 42.9 149.8 42.8 149.9 42.2C149.9 41.1 149.3 40.1 148.2 39.6C147.9 39.5 147.5 39.6 147.4 39.9C147.3 40.2 147.4 40.6 147.7 40.7C148.5 41 148.9 41.6 149.1 42.3Z" fill="#191919"/>
<path d="M161.1 116C161.6 115.6 161.2 115 160.7 115.2C159.7 115.6 159.6 115.3 158.7 115.4C158 115.5 158 116.1 158.5 116.3C159.3 116.6 160.3 116.5 161.1 116Z" fill="#191919"/>
<path d="M153.2 115.7C152.2 115.2 149.7 113.6 149.4 112.5C149.1 111.5 146.3 112.9 152.5 116.7C153.9 117.6 155.4 118 157 118.1C159.5 118.1 158.8 117 158.4 116.9C157.4 116.6 156.1 117.3 153.2 115.7Z" fill="#191919"/>
<path d="M158.9 109.7C158.7 109.5 158.4 109.6 158.2 109.8C158.1 109.9 158.1 110.1 158.1 110.3C159.1 112.8 162.7 113 163.9 112.2C164.5 111.8 164.3 111.1 163.5 111.3C161.6 111.6 160.7 111.5 158.9 109.7Z" fill="#191919"/>
<path d="M162.7 113.2C161.7 113.7 161.6 113.4 160.3 113.6C159.7 113.7 159.7 114.3 160.2 114.5C161.2 114.8 162.3 114.7 163.1 114.1C163.6 113.6 163.3 112.9 162.7 113.2Z" fill="#191919"/>
<path d="M154.4 107.4C156.1 108.3 158.9 106.7 159.8 107.2C160.7 107.9 161.7 108.3 162.7 108.6C163.4 108.8 163.7 108 163 107.7C160.5 106.8 160.6 106 159.7 105.9C158.6 105.8 156.1 106.4 154.6 106.5C154.3 106.5 154.2 106.8 154.2 107.1C154.2 107.2 154.3 107.3 154.4 107.4Z" fill="#191919"/>
<path d="M124.2 172.3C125.1 172.5 143.5 172.4 145.1 172.4C148.1 172.4 148 171.3 145.5 169.8C143.8 168.8 138.4 166.6 136.4 165.8C135.6 165.5 135.3 166.4 136.1 166.8C139.3 168.1 142.4 169.6 145.4 171.3H124.7C124.2 170.6 126.3 167 126.6 166.5C126.9 166 126.4 165.5 125.9 165.9C124.9 166.9 122.1 171.7 124.2 172.3Z" fill="#191919"/>
<path d="M98.8 172.3C102.9 172.4 112.6 172.6 117 172.4C118.9 172.3 119.4 171.9 117.8 170.4C115.7 168.4 110.6 166.7 107.9 165.8C107.1 165.6 106.8 166.6 107.6 166.8C109.9 167.5 115.1 169.6 116.8 171.2C110.5 171.6 103.4 171.2 97 171.1C97.4 169.6 98 168.1 98.8 166.7C99 166.3 98.8 165.4 97.9 166.3C96.9 167.6 96.2 169.1 95.8 170.7C95.4 172.4 96.5 172.3 98.8 172.3Z" fill="#191919"/>
<path d="M46.4 42.0999C44.6 37.3999 37 37.9999 31.1 39.5999C25.3 41.1999 20.6 45.8999 22.2 50.2999C23.8 54.6999 28.1 54.9999 35.6 53.4999C43.1 51.9999 48.2 46.6999 46.4 42.0999ZM30.5 49.9999C30 50.5999 29.1 49.6999 28.2 49.0999C27.9 49.5999 27.2 50.9999 26.6 50.5999C26 50.1999 27.1 48.8999 27.3 48.3999C26.7 47.9999 25.6 47.3999 25.9 46.8999C26.2 46.3999 27.3 47.0999 27.9 47.4999C28.2 47.0999 29 45.4999 29.7 45.8999C30.4 46.2999 29.2 47.5999 28.9 48.0999C29.8 48.6999 31.1 49.2999 30.5 49.9999ZM41.2 46.8999C40.8 47.6999 40 46.8999 39.2 46.4999C38.8 47.2999 38.4 48.4999 37.8 48.2999C37 47.9999 37.9 46.5999 38.2 45.9999C37.7 45.6999 36.1 45.1999 36.3 44.4999C36.5 43.7999 38.3 44.7999 38.7 44.9999C38.9 44.5999 39.5 43.1999 40.1 43.4999C40.9 43.8999 40 44.9999 39.7 45.4999C40.5 45.7999 41.6 46.1999 41.2 46.8999Z" fill="#618AFF"/>
<path d="M145.7 113.4C135.9 117 129.9 126.4 120.8 131.2C113.2 135.2 102.8 136.1 95 132C86.5 127.5 81.3 120.2 76.4 112.4C76.2 112.1 75.8 112.1 75.5 112.3C75.3 112.5 75.2 112.7 75.3 113C78.3 119.9 85.8 127.9 92.2 132C100 137 110 137.1 118.4 133.8C129.6 129.4 135.7 118.6 146.2 114.7C146.5 114.5 146.6 114.1 146.4 113.7C146.2 113.5 145.9 113.4 145.7 113.4Z" fill="#618AFF"/>
<path d="M177.5 108.3C177.5 107.3 174.8 107.6 173.9 107.6C173.9 106.9 173.9 106.2 173.9 105.6C173.8 104.6 172.5 104.4 172.5 105.6C172.5 106 172.5 106.4 172.5 106.8C169.1 107 167.3 107.6 166.9 109.4C165.1 109.3 161.9 109.3 161 109.7C160.8 109.8 160.7 110.1 160.8 110.4C160.8 110.5 160.9 110.5 161 110.6C161.8 110.9 164.7 110.6 166.9 110.8C167.2 112.9 170.2 113.3 172.5 113.2V114.1C172.5 114.5 172.8 114.8 173.2 114.8C173.6 114.8 173.9 114.5 173.9 114.1V112.4C175 112.4 177.7 112.6 177.4 111.5C177.2 110.9 174.8 111 174 111.1C173.9 110.6 174 109.8 174 109.1C174.8 108.9 177.5 109.2 177.5 108.3Z" fill="#618AFF"/>
<path d="M185.5 108.9C186.2 108.8 185.9 107.6 185.4 107.6C184.7 107.7 184.7 109.1 185.5 108.9Z" fill="#618AFF"/>
<path d="M185.1 111.5C185.2 111.7 185.5 111.8 185.7 111.7C185.9 111.6 185.9 111.4 185.9 111.2C186 110.2 184.6 110.5 185.1 111.5Z" fill="#618AFF"/>
<path d="M191.7 100.5C191.1 99.7998 180.1 99.4998 179.8 100.5C179.5 101.5 179.3 117.6 179.8 118.2C180.3 118.8 190.8 119.1 191.3 118.4C191.8 117.7 192.4 101.1 191.7 100.5ZM185.7 114.3C181.7 114.4 181.5 104.8 185.7 104.9C187.2 105 188.3 106.9 188.3 109.3C188.3 111.7 187.2 114.3 185.7 114.3Z" fill="#618AFF"/>
<path d="M51 87.3999C47.9 87.7999 44.8 87.7999 41.7 87.4999C41.3 87.4999 41.6 90.9999 42.4 91.1999C44.7 91.6999 50.3 91.5999 51.6 91.0999C51.9 90.9999 51.4 87.3999 51 87.3999Z" fill="#618AFF"/>
</svg>
