<svg xmlns="http://www.w3.org/2000/svg" viewBox="0 0 344 276.28"><defs><style>.cls-1{fill:#ffffff;}.cls-2{fill:#ffffff;}</style></defs><title>camera-option-icon</title><g id="Layer_2" data-name="Layer 2"><g id="ICON"><path class="cls-1" d="M316,276.28H28a28,28,0,0,1-28-28v-183a28,28,0,0,1,28-28H93.27l9.11-17.84a20.52,20.52,0,0,1,1.77-2.93C111.16,6.79,124.39,0,136.3,0h70.94c11.92,0,25.14,6.79,32.16,16.52a20.47,20.47,0,0,1,1.8,3L250,37.28h66a28,28,0,0,1,28,28v183A28,28,0,0,1,316,276.28ZM28,61.28a4.05,4.05,0,0,0-4,4v183a4.05,4.05,0,0,0,4,4H316a4.05,4.05,0,0,0,4-4v-183a4.05,4.05,0,0,0-4-4H242.56a12,12,0,0,1-10.75-6.67l-12-24.27C217.19,27,211.32,24,207.24,24H136.3c-4.08,0-10,3-12.54,6.36L111.31,54.74a12,12,0,0,1-10.69,6.54Z"/><path class="cls-2" d="M171.86,103.12a47.66,47.66,0,1,1-47.66,47.66,47.35,47.35,0,0,1,47.66-47.66h0m0-24a71.66,71.66,0,1,0,71.66,71.66,71.66,71.66,0,0,0-71.66-71.66Z"/></g></g></svg>