<svg width="57" height="57" viewBox="0 0 57 57" fill="none" xmlns="http://www.w3.org/2000/svg">
<path id="error" d="M28.3333 42.3335C29.1266 42.3335 29.7916 42.0652 30.3283 41.5285C30.8649 40.9918 31.1333 40.3268 31.1333 39.5335C31.1333 38.7402 30.8649 38.0752 30.3283 37.5385C29.7916 37.0018 29.1266 36.7335 28.3333 36.7335C27.5399 36.7335 26.8749 37.0018 26.3383 37.5385C25.8016 38.0752 25.5333 38.7402 25.5333 39.5335C25.5333 40.3268 25.8016 40.9918 26.3383 41.5285C26.8749 42.0652 27.5399 42.3335 28.3333 42.3335ZM28.3333 31.1335C29.1266 31.1335 29.7916 30.8652 30.3283 30.3285C30.8649 29.7918 31.1333 29.1268 31.1333 28.3335V17.1335C31.1333 16.3402 30.8649 15.6752 30.3283 15.1385C29.7916 14.6018 29.1266 14.3335 28.3333 14.3335C27.5399 14.3335 26.8749 14.6018 26.3383 15.1385C25.8016 15.6752 25.5333 16.3402 25.5333 17.1335V28.3335C25.5333 29.1268 25.8016 29.7918 26.3383 30.3285C26.8749 30.8652 27.5399 31.1335 28.3333 31.1335ZM28.3333 56.3335C24.4599 56.3335 20.8199 55.5985 17.4133 54.1285C14.0066 52.6585 11.0433 50.6635 8.52325 48.1435C6.00325 45.6235 4.00825 42.6602 2.53825 39.2535C1.06825 35.8468 0.333252 32.2068 0.333252 28.3335C0.333252 24.4602 1.06825 20.8202 2.53825 17.4135C4.00825 14.0068 6.00325 11.0435 8.52325 8.5235C11.0433 6.0035 14.0066 4.0085 17.4133 2.5385C20.8199 1.0685 24.4599 0.333496 28.3333 0.333496C32.2066 0.333496 35.8466 1.0685 39.2533 2.5385C42.6599 4.0085 45.6233 6.0035 48.1433 8.5235C50.6633 11.0435 52.6582 14.0068 54.1283 17.4135C55.5983 20.8202 56.3333 24.4602 56.3333 28.3335C56.3333 32.2068 55.5983 35.8468 54.1283 39.2535C52.6582 42.6602 50.6633 45.6235 48.1433 48.1435C45.6233 50.6635 42.6599 52.6585 39.2533 54.1285C35.8466 55.5985 32.2066 56.3335 28.3333 56.3335Z" fill="#ED7474"/>
</svg>
