<svg xmlns="http://www.w3.org/2000/svg" viewBox="0 0 342.19 319.99"><defs><style>.cls-1{fill:#ffc24c;}.cls-2{opacity:0.5;}</style></defs><title>Group Expert</title><g id="Layer_2" data-name="Layer 2"><g id="ICON"><path class="cls-1" d="M177.7,234.28l62.39,32.8a13.57,13.57,0,0,0,19.7-14.31L247.87,183.3a13.57,13.57,0,0,1,3.9-12l50.48-49.2a13.57,13.57,0,0,0-7.52-23.15L225,88.79a13.57,13.57,0,0,1-10.22-7.43l-31.2-63.21a13.57,13.57,0,0,0-24.35,0L128,81.36a13.57,13.57,0,0,1-10.22,7.43L48,98.92a13.57,13.57,0,0,0-7.52,23.15L91,171.28a13.57,13.57,0,0,1,3.9,12L83,252.77a13.57,13.57,0,0,0,19.7,14.31l62.39-32.8A13.57,13.57,0,0,1,177.7,234.28Z"/><g class="cls-2"><path class="cls-1" d="M171.38,320a17.5,17.5,0,0,1-17.5-17.5v-25a17.5,17.5,0,0,1,35,0v25A17.5,17.5,0,0,1,171.38,320Z"/><path class="cls-1" d="M17.5,219.51a17.5,17.5,0,0,1-5.4-34.15l23.78-7.73a17.5,17.5,0,1,1,10.82,33.29l-23.78,7.73A17.48,17.48,0,0,1,17.5,219.51Z"/><path class="cls-1" d="M84.55,55.23A17.48,17.48,0,0,1,70.38,48L55.68,27.79A17.5,17.5,0,1,1,84,7.22L98.69,27.44A17.5,17.5,0,0,1,84.55,55.23Z"/><path class="cls-1" d="M324.69,219.51a17.48,17.48,0,0,1-5.41-.86l-23.78-7.73a17.5,17.5,0,1,1,10.82-33.29l23.78,7.73a17.5,17.5,0,0,1-5.4,34.15Z"/><path class="cls-1" d="M257.64,55.23A17.5,17.5,0,0,1,243.5,27.44L258.19,7.22a17.5,17.5,0,1,1,28.32,20.57L271.81,48A17.48,17.48,0,0,1,257.64,55.23Z"/></g></g></g></svg>