<svg xmlns="http://www.w3.org/2000/svg" viewBox="0 0 351 350.18">
    <defs><style>.cls-1{fill:white;}</style></defs>
    <title>invoice-qr-code</title>
    <g id="Layer_2" data-name="Layer 2"><g id="ICON">
        <path class="cls-1" d="M12,148.33H74.33V163h-38a12,12,0,1,0,0,24h50a12,12,0,0,0,12-12V148.33h38a12,12,0,0,0,12-12V12a12,12,0,0,0-12-12H12A12,12,0,0,0,0,12V136.33A12,12,0,0,0,12,148.33ZM24,24H124.33V124.33H24Z"/>
        <rect class="cls-1" x="50" y="50" width="48.33" height="48.33"/>
        <path class="cls-1" d="M339,0H214.67a12,12,0,0,0-12,12V136.33a12,12,0,0,0,12,12h26V163h-17a12,12,0,1,0,0,24h29a12,12,0,0,0,12-12V148.33H339a12,12,0,0,0,12-12V12A12,12,0,0,0,339,0ZM327,124.33H226.67V24H327Z"/>
        <rect class="cls-1" x="252.67" y="50" width="48.33" height="48.33"/>
        <rect class="cls-1" x="50" y="251.85" width="48.33" height="48.33"/>
        <rect class="cls-1" x="276.83" y="276.85" width="48.33" height="48.33"/>
        <path class="cls-1" d="M175.67,98a12,12,0,0,0,12-12V37a12,12,0,0,0-24,0V86A12,12,0,0,0,175.67,98Z"/>
        <path class="cls-1" d="M175.67,263.85H226a12,12,0,0,0,0-24H187.67V128.67a12,12,0,1,0-24,0V251.85A12,12,0,0,0,175.67,263.85Z"/>
        <path class="cls-1" d="M139.33,163H123.67a12,12,0,1,0,0,24h15.67a12,12,0,0,0,0-24Z"/>
        <path class="cls-1" d="M339,163.5H288.33a12,12,0,0,0,0,24H327v10.17a12,12,0,0,0,24,0V175.5A12,12,0,0,0,339,163.5Z"/>
        <path class="cls-1" d="M264,201.85H214.67a12,12,0,0,0,0,24H252v26a12,12,0,0,0,24,0v-38A12,12,0,0,0,264,201.85Z"/>
        <path class="cls-1" d="M339,224.67a12,12,0,0,0-12,12v3.18H313V216.33a12,12,0,0,0-24,0v35.52a12,12,0,0,0,12,12h38a12,12,0,0,0,12-12V236.67A12,12,0,0,0,339,224.67Z"/>
        <path class="cls-1" d="M186,301a12,12,0,1,0,0-24H148.33V213.85a12,12,0,0,0-12-12H12a12,12,0,0,0-12,12V338.18a12,12,0,0,0,12,12H136.33a12,12,0,0,0,12-12V301Zm-61.67,25.18H24V225.85H124.33Z"/>
        <path class="cls-1" d="M250.33,277H226a12,12,0,0,0,0,24h24.33a12,12,0,1,0,0-24Z"/>
        <path class="cls-1" d="M250.33,313.18H175.67a12,12,0,0,0,0,24h62.67v1a12,12,0,0,0,24,0v-13A12,12,0,0,0,250.33,313.18Z"/>
    </g></g>
</svg>
