<?xml version="1.0" encoding="utf-8"?>
<!-- Generator: Adobe Illustrator 21.1.0, SVG Export Plug-In . SVG Version: 6.00 Build 0)  -->
<svg version="1.1" id="Layer_1" xmlns="http://www.w3.org/2000/svg" xmlns:xlink="http://www.w3.org/1999/xlink" x="0px" y="0px"
	 viewBox="0 0 200 200" style="enable-background:new 0 0 200 200;" xml:space="preserve">
<style type="text/css">
	.st0{fill:#618AFF;}
	.st1{fill:#191919;}
</style>
<path class="st0" d="M181.3,63.8c-2.1-0.4-4.9,1.8-4.7,6.3c0.1,2.6,1.1,6.5,4.3,6.8c2.8,0.2,3.2-4.8,3.2-6.7
	C184.2,68.1,184,64.3,181.3,63.8z"/>
<path class="st0" d="M181.1,56.4c-9.6,0-15.3,6.3-15.3,15.1c0.1,7.7,6.3,13.9,14,14.1c9.4,0,15.3-5,15.2-14.7S189.1,56.4,181.1,56.4
	z M180.9,78.5c-3.9-0.4-5.5-4.9-5.7-8.2c-0.2-3.8,1.8-8.7,6.3-7.9c3.2,0.5,4,4.1,4,7.5C185.6,72.8,184.9,78.9,180.9,78.5L180.9,78.5
	z"/>
<path class="st0" d="M86.5,142.7c-0.6,0.4,0.3,1.8,0.7,2.7c0.3,0.7,1.4,0.2,1-0.5C88,144.5,87.3,142.3,86.5,142.7z"/>
<path class="st0" d="M138.9,159.9c-0.2,0.1-0.3,0.3-0.2,0.5c0,0.1,0.1,0.2,0.2,0.2c0.8,0.3,9.8,0.8,10.5,0.2
	c0.2-0.2,0.3-0.5,0.1-0.8c0,0,0,0,0,0C149,159.2,139.8,159.6,138.9,159.9z"/>
<path class="st0" d="M92.7,90.5c0.6-3.5-0.6-18.3,0-25.1c0.2-2.7,0.3-4,3.4-4.2c5-0.2,21-0.6,24.8-0.2c5.3,0.5,3.9,7.1,8.9,9.3
	c2.5,1.1,28.2,0.8,32.6,0.9c0.4,0,0.7-0.2,0.8-0.6c0-0.4-0.2-0.7-0.6-0.8c0,0-0.1,0-0.1,0c-3,0-30.5,0-32.3-1
	c-3.5-1.8-3.3-7-6.8-8.7c-2.1-1-23.2-0.6-27.7-0.3c-3.7,0.3-4.1,2.1-4.4,5.3s0.2,23.9,0.5,25.4c0,0.3,0.3,0.4,0.5,0.4
	C92.5,91,92.7,90.8,92.7,90.5z"/>
<path class="st0" d="M189,86.2c0-0.4-1-0.4-1,0c0.3,21.9,1.6,44,1.8,65.6c0,1.9-0.3,6.6-2.9,6.8c-2.1,0.1-4.8-3-5.5-4.7
	c-7.4-17.9-13.6-36.3-21.2-54.1c-3-7-7.5-7-14.1-7c-23.6,0-47.9-0.1-71.5,0.3c-7.2,0.1-9,3.2-6.9,9.6c1.7,5.2,8.1,22.5,11.2,26.5
	c0.3,0.3,0.8,0,0.6-0.3c-3-7.2-8.2-19.2-11.1-28.2c-1.5-4.6,1.7-6,6.4-6.1c23.5-0.3,47.7-0.1,71.1-0.3c6.9-0.1,10,0.2,13,6.6
	c7.2,15.3,13.2,33.7,19.5,49.7c1.3,3.2,2.1,5.9,5.2,8.1c-2.1,0-17.7,0-19.1,0.5c-0.2,0.1-0.3,0.3-0.3,0.5c0,0.1,0.1,0.2,0.3,0.3
	c1.8,0.6,20.6,0,22.3-0.1c4.5,0,4-7.9,4-8.1C190.8,140,189.2,98.4,189,86.2z"/>
<path class="st0" d="M119.4,157c-0.7,0.3-9.1,12.3-10,12.3s-8.4-7.5-9-7.4s-7.6,10-7.2,10.6s36.1,0.4,36.9-0.3
	S120.1,156.7,119.4,157z"/>
<path class="st0" d="M102.7,152.2c-1.2-3.9-8-3.8-7.1,2.1C96.3,159.3,104.2,157.5,102.7,152.2z M101.3,152.2
	c1.7,3.4-4.2,5.7-4.5,1.2C96.7,150.2,100.3,150.3,101.3,152.2L101.3,152.2z"/>
<path class="st0" d="M124.4,136.7c0,3.7,3.1,6.7,6.8,6.7c3.1,0,6.8-2.1,6.8-7.3C137.9,127.2,124.3,126.9,124.4,136.7z M129.4,139.7
	c-0.2-0.3-0.2-6,0.1-6.3s4.5,2.9,4.5,3.4S129.6,139.9,129.4,139.7z"/>
<path class="st1" d="M181.4,185.3c-58.4,0-116.5,0.1-175.9,0c-0.8,0-0.7,1.1,0,1.2c58.7,0.7,117.5,0.2,175.9,0.3
	C182.5,186.7,182.4,185.3,181.4,185.3z"/>
<path class="st1" d="M78.6,43.9c0.6,0.3,0.9-0.5,0.6-0.8c-0.8-0.6-1.8-0.6-2.6,0c-0.3,0.3-0.1,0.7,0.3,0.6
	C77.5,43.6,78.1,43.7,78.6,43.9z"/>
<path class="st1" d="M75.8,48.9c0,1.2,2,2.3,2.8,0.8c0.2-0.4-0.2-0.8-0.4-0.3s-1.4,0.8-1.9-0.6C76.1,48.4,75.7,48.6,75.8,48.9z"/>
<path class="st1" d="M76.4,46.4c0.4,0.6,1.7-0.8,1-1.2C76.8,44.9,76.2,46.1,76.4,46.4z"/>
<path class="st1" d="M74,50.4c0.2,0.1,0.4,0,0.5-0.2c0.1-0.2,0.1-0.3-0.1-0.5c-1.7-1.4-2.8,0.1-1.8,0.1C73.3,49.9,73.4,50.1,74,50.4
	z"/>
<path class="st1" d="M82.2,46.7c0.5,0,0.3-0.9,0-1.4c-0.3-0.4-1,0-0.7,0.3C81.9,46.3,81.7,46.7,82.2,46.7z"/>
<path class="st1" d="M80.6,47.7c-0.4-0.5-1.3,0.5-0.9,0.9S80.9,48,80.6,47.7z"/>
<path class="st1" d="M30.3,90.7c-0.6,2-1.1,4.1-1.3,6.2c-0.2,1.6,0,1.8,1.4,2.8c7.4,4.9,23.5,6.3,31.8,4.5c0.4-0.1,0.7-0.4,0.7-0.8
	c0-5.6,0.2-11.8,3.6-16.6c0.6,2,1.8,3.9,3.3,5.3c1.9,1.7,2.5,0.5,1.3-0.4c-2.5-1.7-2.9-4.2-4.1-5.7c5.1-6.4,6.6-11,4.9-19.3
	c-0.1-0.3-0.5-0.2-0.5,0.1c0.2,7.8,1.2,10.5-5.3,18.7C62.2,90.5,62,96.6,62,103c-8,1.5-25.2,0.3-32-4.9c0.2-2.3,0.7-4.6,1.3-6.8
	c1.6,1.1,3.7,1.1,5.2,0c4.3-3.2,0.6-7.3-1.1-10.8c1.1-3,2.5-6,4-8.8c0.4-0.9-0.2-1-0.7-0.4c-0.9,1-3.4,6.8-3.7,8.1
	c-0.9-2.2-1.6-4.5-2-6.8c3.9-1.8,7.9-3.3,12.1-4.4c0.3-0.1,0.2-0.6-0.1-0.7c-2-0.3-10.9,3.1-12.1,4.2c-0.2-1.7-0.9-1.9-1.1-1.4
	c-0.8,2.1,2.5,10.3,3.9,12.7c1.3,2.3,3.7,5.4,0.2,7.5c-2.1,1.3-4.4,0-6.1-1.8c-5.1-5.1-12-15.5-8-23c5-9.3,31.5-19.7,39.3-13.5
	c2.6,2.1,3.6,6.1,5.1,9.5c0.4,1,0.6,1,1.7,0.3c1.3-1,2.4-2.1,3.2-3.5c4,4,5.2,13.4,6.2,19c1,5.7,3,7.8,8.6,12.9
	c1,0.9,1.4,0.2,0.6-0.7c-4.9-5.6-7.4-6.6-8.1-12.3c-0.6-4.4-2.7-16.2-6.8-19.9c-0.3-0.3-0.8-0.6-1-0.1c-0.8,1.6-2,3-3.4,4.1
	c-0.9-3.5-3.1-8.2-4.9-9.9c-8.2-7.6-36.4,3.6-41.5,13.6C16.3,73.4,24.1,86.2,30.3,90.7z"/>
<path class="st1" d="M41.2,96.3c0.5,0.3,1.1-1,0.8-1.6c-0.1-0.2-0.4-0.2-0.6-0.1c-0.2,0.1-0.2,0.3-0.2,0.5
	C41.3,95.8,40.9,96.1,41.2,96.3z"/>
<path class="st1" d="M36,96.6c-0.3-0.5-1,0-0.7,0.6c0.9,1.5,3.3,1.6,3.2-0.3c-0.3-3.4-2.6-1.2-4.9-3.9c-0.5-0.6-1.2,0.7,0.9,2
	c1.9,1.2,3-0.1,3,2.2C36.9,97.3,36.3,97.1,36,96.6z"/>
<path class="st1" d="M39.6,96.3c-0.1,0.3-0.2,0.7-0.4,1c-0.4,0.6,0.6,0.9,1,0.1c0.1-0.2,0.2-0.5,0.3-0.8
	C40.6,96.1,39.8,95.7,39.6,96.3z"/>
<path class="st1" d="M42.6,94.3c1-0.7-0.2-5.3-3.3-6.3c-0.3-0.1-0.4,0.3-0.3,0.5c1,1,2.6,1.6,2.9,4.1C42.1,93.7,41.9,94.8,42.6,94.3
	z"/>
<path class="st1" d="M89,147c-0.1,8.4-0.3,17.8,0.2,26.2c0.1,1.9-0.3,2.8,1.7,3c6.9,0.7,34.7,0.4,39.8,0.3c3.5-0.1,3.2,0.6,3.3-5.4
	c0.1-4.8,0-9.6,0.1-14.4c0-0.4-0.3-0.6-0.7-0.6c-0.3,0-0.5,0.2-0.6,0.5c-0.2,0.9-0.1,17.2,0.1,18.6c-12.5,0.2-30.2,0-42.6-0.1
	c0.5-1.3,0.1-25.9,0.1-29.3h10c0.4,0,0.7-0.4,0.7-0.8c0-0.4-0.3-0.7-0.7-0.7c-3,0-6,0.1-9.1,0.1C88.9,144.4,89,145.1,89,147z"/>
<path class="st1" d="M136.5,157.5c-0.1,6.7-0.3,15-0.2,21.6c-11.3,0-29.9,0-41.1,0c-3.2,0-3.1,1.4-0.3,1.4c14,0.1,27.6,0,41.8,0
	c1.5,0,1-1.3,1-2.7c0.1-6.7,0.1-13.4,0.1-20.1C137.9,155.7,136.5,155.6,136.5,157.5z"/>
<path class="st1" d="M108.8,154.4c11.2,1.2,32.4,0.9,45.1,0.6c0.8,0,0.8-0.7,0.8-1.4c-0.3-11.4,0.5-23.2,0-34.5
	c0-0.6-0.5-0.8-1.4-0.8c-43-0.2-41.4,0.1-45.1-0.2c-2.1-0.2-3.8-0.9-3.4-3.2c0.4-2.7,5.8-2.2,7.7-2.1c10.3,0.1,21.1,0.5,31.3,0.3
	c0.1,1.4-0.3,4,0.9,4.1c1.6,0.1,0.8-4.3,0.9-4.9s-0.1-1.3-0.8-1.3c-10.9-0.1-22-0.3-32.1-0.3c-6.1,0-10.4,0.3-10.5,6.2
	c-0.2,8.4-0.5,18.6-0.1,26.5C102.3,148.5,102.6,153.7,108.8,154.4z M106.4,151.4c-1.5-1.2-2.4-3.1-2.5-5c0.7,0.6,1.6,1,2.5,1.2
	C106.4,148.8,106.4,150.1,106.4,151.4L106.4,151.4z M108.3,147.8l4.6,0.4c0,1.5,0,2.9,0.1,4.4c-1.7,0-3.4-0.2-5-0.6
	C108,151.7,108,152.4,108.3,147.8L108.3,147.8z M114.9,152.9l0.2-4.8l5,0.1l0.2,4.7L114.9,152.9z M122.1,153
	c0.1-1.6,0.1-3.1,0.2-4.7c1.3,0,2.7,0,4,0.1c0.1,1.6,0.1,3.1,0.2,4.7L122.1,153z M128.2,153.1l0.2-4.7h4.4l0.3,4.7H128.2z
	 M135,148.4c1.8,0,3.6,0,5.4,0l0.1,4.7c-1.9,0.1-3.8,0.1-5.7,0.1C134.8,152.4,135,148.6,135,148.4L135,148.4z M142.5,148.3l5.5-0.1
	c0.1,1.6,0.2,3.2,0.2,4.8c-1.9,0.1-3.8,0.1-5.7,0.1C142.5,153,142.5,153.3,142.5,148.3L142.5,148.3z M150,153c0-1.6,0.1-3.2,0.1-4.8
	c1.1,0,2.1,0,3.1-0.1c0,1.6,0,3.2,0.1,4.8L150,153z M153.2,126.8c0,6.4,0,12.8,0.1,19.2c-1.8-0.1-5,0.1-7.1,0.2
	c0.3-1.8-0.3-12.1-0.3-19.2C148.3,127,150.8,127,153.2,126.8L153.2,126.8z M148.8,120.3h4.3c0,1.5,0,3,0,4.5c-1.5-0.1-3-0.1-4.5,0
	L148.8,120.3z M142.3,120.3h4.4v4.5h-4.6C142.3,119.3,142.3,120.4,142.3,120.3L142.3,120.3z M136,120.3h4.1c0,1.5,0,3,0.1,4.5h-4.3
	L136,120.3z M129.6,120.3h4.1c0.1,1.5,0.1,3,0.2,4.5l-4.4,0C129.5,123.3,129.7,121.7,129.6,120.3L129.6,120.3z M122.3,120.3h5.2v4.4
	c-1.8,0-3.5-0.1-5.3-0.1C122.4,123.2,122.4,121.8,122.3,120.3L122.3,120.3z M143.9,127c-0.1,0.7,0.1,17,0.5,19.3h-25.2
	c0.3-1.9-0.6-11.4-0.3-19.5L143.9,127z M115.1,120.3h5.1c0,1.4,0,2.9,0,4.3c-1.8-0.1-3.6-0.1-5.4-0.2
	C114.9,123.1,115,121.7,115.1,120.3z M113,120.3v4.1l-4.3-0.3c0.3-1.3,0.5-2.6,0.5-3.9C109,120.2,110.8,120.3,113,120.3z M104.2,119
	c0.9,0.6,1.9,1,2.9,1.1c-0.1,1.3,0,2.7,0.3,4C104.2,123.6,104.2,121.8,104.2,119L104.2,119z M103.8,124.6c1.9,1.8,5.3,1.6,7.7,1.8
	c0.9,0.1,5,0.3,5.5,0.3c-0.4,1,0.2,18.5,0.3,19.5c-3.5-0.1-12.8,0.9-13.7-3.5C103.6,127.2,103.9,124.6,103.8,124.6L103.8,124.6z"/>
<path class="st1" d="M154.5,157.1c0.6,0.6,1.2,1.2,1.8,1.8c-3.9,0.9-6.1-2.3-7.7-3.2c-0.5-0.3-1,0.5,1.1,2.5c1.8,1.8,4.4,2.6,7,2.1
	c0.8-0.2,1.8-0.8,0.8-1.7c-1-0.9-2-1.8-3.1-2.6C154.1,155.8,153.3,155.9,154.5,157.1z"/>
<path class="st1" d="M157.4,168.3c0.8-0.2,0.6-1.4-0.2-1.4c-6.8-0.1-5.9,9.6-0.8,9.9c3.4,0.2,3.4-2.7,3.4-5c0.1-27.4,0.3-30.5,0-39
	c5.8,8.9,4.8,15.9,0.9,24.5c-0.2,0.3-0.1,0.6,0.2,0.8c0.3,0.2,0.6,0.1,0.8-0.2c6.1-9.3,4.7-21-2.2-27.1c-0.4-0.4-1.1,0.3-1.1,0.6
	c-0.1,9.4,0.2,36.7,0.1,41c0,1.1,0.1,2.4-1.5,2.8c-2.2,0.5-3.9-2.7-2.8-5.2C154.7,168.7,156.2,168.6,157.4,168.3z"/>
<path class="st1" d="M167.2,163.9c2.6-3,7.6,1.7,4.4,5c-0.5,0.5-0.7,0.7-1.2,0.4c-2.6-1.5-6.3-5.6-8.7-7.9c-0.5-0.4-1.3,0.4-0.8,0.9
	c2.2,2.6,4.7,5,7.4,7.1c1.6,1.3,2.9,2.2,4.6,0.3c3.6-4.1-1.8-11-6-7.7C164.9,163.6,166.5,164.7,167.2,163.9z"/>
<path class="st1" d="M70,56.6c0.4-1,0.8-1.9,1.4-2.8c4.5,3.7,11.4-4.4,13.1-8.3c0.2-0.5-0.3-0.8-0.6-0.4c-1.7,3.3-8.4,11.4-12.4,7.7
	c-1.2-1.4-1.8-3.2-1.6-5c0-0.2-0.2-0.3-0.3-0.3c-0.1,0-0.2,0.1-0.2,0.2c-0.4,1.9,0.1,4,1.3,5.5C68.8,56,69.6,57.2,70,56.6z"/>
<path class="st1" d="M60.2,35.3c-0.9,3.6,2.7,7.4,6.3,4c-0.1-2.7,3.9-12.1,15.4-9.2c1.9-0.6,3.6-6-0.5-6.6c3.6-2.2,0.9-7.1-2.5-5.4
	c0.8-5.5-7.7-7-8.5-2c-1.3-4.7-11.5-4.4-8.5,3.3c-5.1-2.6-9.8,3.7-4.4,7.6C51.8,27.5,53.2,38.4,60.2,35.3z"/>
<path class="st1" d="M68,44.1c-2,1.7-4.3,4.3-5.1,6.8c-0.1,0.3,0.4,0.4,0.5,0.2c1.4-2.8,2.8-4.4,6.4-7.3c0.3-0.3,0.4-0.5,0.2-0.7
	c-1.1-1.3,1.5-3.7,2.5-2.8c0.6,0.6,0,1.6,0.7,1.5c1.6-0.2,3.1-0.9,4.3-2.1c2.1,1.8,6.7,4.7,7.9,4.3s4.9-8.4-2.4-12.4
	S64.4,33.6,68,44.1z"/>
<path class="st1" d="M86.1,123.9c-2,3.2-13.6,21.8-13.9,23.1c-0.6,3.2-1,6.3-1.2,9.5c0,1.2,2.1-0.5,2.7-0.8c2-1.4,3.9-2.9,5.8-4.4
	c4.7-7.6,10-15.2,14.1-23.2c0.3-0.5,0.6-1.2,0-1.6c-0.8-0.6-5-2.7-5.9-3.2S86.4,123.4,86.1,123.9z M72.2,155.4
	c0.3-2.4,0.5-4.8,0.8-7.2l5,2.8L72.2,155.4z M92.5,127.3c-4.8,8.5-9.2,15.3-13.5,22.8l-5.7-3.1c4.6-7.7,9.7-15.5,14-22.8L92.5,127.3
	z"/>
<path class="st1" d="M53.7,176.9c0-0.2-0.2-0.4-0.4-0.4c-0.2,0-0.3,0.1-0.4,0.3c-0.4,1.4-0.7,2.8-1,4.2c-0.7,3.5,0.8,3.2,3.8,3.1
	c4.4,0,8.8-0.2,13.2-0.3c0.8,0,1.9-0.2,2.1-1.1c0.2-1.1-1.1-1.7-1.9-2.1c-2.7-1.4-5.6-2.5-8.5-3.4c-0.7-0.2-1.1,0.6-0.3,0.9
	c3.2,1.1,6.3,2.4,9.2,3.9c1.4,0.8-1,0.7-1.5,0.8c-4.7,0.2-9.4,0.3-14.1,0.2C51.8,183,53.1,182.1,53.7,176.9z"/>
<path class="st1" d="M14.4,177.2c3.7,3.9,8.7,6.3,14,6.8c0.8,0.1,2.8,0.5,3.2-0.5c0.4-1-0.8-2.3-1.5-2.9c-2.3-2-4.6-2.3-6.7-6.3
	c-0.3-0.6-1.1-0.2-0.8,0.5c2.3,4.4,5.3,5.1,7.2,7c1.8,1.8,0.6,1.4-0.8,1.3c-5.3-0.3-10.2-2.6-13.8-6.4c-0.5-0.6-1.1-1.1-0.8-1.9
	c0.6-1.4,1.4-2.7,2.4-3.8c0.4-0.4-0.2-1.1-0.6-0.6c-1,1-3.2,3.8-2.9,5.3C13.5,176.2,13.9,176.8,14.4,177.2z"/>
<path class="st1" d="M25.3,172.9c3.6-3,17.3-22.6,21.6-32.3c3.4-7.6,4.6-17.6,5.9-26.2c0-0.2,0.2-0.3,0.3-0.2c0.1,0,0.2,0.2,0.2,0.3
	c-0.9,8.9-2.7,17.8-5.3,26.4c1.7,10.4,3.6,29.4,4,34.5c3.2,0.2,6.3,0.2,9.5,0c1-6.6,2.5-37.3,0.8-70c-13.9,2.5-27.9-1.3-32.6-4.8
	c-1,22.4,2,33.3,1.6,35.8s-10.1,23.2-14.7,31.2C19.1,170.5,21.6,171.8,25.3,172.9z"/>
</svg>
