<svg xmlns="http://www.w3.org/2000/svg" viewBox="0 0 362.49 313.59"><defs><style>.cls-1{fill:#26323e;}</style></defs><title>Tribe_wigwam_1</title><g id="Layer_2" data-name="Layer 2"><g id="ICON"><path class="cls-1" d="M348.49,285.59H328.87A14.08,14.08,0,0,0,328,284L197.67,70l29.7-48.75A14,14,0,1,0,203.46,6.72L181.28,43.13,159.09,6.72a14,14,0,1,0-23.91,14.57L164.88,70,34.51,284a14.08,14.08,0,0,0-.83,1.61H14a14,14,0,0,0,0,28H348.49a14,14,0,0,0,0-28Zm-106.86,0-35.43-58.15a28.84,28.84,0,0,0-49.25,0l-35.43,58.15H66.32l115-188.66,115,188.66Zm-32.79,0H154.31L180.87,242a.84.84,0,0,1,1.43,0Z"/></g></g></svg>