<?xml version="1.0" encoding="iso-8859-1"?>
<!-- Generator: Adobe Illustrator 18.1.1, SVG Export Plug-In . SVG Version: 6.00 Build 0)  -->
<svg version="1.1" id="Capa_1" xmlns="http://www.w3.org/2000/svg" xmlns:xlink="http://www.w3.org/1999/xlink" x="0px" y="0px"
	 viewBox="0 0 26 26" style="enable-background:new 0 0 26 26;" xml:space="preserve">
<g>
	<path style="fill:#030104;" d="M21.125,0H4.875C2.182,0,0,2.182,0,4.875v16.25C0,23.818,2.182,26,4.875,26h16.25
		C23.818,26,26,23.818,26,21.125V4.875C26,2.182,23.818,0,21.125,0z M19,18c0,0.551-0.449,1-1,1h-2c-0.551,0-1-0.449-1-1v-3.618
		l-5.569,4.425c-0.139,0.068-0.289,0.104-0.439,0.104c-0.179,0-0.356-0.049-0.512-0.144C8.19,18.593,8,18.282,8,17.95V8.051
		c0-0.334,0.19-0.644,0.479-0.817c0.288-0.175,0.649-0.191,0.952-0.039L15,11.618V8c0-0.551,0.449-1,1-1h2c0.551,0,1,0.449,1,1V18z"
		/>
</g>
<g>
</g>
<g>
</g>
<g>
</g>
<g>
</g>
<g>
</g>
<g>
</g>
<g>
</g>
<g>
</g>
<g>
</g>
<g>
</g>
<g>
</g>
<g>
</g>
<g>
</g>
<g>
</g>
<g>
</g>
</svg>
