<svg xmlns="http://www.w3.org/2000/svg" width="28" height="20" viewBox="0 0 28 20" fill="none">
  <path d="M15.7775 0H4.67357C4.27018 0 3.94279 0.334328 3.94279 0.746269V4.02637H0.730778C0.327388 4.02637 0 4.3607 0 4.77264V19.2537C0 19.6657 0.327388 20 0.730778 20H11.8347C12.2381 20 12.5655 19.6657 12.5655 19.2537V15.9736H15.7775C16.1809 15.9736 16.5083 15.6393 16.5083 15.2274V0.746269C16.5083 0.334328 16.1809 0 15.7775 0ZM11.1039 18.5075H1.46156V5.51891H11.1039V18.5075ZM15.0467 14.4811H12.5655V4.77264C12.5655 4.3607 12.2381 4.02637 11.8347 4.02637H5.40434V1.49254H15.0467V14.4811Z" fill="#B0B7BC"/>
  <path d="M22.5018 3.69941L21.6018 4.59941C21.4184 4.78275 21.1893 4.87441 20.9143 4.87441C20.6393 4.87441 20.4018 4.77441 20.2018 4.57441C20.0184 4.39108 19.9268 4.15775 19.9268 3.87441C19.9268 3.59108 20.0184 3.35775 20.2018 3.17441L22.8018 0.574414C23.0018 0.374414 23.2351 0.274414 23.5018 0.274414C23.7684 0.274414 24.0018 0.374414 24.2018 0.574414L26.8018 3.17441C26.9851 3.35775 27.0809 3.58691 27.0893 3.86191C27.0976 4.13691 27.0018 4.37441 26.8018 4.57441C26.6184 4.75775 26.3851 4.84941 26.1018 4.84941C25.8184 4.84941 25.5851 4.75775 25.4018 4.57441L24.5018 3.69941V16.8744C24.5018 17.1577 24.4059 17.3952 24.2143 17.5869C24.0226 17.7786 23.7851 17.8744 23.5018 17.8744C23.2184 17.8744 22.9809 17.7786 22.7893 17.5869C22.5976 17.3952 22.5018 17.1577 22.5018 16.8744V3.69941Z" fill="#B0B7BC"/>
</svg>