<svg xmlns="http://www.w3.org/2000/svg" width="21" height="21" viewBox="0 0 21 21" fill="none">
  <path d="M20.304 12.858L13.3849 19.7283C13.1576 19.955 12.8654 20.0718 12.5731 20.0718C12.2809 20.0718 11.9886 19.955 11.7613 19.7283L8.54025 16.4651C8.07267 15.991 8.05968 15.2079 8.50777 14.7132C8.95587 14.2186 9.69621 14.2048 10.1638 14.6789L12.5731 17.1246L18.6804 11.0718C19.148 10.5978 19.8883 10.6184 20.3364 11.1062C20.7845 11.6008 20.7715 12.384 20.304 12.858Z" fill="#B0B7BC"/>
  <path fill-rule="evenodd" clip-rule="evenodd" d="M5.27171 0.25H16.3756C16.779 0.25 17.1064 0.584328 17.1064 0.996269V10.086L15.6449 11.4471V1.74254H6.00249V4.27637H12.4328C12.8362 4.27637 13.1636 4.6107 13.1636 5.02264V13.7578L12.5899 14.292L11.7021 13.3908V5.76891H2.0597V18.7575H7.99257L9.46584 20.25H1.32892C0.925533 20.25 0.598145 19.9157 0.598145 19.5037V5.02264C0.598145 4.6107 0.925533 4.27637 1.32892 4.27637H4.54093V0.996269C4.54093 0.584328 4.86832 0.25 5.27171 0.25ZM17.1064 12.6317L15.6449 14.0802V14.7311H14.9881L13.4821 16.2236H16.3756C16.779 16.2236 17.1064 15.8893 17.1064 15.4774V12.6317ZM13.1636 16.5393V19.5037C13.1636 19.6907 13.0962 19.8616 12.9848 19.9926C12.8523 20.0452 12.7126 20.0719 12.573 20.0719C12.2807 20.0719 11.9885 19.9551 11.7612 19.7284L10.8028 18.7575H11.7021V16.2406L12.573 17.1247L13.1636 16.5393Z" fill="#B0B7BC"/>
</svg>