<svg xmlns="http://www.w3.org/2000/svg" width="19" height="20" viewBox="0 0 19 20" fill="none">
  <mask id="mask0_9234_8161" style="mask-type:alpha" maskUnits="userSpaceOnUse" x="-3" y="-2" width="25" height="25">
    <rect x="-2.40186" y="-1.87402" width="24" height="24" fill="#D9D9D9"/>
  </mask>
  <g mask="url(#mask0_9234_8161)">
    <path d="M2.59814 19.999C2.04814 19.999 1.57731 19.8032 1.18564 19.4115C0.793978 19.0199 0.598145 18.549 0.598145 17.999V3.99902C0.598145 3.44902 0.793978 2.97819 1.18564 2.58652C1.57731 2.19486 2.04814 1.99902 2.59814 1.99902H3.59814V-0.000976562H5.59814V1.99902H13.5981V-0.000976562H15.5981V1.99902H16.5981C17.1481 1.99902 17.619 2.19486 18.0106 2.58652C18.4023 2.97819 18.5981 3.44902 18.5981 3.99902V17.999C18.5981 18.549 18.4023 19.0199 18.0106 19.4115C17.619 19.8032 17.1481 19.999 16.5981 19.999H2.59814ZM2.59814 17.999H16.5981V7.99902H2.59814V17.999Z" fill="#B0B7BC"/>
  </g>
</svg>