<svg xmlns="http://www.w3.org/2000/svg" width="25" height="25" viewBox="0 0 25 25" fill="none">
  <mask id="mask0_9801_2232" style="mask-type:alpha" maskUnits="userSpaceOnUse" x="0" y="0" width="25" height="25">
    <rect x="0.953857" y="0.171387" width="24" height="24" fill="#D9D9D9"/>
  </mask>
  <g mask="url(#mask0_9801_2232)">
    <path d="M12.9539 22.1714C11.5705 22.1714 10.2705 21.9089 9.05386 21.3839C7.83719 20.8589 6.77886 20.1464 5.87886 19.2464C4.97886 18.3464 4.26636 17.2881 3.74136 16.0714C3.21636 14.8547 2.95386 13.5547 2.95386 12.1714C2.95386 10.7881 3.21636 9.48805 3.74136 8.27139C4.26636 7.05472 4.97886 5.99639 5.87886 5.09639C6.77886 4.19639 7.83719 3.48389 9.05386 2.95889C10.2705 2.43389 11.5705 2.17139 12.9539 2.17139C14.3372 2.17139 15.6372 2.43389 16.8539 2.95889C18.0705 3.48389 19.1289 4.19639 20.0289 5.09639C20.9289 5.99639 21.6414 7.05472 22.1664 8.27139C22.6914 9.48805 22.9539 10.7881 22.9539 12.1714C22.9539 13.5547 22.6914 14.8547 22.1664 16.0714C21.6414 17.2881 20.9289 18.3464 20.0289 19.2464C19.1289 20.1464 18.0705 20.8589 16.8539 21.3839C15.6372 21.9089 14.3372 22.1714 12.9539 22.1714ZM12.9539 20.1714C15.1872 20.1714 17.0789 19.3964 18.6289 17.8464C20.1789 16.2964 20.9539 14.4047 20.9539 12.1714C20.9539 11.1047 20.7539 10.0797 20.3539 9.09639C19.9539 8.11305 19.3789 7.24639 18.6289 6.49639L12.9539 12.1714V4.17139C10.7205 4.17139 8.82886 4.94639 7.27886 6.49639C5.72886 8.04639 4.95386 9.93805 4.95386 12.1714C4.95386 14.4047 5.72886 16.2964 7.27886 17.8464C8.82886 19.3964 10.7205 20.1714 12.9539 20.1714Z" fill="#B0B7BC"/>
  </g>
</svg>