<svg width="17" height="17" viewBox="0 0 17 17" fill="none" xmlns="http://www.w3.org/2000/svg">
<mask id="mask0_9981_559" style="mask-type:alpha" maskUnits="userSpaceOnUse" x="0" y="0" width="17" height="17">
<rect x="0.0146484" y="0.222168" width="16" height="16" fill="#D9D9D9"/>
</mask>
<g mask="url(#mask0_9981_559)">
<path d="M8.01464 10.1889C7.92575 10.1889 7.84242 10.175 7.76464 10.1473C7.68686 10.1195 7.61464 10.0723 7.54797 10.0056L4.48131 6.93893C4.35908 6.81671 4.29797 6.66115 4.29797 6.47227C4.29797 6.28338 4.35908 6.12782 4.48131 6.0056C4.60353 5.88338 4.75908 5.82227 4.94797 5.82227C5.13686 5.82227 5.29242 5.88338 5.41464 6.0056L8.01464 8.6056L10.6146 6.0056C10.7369 5.88338 10.8924 5.82227 11.0813 5.82227C11.2702 5.82227 11.4258 5.88338 11.548 6.0056C11.6702 6.12782 11.7313 6.28338 11.7313 6.47227C11.7313 6.66115 11.6702 6.81671 11.548 6.93893L8.48131 10.0056C8.41464 10.0723 8.34242 10.1195 8.26464 10.1473C8.18686 10.175 8.10353 10.1889 8.01464 10.1889Z" fill="#3C3F41"/>
</g>
</svg>
