<svg width="32" height="32" viewBox="0 0 32 32" fill="none" xmlns="http://www.w3.org/2000/svg">
<g id="Group 477">
<g id="icon-worker">
<path id="Subtract" opacity="0.15" fill-rule="evenodd" clip-rule="evenodd" d="M28.2842 26.2524C30.6039 23.4759 32 19.901 32 16C32 7.16344 24.8366 0 16 0C7.16344 0 0 7.16344 0 16C0 20.2977 1.69446 24.1997 4.45174 27.0742L4.6 26.5998L5 23.9998L7.2 22.3998L11.2 20.9998L13.4 19.3998V17.3998L11.2 13.9998L11 11.1998L11.8 7.3998L15 5.3998L18.4 5.7998L21 6.1998L21.2 8.39981L21.6 11.5998L21.4 13.7998L19 17.9998L19.4 20.1998L24 21.7998L27 23.3998L28.2 25.5998L28.2842 26.2524Z" fill="#3C3F41"/>
<g id="Mask group">
<mask id="mask0_10474_370" style="mask-type:alpha" maskUnits="userSpaceOnUse" x="0" y="0" width="32" height="32">
<circle id="Ellipse 1442" cx="16" cy="16" r="16" fill="#DDE1E5"/>
</mask>
<g mask="url(#mask0_10474_370)">
<path id="Union" d="M28.6353 35.3481C29.7714 35.3481 30.8809 35.3481 31.9905 35.3494C32.0703 35.3494 32.1526 35.357 32.2299 35.3798C32.4756 35.452 32.6466 35.6876 32.625 35.9067C32.5984 36.1663 32.3806 36.3766 32.1133 36.3981C32.0639 36.4019 32.0133 36.3981 31.9626 36.3981C21.5183 36.3981 11.0728 36.3981 0.628546 36.3981C0.553818 36.3981 0.476556 36.4007 0.404361 36.3829C0.143444 36.3196 -0.0478104 36.0713 -0.0250119 35.8396C0.00285302 35.5584 0.239705 35.3481 0.543685 35.3469C1.3961 35.3443 2.24851 35.3469 3.10219 35.3469C3.38337 35.3469 3.66329 35.3469 3.93434 35.3469C3.86594 35.1049 3.76461 34.8757 3.74435 34.6401C3.71395 34.2867 3.72662 33.9295 3.74435 33.5736C3.78614 32.7288 3.83807 31.8853 3.89 31.0405C3.96473 29.841 4.042 28.6403 4.11926 27.4408C4.15472 26.8848 4.16865 26.3262 4.23072 25.774C4.37891 24.4593 4.98054 23.3928 6.0356 22.5873C6.88801 21.9375 7.87468 21.6006 8.89935 21.3473C9.93668 21.0902 10.9588 20.7836 11.8961 20.2567C12.2089 20.0807 12.499 19.8552 12.7751 19.6222C13.0335 19.4043 13.1665 19.1118 13.1437 18.7571C13.1285 18.5266 13.1259 18.2923 13.1449 18.0618C13.1614 17.8629 13.0905 17.721 12.9588 17.5817C12.3495 16.937 11.9493 16.1758 11.7403 15.3145C11.7124 15.1993 11.6694 15.1245 11.5541 15.0637C10.9322 14.7344 10.6485 14.1784 10.5446 13.5071C10.4712 13.0334 10.5155 12.5736 10.6802 12.124C10.6979 12.0746 10.6992 12.0125 10.6916 11.9581C10.6384 11.5882 10.5497 11.2197 10.5332 10.8485C10.4978 10.081 10.4395 9.30965 10.6485 8.55223C10.8917 7.66942 11.4034 6.988 12.1646 6.48009C12.3584 6.3509 12.5332 6.18625 12.6902 6.01399C13.2906 5.3579 14.0544 5.03492 14.9106 4.91333C15.3551 4.85 15.806 4.80694 16.2544 4.8006C17.0334 4.7892 17.7996 4.8994 18.5355 5.17171C19.2436 5.43389 19.9731 5.53902 20.7255 5.51622C20.8445 5.51242 20.9648 5.52129 21.0826 5.50989C21.5285 5.46809 21.7223 5.69988 21.7527 6.12545C21.7818 6.53709 21.7121 6.93353 21.5437 7.31477C21.512 7.38697 21.5107 7.50096 21.5449 7.56936C21.9034 8.28625 22.0693 9.04746 22.0946 9.84415C22.1162 10.5281 22.0706 11.2057 21.9135 11.8758C21.8907 11.9707 21.9161 12.086 21.9465 12.1835C22.196 12.9827 22.1415 13.7503 21.7033 14.4735C21.5373 14.7484 21.2878 14.9371 21.0104 15.0929C20.9585 15.122 20.9015 15.1803 20.8889 15.2347C20.6672 16.1619 20.2353 16.9738 19.5754 17.6602C19.4855 17.754 19.4551 17.8515 19.4589 17.9782C19.4677 18.2416 19.4728 18.5051 19.4589 18.7685C19.4411 19.108 19.5767 19.3739 19.8047 19.607C20.21 20.0224 20.7115 20.2884 21.2321 20.5253C22.1668 20.9496 23.1548 21.2092 24.1452 21.4651C25.1053 21.7133 26.0008 22.1009 26.7645 22.7481C27.6448 23.4929 28.2009 24.4327 28.3326 25.5827C28.4314 26.4453 28.463 27.3167 28.5226 28.1843C28.5872 29.1279 28.6518 30.0703 28.7113 31.0139C28.7543 31.7079 28.7885 32.402 28.8291 33.0961C28.8493 33.4394 28.8734 33.7839 28.8962 34.1271C28.9253 34.5476 28.8303 34.9441 28.6378 35.3469L28.6353 35.3481ZM24.7646 35.3393C24.7646 35.2886 24.7633 35.2468 24.7646 35.2037C24.7963 34.5337 24.8292 33.8649 24.8596 33.1949C24.9039 32.2057 24.9457 31.2165 24.9901 30.2273C25.0192 29.5826 25.0509 28.9379 25.08 28.2932C25.1268 27.242 25.1737 26.1894 25.2155 25.1369C25.2256 24.895 25.1344 24.8101 24.8925 24.8101C19.1562 24.8101 13.4198 24.8101 7.68216 24.8101C7.44404 24.8101 7.34272 24.9266 7.35792 25.1597C7.38198 25.5346 7.39971 25.9095 7.41618 26.2857C7.48331 27.8069 7.54664 29.328 7.61377 30.8492C7.66063 31.9321 7.71003 33.0151 7.75942 34.098C7.77842 34.5096 7.80122 34.9213 7.82275 35.3367H24.7646V35.3393ZM6.78289 35.3114C6.77149 35.0505 6.75756 34.782 6.74616 34.5122C6.70562 33.5483 6.66636 32.5832 6.6233 31.6193C6.57897 30.6301 6.52957 29.6421 6.48271 28.6542C6.43458 27.646 6.38265 26.6391 6.34085 25.6309C6.32945 25.3573 6.30412 25.0723 6.35985 24.8089C6.5017 24.1464 7.01974 23.7614 7.70243 23.7614C13.4261 23.7614 19.1511 23.7614 24.8761 23.7614C24.9077 23.7614 24.9394 23.7614 24.9698 23.7614C25.6018 23.7804 26.1363 24.225 26.225 24.8443C26.263 25.1065 26.2376 25.3801 26.2275 25.6473C26.1996 26.4048 26.1654 27.1634 26.1313 27.9209C26.0781 29.0849 26.0198 30.2488 25.9666 31.4128C25.9311 32.1893 25.8982 32.9657 25.8665 33.7421C25.845 34.2715 25.826 34.8022 25.8045 35.3507C26.1718 35.3507 26.515 35.3507 26.8583 35.3507C27.4029 35.3481 27.8525 34.9035 27.8462 34.3576C27.8424 33.9815 27.8209 33.6066 27.7968 33.2317C27.7183 31.9815 27.6334 30.7327 27.5524 29.4826C27.4738 28.2641 27.4105 27.0444 27.318 25.8272C27.2585 25.0444 26.9216 24.3757 26.3795 23.8121C25.7677 23.1775 25.004 22.8039 24.1731 22.5556C23.4512 22.3403 22.7153 22.1668 21.9984 21.9362C21.184 21.6753 20.3949 21.3435 19.6742 20.8571C18.8572 22.0477 17.7275 22.6924 16.3013 22.6962C14.8688 22.7 13.7301 22.0591 12.9106 20.8774C12.6978 21.0002 12.5015 21.1231 12.2976 21.2308C11.2451 21.7817 10.1178 22.1199 8.97155 22.4061C8.0862 22.6265 7.24266 22.9356 6.52704 23.5271C5.70122 24.2098 5.29591 25.0964 5.23765 26.1552C5.20979 26.6619 5.18319 27.1672 5.15152 27.6739C5.09453 28.5934 5.03373 29.5117 4.97547 30.43C4.94507 30.9049 4.91467 31.3799 4.88807 31.8549C4.83994 32.687 4.78675 33.5192 4.75255 34.3513C4.73355 34.8124 5.03626 35.2354 5.49477 35.3025C5.90894 35.3633 6.33832 35.3152 6.78289 35.3152V35.3114ZM14.0366 9.69216C13.9657 9.82641 13.8796 9.99107 13.7922 10.1557C13.3045 11.0702 12.7029 11.8808 11.7656 12.3887C11.6985 12.4254 11.6402 12.5141 11.62 12.5914C11.5111 12.9815 11.5275 13.3729 11.677 13.749C11.7732 13.9922 11.9506 14.1607 12.2254 14.2113C12.4914 14.2595 12.6396 14.4368 12.6763 14.6977C12.8207 15.7072 13.2868 16.5406 14.0518 17.2055C14.4407 17.5437 14.8612 17.8591 15.3906 17.9148C15.8808 17.9655 16.3785 17.9731 16.8712 17.9528C17.1524 17.9414 17.4564 17.8895 17.7021 17.7628C18.9446 17.1245 19.6945 16.1087 19.9174 14.7192C19.9592 14.4609 20.0884 14.2683 20.3531 14.2177C20.6913 14.1518 20.8901 13.9416 20.9598 13.6287C21.018 13.3703 21.0332 13.098 21.0294 12.832C21.0282 12.7117 20.9648 12.5192 20.8787 12.485C20.4151 12.3001 20.1428 11.9416 19.911 11.5312C19.7274 11.2045 19.5501 10.8726 19.3424 10.5623C19.0561 10.1329 18.6318 9.93281 18.1201 9.96827C17.7477 9.99487 17.3804 10.0785 17.008 10.1203C16.3899 10.1899 15.7693 10.2267 15.1601 10.0696C14.7839 9.97207 14.4204 9.82515 14.0341 9.69596L14.0366 9.69216ZM20.7407 6.56369C20.614 6.56369 20.5583 6.56496 20.5038 6.56369C19.7591 6.53456 19.0219 6.45856 18.3177 6.19005C17.7895 5.98739 17.2386 5.86453 16.6749 5.85693C16.1569 5.84934 15.6351 5.87087 15.1221 5.9304C14.3495 6.02032 13.6807 6.32557 13.226 7.00066C13.1601 7.09819 13.0462 7.17418 12.941 7.23245C12.0557 7.72008 11.5845 8.4623 11.563 9.47684C11.5554 9.84668 11.5617 10.2165 11.5617 10.5864C11.5617 10.803 11.5617 11.0183 11.5617 11.2349L11.6352 11.2551C11.7669 11.1348 11.9075 11.0233 12.0304 10.8929C12.6244 10.2634 12.9968 9.5009 13.3311 8.71562C13.5123 8.29005 13.9049 8.18999 14.2481 8.49903C14.7016 8.90687 15.2437 9.0804 15.8364 9.12473C16.4976 9.17539 17.1436 9.05 17.7933 8.96134C18.7331 8.83341 19.5349 9.09686 20.1137 9.86821C20.3936 10.2406 20.6051 10.6636 20.8471 11.0639C20.88 11.1171 20.9116 11.1715 20.9446 11.2247C20.9623 11.2197 20.9788 11.2159 20.9965 11.2108C21.013 10.9701 21.0358 10.7295 21.0472 10.4888C21.094 9.50344 20.9762 8.55603 20.4303 7.69982C20.3012 7.49716 20.343 7.28564 20.4721 7.08172C20.5671 6.93227 20.6368 6.76761 20.7419 6.56369H20.7407ZM14.1937 18.6153C14.2152 19.1219 14.1088 19.6095 13.7871 20.03C13.7073 20.1352 13.7136 20.2099 13.7846 20.3087C14.5053 21.3181 15.4729 21.7767 16.7129 21.6183C17.6122 21.5043 18.2898 21.0332 18.799 20.2973C18.8686 20.1972 18.8686 20.1225 18.8003 20.011C18.6812 19.816 18.5634 19.6095 18.5013 19.3917C18.4279 19.1384 18.4152 18.8673 18.3797 18.6292C17.0017 19.1675 15.611 19.1738 14.1937 18.6153Z" fill="#3C3F41"/>
</g>
</g>
</g>
</g>
</svg>
