<svg xmlns="http://www.w3.org/2000/svg" width="24" height="18" viewBox="0 0 24 18" fill="none">
  <path fill-rule="evenodd" clip-rule="evenodd" d="M8.31545 0.0245781C8.24295 0.00785905 8.16743 -0.000976562 8.08984 -0.000976562C3.6077 -0.000976562 0.0898438 3.87071 0.0898438 8.49902C0.0898438 13.1273 3.6077 16.999 8.08984 16.999C8.12466 16.999 8.15906 16.9972 8.19297 16.9938C7.27462 16.3026 6.47271 15.465 5.82193 14.5157C3.65636 13.555 2.08984 11.2583 2.08984 8.49902C2.08984 5.69278 3.71019 3.36489 5.93311 2.4344C6.59276 1.509 7.39802 0.694581 8.31545 0.0245781Z" fill="#B0B7BC"/>
  <path fill-rule="evenodd" clip-rule="evenodd" d="M21.0899 8.5615C21.0861 12.1789 18.1525 15.1101 14.5343 15.1101C10.9138 15.1101 7.97876 12.1751 7.97876 8.55458C7.97876 4.93405 10.9138 1.99902 14.5343 1.99902C15.784 1.99902 16.952 2.3487 17.9458 2.95554L19.3911 1.51026C18.0114 0.557204 16.3381 -0.000976562 14.5343 -0.000976562C9.80921 -0.000976562 5.97876 3.82948 5.97876 8.55458C5.97876 13.2797 9.80921 17.1101 14.5343 17.1101C19.2594 17.1101 23.0899 13.2797 23.0899 8.55458C23.0899 7.93612 23.0242 7.333 22.8996 6.75178L21.0899 8.5615Z" fill="#B0B7BC"/>
  <path d="M22.2134 4.78522L15.2943 11.6555C15.067 11.8822 14.7748 11.999 14.4825 11.999C14.1903 11.999 13.8981 11.8822 13.6708 11.6555L10.4497 8.39229C9.98209 7.91826 9.9691 7.13508 10.4172 6.64044C10.8653 6.1458 11.6056 6.13206 12.0732 6.60609L14.4825 9.05181L20.5898 2.99902C21.0574 2.52499 21.7978 2.5456 22.2459 3.03337C22.694 3.52801 22.681 4.31119 22.2134 4.78522Z" fill="#B0B7BC"/>
</svg>