<svg xmlns="http://www.w3.org/2000/svg" width="31" height="18" viewBox="0 0 31 18" fill="none">
  <g>
    <path fill-rule="evenodd" clip-rule="evenodd" d="M8.22561 0.269207C8.1531 0.252488 8.07758 0.243652 8 0.243652C3.51786 0.243652 0 4.11533 0 8.74365C0 13.372 3.51786 17.2437 8 17.2437C8.03482 17.2437 8.06922 17.2419 8.10312 17.2384C7.18477 16.5472 6.38287 15.7097 5.73208 14.7604C3.56652 13.7997 2 11.5029 2 8.74365C2 5.93741 3.62034 3.60952 5.84327 2.67903C6.50292 1.75363 7.30818 0.93921 8.22561 0.269207Z" fill="#B0B7BC"/>
    <path fill-rule="evenodd" clip-rule="evenodd" d="M14.4445 15.3548C18.065 15.3548 21 12.4197 21 8.79921C21 5.17867 18.065 2.24365 14.4445 2.24365C10.8239 2.24365 7.88892 5.17867 7.88892 8.79921C7.88892 12.4197 10.8239 15.3548 14.4445 15.3548ZM14.4445 17.3548C19.1696 17.3548 23 13.5243 23 8.79921C23 4.07411 19.1696 0.243652 14.4445 0.243652C9.71937 0.243652 5.88892 4.07411 5.88892 8.79921C5.88892 13.5243 9.71937 17.3548 14.4445 17.3548Z" fill="#B0B7BC"/>
  </g>
  <g transform="translate(23)">
    <path d="M2.82964 3.42402L1.92964 4.32402C1.74631 4.50736 1.51714 4.59902 1.24214 4.59902C0.967139 4.59902 0.729639 4.49902 0.529639 4.29902C0.346305 4.11569 0.254639 3.88236 0.254639 3.59902C0.254639 3.31569 0.346305 3.08236 0.529639 2.89902L3.12964 0.299023C3.32964 0.0990234 3.56297 -0.000976562 3.82964 -0.000976562C4.09631 -0.000976562 4.32964 0.0990234 4.52964 0.299023L7.12964 2.89902C7.31297 3.08236 7.40881 3.31152 7.41714 3.58652C7.42547 3.86152 7.32964 4.09902 7.12964 4.29902C6.94631 4.48236 6.71297 4.57402 6.42964 4.57402C6.14631 4.57402 5.91297 4.48236 5.72964 4.29902L4.82964 3.42402V16.599C4.82964 16.8824 4.73381 17.1199 4.54214 17.3115C4.35047 17.5032 4.11297 17.599 3.82964 17.599C3.54631 17.599 3.30881 17.5032 3.11714 17.3115C2.92547 17.1199 2.82964 16.8824 2.82964 16.599V3.42402Z" fill="#B0B7BC"/>
  </g>
</svg>
