<svg xmlns="http://www.w3.org/2000/svg" width="17" height="14" viewBox="0 0 17 14" fill="none">
  <path fill-rule="evenodd" clip-rule="evenodd" d="M16.5038 0.457333C16.173 0.149333 15.7935 -1.05477e-07 15.3654 -1.42904e-07L6.60844 -9.08459e-07C6.18032 -9.45886e-07 5.80086 0.158667 5.47004 0.476C5.13922 0.793333 4.97381 1.15733 4.97381 1.568L4.97381 4.66667L6.60844 4.66667L6.60844 1.53067L15.3654 1.53067L15.3654 12.4693L6.60844 12.4693L6.60844 9.33333L4.97381 9.33333L4.97381 12.4693C4.97381 12.88 5.13922 13.2347 5.47004 13.5427C5.80086 13.8507 6.18032 14 6.60844 14L15.3654 14C15.7935 14 16.173 13.8507 16.5038 13.5427C16.8346 13.244 17 12.88 17 12.4693L17 1.568C17 1.12933 16.8346 0.765332 16.5038 0.457333ZM8.76972 7.66673L8.76971 10.0001L12.0001 6.9014L8.76972 3.80273L8.76972 6.13607L0.635499 6.13607L0.635499 7.66673L8.76972 7.66673Z" fill="#3C3F41"/>
</svg>